<?xml version="1.0" encoding="UTF-8" standalone="no"?>
<!-- Created with Inkscape (http://www.inkscape.org/) -->

<svg
   xmlns:dc="http://purl.org/dc/elements/1.1/"
   xmlns:cc="http://creativecommons.org/ns#"
   xmlns:rdf="http://www.w3.org/1999/02/22-rdf-syntax-ns#"
   xmlns:svg="http://www.w3.org/2000/svg"
   xmlns="http://www.w3.org/2000/svg"
   xmlns:sodipodi="http://sodipodi.sourceforge.net/DTD/sodipodi-0.dtd"
   xmlns:inkscape="http://www.inkscape.org/namespaces/inkscape"
   width="297mm"
   height="210mm"
   viewBox="0 0 1052.3622 744.09448"
   id="svg2"
   version="1.1"
   inkscape:version="0.91 r13725"
   sodipodi:docname="Curriculum.svg">
  <defs
     id="defs4" />
  <sodipodi:namedview
     id="base"
     pagecolor="#ffffff"
     bordercolor="#666666"
     borderopacity="1.0"
     inkscape:pageopacity="0.0"
     inkscape:pageshadow="2"
     inkscape:zoom="0.7"
     inkscape:cx="505.27222"
     inkscape:cy="348.57143"
     inkscape:document-units="px"
     inkscape:current-layer="layer1"
     showgrid="false"
     inkscape:window-width="1356"
     inkscape:window-height="723"
     inkscape:window-x="4"
     inkscape:window-y="1"
     inkscape:window-maximized="1" />
  <metadata
     id="metadata7">
    <rdf:RDF>
      <cc:Work
         rdf:about="">
        <dc:format>image/svg+xml</dc:format>
        <dc:type
           rdf:resource="http://purl.org/dc/dcmitype/StillImage" />
        <dc:title></dc:title>
      </cc:Work>
    </rdf:RDF>
  </metadata>
  <g
     inkscape:label="Layer 1"
     inkscape:groupmode="layer"
     id="layer1"
     transform="translate(0,-308.26772)">
    <path
       style="opacity:1;fill:#b62f37;fill-opacity:0.78285714;stroke:none;stroke-width:0.1;stroke-miterlimit:4;stroke-dasharray:none;stroke-opacity:1"
       id="path4136"
       d="m 138.81858,392.15854 c 0.66523,16.26722 3.5588,32.43406 5.88542,48.58231 1.12592,7.81455 2.20409,15.63357 3.30613,23.45035 4.34791,33.13249 6.19827,66.43745 7.88129,99.71368 0.65943,13.03824 1.48726,26.07403 1.7757,39.12115 0.64573,29.2083 -0.28341,50.67022 -1.07024,79.7687 -1.40462,36.77962 -4.44976,73.49223 -7.74177,110.18545 0,0 -14.03415,5.64388 -14.03415,5.64388 l 0,0 c 6.41734,-37.33426 11.62008,-74.81354 13.65572,-112.49787 0.49002,-13.08994 1.29774,-26.1746 1.47006,-39.26984 0.38975,-29.62081 -0.54658,-49.88582 -2.69283,-79.33326 -2.3856,-32.73144 -5.90282,-65.44075 -12.0317,-97.86452 -4.93876,-23.18469 -10.10268,-46.34626 -16.09311,-69.36959 0,0 19.68948,-8.13044 19.68948,-8.13044 z"
       inkscape:connector-curvature="0" />
    <path
       style="opacity:1;fill:#b62f37;fill-opacity:0.78285714;stroke:none;stroke-width:0.1;stroke-miterlimit:4;stroke-dasharray:none;stroke-opacity:1"
       id="path4136-7"
       d="m 381.89736,392.15854 c 0.66524,16.26722 3.5588,32.43406 5.88543,48.58231 1.12591,7.81455 2.20409,15.63357 3.30613,23.45035 4.34791,33.13249 6.19827,66.43745 7.88128,99.71368 0.65943,13.03824 1.48726,26.07403 1.77571,39.12115 0.64572,29.2083 -0.28341,50.67022 -1.07025,79.7687 -1.40461,36.77962 -4.44975,73.49223 -7.74176,110.18545 0,0 -14.03416,5.64388 -14.03416,5.64388 l 0,0 c 6.41735,-37.33426 11.62009,-74.81354 13.65573,-112.49787 0.49002,-13.08994 1.29774,-26.1746 1.47005,-39.26984 0.38976,-29.62081 -0.54657,-49.88582 -2.69282,-79.33326 -2.3856,-32.73144 -5.90282,-65.44075 -12.03171,-97.86452 -4.93875,-23.18469 -10.10268,-46.34626 -16.0931,-69.36959 0,0 19.68947,-8.13044 19.68947,-8.13044 z"
       inkscape:connector-curvature="0" />
    <path
       style="opacity:1;fill:#b62f37;fill-opacity:0.78285714;stroke:none;stroke-width:0.1;stroke-miterlimit:4;stroke-dasharray:none;stroke-opacity:1"
       id="path4136-2"
       d="m 624.97619,392.15854 c 0.66524,16.26722 3.5588,32.43406 5.88543,48.58231 1.12591,7.81455 2.20409,15.63357 3.30613,23.45035 4.34791,33.13249 6.19827,66.43745 7.88128,99.71368 0.65943,13.03824 1.48726,26.07403 1.7757,39.12115 0.64573,29.2083 -0.2834,50.67022 -1.07024,79.7687 -1.40461,36.77962 -4.44976,73.49223 -7.74176,110.18545 0,0 -14.03416,5.64388 -14.03416,5.64388 l 0,0 c 6.41734,-37.33426 11.62008,-74.81354 13.65573,-112.49787 0.49001,-13.08994 1.29774,-26.1746 1.47005,-39.26984 0.38975,-29.62081 -0.54657,-49.88582 -2.69282,-79.33326 -2.3856,-32.73144 -5.90283,-65.44075 -12.03171,-97.86452 -4.93875,-23.18469 -10.10268,-46.34626 -16.09311,-69.36959 0,0 19.68948,-8.13044 19.68948,-8.13044 z"
       inkscape:connector-curvature="0" />
    <path
       style="opacity:1;fill:#b62f37;fill-opacity:0.78285714;stroke:none;stroke-width:0.1;stroke-miterlimit:4;stroke-dasharray:none;stroke-opacity:1"
       id="path4136-5"
       d="m 868.05497,392.15855 c 0.66523,16.26722 3.5588,32.43406 5.88543,48.58231 1.12591,7.81454 2.20409,15.63357 3.30613,23.45035 4.3479,33.13248 6.19826,66.43745 7.88128,99.71367 0.65943,13.03825 1.48726,26.07404 1.7757,39.12115 0.64573,29.2083 -0.2834,50.67023 -1.07024,79.7687 -1.40462,36.77962 -4.44976,73.49224 -7.74177,110.18545 0,0 -14.03415,5.64388 -14.03415,5.64388 l 0,0 c 6.41734,-37.33426 11.62008,-74.81353 13.65573,-112.49787 0.49001,-13.08994 1.29773,-26.1746 1.47005,-39.26983 0.38975,-29.62081 -0.54658,-49.88582 -2.69283,-79.33326 -2.3856,-32.73144 -5.90282,-65.44076 -12.0317,-97.86452 -4.93875,-23.1847 -10.10268,-46.34626 -16.09311,-69.36959 0,0 19.68948,-8.13044 19.68948,-8.13044 z"
       inkscape:connector-curvature="0" />
    <ellipse
       style="opacity:1;fill:#4a31a0;fill-opacity:0.96078431;stroke:none;stroke-width:0.1;stroke-miterlimit:4;stroke-dasharray:none;stroke-opacity:1"
       id="path4192"
       cx="148.79381"
       cy="595.93365"
       rx="12.538766"
       ry="11.314336" />
    <ellipse
       style="opacity:1;fill:#3732b2;fill-opacity:0.81960784;stroke:none;stroke-width:0.1;stroke-miterlimit:4;stroke-dasharray:none;stroke-opacity:1"
       id="path4192-0"
       cx="388.50549"
       cy="517.99042"
       rx="12.538766"
       ry="11.314336" />
    <ellipse
       style="opacity:1;fill:#3732b2;fill-opacity:0.81960784;stroke:none;stroke-width:0.1;stroke-miterlimit:4;stroke-dasharray:none;stroke-opacity:1"
       id="path4192-06"
       cx="388.50549"
       cy="670.10535"
       rx="12.538766"
       ry="11.314336" />
    <ellipse
       style="opacity:1;fill:#3732b2;fill-opacity:0.81960784;stroke:none;stroke-width:0.1;stroke-miterlimit:4;stroke-dasharray:none;stroke-opacity:1"
       id="path4192-2"
       cx="627.47968"
       cy="437.53293"
       rx="12.538766"
       ry="11.314336" />
    <ellipse
       style="opacity:1;fill:#3732b2;fill-opacity:0.81960784;stroke:none;stroke-width:0.1;stroke-miterlimit:4;stroke-dasharray:none;stroke-opacity:1"
       id="path4192-05"
       cx="627.47968"
       cy="539.78107"
       rx="12.538766"
       ry="11.314336" />
    <ellipse
       style="opacity:1;fill:#3732b2;fill-opacity:0.81960784;stroke:none;stroke-width:0.1;stroke-miterlimit:4;stroke-dasharray:none;stroke-opacity:1"
       id="path4192-8"
       cx="627.47968"
       cy="642.02905"
       rx="12.538766"
       ry="11.314336" />
    <ellipse
       style="opacity:1;fill:#3732b2;fill-opacity:0.81960784;stroke:none;stroke-width:0.1;stroke-miterlimit:4;stroke-dasharray:none;stroke-opacity:1"
       id="path4192-1"
       cx="627.47968"
       cy="744.27716"
       rx="12.538766"
       ry="11.314336" />
    <ellipse
       style="opacity:1;fill:#3833b2;fill-opacity:0.81714286;stroke:none;stroke-width:0.1;stroke-miterlimit:4;stroke-dasharray:none;stroke-opacity:1"
       id="path4192-4"
       cx="875.30463"
       cy="436.27579"
       rx="12.538766"
       ry="11.314336" />
    <ellipse
       style="opacity:1;fill:#3833b2;fill-opacity:0.81714286;stroke:none;stroke-width:0.1;stroke-miterlimit:4;stroke-dasharray:none;stroke-opacity:1"
       id="path4192-82"
       cx="875.30463"
       cy="527.86804"
       rx="12.538766"
       ry="11.314336" />
    <ellipse
       style="opacity:1;fill:#3833b2;fill-opacity:0.81714286;stroke:none;stroke-width:0.1;stroke-miterlimit:4;stroke-dasharray:none;stroke-opacity:1"
       id="path4192-23"
       cx="875.30463"
       cy="619.46027"
       rx="12.538766"
       ry="11.314336" />
    <ellipse
       style="opacity:1;fill:#3833b2;fill-opacity:0.81714286;stroke:none;stroke-width:0.1;stroke-miterlimit:4;stroke-dasharray:none;stroke-opacity:1"
       id="path4192-6"
       cx="875.30463"
       cy="665.25641"
       rx="12.538766"
       ry="11.314336" />
    <ellipse
       style="opacity:1;fill:#3833b2;fill-opacity:0.81714286;stroke:none;stroke-width:0.1;stroke-miterlimit:4;stroke-dasharray:none;stroke-opacity:1"
       id="path4192-3"
       cx="875.30463"
       cy="711.05255"
       rx="12.538766"
       ry="11.314336" />
    <ellipse
       style="opacity:1;fill:#3833b2;fill-opacity:0.81714286;stroke:none;stroke-width:0.1;stroke-miterlimit:4;stroke-dasharray:none;stroke-opacity:1"
       id="path4192-41"
       cx="875.30463"
       cy="756.84863"
       rx="12.538766"
       ry="11.314336" />
    <ellipse
       style="opacity:1;fill:#3833b2;fill-opacity:0.81714286;stroke:none;stroke-width:0.1;stroke-miterlimit:4;stroke-dasharray:none;stroke-opacity:1"
       id="path4192-67"
       cx="875.30463"
       cy="573.66418"
       rx="12.538766"
       ry="11.314336" />
    <ellipse
       style="opacity:1;fill:#3833b2;fill-opacity:0.81714286;stroke:none;stroke-width:0.1;stroke-miterlimit:4;stroke-dasharray:none;stroke-opacity:1"
       id="path4192-26"
       cx="875.30463"
       cy="482.07196"
       rx="12.538766"
       ry="11.314336" />
    <path
       style="opacity:1;fill:#3fb7d9;fill-opacity:0.42285713;stroke:none;stroke-width:0.1;stroke-miterlimit:4;stroke-dasharray:none;stroke-opacity:1"
       id="path4289"
       d="m 410.88422,588.01037 c 32.06658,1.43456 64.18168,1.61034 96.2793,2.00964 55.14415,1.19804 110.30911,0.67025 165.46066,1.09452 39.84547,0.30652 47.11578,0.67102 86.31938,1.69248 37.3089,1.16539 74.60739,2.57051 111.91097,3.85903 0,0 -10.78155,6.86381 -10.78155,6.86381 l 0,0 c -35.51246,-2.99537 -71.07243,-5.57444 -106.70559,-7.1495 -13.76326,-0.49036 -27.52102,-1.12273 -41.28976,-1.4711 -36.99039,-0.93591 -52.28719,-0.7148 -89.43475,-0.60692 -41.22649,0.11972 -82.45482,0.30574 -123.67496,1.00808 -34.17321,0.40935 -68.35931,0.63353 -102.50574,2.00963 0,0 14.42204,-9.30967 14.42204,-9.30967 z"
       inkscape:connector-curvature="0" />
    <path
       style="opacity:1;fill:#3fb7d9;fill-opacity:0.42285713;stroke:none;stroke-width:0.1;stroke-miterlimit:4;stroke-dasharray:none;stroke-opacity:1"
       id="path4289-7"
       d="m 172.23883,370.68722 c 49.81545,2.36422 99.70627,2.6539 149.56996,3.31196 85.66647,1.97443 171.36528,1.1046 257.04325,1.80381 61.89997,0.50516 73.1944,1.10587 134.09722,2.78926 57.95941,1.92062 115.90264,4.23631 173.85377,6.35982 0,0 -16.74913,11.31182 -16.74913,11.31182 l 0,0 c -55.16864,-4.93648 -110.41107,-9.18689 -165.76723,-11.78264 -21.38121,-0.80814 -42.75392,-1.85031 -64.14366,-2.42442 -57.4646,-1.54242 -81.22818,-1.17802 -138.93695,-1.00023 -64.04538,0.1973 -128.09362,0.50387 -192.12915,1.66135 -53.0881,0.67462 -106.19623,1.04408 -159.24273,3.31193 0,0 22.40465,-15.34266 22.40465,-15.34266 z"
       inkscape:connector-curvature="0" />
    <path
       style="opacity:1;fill:#3fb7d9;fill-opacity:0.42285713;stroke:none;stroke-width:0.1;stroke-miterlimit:4;stroke-dasharray:none;stroke-opacity:1"
       id="path4289-4"
       d="m 629.93574,488.85917 c 17.90736,2.13181 35.84182,2.393 53.76651,2.98638 30.79488,1.78033 61.60138,0.99601 92.40039,1.62649 22.25143,0.4555 26.31149,0.99715 48.20447,2.51506 20.83491,1.73182 41.664,3.81986 62.49593,5.73463 0,0 -6.02088,10.19981 -6.02088,10.19981 l 0,0 c -19.83169,-4.4512 -39.68992,-8.28377 -59.58902,-10.62435 -7.68599,-0.72869 -15.36893,-1.66841 -23.05798,-2.1861 -20.65704,-1.39078 -29.19943,-1.06221 -49.94424,-0.9019 -23.02266,0.17791 -46.04633,0.45434 -69.06545,1.49803 -19.08379,0.60831 -38.17479,0.94145 -57.24363,2.98637 0,0 8.0539,-13.83442 8.0539,-13.83442 z"
       inkscape:connector-curvature="0" />
    <path
       style="opacity:1;fill:#3fb7d9;fill-opacity:0.42285713;stroke:none;stroke-width:0.1;stroke-miterlimit:4;stroke-dasharray:none;stroke-opacity:1"
       id="path4289-4-2"
       d="m 631.41089,677.43143 c 17.90736,2.13181 35.84181,2.393 53.76651,2.98638 30.79487,1.78033 61.60138,0.99602 92.40038,1.62649 22.25144,0.4555 26.31149,0.99715 48.20448,2.51506 20.83491,1.73182 41.664,3.81986 62.49592,5.73463 0,0 -6.02087,10.19982 -6.02087,10.19982 l 0,0 c -19.83169,-4.45121 -39.68992,-8.28378 -59.58902,-10.62436 -7.686,-0.72869 -15.36893,-1.66841 -23.05798,-2.1861 -20.65705,-1.39078 -29.19943,-1.06221 -49.94424,-0.9019 -23.02266,0.17791 -46.04634,0.45434 -69.06545,1.49803 -19.0838,0.60832 -38.17479,0.94145 -57.24363,2.98637 0,0 8.0539,-13.83442 8.0539,-13.83442 z"
       inkscape:connector-curvature="0" />
    <path
       style="opacity:1;fill:#3fb7d9;fill-opacity:0.42285713;stroke:none;stroke-width:0.1;stroke-miterlimit:4;stroke-dasharray:none;stroke-opacity:1"
       id="path4289-7-5"
       d="m 153.06189,795.60339 c 49.81545,2.36422 99.70627,2.65389 149.56996,3.31195 85.66647,1.97443 171.36528,1.10461 257.04325,1.80382 61.89997,0.50515 73.1944,1.10586 134.09722,2.78926 57.95941,1.92062 115.90264,4.23631 173.85377,6.35982 0,0 -16.74913,11.31182 -16.74913,11.31182 l 0,0 c -55.16864,-4.93648 -110.41107,-9.18689 -165.76723,-11.78264 -21.38121,-0.80814 -42.75392,-1.85031 -64.14366,-2.42443 -57.4646,-1.54241 -81.22818,-1.17801 -138.93695,-1.00023 -64.04538,0.19731 -128.09362,0.50388 -192.12915,1.66135 -53.0881,0.67463 -106.19623,1.04408 -159.24273,3.31194 0,0 22.40465,-15.34266 22.40465,-15.34266 z"
       inkscape:connector-curvature="0" />
    <path
       style="opacity:1;fill:#a31d79;fill-opacity:0.82285713;stroke:none;stroke-width:0.1;stroke-miterlimit:4;stroke-dasharray:none;stroke-opacity:1"
       id="path4356"
       d="m 61.132465,837.19423 c 5.168511,17.05116 12.901951,33.12504 20.975257,48.95026 12.909041,23.54117 27.168808,46.53268 44.212468,67.33997 2.90014,3.54056 6.00682,6.90679 9.01023,10.36019 6.03753,5.86012 12.7165,14.37126 21.41539,16.60477 1.7874,0.45893 3.72169,0.45102 5.53506,0.10881 1.76867,-0.33378 6.53615,-2.99312 4.97766,-2.09272 -3.81703,2.20524 -7.85015,4.01328 -11.77523,6.01993 1.83606,-1.72216 3.80887,-3.30925 5.50817,-5.16648 9.96033,-10.88603 18.18825,-25.67831 23.82414,-39.21686 1.75569,-4.21755 3.13874,-8.58074 4.70812,-12.87111 4.33422,-13.27266 7.17036,-26.9964 8.41243,-40.90583 1.13763,-12.73981 0.73065,-25.52574 0.33299,-38.28286 -0.37335,-8.64186 -1.02922,-17.26556 -1.52053,-25.90062 0,0 17.34963,-8.89605 17.34963,-8.89605 l 0,0 c -0.0436,8.84122 0.1691,17.67322 0.34863,26.51292 0.1161,12.91051 0.41152,25.88981 -0.72369,38.77054 -1.23311,13.99149 -3.94827,27.82496 -8.18147,41.21886 -1.49371,4.31329 -2.80457,8.6943 -4.48112,12.93987 -5.18995,13.1426 -13.12681,28.2464 -22.15873,39.22254 -1.56926,1.90706 -3.41192,3.57165 -5.11789,5.35748 -0.79675,0.48056 -19.40759,14.48886 -27.70046,14.82756 -10.64065,0.4345 -19.72073,-12.37651 -25.90325,-19.15155 -19.75419,-24.59736 -37.810752,-50.5718 -53.317651,-78.07182 -8.551246,-15.57029 -16.731884,-31.30204 -24.11265,-47.46489 0,0 18.382496,-10.21291 18.382496,-10.21291 z"
       inkscape:connector-curvature="0" />
    <path
       style="opacity:1;fill:#a31d79;fill-opacity:0.82285713;stroke:none;stroke-width:0.1;stroke-miterlimit:4;stroke-dasharray:none;stroke-opacity:1"
       id="path4358"
       d="m 299.50117,827.20779 c 1.03548,8.68322 2.04656,17.42193 4.13303,25.93177 0.8242,3.36154 1.86336,6.66669 2.79504,10.00004 7.82462,23.8489 17.66848,47.03131 28.79683,69.51725 3.21412,4.50622 5.29936,11.88397 9.70891,15.58554 0.53838,0.45194 1.29383,0.87768 1.98005,0.7254 0.65946,-0.14634 2.00045,-1.76523 1.3912,-1.4735 -5.31589,2.54544 -10.41311,5.5244 -15.61966,8.2866 0.90073,-1.04189 1.85614,-2.03891 2.7022,-3.12566 1.70318,-2.1877 4.26491,-6.12365 5.78721,-8.39247 3.0412,-4.53254 6.13812,-9.01727 9.29486,-13.46993 7.47712,-9.30299 21.39428,-22.17835 32.83895,-21.68604 1.09466,0.0471 2.15135,0.41678 3.22702,0.62516 0.97472,0.46302 2.00083,0.83055 2.92415,1.38906 4.21781,2.55137 9.04424,7.91234 12.69554,11.3723 4.71441,4.46061 10.35236,7.72013 16.46767,9.81295 -0.42894,2.03531 5.31911,-1.9294 4.05883,-1.27845 -5.14734,2.65866 -9.93744,6.07147 -15.32965,8.18986 -1.18018,0.46365 1.63095,-1.95823 2.26403,-3.05687 2.19978,-3.81745 2.52712,-6.10872 3.78671,-10.48008 3.53231,-17.75141 3.68902,-35.96161 3.87127,-53.99622 0.051,-7.31142 -0.0931,-14.62107 -0.26883,-21.92967 0,0 17.58884,-8.9597 17.58884,-8.9597 l 0,0 c -0.18951,7.44932 -0.35855,14.89907 -0.49569,22.34957 -0.37244,18.01997 -0.37128,36.1431 -2.92865,54.01839 -1.02319,4.96319 -1.01618,6.37168 -2.91636,10.78161 -4.06903,9.44336 -9.34937,8.76588 -21.87817,15.89051 -0.79992,0.45488 -1.78628,0.53474 -2.70645,0.54432 -0.7767,0.008 -1.51841,-0.3283 -2.27761,-0.49245 -6.09597,-2.58911 -11.75724,-6.11558 -16.58985,-10.67737 -8.07372,-7.42895 2.33794,2.1424 -5.43077,-4.97193 -2.16864,-1.98597 -4.38875,-4.33143 -7.05343,-5.67683 -0.82064,-0.41434 -1.72986,-0.623 -2.59478,-0.9345 -0.93835,-0.0469 -1.88211,-0.25196 -2.81504,-0.14082 -4.84873,0.57758 -22.72255,11.00112 11.44567,-7.70892 1.16211,-0.63636 -2.16562,1.53387 -3.16984,2.39815 -2.69469,2.31916 -3.97906,3.97528 -6.34609,6.66395 -6.00602,8.15907 -11.41924,16.69955 -17.09377,25.08271 -6.62973,4.14177 -13.04902,8.64118 -19.88918,12.42533 -1.65679,0.91657 -3.55468,-0.71515 -4.40489,-1.78478 -3.89448,-4.89951 -5.28268,-11.44392 -8.41177,-16.75033 -10.03067,-23.07674 -19.88838,-46.25058 -28.90895,-69.74141 -1.11504,-3.28265 -2.32505,-6.53456 -3.34511,-9.84796 -2.54325,-8.26108 -3.85963,-16.79911 -5.94404,-25.17056 0,0 18.66057,-9.84402 18.66057,-9.84402 z"
       inkscape:connector-curvature="0" />
    <path
       style="opacity:1;fill:#a31d79;fill-opacity:0.82285713;stroke:none;stroke-width:0.1;stroke-miterlimit:4;stroke-dasharray:none;stroke-opacity:1"
       id="path4360"
       d="m 560.80841,846.09285 c -0.47727,13.73294 3.07903,27.15925 6.54654,40.31905 4.86075,19.31986 12.50208,37.66624 22.12146,55.06407 2.73048,3.71103 5.39942,8.8666 9.36282,11.55919 0.67267,0.45698 1.48779,0.80659 2.30099,0.8107 0.69627,0.004 2.5426,-1.12753 1.93397,-0.78933 -5.13134,2.85141 -10.34243,5.5569 -15.51365,8.33534 0.87124,-0.86687 1.85029,-1.63744 2.61371,-2.60061 4.74726,-5.98943 7.51538,-15.11722 10.13348,-22.25927 2.03667,-5.18213 4.05366,-10.58701 7.9759,-14.68087 1.7577,-1.83461 3.29212,-2.82803 5.31129,-4.30369 4.63761,11.9193 15.48379,-15.15553 24.0172,-11.99812 2.28888,0.8469 3.85271,3.0586 5.35971,4.82802 4.38688,5.25523 7.55646,11.37866 11.20324,17.14356 2.76406,3.71207 8.24816,12.17026 12.97675,13.4079 0.58791,0.15388 1.2152,-0.0228 1.8228,-0.0342 7.13497,-5.00495 -4.32214,3.12725 -13.71935,7.11868 -1.31687,0.55934 2.0494,-1.99786 3.03729,-3.03278 3.55347,-3.72268 6.74529,-7.73499 9.98048,-11.73076 3.53018,-5.14813 8.96065,-10.26931 9.33072,-16.8463 -0.16098,-0.71423 -0.22999,-1.45562 -0.48294,-2.14269 -1.59261,-4.32593 -5.59444,-9.19631 -8.3306,-12.90746 -2.93794,-3.69691 -5.46983,-7.55071 -7.48217,-11.8214 -1.84372,-5.63242 -4.87359,-12.09652 -3.28518,-18.16751 0.3461,-1.32283 1.09782,-2.50469 1.64672,-3.75703 0.87466,-1.04499 1.63249,-2.2001 2.62396,-3.13499 1.00042,-0.94333 2.12123,-1.77097 3.31063,-2.46093 14.84333,-8.61045 17.56298,-12.27254 30.95398,-13.32353 5.61861,-0.0179 10.71138,1.81488 15.63368,4.34817 0.6774,0.34789 3.55363,1.91864 4.50524,2.08776 0.43712,0.0777 1.69834,-0.44925 1.31172,-0.231 -5.86635,3.14173 -11.73271,6.28346 -17.59906,9.42519 0.18166,-0.19191 0.48818,-0.31764 0.545,-0.57572 0.10936,-0.49674 -0.0552,-1.01578 -0.0828,-1.52367 -1.30604,-4.97808 -4.04865,-9.52359 -6.9615,-13.7269 -0.41386,-0.60299 -0.82771,-1.20598 -1.24157,-1.80897 0,0 17.97762,-10.52158 17.97762,-10.52158 l 0,0 c 0.38827,0.6141 0.77655,1.22819 1.16483,1.84228 2.92138,4.55831 5.75713,9.28178 7.55397,14.40635 0.0272,0.10921 1.05255,3.76213 0.67174,4.01595 -16.29229,10.85904 -14.53932,13.67111 -25.07569,7.9546 -4.72889,-2.25709 -9.70385,-3.65252 -14.99757,-3.40093 -2.28919,0.24521 -3.54214,0.29939 -5.82643,0.89867 -1.14658,0.30081 -4.3555,1.77211 -3.38407,1.09281 4.40107,-3.07755 9.19653,-5.5488 13.7736,-8.35792 1.13814,-0.69851 -2.3809,1.23403 -3.45627,2.02579 -1.03164,0.75956 -1.88588,1.73447 -2.82882,2.60171 -0.64129,1.03574 -1.48544,1.97066 -1.92388,3.10722 -2.12771,5.51569 1.16146,11.83898 2.93551,16.95794 2.16759,4.00884 4.72198,7.77512 7.19396,11.6003 3.64121,5.04145 7.89687,10.02055 9.72246,16.04731 0.0299,0.813 0.17634,1.63008 0.0897,2.439 -0.58106,5.42339 -6.71279,11.6743 -9.62305,16.01572 -9.08036,11.40637 -18.80706,25.43183 -34.75674,27.47688 -0.70871,-0.23272 -1.46427,-0.35409 -2.12612,-0.69815 -1.80407,-0.93784 -3.32118,-2.56358 -4.68343,-4.00091 -3.07817,-3.24785 -5.80245,-6.78919 -8.40015,-10.42776 -3.76567,-5.57057 -6.97411,-11.57977 -11.42982,-16.63647 -0.80107,-0.82971 -2.04441,-2.2907 -3.15429,-2.87395 -0.4363,-0.22927 -0.932,-0.38221 -1.42469,-0.39569 -4.82007,-0.13188 -26.099,17.26416 12.04116,-7.81641 -2.93263,1.91147 -6.0948,3.79469 -8.31157,6.5813 -2.65834,3.34168 -4.18465,7.5797 -5.87439,11.43027 -2.72852,7.42573 -5.43056,16.03492 -9.54344,22.78626 -0.65082,1.06834 -1.47258,2.02266 -2.20887,3.03399 -6.79448,3.87202 -13.37446,8.14738 -20.38344,11.61606 -4.59079,2.27193 -12.26852,-11.98016 -13.6828,-14.41289 -5.56054,-11.23824 -10.80628,-22.72195 -14.95768,-34.56701 -1.22376,-3.49171 -2.26026,-7.04628 -3.37459,-10.57444 -1.11798,-3.53971 -2.21486,-7.08604 -3.32229,-10.62907 -3.95796,-12.98544 -7.68345,-26.08297 -8.99458,-39.64859 0,0 18.75967,-9.55853 18.75967,-9.55853 z"
       inkscape:connector-curvature="0" />
    <path
       style="opacity:1;fill:#a31d79;fill-opacity:0.82285713;stroke:none;stroke-width:0.1;stroke-miterlimit:4;stroke-dasharray:none;stroke-opacity:1"
       id="path4362"
       d="m 813.7602,850.12254 c 0.57735,0.20354 1.2205,0.27437 1.73206,0.61063 10.06655,6.61695 4.3848,22.54651 2.17379,31.33059 -7.06853,22.14406 -16.0947,43.99054 -19.50121,67.13195 -0.42992,2.92054 -0.51343,5.88165 -0.77015,8.82248 0.18601,1.1186 -0.30928,7.71266 3.70402,6.726 2.01826,-0.49619 7.13619,-2.13662 5.35087,-3.20064 -1.99975,-1.19182 -8.03553,4.2708 -6.51951,2.50414 3.72521,-4.34108 8.9467,-7.13154 13.48199,-10.61771 5.5812,-4.29013 11.24385,-8.47324 16.86577,-12.70987 35.00697,-24.74747 71.14549,-48.41514 109.43413,-67.81807 1.98557,-0.61991 3.87993,-1.74254 5.95672,-1.85972 3.97903,-0.22452 3.78147,3.36703 2.86961,6.04884 -0.72565,2.13415 -2.13841,3.97847 -3.41006,5.83966 -3.60952,5.28287 -9.47964,12.02304 -13.43471,16.75755 -15.48156,17.9548 -32.61222,34.40718 -47.84853,52.57258 -1.34508,2.02562 -4.49408,5.36772 -3.90226,8.47201 0.51114,2.68109 4.61218,3.61744 6.39323,3.99238 6.16031,1.29686 10.91873,0.89887 17.29019,0.8918 10.20237,-0.83721 20.44865,-2.56901 29.88898,-6.71119 2.36231,-1.03652 9.20991,-4.60967 6.7927,-3.70854 -13.24578,4.93799 -14.16158,10.63456 -11.16312,1.93324 -0.46158,-1.37779 -0.62825,-2.89276 -1.38474,-4.13336 -2.0163,-3.3066 -6.61802,-7.16169 -9.51602,-9.41349 -5.84559,-4.54214 -12.22156,-8.50047 -18.28093,-12.75256 -5.61631,-4.35136 -11.88798,-9.01379 -13.4792,-16.41772 -0.92257,-4.29273 -0.14217,-5.63498 0.77268,-9.86941 0.97438,-1.84011 1.74723,-3.802 2.92314,-5.52033 4.91897,-7.18799 12.03166,-13.11266 18.49315,-18.81949 18.23028,-16.10108 -2.33394,2.41776 15.67184,-13.88581 11.84361,-10.56125 21.78716,-22.91997 30.50461,-36.11995 3.27083,-5.09335 1.69545,-2.69538 4.71136,-7.20361 0,0 18.66832,-8.10983 18.66832,-8.10983 l 0,0 c -3.38858,4.57412 -1.64212,2.12454 -5.20682,7.37182 -9.18927,13.40742 -19.30725,26.18172 -31.49035,37.03768 -14.42415,13.1754 -0.98785,1.00798 -15.46196,13.8117 -6.19677,5.48163 -12.88167,11.11884 -17.81978,17.83911 -1.12569,1.53195 -1.9282,3.27694 -2.8923,4.91541 -1.01057,3.66253 -1.82425,4.98493 -1.20069,8.78521 1.14824,6.99788 7.21324,11.51245 12.28741,15.71305 6.00324,4.41287 12.32223,8.43747 18.24749,12.94741 2.91685,2.22013 8.50184,6.74332 10.61519,9.9581 1.02634,1.56125 1.36492,3.47858 2.04738,5.21787 -3.10485,12.9194 -0.0363,5.17557 -22.15342,18.8292 -10.87178,6.71148 -24.33709,7.85084 -36.66954,9.2914 -6.80247,0.10182 -18.40981,1.40156 -24.40822,-3.18585 -5.38547,-4.11866 -0.77128,-10.03284 2.08214,-13.69099 15.79372,-18.04011 33.31201,-34.49939 48.71863,-52.89416 4.65471,-5.82787 8.10749,-9.86817 12.18538,-15.90488 1.07719,-1.59463 1.98346,-3.29833 2.98849,-4.9394 0.4348,-0.70997 1.3822,-1.28254 1.33086,-2.11349 -0.13065,-2.11465 -9.767,1.46033 -6.3174,0.69976 -2.82016,1.36683 -5.55227,2.93266 -8.46049,4.10047 -0.73302,0.29435 2.55993,-1.8407 1.87092,-1.4544 -25.50119,14.2976 -49.91811,30.49299 -73.57061,47.65072 -5.28716,4.08528 -10.64476,8.08099 -15.86149,12.25584 -4.15312,3.32366 -7.8815,7.19039 -12.24293,10.23557 -8.32991,5.81599 -16.87697,11.35841 -25.75604,16.29552 -2.19331,1.21957 -4.744,2.28046 -7.24327,2.05339 -4.37092,-0.39711 -3.32523,-7.52906 -3.42035,-9.29334 0.44495,-3.0985 0.73999,-6.22226 1.33487,-9.2955 4.41866,-22.82751 13.05329,-44.73442 19.29642,-67.07612 0.75999,-3.45885 1.78806,-6.86953 2.27998,-10.37656 0.64747,-4.61602 1.38466,-15.01438 -5.03632,-16.8952 -0.4611,-0.13507 -0.96019,0.0381 -1.44028,0.0571 0,0 16.89838,-12.70899 16.89838,-12.70899 z"
       inkscape:connector-curvature="0" />
    <text
       xml:space="preserve"
       style="font-style:normal;font-weight:normal;font-size:25px;line-height:125%;font-family:sans-serif;letter-spacing:0px;word-spacing:0px;fill:#000000;fill-opacity:1;stroke:none;stroke-width:1px;stroke-linecap:butt;stroke-linejoin:miter;stroke-opacity:1"
       x="137.14285"
       y="848.0932"
       id="text4364"
       sodipodi:linespacing="125%"><tspan
         sodipodi:role="line"
         id="tspan4366"
         x="137.14285"
         y="848.0932">L1</tspan></text>
    <text
       xml:space="preserve"
       style="font-style:normal;font-weight:normal;font-size:25px;line-height:125%;font-family:sans-serif;letter-spacing:0px;word-spacing:0px;fill:#000000;fill-opacity:1;stroke:none;stroke-width:1px;stroke-linecap:butt;stroke-linejoin:miter;stroke-opacity:1"
       x="367.14285"
       y="848.0932"
       id="text4368"
       sodipodi:linespacing="125%"><tspan
         sodipodi:role="line"
         id="tspan4370"
         x="367.14285"
         y="848.0932">L2</tspan></text>
    <text
       xml:space="preserve"
       style="font-style:normal;font-weight:normal;font-size:25px;line-height:125%;font-family:sans-serif;letter-spacing:0px;word-spacing:0px;fill:#000000;fill-opacity:1;stroke:none;stroke-width:1px;stroke-linecap:butt;stroke-linejoin:miter;stroke-opacity:1"
       x="615.71429"
       y="847.7392"
       id="text4372"
       sodipodi:linespacing="125%"><tspan
         sodipodi:role="line"
         id="tspan4374"
         x="615.71429"
         y="847.7392">L3</tspan></text>
    <text
       xml:space="preserve"
       style="font-style:normal;font-weight:normal;font-size:25px;line-height:125%;font-family:sans-serif;letter-spacing:0px;word-spacing:0px;fill:#000000;fill-opacity:1;stroke:none;stroke-width:1px;stroke-linecap:butt;stroke-linejoin:miter;stroke-opacity:1"
       x="864.28571"
       y="848.0932"
       id="text4376"
       sodipodi:linespacing="125%"><tspan
         sodipodi:role="line"
         id="tspan4378"
         x="864.28571"
         y="848.0932">L4</tspan></text>
  </g>
</svg>
