<?xml version="1.0" encoding="UTF-8" standalone="no"?>
<!-- Created with Inkscape (http://www.inkscape.org/) -->

<svg
   xmlns:dc="http://purl.org/dc/elements/1.1/"
   xmlns:cc="http://creativecommons.org/ns#"
   xmlns:rdf="http://www.w3.org/1999/02/22-rdf-syntax-ns#"
   xmlns:svg="http://www.w3.org/2000/svg"
   xmlns="http://www.w3.org/2000/svg"
   xmlns:sodipodi="http://sodipodi.sourceforge.net/DTD/sodipodi-0.dtd"
   xmlns:inkscape="http://www.inkscape.org/namespaces/inkscape"
   version="1.1"
   id="svg2"
   xml:space="preserve"
   width="678.73291"
   height="279.06534"
   viewBox="0 0 678.73291 279.06534"
   sodipodi:docname="ac_center_of_gravity.svg"
   inkscape:version="0.92.2 (5c3e80d, 2017-08-06)"><metadata
     id="metadata8"><rdf:RDF><cc:Work
         rdf:about=""><dc:format>image/svg+xml</dc:format><dc:type
           rdf:resource="http://purl.org/dc/dcmitype/StillImage" /><dc:title></dc:title></cc:Work></rdf:RDF></metadata><defs
     id="defs6"><clipPath
       clipPathUnits="userSpaceOnUse"
       id="clipPath206"><path
         d="m 600,6000 v 0 0 z"
         id="path204"
         inkscape:connector-curvature="0" /></clipPath></defs><sodipodi:namedview
     pagecolor="#ffffff"
     bordercolor="#666666"
     borderopacity="1"
     objecttolerance="10"
     gridtolerance="10"
     guidetolerance="10"
     inkscape:pageopacity="0"
     inkscape:pageshadow="2"
     inkscape:window-width="3440"
     inkscape:window-height="1346"
     id="namedview4"
     showgrid="false"
     inkscape:zoom="2.2002904"
     inkscape:cx="348.80232"
     inkscape:cy="139.22918"
     inkscape:window-x="-11"
     inkscape:window-y="-11"
     inkscape:window-maximized="1"
     inkscape:current-layer="g10" /><g
     id="g10"
     inkscape:groupmode="layer"
     inkscape:label="ac_center_of_gravity"
     transform="matrix(1.3333333,0,0,-1.3333333,-62.905733,679.30267)"><g
       id="g12"
       transform="scale(0.12)"><path
         d="m 4252.17,3567.84 255.01,581.22 c 52.62,9.82 94.91,28.52 117.54,51.13 3.44,2.96 1.97,4.92 0.5,7.39 -10.33,8.35 -26.07,12.3 -79.68,16.22 l -130.83,-0.49 -130.83,-0.49 c -5.9,4.91 -10.32,8.37 -14.75,10.33 -4.42,1.47 -8.86,2.96 -19.19,3.93 -6.39,1.48 -20.65,1.48 -28.51,-0.97 -9.85,-3.95 -13.29,-8.38 -16.73,-12.8 -34.91,2.46 -221.33,-6.88 -270.51,-28.51 -8.36,-8.37 -8.85,-17.72 0,-27.05 7.87,-5.41 14.75,-8.87 25.08,-10.34 16.24,-2.96 29.52,-5.41 45.25,-12.3 4.43,-6.88 4.43,-14.25 2.95,-20.16 l -292.14,-349.16 c -253.29,-27.55 -485.93,-59.02 -741.19,-97.39 0,0 2.3,-0.48 1.75,-0.48"
         style="fill:none;stroke:#a7a6a6;stroke-width:10.15929985;stroke-linecap:butt;stroke-linejoin:miter;stroke-miterlimit:10;stroke-dasharray:none;stroke-opacity:1"
         id="path14"
         inkscape:connector-curvature="0" /><path
         d="m 4085.19,4190.37 c 0.97,0 2.95,0.47 3.93,0.47"
         style="fill:none;stroke:#a7a6a6;stroke-width:1.69660997;stroke-linecap:butt;stroke-linejoin:miter;stroke-miterlimit:10;stroke-dasharray:none;stroke-opacity:1"
         id="path16"
         inkscape:connector-curvature="0" /><path
         d="m 4220.93,3572.68 v -29.51 m -959.14,-281.4 8.77,3.28 8.52,-29.75 -6.89,-13.28 z"
         style="fill:none;stroke:#a7a6a6;stroke-width:5.07965994;stroke-linecap:butt;stroke-linejoin:miter;stroke-miterlimit:10;stroke-dasharray:none;stroke-opacity:1"
         id="path18"
         inkscape:connector-curvature="0" /><path
         d="m 2370.15,3157.45 141.19,0.64 c 122.46,0.5 247.38,14.26 362.47,30.5 68.86,9.32 147.06,26.05 207.55,37.85 41.3,8.36 80.65,19.19 100.33,23.12 262.65,71.79 516.43,144.09 784.47,218.85 5.42,1.48 54.6,21.15 288.71,81.64 l -1.48,17.2 c 7.87,0 -7.86,0.5 0,0.5 -77.21,10.32 -194.77,24.59 -293.62,36.39 -68.86,5.42 -250.34,26.55 -318.71,28.52 -205.09,9.35 -497.72,36.89 -672.83,45.74 l -1229.07,-4.43 c -73.29,0 -119.03,-24.09 -128.36,-29.01 -7.39,-3.93 -21.64,-14.27 -26.57,-19.19 l -127.87,-106.21 c -176.07,-37.39 -345.76,-83.13 -443.15,-126.89 -35.401,-14.74 -84.581,-38.36 -116.065,-57.54 -20.653,-15.74 -30.497,-30.98 -29.512,-49.67 2.957,-33.94 32.969,-49.67 103.289,-78.67 175.488,-50.59 304.958,-49.66 481.088,-53.11"
         style="fill:none;stroke:#a7a6a6;stroke-width:10.15929985;stroke-linecap:round;stroke-linejoin:round;stroke-miterlimit:10;stroke-dasharray:none;stroke-opacity:1"
         id="path20"
         inkscape:connector-curvature="0" /><path
         d="m 988.621,3381.85 1.481,-177.67"
         style="fill:none;stroke:#a7a6a6;stroke-width:10.15929985;stroke-linecap:butt;stroke-linejoin:miter;stroke-miterlimit:10;stroke-dasharray:none;stroke-opacity:1"
         id="path22"
         inkscape:connector-curvature="0" /><path
         d="m 2762.66,3643.49 c -2.46,-0.5 -3.94,-1.96 -4.43,-4.92 l 1.97,-393.44 c 0.98,-1.96 1.96,-3.45 4.42,-3.92 l 196.25,0.47 c 2.46,1 4.92,2.49 4.42,4.93 l -2.45,391.96 c -1,2.46 -1.97,3.44 -4.93,3.44 z"
         style="fill:none;stroke:#a7a6a6;stroke-width:5.07965994;stroke-linecap:butt;stroke-linejoin:miter;stroke-miterlimit:10;stroke-dasharray:none;stroke-opacity:1"
         id="path24"
         inkscape:connector-curvature="0" /><path
         d="m 1317.17,3404.97 1.47,-139.67 c 14.27,-2.96 28.53,-5.42 43.29,-7.88 v -19.66 l -25.59,-3.44 c -1.47,-0.49 -2.95,-0.49 -3.43,-2.45 l 0.48,-46.74 c 0,-0.49 0.5,-2.45 1.98,-3.43 5.4,-3.45 43.77,-14.26 55.57,-16.22 67.38,-12.8 52.63,-10.35 70.83,-12.8 86.56,-8.37 107.72,-9.35 113.61,-10.33 60.5,-4.92 73.28,-4.92 106.24,-6.89 76.23,-4.91 123.44,0.48 167.22,0.48 135.74,0.5 301.98,7.39 463.29,15.26 95.92,4.43 211.5,49.67 234.12,91.97 l -4.32,16.28 -230.28,81.09 -272.47,48.69 c -99.35,24.59 -295.59,40.32 -436.26,49.2 -115.08,0.96 -210.5,-9.37 -285.75,-33.46 z"
         style="fill:none;stroke:#a7a6a6;stroke-width:10.15929985;stroke-linecap:round;stroke-linejoin:round;stroke-miterlimit:10;stroke-dasharray:none;stroke-opacity:1"
         id="path26"
         inkscape:connector-curvature="0" /><path
         d="m 1322.63,3269.93 -1.97,134.27 c -158.37,-53.15 -189.36,-82.65 1.97,-134.27 z"
         style="fill:none;stroke:#a7a6a6;stroke-width:7.61949015;stroke-linecap:butt;stroke-linejoin:miter;stroke-miterlimit:10;stroke-dasharray:none;stroke-opacity:1"
         id="path28"
         inkscape:connector-curvature="0" /><path
         d="m 1358.97,3174.32 c -0.49,22.62 -0.49,39.83 -0.98,61.97 l -21.15,-2.96 -2.95,-0.99 0.98,-46.21 c 0.5,-1 0,-1.99 1.47,-3.45 7.39,-4.93 13.78,-4.93 22.63,-8.36 z"
         style="fill:none;stroke:#a7a6a6;stroke-width:5.07965994;stroke-linecap:butt;stroke-linejoin:miter;stroke-miterlimit:10;stroke-dasharray:none;stroke-opacity:1"
         id="path30"
         inkscape:connector-curvature="0" /><path
         d="m 1571.44,3220.04 246.39,0.51 m -0.46,202.12 0.48,-284.74 m -255.26,300.5 11.82,-291.65"
         style="fill:none;stroke:#a7a6a6;stroke-width:5.07965994;stroke-linecap:butt;stroke-linejoin:miter;stroke-miterlimit:10;stroke-dasharray:none;stroke-opacity:1"
         id="path32"
         inkscape:connector-curvature="0" /><path
         d="m 1548.33,3412.35 -55.09,-9.84 c -44.76,-11.81 -29.01,-7.38 -71.8,-22.62 -15.25,-4.92 -26.56,-9.85 -38.86,-18.69 -5.9,-4.43 -12.78,-13.28 -11.31,-25.09 1.47,-10.31 7.87,-13.77 12.79,-16.72 5.4,-2.94 10.82,-4.43 22.13,-4.43 41.8,7.88 78.69,15.26 117.55,20.17 12.78,1.98 24.1,2.45 37.38,3.94 z"
         style="fill:none;stroke:#a7a6a6;stroke-width:7.61949015;stroke-linecap:butt;stroke-linejoin:miter;stroke-miterlimit:10;stroke-dasharray:none;stroke-opacity:1"
         id="path34"
         inkscape:connector-curvature="0" /><path
         d="m 4250.06,3567.88 2.84,-0.13 254.28,581.31 7.23,1.41"
         style="fill:none;stroke:#a7a6a6;stroke-width:10.15929985;stroke-linecap:butt;stroke-linejoin:miter;stroke-miterlimit:10;stroke-dasharray:none;stroke-opacity:1"
         id="path36"
         inkscape:connector-curvature="0" /><path
         d="m 1437.36,3156.6 c 14.6,-2.8 12.81,-2.36 24.41,-3.92 86.56,-8.37 107.72,-9.35 113.61,-10.33 60.5,-4.92 73.28,-4.92 106.24,-6.89 76.23,-4.91 123.44,0.48 167.22,0.48 135.74,0.5 301.98,7.39 463.29,15.26 l 3.75,0.21"
         style="fill:none;stroke:#a7a6a6;stroke-width:10.15929985;stroke-linecap:butt;stroke-linejoin:miter;stroke-miterlimit:10;stroke-dasharray:none;stroke-opacity:1"
         id="path38"
         inkscape:connector-curvature="0" /><path
         d="m 1616.69,3599.6 -37.87,21.15 -109.68,-93.93 38.37,-36.39 z m -11.81,-33.93 -40.81,-40.81 c -11.31,-10.84 -18.69,-19.69 -1.48,-28.54 l 45.74,-0.5 c 8.86,1.5 15.74,5.42 17.72,15.27 l -1.49,51.62 c 0,3.93 -7.87,10.34 -19.68,2.96 z m 56.08,26.06 c -6.89,-0.98 -10.83,-7.37 -11.32,-12.78 l 0.99,-28.52 v -47.72 c 1.96,-6.39 6.39,-10.82 11.81,-13.77 l 68.36,1.49 c 21.64,0 46.72,21.15 48.19,52.63 0.5,18.68 -19.67,49.65 -49.18,49.65 z m 375.55,-101.84 c 29.03,0 53.12,22.63 53.12,50.66 0,28.02 -24.09,50.64 -53.12,50.64 -29.02,0 -53.12,-22.62 -53.12,-50.64 0,-28.03 24.1,-50.66 53.12,-50.66 z m 142.11,1.29 c 29.02,0 53.11,22.63 53.11,50.66 0,28.02 -24.09,50.66 -53.11,50.66 -29.01,0 -53.12,-22.64 -53.12,-50.66 0,-28.03 24.11,-50.66 53.12,-50.66 z m 140.56,1.09 c 29.01,0 53.11,22.62 53.11,50.66 0,28.04 -24.1,50.66 -53.11,50.66 -29.03,0 -53.13,-22.62 -53.13,-50.66 0,-28.04 24.1,-50.66 53.13,-50.66 z m 141.64,2.2 c 29.02,0 53.11,22.63 53.11,50.67 0,28.01 -24.09,50.65 -53.11,50.65 -29.02,0 -53.13,-22.64 -53.13,-50.65 0,-28.04 24.11,-50.67 53.13,-50.67 z m 144.95,0 c 29.02,0 53.11,22.63 53.11,50.67 0,28.01 -24.09,50.65 -53.11,50.65 -29.03,0 -53.13,-22.64 -53.13,-50.65 0,-28.04 24.1,-50.67 53.13,-50.67 z m 495.27,91.48 c -13.78,-0.5 -54.11,-3.93 -54.11,-37.88 0,-26.55 20.66,-43.77 49.68,-44.25 36.89,0 62.46,17.21 70.83,33.93 6.88,11.81 1.46,21.65 -6.89,30 -7.86,7.39 -31.98,19.18 -59.51,18.2 z"
         style="fill:none;stroke:#a7a6a6;stroke-width:5.07965994;stroke-linecap:butt;stroke-linejoin:miter;stroke-miterlimit:10;stroke-dasharray:none;stroke-opacity:1"
         id="path40"
         inkscape:connector-curvature="0" /><path
         d="m 4458.98,4189.87 c 48.2,2.47 78.2,6.39 115.58,11.81 -32.47,4.92 -68.87,11.31 -116.56,11.31 -47.23,0 -90.5,-4.92 -90.5,-12.8 0,-7.85 43.27,-12.78 91.48,-10.32 z m -204.11,-12.29 192.29,11.3 c 74.28,4.42 133.78,12.8 127.88,13.29 -37.86,3.44 -71.79,8.36 -113.6,10.32 l -208.05,9.35 c -86.06,3.43 -181.48,-10.34 -181.48,-23.11 0,-12.78 96.39,-25.59 182.96,-21.15 z m -1892.11,-1017.93 -4.39,-2.06 c 16.24,1.47 132.79,10.82 196.24,21.15 l 2.46,55.09 -1.34,22.46"
         style="fill:none;stroke:#a7a6a6;stroke-width:7.61949015;stroke-linecap:butt;stroke-linejoin:miter;stroke-miterlimit:10;stroke-dasharray:none;stroke-opacity:1"
         id="path42"
         inkscape:connector-curvature="0" /><path
         d="m 4111.75,4213.49 247.87,-4.45 c -14.75,-6.87 -13.26,-10.81 0.5,-15.74 l -244.93,-6.39 c -57.06,3.46 -58.53,16.24 -3.44,26.58 z"
         style="fill:none;stroke:#a7a6a6;stroke-width:5.07965994;stroke-linecap:butt;stroke-linejoin:miter;stroke-miterlimit:10;stroke-dasharray:none;stroke-opacity:1"
         id="path44"
         inkscape:connector-curvature="0" /><path
         d="m 1259.05,2965.14 c -3.71,87.01 -3.2,236.31 11.95,318.59 l 26.35,-6.58 c 0,0 26,-196.71 16.22,-281.15 -2.03,-17.57 -3.86,-31.65 -5.49,-43.01 -7.36,-50.75 -11.28,-46.62 -15.82,-50.59 -6.48,-2.4 -20.38,-0.79 -28.71,10.49 -1.81,7.27 -3.38,26.18 -4.5,52.25"
         style="fill:#ffffff;fill-opacity:1;fill-rule:nonzero;stroke:none"
         id="path46"
         inkscape:connector-curvature="0" /><path
         d="m 1259.05,2965.14 c -3.71,87.01 -3.2,236.31 11.95,318.59 l 26.35,-6.58 c 0,0 26,-196.71 16.22,-281.15 -2.03,-17.57 -3.86,-31.65 -5.49,-43.01 -7.36,-50.75 -11.28,-46.62 -15.82,-50.59 -6.48,-2.4 -20.38,-0.79 -28.71,10.49 -1.81,7.27 -3.38,26.18 -4.5,52.25 z"
         style="fill:none;stroke:#a7a6a6;stroke-width:7.61949015;stroke-linecap:butt;stroke-linejoin:miter;stroke-miterlimit:10;stroke-dasharray:none;stroke-opacity:1"
         id="path48"
         inkscape:connector-curvature="0" /><path
         d="m 1258.6,3703.16 c -3.12,-89.57 -1.3,-239.66 13.18,-318.34 l 25.57,10.91 c 0,0 35.14,226.19 19.76,305.24 -2.17,11.18 -10.97,62.59 -24.85,76.8 -6.48,2.41 -20.38,0.81 -28.71,-10.48 -2.08,-8.34 -3.84,-31.97 -4.95,-64.13"
         style="fill:#ffffff;fill-opacity:1;fill-rule:nonzero;stroke:none"
         id="path50"
         inkscape:connector-curvature="0" /><path
         d="m 1258.6,3703.16 c -3.12,-89.57 -1.3,-239.66 13.18,-318.34 l 25.57,10.91 c 0,0 35.14,226.19 19.76,305.24 -2.17,11.18 -10.97,62.59 -24.85,76.8 -6.48,2.41 -20.38,0.81 -28.71,-10.48 -2.08,-8.34 -3.84,-31.97 -4.95,-64.13 z"
         style="fill:none;stroke:#a7a6a6;stroke-width:7.61949015;stroke-linecap:butt;stroke-linejoin:miter;stroke-miterlimit:10;stroke-dasharray:none;stroke-opacity:1"
         id="path52"
         inkscape:connector-curvature="0" /><path
         d="m 2556.83,3234.32 -3.3,-53.81 c 45.26,0 117.15,22.82 132.41,27.74 -48.71,18.69 -131.58,25.08 -129.11,26.07 z"
         style="fill:none;stroke:#a7a6a6;stroke-width:7.61949015;stroke-linecap:butt;stroke-linejoin:miter;stroke-miterlimit:10;stroke-dasharray:none;stroke-opacity:1"
         id="path54"
         inkscape:connector-curvature="0" /><path
         d="m 1564.18,3419.89 c 86.56,-1.97 168.09,-9.94 253.19,-15.34"
         style="fill:none;stroke:#a7a6a6;stroke-width:5.07965994;stroke-linecap:butt;stroke-linejoin:miter;stroke-miterlimit:10;stroke-dasharray:none;stroke-opacity:1"
         id="path56"
         inkscape:connector-curvature="0" /><path
         d="m 4293.72,4142.17 207.55,1.97 m 7.38,5.42 c -53.11,1.96 -109.68,3.43 -159.85,21.63 m -360.99,-20.17 c 90.49,-8.37 143.6,-8.37 213.44,11.32 m -191.8,-37.39 c 15.73,9.35 36.39,18.69 61.96,19.19 l 226.25,5.42 209.52,1.46 m -280.84,-112.63 26.07,-16.22 -4.43,-6.39 -25.08,15.24 m -268.53,-426.38 341.32,542.46 m -579.86,-370.81 c -32.47,-44.78 -56.57,-93.95 -79.69,-143.13 m 483.47,167.7 -30.49,19.17 m -4.43,-7.85 31,-19.2 4.9,7.88 m -60.98,-29 10.82,-6.41 -8.85,-13.27 -11.32,6.37 m 305.92,48.21 -43.27,17.22 -117.07,-248.84"
         style="fill:none;stroke:#a7a6a6;stroke-width:5.07965994;stroke-linecap:butt;stroke-linejoin:miter;stroke-miterlimit:10;stroke-dasharray:none;stroke-opacity:1"
         id="path58"
         inkscape:connector-curvature="0" /><path
         d="m 3984.86,3495.45 -826.77,-236.04 -15.75,-19.19 1058.43,192.78 53.11,117.54 z"
         style="fill:none;stroke:#a7a6a6;stroke-width:10.15929985;stroke-linecap:round;stroke-linejoin:round;stroke-miterlimit:10;stroke-dasharray:none;stroke-opacity:1"
         id="path60"
         inkscape:connector-curvature="0" /><path
         d="m 2329.84,3432.51 c -74.75,12.77 -97.86,10.81 -126.4,12.77 -30.49,0 -76.72,2.47 -118.53,0 -24.1,-4.91 -23.11,-11.3 -32.95,-28.5 l -49.67,-89.02 c -73.78,-8.37 -92.47,-29.03 -101.81,-42.78 l 0.49,1.47 c -7.38,-15.26 -7.38,-26.57 12.29,-30.99 49.68,-2.46 101.81,-6.89 142.63,-14.25 148.55,-19.69 169.69,-17.23 334.44,-5.42 71.82,5.42 131.33,12.78 161.82,20.16 l -222.31,176.56"
         style="fill:#ffffff;fill-opacity:1;fill-rule:nonzero;stroke:none"
         id="path62"
         inkscape:connector-curvature="0" /><path
         d="m 2329.84,3432.51 c -74.75,12.77 -97.86,10.81 -126.4,12.77 -30.49,0 -76.72,2.47 -118.53,0 -24.1,-4.91 -23.11,-11.3 -32.95,-28.5 l -49.67,-89.02 c -73.78,-8.37 -92.47,-29.03 -101.81,-42.78 l 0.49,1.47 c -7.38,-15.26 -7.38,-26.57 12.29,-30.99 49.68,-2.46 101.81,-6.89 142.63,-14.25 148.55,-19.69 169.69,-17.23 334.44,-5.42 71.82,5.42 131.33,12.78 161.82,20.16 z"
         style="fill:none;stroke:#a7a6a6;stroke-width:10.15929985;stroke-linecap:round;stroke-linejoin:round;stroke-miterlimit:10;stroke-dasharray:none;stroke-opacity:1"
         id="path64"
         inkscape:connector-curvature="0" /><path
         d="m 2016.06,3284.98 c 84.59,-33.46 250.34,-34.44 392.96,-18.21 m 9.35,75.23 22.63,1 m -2.77,-20.84 -36.09,34.12 19.19,1.96 m -181.49,83.12 c -5.4,-4.93 -3.44,-9.34 3.45,-16.73 l 192.79,-183.42 m -442.15,67.36 59.02,110.66 c 0.49,-12.8 7.37,-13.76 16.23,-11.8 l -51.64,-120.98 c -12.3,1.96 -26.08,0.5 -23.61,22.12 z m 363.95,6.39 105.74,10.84"
         style="fill:none;stroke:#a7a6a6;stroke-width:5.07965994;stroke-linecap:butt;stroke-linejoin:miter;stroke-miterlimit:10;stroke-dasharray:none;stroke-opacity:1"
         id="path66"
         inkscape:connector-curvature="0" /><path
         d="M 537.313,3590.02 V 2967.5"
         style="fill:none;stroke:#098137;stroke-width:10.15929985;stroke-linecap:butt;stroke-linejoin:miter;stroke-miterlimit:10;stroke-dasharray:none;stroke-opacity:1"
         id="path68"
         inkscape:connector-curvature="0" /><path
         d="m 856.063,3590.02 v -619.7"
         style="fill:none;stroke:#231f20;stroke-width:10.15929985;stroke-linecap:butt;stroke-linejoin:miter;stroke-miterlimit:10;stroke-dasharray:none;stroke-opacity:1"
         id="path70"
         inkscape:connector-curvature="0" /><path
         d="M 624.938,3327.15 H 579.219"
         style="fill:none;stroke:#231f20;stroke-width:5.07965994;stroke-linecap:butt;stroke-linejoin:miter;stroke-miterlimit:10;stroke-dasharray:none;stroke-opacity:1"
         id="path72"
         inkscape:connector-curvature="0" /><path
         d="m 582.188,3327.15 v -17.76 l -44.45,17.76 44.45,17.78 v -17.78"
         style="fill:#231f20;fill-opacity:1;fill-rule:evenodd;stroke:none"
         id="path74"
         inkscape:connector-curvature="0" /><path
         d="m 767.168,3327.15 h 44.445"
         style="fill:none;stroke:#231f20;stroke-width:5.07965994;stroke-linecap:butt;stroke-linejoin:miter;stroke-miterlimit:10;stroke-dasharray:none;stroke-opacity:1"
         id="path76"
         inkscape:connector-curvature="0" /><path
         d="m 808.648,3327.15 v 17.78 l 44.446,-17.78 -44.446,-17.76 v 17.76"
         style="fill:#231f20;fill-opacity:1;fill-rule:evenodd;stroke:none"
         id="path78"
         inkscape:connector-curvature="0" /><path
         d="m 658.918,3393.5 c 1.91,4.38 3.953,8.1 6.16,11.14 l 2.813,3.88 6.511,-0.07 c -3.675,-6.72 -6.175,-12.01 -7.507,-15.9 -2.196,-6.5 -3.293,-13.76 -3.293,-21.78 0,-5.19 0.429,-9.95 1.269,-14.32 1.301,-6.68 3.617,-13.09 6.949,-19.21 l 2.418,-4.44 h -6.703 c -4.289,5.86 -7.558,11.64 -9.805,17.31 -2.64,6.61 -3.972,13.25 -3.972,19.93 0,7.73 1.726,15.55 5.16,23.46"
         style="fill:#231f20;fill-opacity:1;fill-rule:nonzero;stroke:none"
         id="path80"
         inkscape:connector-curvature="0" /><path
         d="m 680.191,3365.5 v 10.32 h 16.348 v 16.35 h 10.324 v -16.35 h 16.344 v -10.32 h -16.344 v -16.34 h -10.324 v 16.34 h -16.348"
         style="fill:#231f20;fill-opacity:1;fill-rule:nonzero;stroke:none"
         id="path82"
         inkscape:connector-curvature="0" /><path
         d="m 744.004,3392.82 c 3.066,-7.12 4.601,-14.3 4.601,-21.55 0,-7.95 -1.816,-16.03 -5.476,-24.24 -2.039,-4.61 -3.981,-8.05 -5.789,-10.38 l -2.793,-3.85 h -8.32 c 3.472,6.29 5.902,11.44 7.281,15.46 2.34,6.79 3.515,14.21 3.515,22.3 0,5.18 -0.425,9.96 -1.269,14.35 -1.289,6.67 -3.598,13.07 -6.918,19.18 l -2.406,4.43 h 8.461 c 4.004,-5.59 7.031,-10.83 9.113,-15.7"
         style="fill:#231f20;fill-opacity:1;fill-rule:nonzero;stroke:none"
         id="path84"
         inkscape:connector-curvature="0" /><path
         d="M 2013.83,3839.17 V 3178.82"
         style="fill:none;stroke:#231f20;stroke-width:10.15929985;stroke-linecap:butt;stroke-linejoin:miter;stroke-miterlimit:10;stroke-dasharray:none;stroke-opacity:1"
         id="path86"
         inkscape:connector-curvature="0" /><path
         d="M 2172.69,3752.82 H 2056.36"
         style="fill:none;stroke:#231f20;stroke-width:5.07965994;stroke-linecap:butt;stroke-linejoin:miter;stroke-miterlimit:10;stroke-dasharray:none;stroke-opacity:1"
         id="path88"
         inkscape:connector-curvature="0" /><path
         d="m 2059.33,3752.82 v -17.78 l -44.45,17.78 44.45,17.77 v -17.77"
         style="fill:#231f20;fill-opacity:1;fill-rule:evenodd;stroke:none"
         id="path90"
         inkscape:connector-curvature="0" /><path
         d="M 2493.86,3839.17 V 3178.82"
         style="fill:none;stroke:#231f20;stroke-width:10.15929985;stroke-linecap:butt;stroke-linejoin:miter;stroke-miterlimit:10;stroke-dasharray:none;stroke-opacity:1"
         id="path92"
         inkscape:connector-curvature="0" /><path
         d="m 2101.85,3414.65 c 0,31.92 25.89,57.82 57.83,57.82 31.95,0 57.84,-25.9 57.84,-57.82 0,-31.95 -25.89,-57.85 -57.84,-57.85 -31.94,0 -57.83,25.9 -57.83,57.85"
         style="fill:#ffffff;fill-opacity:1;fill-rule:nonzero;stroke:none"
         id="path94"
         inkscape:connector-curvature="0" /><path
         d="M 2326.09,3752.82 H 2447.5"
         style="fill:none;stroke:#231f20;stroke-width:5.07965994;stroke-linecap:butt;stroke-linejoin:miter;stroke-miterlimit:10;stroke-dasharray:none;stroke-opacity:1"
         id="path96"
         inkscape:connector-curvature="0" /><path
         d="m 2444.53,3752.82 v 17.77 l 44.45,-17.77 -44.45,-17.78 v 17.78"
         style="fill:#231f20;fill-opacity:1;fill-rule:evenodd;stroke:none"
         id="path98"
         inkscape:connector-curvature="0" /><path
         d="m 2205.07,3412.43 c 0,28.62 -23.2,51.85 -51.87,51.85 v -51.85 h 51.87"
         style="fill:#e51535;fill-opacity:1;fill-rule:nonzero;stroke:none"
         id="path100"
         inkscape:connector-curvature="0" /><path
         d="m 2205.07,3412.43 c 0,28.62 -23.2,51.85 -51.87,51.85 v -51.85 z"
         style="fill:none;stroke:#e51535;stroke-width:9.20433998;stroke-linecap:butt;stroke-linejoin:miter;stroke-miterlimit:10;stroke-dasharray:none;stroke-opacity:1"
         id="path102"
         inkscape:connector-curvature="0" /><path
         d="m 2101.21,3412.47 c 0,-28.64 23.22,-51.85 51.85,-51.85 v 51.85 h -51.85"
         style="fill:#e51535;fill-opacity:1;fill-rule:nonzero;stroke:none"
         id="path104"
         inkscape:connector-curvature="0" /><path
         d="m 2101.21,3412.47 c 0,-28.64 23.22,-51.85 51.85,-51.85 v 51.85 z"
         style="fill:none;stroke:#e51535;stroke-width:9.20433998;stroke-linecap:butt;stroke-linejoin:miter;stroke-miterlimit:10;stroke-dasharray:none;stroke-opacity:1"
         id="path106"
         inkscape:connector-curvature="0" /><path
         d="m 2206.32,3412.47 c 0,-29.88 -24.2,-54.11 -54.08,-54.11 -29.89,0 -54.13,24.23 -54.13,54.11 0,29.88 24.24,54.11 54.13,54.11 29.88,0 54.08,-24.23 54.08,-54.11 z"
         style="fill:none;stroke:#e51535;stroke-width:9.20433998;stroke-linecap:butt;stroke-linejoin:miter;stroke-miterlimit:10;stroke-dasharray:none;stroke-opacity:1"
         id="path108"
         inkscape:connector-curvature="0" /><path
         d="m 856.059,3603.22 v 359.89"
         style="fill:none;stroke:#087808;stroke-width:13.00389957;stroke-linecap:butt;stroke-linejoin:miter;stroke-miterlimit:10;stroke-dasharray:none;stroke-opacity:1"
         id="path110"
         inkscape:connector-curvature="0" /><path
         d="m 885.918,3963.11 -29.859,83.6 -29.856,-83.6 h 29.856"
         style="fill:#087808;fill-opacity:1;fill-rule:nonzero;stroke:none"
         id="path112"
         inkscape:connector-curvature="0" /><path
         d="m 4030.36,3287.25 h 359.9"
         style="fill:none;stroke:#087808;stroke-width:13.00389957;stroke-linecap:butt;stroke-linejoin:miter;stroke-miterlimit:10;stroke-dasharray:none;stroke-opacity:1"
         id="path114"
         inkscape:connector-curvature="0" /><path
         d="m 4390.26,3257.39 83.6,29.86 -83.6,29.86 v -29.86"
         style="fill:#087808;fill-opacity:1;fill-rule:nonzero;stroke:none"
         id="path116"
         inkscape:connector-curvature="0" /><path
         d="M 1222.95,3287.25 H 823.852"
         style="fill:none;stroke:#231f20;stroke-width:10.15929985;stroke-linecap:round;stroke-linejoin:round;stroke-miterlimit:10;stroke-dasharray:20.3186, 20.3186;stroke-dashoffset:0;stroke-opacity:1"
         id="path118"
         inkscape:connector-curvature="0" /><path
         d="M 1867.59,3287.25 H 1354.71"
         style="fill:none;stroke:#231f20;stroke-width:10.15929985;stroke-linecap:round;stroke-linejoin:round;stroke-miterlimit:10;stroke-dasharray:20.3186, 20.3186;stroke-dashoffset:0;stroke-opacity:1"
         id="path120"
         inkscape:connector-curvature="0" /><path
         d="M 3995.84,3287.25 H 2523.92"
         style="fill:none;stroke:#231f20;stroke-width:10.15929985;stroke-linecap:round;stroke-linejoin:round;stroke-miterlimit:10;stroke-dasharray:20.3186, 20.3186;stroke-dashoffset:0;stroke-opacity:1"
         id="path122"
         inkscape:connector-curvature="0" /><path
         d="m 4070.99,3911.7 c 0,-16.09 -13.06,-29.15 -29.15,-29.15 -16.1,0 -29.16,13.06 -29.16,29.15 0,16.1 13.06,29.16 29.16,29.16 16.09,0 29.15,-13.06 29.15,-29.16"
         style="fill:#3c4855;fill-opacity:1;fill-rule:nonzero;stroke:none"
         id="path124"
         inkscape:connector-curvature="0" /><path
         d="m 4041.84,3889.52 v -359.9"
         style="fill:#3c4855;fill-opacity:1;fill-rule:nonzero;stroke:none"
         id="path126"
         inkscape:connector-curvature="0" /><path
         d="m 4041.84,3889.52 v -359.9"
         style="fill:none;stroke:#3c4855;stroke-width:18.69309998;stroke-linecap:butt;stroke-linejoin:miter;stroke-miterlimit:10;stroke-dasharray:none;stroke-opacity:1"
         id="path128"
         inkscape:connector-curvature="0" /><path
         d="m 4071.7,3529.62 -29.86,-83.6 -29.86,83.6 h 29.86"
         style="fill:#3c4855;fill-opacity:1;fill-rule:nonzero;stroke:none"
         id="path130"
         inkscape:connector-curvature="0" /><path
         d="m 2412.22,3451.04 c 0,-16.09 -13.06,-29.15 -29.16,-29.15 -16.09,0 -29.15,13.06 -29.15,29.15 0,16.1 13.06,29.16 29.15,29.16 16.1,0 29.16,-13.06 29.16,-29.16"
         style="fill:#3c4855;fill-opacity:1;fill-rule:nonzero;stroke:none"
         id="path132"
         inkscape:connector-curvature="0" /><path
         d="M 2383.06,3428.85 V 3020.2"
         style="fill:#3c4855;fill-opacity:1;fill-rule:nonzero;stroke:none"
         id="path134"
         inkscape:connector-curvature="0" /><path
         d="M 2383.06,3428.85 V 3020.2"
         style="fill:none;stroke:#3c4855;stroke-width:18.69309998;stroke-linecap:butt;stroke-linejoin:miter;stroke-miterlimit:10;stroke-dasharray:none;stroke-opacity:1"
         id="path136"
         inkscape:connector-curvature="0" /><path
         d="m 2412.92,3020.2 -29.86,-83.61 -29.86,83.61 h 29.86"
         style="fill:#3c4855;fill-opacity:1;fill-rule:nonzero;stroke:none"
         id="path138"
         inkscape:connector-curvature="0" /><path
         d="m 1667.86,3305.37 c 0,-16.09 -13.06,-29.15 -29.16,-29.15 -16.09,0 -29.15,13.06 -29.15,29.15 0,16.09 13.06,29.16 29.15,29.16 16.1,0 29.16,-13.07 29.16,-29.16"
         style="fill:#3c4855;fill-opacity:1;fill-rule:nonzero;stroke:none"
         id="path140"
         inkscape:connector-curvature="0" /><path
         d="m 1638.7,3283.18 v -392.4"
         style="fill:#3c4855;fill-opacity:1;fill-rule:nonzero;stroke:none"
         id="path142"
         inkscape:connector-curvature="0" /><path
         d="m 1638.7,3283.18 v -392.4"
         style="fill:none;stroke:#3c4855;stroke-width:18.69309998;stroke-linecap:butt;stroke-linejoin:miter;stroke-miterlimit:10;stroke-dasharray:none;stroke-opacity:1"
         id="path144"
         inkscape:connector-curvature="0" /><path
         d="m 1668.56,2890.78 -29.86,-83.6 -29.85,83.6 h 29.85"
         style="fill:#3c4855;fill-opacity:1;fill-rule:nonzero;stroke:none"
         id="path146"
         inkscape:connector-curvature="0" /><path
         d="m 2262.36,3293.18 c 0,-16.1 -13.07,-29.16 -29.16,-29.16 -16.09,0 -29.15,13.06 -29.15,29.16 0,16.09 13.06,29.15 29.15,29.15 16.09,0 29.16,-13.06 29.16,-29.15"
         style="fill:#3c4855;fill-opacity:1;fill-rule:nonzero;stroke:none"
         id="path148"
         inkscape:connector-curvature="0" /><path
         d="M 2233.2,3270.99 V 2846.07"
         style="fill:#3c4855;fill-opacity:1;fill-rule:nonzero;stroke:none"
         id="path150"
         inkscape:connector-curvature="0" /><path
         d="M 2233.2,3270.99 V 2846.07"
         style="fill:none;stroke:#3c4855;stroke-width:18.69309998;stroke-linecap:butt;stroke-linejoin:miter;stroke-miterlimit:10;stroke-dasharray:none;stroke-opacity:1"
         id="path152"
         inkscape:connector-curvature="0" /><path
         d="m 2263.06,2862.33 -29.86,-83.6 -29.86,83.6 h 29.86"
         style="fill:#3c4855;fill-opacity:1;fill-rule:nonzero;stroke:none"
         id="path154"
         inkscape:connector-curvature="0" /><path
         d="m 2138.14,3286.63 c 0,-16.1 -13.07,-29.16 -29.16,-29.16 -16.09,0 -29.16,13.06 -29.16,29.16 0,16.08 13.07,29.15 29.16,29.15 16.09,0 29.16,-13.07 29.16,-29.15"
         style="fill:#3c4855;fill-opacity:1;fill-rule:nonzero;stroke:none"
         id="path156"
         inkscape:connector-curvature="0" /><path
         d="M 2108.98,3264.43 V 2790.76"
         style="fill:#3c4855;fill-opacity:1;fill-rule:nonzero;stroke:none"
         id="path158"
         inkscape:connector-curvature="0" /><path
         d="M 2108.98,3264.43 V 2790.76"
         style="fill:none;stroke:#3c4855;stroke-width:18.69309998;stroke-linecap:butt;stroke-linejoin:miter;stroke-miterlimit:10;stroke-dasharray:none;stroke-opacity:1"
         id="path160"
         inkscape:connector-curvature="0" /><path
         d="m 2138.84,2790.76 -29.86,-83.6 -29.86,83.6 h 29.86"
         style="fill:#3c4855;fill-opacity:1;fill-rule:nonzero;stroke:none"
         id="path162"
         inkscape:connector-curvature="0" /><path
         d="m 2341.36,3428.5 c 0,-16.1 -13.06,-29.16 -29.16,-29.16 -16.09,0 -29.15,13.06 -29.15,29.16 0,16.09 13.06,29.15 29.15,29.15 16.1,0 29.16,-13.06 29.16,-29.15"
         style="fill:#3c4855;fill-opacity:1;fill-rule:nonzero;stroke:none"
         id="path164"
         inkscape:connector-curvature="0" /><path
         d="M 2312.2,3406.31 V 2932.63"
         style="fill:#3c4855;fill-opacity:1;fill-rule:nonzero;stroke:none"
         id="path166"
         inkscape:connector-curvature="0" /><path
         d="M 2312.2,3406.31 V 2932.63"
         style="fill:none;stroke:#3c4855;stroke-width:18.69309998;stroke-linecap:butt;stroke-linejoin:miter;stroke-miterlimit:10;stroke-dasharray:none;stroke-opacity:1"
         id="path168"
         inkscape:connector-curvature="0" /><path
         d="m 2342.06,2932.63 -29.86,-83.6 -29.86,83.6 h 29.86"
         style="fill:#3c4855;fill-opacity:1;fill-rule:nonzero;stroke:none"
         id="path170"
         inkscape:connector-curvature="0" /><path
         d="m 1863.23,3302.56 c 0,-16.09 -13.06,-29.15 -29.15,-29.15 -16.1,0 -29.16,13.06 -29.16,29.15 0,16.1 13.06,29.15 29.16,29.15 16.09,0 29.15,-13.05 29.15,-29.15"
         style="fill:#3c4855;fill-opacity:1;fill-rule:nonzero;stroke:none"
         id="path172"
         inkscape:connector-curvature="0" /><path
         d="M 1834.08,3280.37 V 2822.95"
         style="fill:#3c4855;fill-opacity:1;fill-rule:nonzero;stroke:none"
         id="path174"
         inkscape:connector-curvature="0" /><path
         d="M 1834.08,3280.37 V 2822.95"
         style="fill:none;stroke:#3c4855;stroke-width:18.69309998;stroke-linecap:butt;stroke-linejoin:miter;stroke-miterlimit:10;stroke-dasharray:none;stroke-opacity:1"
         id="path176"
         inkscape:connector-curvature="0" /><path
         d="m 1863.94,2822.95 -29.86,-83.6 -29.86,83.6 h 29.86"
         style="fill:#3c4855;fill-opacity:1;fill-rule:nonzero;stroke:none"
         id="path178"
         inkscape:connector-curvature="0" /><path
         d="m 2073.53,3906.45 -32.16,-61.64 h 61.65 l -29.49,61.64"
         style="fill:#ef293d;fill-opacity:1;fill-rule:nonzero;stroke:none"
         id="path180"
         inkscape:connector-curvature="0" /><path
         d="m 2073.53,3906.45 -32.16,-61.64 h 61.65 l -29.49,61.64"
         style="fill:#e51535;fill-opacity:1;fill-rule:nonzero;stroke:none"
         id="path182"
         inkscape:connector-curvature="0" /><path
         d="m 2276.72,3903.92 -32.17,-61.65 h 61.65 l -29.48,61.65"
         style="fill:#e51535;fill-opacity:1;fill-rule:nonzero;stroke:none"
         id="path184"
         inkscape:connector-curvature="0" /><path
         d="m 2276.72,3903.92 -32.17,-61.65 h 61.65 l -29.48,61.65"
         style="fill:#e51535;fill-opacity:1;fill-rule:nonzero;stroke:none"
         id="path186"
         inkscape:connector-curvature="0" /><path
         d="m 2073.46,3893.42 v 140.19"
         style="fill:none;stroke:#e51535;stroke-width:10.15929985;stroke-linecap:butt;stroke-linejoin:miter;stroke-miterlimit:10;stroke-dasharray:none;stroke-opacity:1"
         id="path188"
         inkscape:connector-curvature="0" /><path
         d="m 2276.65,3893.42 v 140.19"
         style="fill:none;stroke:#e51535;stroke-width:10.15929985;stroke-linecap:butt;stroke-linejoin:miter;stroke-miterlimit:10;stroke-dasharray:none;stroke-opacity:1"
         id="path190"
         inkscape:connector-curvature="0" /><path
         d="M 2230.93,4000.34 H 2119.18"
         style="fill:none;stroke:#e51535;stroke-width:3.55575991;stroke-linecap:butt;stroke-linejoin:miter;stroke-miterlimit:10;stroke-dasharray:none;stroke-opacity:1"
         id="path192"
         inkscape:connector-curvature="0" /><path
         d="m 2227.97,4000.34 v 17.78 l 44.44,-17.78 -44.44,-17.78 v 17.78"
         style="fill:#e51535;fill-opacity:1;fill-rule:nonzero;stroke:none"
         id="path194"
         inkscape:connector-curvature="0" /><path
         d="m 2122.14,4000.34 v -17.78 l -44.44,17.78 44.44,17.78 v -17.78"
         style="fill:#e51535;fill-opacity:1;fill-rule:nonzero;stroke:none"
         id="path196"
         inkscape:connector-curvature="0" /><path
         d="m 2169.98,4001.61 v 81.28"
         style="fill:none;stroke:#e51535;stroke-width:3.55575991;stroke-linecap:butt;stroke-linejoin:miter;stroke-miterlimit:10;stroke-dasharray:none;stroke-opacity:1"
         id="path198"
         inkscape:connector-curvature="0" /><g
         id="g200"><g
           id="g202"
           clip-path="url(#clipPath206)"><g
             id="g208"
             transform="matrix(685,0,0,-4,-196.1,4438.9)"><rect
               x="0"
               y="0"
               width="1"
               height="1"
               transform="matrix(1,0,0,-1,0,1)"
               style="fill:#000000;fill-opacity:1;fill-rule:nonzero"
               id="rect210" /></g></g></g><g
         id="g212"
         transform="scale(8.33333)"><text
           transform="matrix(1,0,0,-1,81.0253,387.937)"
           style="font-variant:normal;font-weight:normal;font-size:11.9552002px;font-family:'MT Extra';-inkscape-font-specification:MT2MIT;writing-mode:lr-tb;fill:#000000;fill-opacity:1;fill-rule:nonzero;stroke:none"
           id="text216"><tspan
             x="0"
             y="0"
             id="tspan214">a</tspan></text>
<text
           transform="matrix(1,0,0,-1,48.5517,433.9523)"
           style="font-variant:normal;font-size:11.9552002px;font-family:NimbusRomNo9L;-inkscape-font-specification:NimbusRomNo9L-ReguItal;writing-mode:lr-tb;fill:#000000;fill-opacity:1;fill-rule:nonzero;stroke:none"
           id="text220"><tspan
             x="0 8.6400223 14.640041 18.000048 24.000059"
             y="0"
             sodipodi:role="line"
             id="tspan218">Datum</tspan></text>
<text
           transform="matrix(1,0,0,-1,59.009,346.4587)"
           style="font-variant:normal;font-weight:normal;font-size:11.9552002px;font-family:'MT Extra';-inkscape-font-specification:MT2MIT;writing-mode:lr-tb;fill:#000000;fill-opacity:1;fill-rule:nonzero;stroke:none"
           id="text224"><tspan
             x="0"
             y="0"
             id="tspan222">x</tspan></text>
<text
           transform="matrix(1,0,0,-1,65.489,344.6587)"
           style="font-variant:normal;font-weight:normal;font-size:7.97010994px;font-family:'MT Extra';-inkscape-font-specification:MT2MIS;writing-mode:lr-tb;fill:#000000;fill-opacity:1;fill-rule:nonzero;stroke:none"
           id="text228"><tspan
             x="0"
             y="0"
             id="tspan226">0</tspan></text>
<text
           transform="matrix(1,0,0,-1,97.132,346.64901)"
           style="font-variant:normal;font-weight:normal;font-size:11.9552002px;font-family:'MT Extra';-inkscape-font-specification:MT2MIT;writing-mode:lr-tb;fill:#000000;fill-opacity:1;fill-rule:nonzero;stroke:none"
           id="text232"><tspan
             x="0"
             y="0"
             id="tspan230">x</tspan></text>
<text
           transform="matrix(1,0,0,-1,103.612,344.84901)"
           style="font-variant:normal;font-weight:normal;font-size:7.97010994px;font-family:'MT Extra';-inkscape-font-specification:MT2MIS;writing-mode:lr-tb;fill:#000000;fill-opacity:1;fill-rule:nonzero;stroke:none"
           id="text236"><tspan
             x="0"
             y="0"
             id="tspan234">a</tspan></text>
<text
           transform="matrix(1,0,0,-1,109.01013,480.20501)"
           style="font-variant:normal;font-weight:normal;font-size:11.9552002px;font-family:'MT Extra';-inkscape-font-specification:MT2MIT;writing-mode:lr-tb;fill:#000000;fill-opacity:1;fill-rule:nonzero;stroke:none"
           id="text240"><tspan
             x="0"
             y="0"
             id="tspan238">z</tspan></text>
<text
           transform="matrix(1,0,0,-1,114.53013,478.40501)"
           style="font-variant:normal;font-size:7.97010994px;font-family:NimbusRomNo9L;-inkscape-font-specification:NimbusRomNo9L-Regu;writing-mode:lr-tb;fill:#000000;fill-opacity:1;fill-rule:nonzero;stroke:none"
           id="text244"><tspan
             x="0"
             y="0"
             id="tspan242">C</tspan></text>
<text
           transform="matrix(1,0,0,-1,521.22513,380.79671)"
           style="font-variant:normal;font-weight:normal;font-size:11.9552002px;font-family:'MT Extra';-inkscape-font-specification:MT2MIT;writing-mode:lr-tb;fill:#000000;fill-opacity:1;fill-rule:nonzero;stroke:none"
           id="text248"><tspan
             x="0"
             y="0"
             id="tspan246">x</tspan></text>
<text
           transform="matrix(1,0,0,-1,527.70513,378.99671)"
           style="font-variant:normal;font-size:7.97010994px;font-family:NimbusRomNo9L;-inkscape-font-specification:NimbusRomNo9L-Regu;writing-mode:lr-tb;fill:#000000;fill-opacity:1;fill-rule:nonzero;stroke:none"
           id="text252"><tspan
             x="0"
             y="0"
             id="tspan250">C</tspan></text>
<text
           transform="matrix(1,0,0,-1,268.42013,446.95141)"
           style="font-variant:normal;font-weight:normal;font-size:11.9552002px;font-family:'MT Extra';-inkscape-font-specification:MT2SYT;writing-mode:lr-tb;fill:#000000;fill-opacity:1;fill-rule:nonzero;stroke:none"
           id="text256"><tspan
             x="0"
             y="0"
             id="tspan254">N</tspan></text>
<text
           transform="matrix(1,0,0,-1,266.86013,446.95141)"
           style="font-variant:normal;font-weight:normal;font-size:11.9552002px;font-family:'MT Extra';-inkscape-font-specification:MT2MIT;writing-mode:lr-tb;fill:#000000;fill-opacity:1;fill-rule:nonzero;stroke:none"
           id="text260"><tspan
             x="0"
             y="0"
             id="tspan258">c</tspan></text>
<text
           transform="matrix(1,0,0,-1,196.17593,456.55704)"
           style="font-variant:normal;font-size:11.9552002px;font-family:NimbusRomNo9L;-inkscape-font-specification:NimbusRomNo9L-Regu;writing-mode:lr-tb;fill:#000000;fill-opacity:1;fill-rule:nonzero;stroke:none"
           id="text268"><tspan
             x="0 7.3200226 14.640045 25.320074 33.480091"
             y="0"
             sodipodi:role="line"
             id="tspan262">LEMAC</tspan><tspan
             x="106.355 113.67501 120.99502 131.67505 139.83508"
             y="-0.155156"
             sodipodi:role="line"
             id="tspan264">TEMAC</tspan><tspan
             x="3.5280001 8.808013 13.488029 18.768042 24.768055 28.728071 33.408089 36.768093 42.768105 48.768116 57.048134 63.048145 68.328156 74.568184 80.568199 85.848213 89.808228 93.168251 98.448265 103.72828 109.72829 113.08831 117.04832"
             y="-35.044254"
             sodipodi:role="line"
             id="tspan266">escursionedelbaricentro</tspan></text>
</g><path
         d="m 2088.65,3536.75 v 58.53 h 131.6 v -117.07 h -131.6"
         style="fill:#ffffff;fill-opacity:1;fill-rule:nonzero;stroke:none"
         id="path270"
         inkscape:connector-curvature="0" /><g
         id="g272"
         transform="scale(8.33333)"><text
           transform="matrix(1,0,0,-1,253.627,420.375)"
           style="font-variant:normal;font-weight:normal;font-size:11.9552002px;font-family:'MT Extra';-inkscape-font-specification:MT2MIT;writing-mode:lr-tb;fill:#000000;fill-opacity:1;fill-rule:nonzero;stroke:none"
           id="text276"><tspan
             x="0"
             y="0"
             id="tspan274">G</tspan></text>
<text
           transform="matrix(1,0,0,-1,420.449,422.46703)"
           style="font-variant:normal;font-size:11.9552002px;font-family:NimbusRomNo9L;-inkscape-font-specification:NimbusRomNo9L-Regu;writing-mode:lr-tb;fill:#000000;fill-opacity:1;fill-rule:nonzero;stroke:none"
           id="text294"><tspan
             x="0 3.3600204 12.720053 18.720064 24.000078 30.00009 36.000103 41.280117 47.280128 53.28014"
             y="0"
             sodipodi:role="line"
             id="tspan278">impennaggi</tspan><tspan
             x="-128.439 -124.47898 -118.47897 -113.79896 -107.79894 -104.43892 -101.0789 -95.798889 -91.838875 -83.678848 -75.398834 -71.43882 -65.438805 -59.438793 -56.078773 -52.71875 -46.718739 -37.838715 -32.558704 -26.558691 -23.198669 -17.918657 -13.95864 -10.598619 -4.5986075 -0.63859046"
             y="62.9981"
             sodipodi:role="line"
             id="tspan280">fusolieraeruotinoanteriore</tspan><tspan
             x="-139.5479 -134.26788 -128.98787 -125.02785 -121.66784 -116.38783 -107.2678 -101.26778 -95.987778 -89.987762 -84.707748 -78.707733 -75.347717"
             y="79.918999"
             sodipodi:role="line"
             id="tspan282">caricopagante</tspan><tspan
             x="-149.2393 -143.95929 -140.59927 -132.31926 -124.03925 -118.75923 -113.47922 -109.5192 -105.55918 -100.27917 -96.919151 -93.559128"
             y="93.881203"
             sodipodi:role="line"
             id="tspan284">alaecarrello</tspan><tspan
             x="-173.65511 -168.37509 -162.37509 -153.01505 -147.25504 -141.25504 -136.57501 -133.215 -129.85497 -123.85496 -120.49494 -117.13492"
             y="107.0053"
             sodipodi:role="line"
             id="tspan286">combustibile</tspan><tspan
             x="-242.85101 -239.491 -230.13097 -224.13097 -220.77095 -215.49094 -209.49094 -206.13092 -199.8909 -194.6109"
             y="104.14639"
             sodipodi:role="line"
             id="tspan288">impiantied</tspan><tspan
             x="-268.29102 -263.01099 -257.01099 -251.01097 -247.65097 -241.65096 -236.37094 -230.37093 -224.37093 -221.01093 -215.73091 -206.37088 -201.09087 -195.09085 -191.73085"
             y="118.06639"
             sodipodi:role="line"
             id="tspan290">equipaggiamenti</tspan><tspan
             x="-260.61804 -251.25801 -245.258 -241.89799 -235.89798 -231.93796"
             y="86.283691"
             sodipodi:role="line"
             id="tspan292">motori</tspan></text>
</g></g></g></svg>