<?xml version="1.0" encoding="UTF-8" standalone="no"?>
<!-- Created with Inkscape (http://www.inkscape.org/) -->

<svg
   xmlns:ns0="http://www.iki.fi/pav/software/textext/"
   xmlns:dc="http://purl.org/dc/elements/1.1/"
   xmlns:cc="http://creativecommons.org/ns#"
   xmlns:rdf="http://www.w3.org/1999/02/22-rdf-syntax-ns#"
   xmlns:svg="http://www.w3.org/2000/svg"
   xmlns="http://www.w3.org/2000/svg"
   xmlns:sodipodi="http://sodipodi.sourceforge.net/DTD/sodipodi-0.dtd"
   xmlns:inkscape="http://www.inkscape.org/namespaces/inkscape"
   version="1.1"
   id="svg2"
   xml:space="preserve"
   width="1095.17"
   height="426.68857"
   viewBox="0 0 1095.17 426.68857"
   sodipodi:docname="ac_sideview_wing_mac.svg"
   inkscape:version="0.92.2 (5c3e80d, 2017-08-06)"><sodipodi:namedview
     pagecolor="#ffffff"
     bordercolor="#666666"
     borderopacity="1"
     objecttolerance="10"
     gridtolerance="10"
     guidetolerance="10"
     inkscape:pageopacity="0"
     inkscape:pageshadow="2"
     inkscape:window-width="3440"
     inkscape:window-height="1346"
     id="namedview4"
     showgrid="false"
     inkscape:zoom="1.6769994"
     inkscape:cx="601.5415"
     inkscape:cy="169.09084"
     inkscape:window-x="-11"
     inkscape:window-y="-11"
     inkscape:window-maximized="1"
     inkscape:current-layer="g12" /><metadata
     id="metadata8"><rdf:RDF><cc:Work
         rdf:about=""><dc:format>image/svg+xml</dc:format><dc:type
           rdf:resource="http://purl.org/dc/dcmitype/StillImage" /><dc:title /></cc:Work></rdf:RDF></metadata><defs
     id="defs6" /><g
     transform="matrix(1.3333333,0,0,-1.3333333,0,426.68856)"
     inkscape:label="ac_sideview_wing_mac"
     inkscape:groupmode="layer"
     id="g10"><g
       id="g12"><g
         transform="rotate(-90,-62.742418,612.65949)"
         id="g14"><path
           inkscape:connector-curvature="0"
           id="path16"
           style="fill:#eaeaff;fill-opacity:1;fill-rule:nonzero;stroke:#000000;stroke-width:2.54947901;stroke-linecap:butt;stroke-linejoin:round;stroke-miterlimit:10;stroke-dasharray:none;stroke-opacity:1"
           d="m 633.723,390.863 53.312,203.246 -63.152,-0.531 -96.781,-202.93" /></g><g
         transform="rotate(-90,-62.742418,612.65949)"
         id="g18"><path
           inkscape:connector-curvature="0"
           id="path20"
           style="fill:#eaeaff;fill-opacity:1;fill-rule:nonzero;stroke:#000000;stroke-width:2.54931593;stroke-linecap:butt;stroke-linejoin:round;stroke-miterlimit:10;stroke-dasharray:none;stroke-opacity:1"
           d="m 633.723,390.863 53.32,-202.414 -63.16,-0.301 -96.781,202.5" /></g><path
         inkscape:connector-curvature="0"
         id="path22"
         style="fill:#000000;fill-opacity:1;fill-rule:nonzero;stroke:none"
         d="m 366.07,79.915 h -0.058 l -0.059,0.004 -0.109,0.004 -0.098,0.007 -0.098,0.012 -0.093,0.016 -0.086,0.019 -0.078,0.028 -0.075,0.027 -0.074,0.031 -0.062,0.035 -0.063,0.04 -0.051,0.042 -0.054,0.043 -0.047,0.055 -0.043,0.055 -0.039,0.058 -0.035,0.063 -0.032,0.066 -0.031,0.071 -0.027,0.078 -0.024,0.078 -0.019,0.082 -0.02,0.09 -0.015,0.094 -0.016,0.097 -0.012,0.098 -0.011,0.105 -0.008,0.11 -0.008,0.113 -0.016,0.242 -0.007,0.129 -0.489,11.535 h -0.398 l -7.844,-11.918 c -0.926,-1.406 -1.445,-1.609 -2.008,-1.609 l -0.058,-0.34 h 3.722 l 0.055,0.34 c -0.66,0 -1.148,0.203 -1.148,0.762 0,0.324 0.164,0.769 0.543,1.351 l 1.367,2.11 h 4.226 l -0.019,0.703 h -3.723 l 3.477,5.304 0.246,-5.304 0.019,-0.703 0.102,-2.571 c 0.055,-1.488 -0.606,-1.652 -1.676,-1.652 l -0.082,-0.34 h 5.09 z" /><path
         inkscape:connector-curvature="0"
         id="path24"
         style="fill:#000000;fill-opacity:1;fill-rule:nonzero;stroke:none"
         d="m 372.223,16.751 h -3.039 l -0.047,-0.274 c 0.644,0 0.851,-0.304 0.851,-0.543 0,-0.257 -0.23,-0.613 -0.5,-0.902 l -2.523,-2.75 -0.723,2.266 c -0.097,0.308 -0.289,0.773 -0.289,1.211 0,0.625 0.676,0.718 1.125,0.718 l 0.043,0.274 h -4.32 l -0.051,-0.274 c 1.078,0 1.367,-0.484 1.672,-1.394 l 1.371,-4.121 C 364.52,9.466 362.492,7.313 362.492,7.313 361.93,6.684 361.238,6.169 360.664,6.169 l -0.055,-0.27 h 3.493 l 0.05,0.27 c -0.402,0 -1.05,0.015 -1.05,0.527 0,0.262 0.273,0.649 0.468,0.856 l 2.442,2.734 0.84,-2.523 c 0.078,-0.211 0.16,-0.583 0.16,-0.852 0,-0.691 -0.563,-0.742 -1.207,-0.742 l -0.047,-0.27 h 4.293 l 0.047,0.27 c -0.789,0 -1.235,0.34 -1.559,1.324 l -1.351,4.113 2.75,3.071 c 0.5,0.546 1.605,1.8 2.238,1.8 z" /><path
         inkscape:connector-curvature="0"
         id="path26"
         style="fill:#000000;fill-opacity:1;fill-rule:nonzero;stroke:none"
         d="m 372.172,10.501 h 0.074 c 0.121,0.015 0.258,0.027 0.348,0.027 0.359,0 0.472,-0.156 0.472,-0.687 V 4.473 c 0,-0.601 -0.16,-0.75 -0.867,-0.808 V 3.497 h 2.653 v 0.168 c -0.707,0.043 -0.84,0.16 -0.84,0.773 v 6.719 l -0.047,0.02 c -0.586,-0.192 -1.016,-0.301 -1.793,-0.493 z" /><path
         inkscape:connector-curvature="0"
         id="path28"
         style="fill:#000000;fill-opacity:1;fill-rule:nonzero;stroke:none"
         d="m 379.691,5.341 -0.05,-0.075 -0.055,-0.078 -0.047,-0.07 -0.047,-0.074 -0.054,-0.067 -0.047,-0.062 -0.102,-0.117 -0.047,-0.055 -0.054,-0.055 -0.047,-0.05 -0.051,-0.043 -0.055,-0.047 -0.051,-0.043 -0.05,-0.039 -0.051,-0.036 -0.055,-0.035 -0.051,-0.031 -0.109,-0.055 -0.109,-0.046 -0.118,-0.04 -0.058,-0.015 -0.063,-0.012 -0.058,-0.008 -0.063,-0.011 -0.062,-0.008 h -0.063 l -0.133,-0.008 c -0.644,0 -1.128,0.324 -1.449,0.965 -0.207,0.429 -0.281,0.801 -0.308,1.488 l 0.027,0.359 c 0.117,0.879 0.504,1.293 1.191,1.293 0.684,0 0.957,-0.316 1.102,-1.293 h -2.293 l -0.027,-0.359 h 3.468 c -0.093,0.731 -0.203,1.051 -0.484,1.418 -0.34,0.402 -0.852,0.637 -1.441,0.637 -0.567,0 -1.086,-0.199 -1.516,-0.582 -0.531,-0.465 -0.832,-1.262 -0.832,-2.188 0,-1.551 0.805,-2.511 2.101,-2.511 1.071,0 1.915,0.656 2.387,1.875 z" /><path
         inkscape:connector-curvature="0"
         id="path30"
         style="fill:#000000;fill-opacity:1;fill-rule:nonzero;stroke:none"
         d="m 381.086,1.649 0.027,0.012 0.032,0.004 0.054,0.015 0.024,0.008 0.027,0.008 0.023,0.004 0.028,0.012 0.043,0.015 0.051,0.016 0.085,0.031 0.043,0.02 0.043,0.023 0.043,0.02 0.043,0.027 0.071,0.035 0.023,0.016 0.027,0.015 0.024,0.016 0.027,0.016 0.024,0.015 c 0.55,0.352 0.914,0.852 0.914,1.746 0,0.864 -0.41,1.227 -0.938,1.227 -0.469,0 -0.773,-0.293 -0.773,-0.746 0,-0.426 0.293,-0.707 0.707,-0.707 0.125,0 0.25,0.019 0.375,0.098 0.047,0.027 0.055,0.035 0.074,0.035 0.055,0 0.09,-0.114 0.09,-0.242 0,-0.118 0,-0.934 -1.215,-1.391 z" /><path
         inkscape:connector-curvature="0"
         id="path32"
         style="fill:#000000;fill-opacity:1;fill-rule:nonzero;stroke:none"
         d="m 389.383,10.829 v 0.719 h -3.844 v -0.719 z" /><path
         inkscape:connector-curvature="0"
         id="path34"
         style="fill:#000000;fill-opacity:1;fill-rule:nonzero;stroke:none"
         d="m 389.078,8.005 -0.008,0.047 -0.004,0.043 v 0.046 l -0.011,0.047 -0.008,0.047 -0.012,0.043 -0.019,0.047 -0.016,0.043 -0.039,0.086 -0.027,0.043 -0.028,0.039 -0.031,0.043 -0.031,0.039 -0.035,0.039 -0.039,0.035 -0.043,0.035 -0.039,0.036 -0.051,0.035 -0.047,0.027 -0.11,0.055 -0.058,0.027 -0.055,0.02 -0.133,0.039 -0.07,0.019 -0.07,0.012 -0.235,0.023 h -0.086 c -1.855,0 -3.621,-1.992 -3.621,-3.75 0,-1.289 0.844,-1.91 1.797,-1.91 1.207,0 1.989,0.801 2.528,1.442 l -0.325,0.191 c -0.367,-0.438 -0.964,-1.023 -1.738,-1.023 -0.68,0 -1.059,0.515 -1.059,1.355 0,1.109 0.872,3.309 2.418,3.309 0.188,0 0.407,-0.063 0.407,-0.235 0,-0.191 -0.321,-0.34 -0.321,-0.64 0,-0.301 0.215,-0.532 0.528,-0.532 0.429,0 0.687,0.375 0.687,0.778 z" /><path
         inkscape:connector-curvature="0"
         id="path36"
         style="fill:#000000;fill-opacity:1;fill-rule:nonzero;stroke:none"
         d="m 421.449,29.337 h 5.004 V 28.47 h -5.004 z" /><path
         inkscape:connector-curvature="0"
         id="path38"
         style="fill:#000000;fill-opacity:1;fill-rule:nonzero;stroke:none"
         d="m 425.828,24.739 v 0.059 l -0.008,0.058 -0.004,0.055 -0.011,0.059 -0.012,0.054 -0.016,0.059 -0.019,0.058 -0.02,0.055 -0.023,0.055 -0.031,0.054 -0.028,0.055 -0.035,0.055 -0.035,0.051 -0.039,0.05 -0.094,0.094 -0.051,0.047 -0.05,0.039 -0.059,0.043 -0.125,0.078 -0.066,0.031 -0.071,0.032 -0.074,0.031 -0.078,0.023 -0.082,0.024 -0.082,0.019 -0.18,0.032 -0.097,0.007 -0.102,0.008 h -0.102 c -2.367,0 -4.617,-2.683 -4.617,-5.051 0,-1.703 1.047,-2.488 2.25,-2.488 1.531,0 2.528,1.059 3.121,1.817 l -0.242,0.16 c -0.433,-0.532 -1.23,-1.367 -2.281,-1.367 -0.934,0 -1.481,0.757 -1.481,1.976 0,1.531 1.192,4.629 3.25,4.629 0.305,0 0.61,-0.137 0.61,-0.414 0,-0.277 -0.399,-0.465 -0.399,-0.898 0,-0.356 0.239,-0.598 0.594,-0.598 0.496,0 0.789,0.449 0.789,0.949 z" /><path
         inkscape:connector-curvature="0"
         id="path40"
         style="fill:#000000;fill-opacity:1;fill-rule:nonzero;stroke:none"
         d="m 293.289,229.934 0.024,0.004 0.023,0.008 0.023,0.004 0.02,0.004 0.027,0.004 0.02,0.004 0.043,0.008 0.039,0.007 0.035,0.008 0.039,0.004 0.035,0.008 0.078,0.008 h 0.035 l 0.04,0.004 h 0.035 l 0.039,0.004 h 0.078 c 0.512,0 0.687,-0.317 0.687,-1.266 v -5 c 0,-1.063 -0.273,-1.359 -1.379,-1.379 v -0.297 h 4.387 v 0.297 c -1.047,0.035 -1.347,0.254 -1.347,1.027 v 5.571 c 0,0.035 0.16,0.234 0.3,0.375 0.496,0.453 1.344,0.793 2.028,0.793 0.879,0 1.308,-0.696 1.308,-2.079 v -4.289 c 0,-1.101 -0.215,-1.32 -1.343,-1.398 v -0.297 h 4.425 v 0.297 c -1.129,0.02 -1.418,0.352 -1.418,1.578 v 4.977 c 0.586,0.855 1.239,1.211 2.149,1.211 1.125,0 1.48,-0.536 1.48,-2.18 v -4.168 c 0,-1.121 -0.156,-1.285 -1.301,-1.418 v -0.297 h 4.325 v 0.297 l -0.516,0.035 c -0.586,0.043 -0.848,0.399 -0.848,1.164 v 4.074 c 0,2.329 -0.769,3.52 -2.293,3.52 -1.144,0 -2.148,-0.516 -3.214,-1.664 -0.36,1.133 -1.028,1.664 -2.094,1.664 -0.871,0 -1.426,-0.281 -3.067,-1.523 v 1.476 l -0.136,0.047 c -1.012,-0.379 -1.68,-0.598 -2.766,-0.895 z" /><path
         inkscape:connector-curvature="0"
         id="path42"
         style="fill:#000000;fill-opacity:1;fill-rule:nonzero;stroke:none"
         d="m 310.754,224.044 h -0.055 l -0.054,-0.004 -0.11,-0.016 -0.152,-0.047 -0.051,-0.019 -0.094,-0.047 -0.047,-0.027 -0.043,-0.032 -0.046,-0.035 -0.039,-0.031 -0.04,-0.035 -0.039,-0.039 -0.035,-0.039 -0.031,-0.039 -0.035,-0.043 -0.028,-0.047 -0.035,-0.047 -0.023,-0.043 -0.024,-0.051 -0.023,-0.047 -0.02,-0.054 -0.015,-0.051 -0.016,-0.055 -0.011,-0.051 -0.012,-0.054 -0.008,-0.118 -0.004,-0.054 c 0,-0.571 0.496,-1.067 1.066,-1.067 0.614,0 1.125,0.496 1.125,1.067 0,0.613 -0.511,1.125 -1.101,1.125 z" /><path
         inkscape:connector-curvature="0"
         id="path44"
         style="fill:#000000;fill-opacity:1;fill-rule:nonzero;stroke:none"
         d="m 321.961,223.372 -0.063,-0.047 -0.027,-0.027 -0.035,-0.024 -0.109,-0.078 -0.11,-0.062 -0.027,-0.012 -0.027,-0.016 -0.024,-0.011 -0.027,-0.012 -0.024,-0.008 -0.027,-0.012 -0.023,-0.011 -0.028,-0.008 -0.023,-0.008 -0.028,-0.008 -0.027,-0.004 -0.027,-0.008 -0.051,-0.007 -0.051,-0.004 -0.109,-0.008 c -0.453,0 -0.598,0.281 -0.598,1.148 v 3.852 c 0,1.023 -0.098,1.601 -0.387,2.07 -0.441,0.715 -1.289,1.094 -2.457,1.094 -1.851,0 -3.312,-0.969 -3.312,-2.215 0,-0.457 0.39,-0.848 0.848,-0.848 0.472,0 0.886,0.391 0.886,0.825 0,0.078 -0.019,0.179 -0.039,0.316 -0.043,0.18 -0.058,0.34 -0.058,0.477 0,0.531 0.628,0.968 1.421,0.968 0.969,0 1.5,-0.57 1.5,-1.64 v -4.547 c 0,-0.609 -0.097,-0.785 -0.515,-1.027 -0.469,-0.274 -1.028,-0.454 -1.442,-0.454 -0.687,0 -1.238,0.672 -1.238,1.524 v 0.074 c 0,1.168 0.805,1.883 3.195,2.754 v 0.473 c -3.039,-1.231 -3.378,-1.383 -4.226,-2.133 -0.434,-0.399 -0.711,-1.067 -0.711,-1.723 0,-1.246 0.871,-2.113 2.074,-2.113 0.871,0 1.684,0.418 2.883,1.441 0.102,-1.023 0.457,-1.441 1.262,-1.441 0.679,0 1.09,0.234 1.781,0.992 z" /><path
         inkscape:connector-curvature="0"
         id="path46"
         style="fill:#000000;fill-opacity:1;fill-rule:nonzero;stroke:none"
         d="m 324.457,224.044 h -0.055 l -0.054,-0.004 -0.055,-0.008 -0.051,-0.008 -0.058,-0.015 -0.047,-0.016 -0.051,-0.016 -0.051,-0.019 -0.047,-0.024 -0.05,-0.023 -0.043,-0.027 -0.043,-0.032 -0.043,-0.035 -0.043,-0.031 -0.039,-0.035 -0.036,-0.039 -0.039,-0.039 -0.035,-0.039 -0.031,-0.043 -0.031,-0.047 -0.028,-0.047 -0.027,-0.043 -0.023,-0.051 -0.024,-0.047 -0.019,-0.054 -0.02,-0.051 -0.016,-0.055 -0.011,-0.051 -0.008,-0.054 -0.008,-0.059 -0.004,-0.059 v -0.054 c 0,-0.571 0.496,-1.067 1.063,-1.067 0.617,0 1.133,0.496 1.133,1.067 0,0.613 -0.516,1.125 -1.106,1.125 z" /><path
         inkscape:connector-curvature="0"
         id="path48"
         style="fill:#000000;fill-opacity:1;fill-rule:nonzero;stroke:none"
         d="m 334.797,225.149 -0.09,-0.129 -0.086,-0.117 -0.086,-0.121 -0.082,-0.109 -0.09,-0.106 -0.082,-0.101 -0.078,-0.094 -0.086,-0.098 -0.082,-0.082 -0.156,-0.164 -0.086,-0.07 -0.078,-0.07 -0.082,-0.067 -0.082,-0.062 -0.082,-0.055 -0.082,-0.051 -0.086,-0.047 -0.082,-0.047 -0.082,-0.043 -0.09,-0.035 -0.086,-0.035 -0.086,-0.027 -0.09,-0.028 -0.18,-0.039 -0.097,-0.019 -0.094,-0.012 -0.098,-0.012 -0.101,-0.007 -0.102,-0.004 -0.109,-0.004 c -1.797,0 -3.055,1.582 -3.055,3.851 0,2.039 1.09,3.438 2.688,3.438 0.715,0 0.965,-0.215 1.16,-0.945 l 0.121,-0.438 c 0.16,-0.551 0.516,-0.906 0.93,-0.906 0.511,0 0.949,0.375 0.949,0.828 0,1.109 -1.383,2.039 -3.043,2.039 -0.965,0 -1.977,-0.398 -2.789,-1.113 -0.985,-0.864 -1.535,-2.207 -1.535,-3.77 0,-2.566 1.562,-4.406 3.754,-4.406 0.886,0 1.679,0.316 2.382,0.93 0.536,0.476 0.914,1.007 1.508,2.175 z" /><path
         inkscape:connector-curvature="0"
         id="path50"
         style="fill:#000000;fill-opacity:1;fill-rule:nonzero;stroke:none"
         d="m 338.16,224.044 h -0.055 l -0.054,-0.004 -0.11,-0.016 -0.152,-0.047 -0.051,-0.019 -0.093,-0.047 -0.047,-0.027 -0.043,-0.032 -0.047,-0.035 -0.039,-0.031 -0.039,-0.035 -0.039,-0.039 -0.036,-0.039 -0.031,-0.039 -0.035,-0.043 -0.062,-0.094 -0.024,-0.043 -0.023,-0.051 -0.024,-0.047 -0.019,-0.054 -0.016,-0.051 -0.016,-0.055 -0.011,-0.051 -0.012,-0.054 -0.004,-0.059 -0.008,-0.059 v -0.054 c 0,-0.571 0.496,-1.067 1.067,-1.067 0.609,0 1.125,0.496 1.125,1.067 0,0.613 -0.516,1.125 -1.102,1.125 z" /><path
         inkscape:connector-curvature="0"
         id="path52"
         style="fill:#000000;fill-opacity:1;fill-rule:nonzero;stroke:none"
         d="m 346.773,227.009 v -0.969 h 9.879 v 0.969 z" /><path
         inkscape:connector-curvature="0"
         id="path54"
         style="fill:#000000;fill-opacity:1;fill-rule:nonzero;stroke:none"
         d="m 361.949,234.376 h 0.121 c 0.215,0.023 0.45,0.043 0.614,0.043 0.629,0 0.82,-0.278 0.82,-1.211 v -9.422 c 0,-1.066 -0.27,-1.32 -1.516,-1.418 v -0.297 h 4.66 v 0.297 c -1.242,0.078 -1.484,0.273 -1.484,1.363 v 11.789 l -0.074,0.043 c -1.027,-0.332 -1.777,-0.531 -3.141,-0.871 z" /><path
         inkscape:connector-curvature="0"
         id="path56"
         style="fill:#000000;fill-opacity:1;fill-rule:nonzero;stroke:none"
         d="m 369.516,224.044 h -0.055 l -0.055,-0.004 -0.109,-0.016 -0.152,-0.047 -0.051,-0.019 -0.094,-0.047 -0.047,-0.027 -0.043,-0.032 -0.043,-0.035 -0.043,-0.031 -0.039,-0.035 -0.039,-0.039 -0.035,-0.039 -0.031,-0.039 -0.035,-0.043 -0.028,-0.047 -0.035,-0.047 -0.023,-0.043 -0.024,-0.051 -0.023,-0.047 -0.02,-0.054 -0.015,-0.051 -0.016,-0.055 -0.012,-0.051 -0.011,-0.054 -0.004,-0.059 -0.008,-0.059 v -0.054 c 0,-0.571 0.496,-1.067 1.066,-1.067 0.613,0 1.125,0.496 1.125,1.067 0,0.613 -0.512,1.125 -1.101,1.125 z" /><path
         inkscape:connector-curvature="0"
         id="path58"
         style="fill:#000000;fill-opacity:1;fill-rule:nonzero;stroke:none"
         d="m 380.051,225.309 -0.086,-0.136 -0.086,-0.133 -0.18,-0.25 -0.086,-0.113 -0.09,-0.118 -0.082,-0.105 -0.086,-0.102 -0.089,-0.097 -0.09,-0.09 -0.086,-0.09 -0.09,-0.082 -0.09,-0.074 -0.086,-0.074 -0.094,-0.071 -0.179,-0.125 -0.098,-0.054 -0.09,-0.051 -0.093,-0.047 -0.102,-0.043 -0.098,-0.039 -0.101,-0.035 -0.098,-0.032 -0.101,-0.027 -0.11,-0.023 -0.101,-0.02 -0.114,-0.015 -0.218,-0.024 -0.118,-0.004 h -0.117 c -1.129,0 -1.976,0.574 -2.554,1.699 -0.348,0.754 -0.489,1.403 -0.532,2.61 l 0.043,0.629 c 0.219,1.543 0.883,2.273 2.094,2.273 1.203,0 1.68,-0.551 1.934,-2.273 h -4.028 l -0.043,-0.629 h 6.082 c -0.148,1.281 -0.347,1.855 -0.843,2.488 -0.59,0.711 -1.504,1.129 -2.532,1.129 -0.988,0 -1.914,-0.363 -2.664,-1.027 -0.929,-0.817 -1.465,-2.215 -1.465,-3.836 0,-2.731 1.422,-4.426 3.7,-4.426 1.875,0 3.355,1.164 4.187,3.305 z" /><path
         inkscape:connector-curvature="0"
         id="path60"
         style="fill:#000000;fill-opacity:1;fill-rule:nonzero;stroke:none"
         d="m 383.223,224.044 h -0.059 l -0.055,-0.004 -0.054,-0.008 -0.051,-0.008 -0.059,-0.015 -0.047,-0.016 -0.05,-0.016 -0.051,-0.019 -0.094,-0.047 -0.047,-0.027 -0.043,-0.032 -0.043,-0.035 -0.043,-0.031 -0.039,-0.035 -0.035,-0.039 -0.039,-0.039 -0.035,-0.039 -0.031,-0.043 -0.032,-0.047 -0.027,-0.047 -0.027,-0.043 -0.024,-0.051 -0.023,-0.047 -0.02,-0.054 -0.015,-0.051 -0.02,-0.055 -0.012,-0.051 -0.007,-0.054 -0.008,-0.059 -0.004,-0.059 v -0.054 c 0,-0.571 0.496,-1.067 1.062,-1.067 0.618,0 1.133,0.496 1.133,1.067 0,0.613 -0.515,1.125 -1.101,1.125 z" /><path
         inkscape:connector-curvature="0"
         id="path62"
         style="fill:#ffffff;fill-opacity:1;fill-rule:evenodd;stroke:none"
         d="m 234.566,163.899 c 41.344,8.16 89.293,8.442 141.817,7.903 59.578,27.441 98.859,35.929 161.855,14.445 83.418,-21.07 147.692,-17.328 188.426,16.816 l 41.016,34.375 c 2.218,1.86 5.113,3.336 8.008,3.356 l 39.457,0.242 c 2.609,0.016 4.414,-4.477 3.597,-6.953 l -29.488,-89.375 c -1.941,-5.887 -6.059,-10.621 -14.664,-11.449 -9.024,-0.868 -18.078,-1.11 -27.106,-1.551 -123.89,-6.11 -215.711,-17.192 -262.113,-34.754 -0.949,-0.34 -1.98,-0.516 -3.094,-0.527 -21.945,-0.481 -42.375,-0.317 -60.597,0.308 -16.125,0.551 -28.575,1.188 -42.45,1.137 l -50.843,9.797 c -1.379,0.101 -9.504,-6.727 -10.883,-6.809 -35.918,-2.215 -53.426,0.715 -71.867,10.52 -0.16,0.086 -0.383,0.191 -0.383,0.367 l -0.02,5.508 c 0,0.179 0.235,0.379 0.399,0.453 1.652,0.75 3.031,1.418 4.047,1.984 1.48,0.824 1.836,1.563 -0.446,2.688 -3.554,1.758 -6.371,7.453 -10.152,9.476 -0.941,0.508 -2.621,0.899 -4.512,1.219 v 30.824" /><g
         transform="matrix(1,0,0,-1,0,320.01642)"
         id="g64"><path
           inkscape:connector-curvature="0"
           id="path66"
           style="fill:none;stroke:#2b2828;stroke-width:0.83513099;stroke-linecap:butt;stroke-linejoin:miter;stroke-miterlimit:10;stroke-dasharray:none;stroke-opacity:1"
           d="m 234.566,156.117 c 41.344,-8.16 89.293,-8.441 141.817,-7.902 59.578,-27.442 98.859,-35.93 161.855,-14.445 83.418,21.07 147.692,17.328 188.426,-16.817 L 767.68,82.578 c 2.218,-1.859 5.113,-3.336 8.008,-3.355 l 39.457,-0.243 c 2.609,-0.015 4.414,4.477 3.597,6.954 l -29.488,89.375 c -1.941,5.886 -6.059,10.621 -14.664,11.449 -9.024,0.867 -18.078,1.109 -27.106,1.551 -123.89,6.109 -215.711,17.191 -262.113,34.754 -0.949,0.339 -1.98,0.515 -3.094,0.527 -21.945,0.48 -42.375,0.316 -60.597,-0.309 -16.125,-0.551 -28.575,-1.187 -42.45,-1.136 l -50.05,-4.141 c -1.379,-0.098 -10.297,1.07 -11.676,1.152 -35.918,2.215 -53.426,-0.715 -71.867,-10.519 -0.16,-0.086 -0.383,-0.192 -0.383,-0.367 l -0.02,-5.508 c 0,-0.18 0.235,-0.379 0.399,-0.453 1.652,-0.75 3.031,-1.418 4.047,-1.985 1.48,-0.824 1.836,-1.562 -0.446,-2.687 -3.554,-1.758 -6.371,-7.453 -10.152,-9.477 -0.941,-0.508 -2.621,-0.898 -4.512,-1.219 z" /></g><g
         transform="matrix(1,0,0,-1,0,320.01642)"
         id="g68"><path
           inkscape:connector-curvature="0"
           id="path70"
           style="fill:none;stroke:#2b2828;stroke-width:0.83513099;stroke-linecap:butt;stroke-linejoin:miter;stroke-miterlimit:10;stroke-dasharray:none;stroke-opacity:1"
           d="m 234.566,156.117 c 41.344,-8.16 89.293,-8.441 141.817,-7.902 59.578,-27.442 98.859,-35.93 161.855,-14.445 83.418,21.07 147.692,17.328 188.426,-16.817 L 767.68,82.578 c 2.218,-1.859 5.113,-3.336 8.008,-3.355 l 39.457,-0.243 c 2.609,-0.015 4.414,4.477 3.597,6.954 l -29.488,89.375 c -1.941,5.886 -6.059,10.621 -14.664,11.449 -9.024,0.867 -18.078,1.109 -27.106,1.551 -123.89,6.109 -215.711,17.191 -262.113,34.754 -0.949,0.339 -1.98,0.515 -3.094,0.527 -21.945,0.48 -42.375,0.316 -60.597,-0.309 -16.125,-0.551 -28.575,-1.187 -42.45,-1.136 l -50.05,-4.141 c -1.379,-0.098 -10.297,1.07 -11.676,1.152 -35.918,2.215 -53.426,-0.715 -71.867,-10.519 -0.16,-0.086 -0.383,-0.192 -0.383,-0.367 l -0.02,-5.508 c 0,-0.18 0.235,-0.379 0.399,-0.453 1.652,-0.75 3.031,-1.418 4.047,-1.985 1.48,-0.824 1.836,-1.562 -0.446,-2.687 -3.554,-1.758 -6.371,-7.453 -10.152,-9.477 -0.941,-0.508 -2.621,-0.898 -4.512,-1.219 z" /></g><g
         transform="matrix(1,0,0,-1,0,320.01642)"
         id="g72"><path
           inkscape:connector-curvature="0"
           id="path74"
           style="fill:none;stroke:#2b2828;stroke-width:0.82841802;stroke-linecap:butt;stroke-linejoin:miter;stroke-miterlimit:10;stroke-dasharray:none;stroke-opacity:1"
           d="m 746.559,188.301 49.41,-94.446 -17.121,-9.785 0.488,-4.894" /></g><g
         transform="matrix(1,0,0,-1,0,320.01642)"
         id="g76"><path
           inkscape:connector-curvature="0"
           id="path78"
           style="fill:none;stroke:#2b2828;stroke-width:1.65683603;stroke-linecap:butt;stroke-linejoin:miter;stroke-miterlimit:10;stroke-dasharray:none;stroke-opacity:1"
           d="m 234.566,156.117 c 41.344,-8.16 89.293,-8.441 141.817,-7.902 59.578,-27.442 98.859,-35.93 161.855,-14.445 83.418,21.07 147.692,17.328 188.426,-16.817 L 767.68,82.578 c 2.218,-1.859 5.113,-3.336 8.008,-3.355 l 39.457,-0.243 c 2.609,-0.015 4.414,4.477 3.597,6.954 l -29.488,89.375 c -1.941,5.886 -6.059,10.621 -14.664,11.449 -9.024,0.867 -18.078,1.109 -27.106,1.551 -123.89,6.109 -215.711,17.191 -262.113,34.754 -0.949,0.339 -1.98,0.515 -3.094,0.527 -21.945,0.48 -42.375,0.316 -60.597,-0.309 -16.125,-0.551 -28.575,-1.187 -42.45,-1.136 l -50.05,-4.141 c -1.379,-0.098 -10.297,1.07 -11.676,1.152 -35.918,2.215 -53.426,-0.715 -71.867,-10.519 -0.16,-0.086 -0.383,-0.192 -0.383,-0.367 l -0.02,-5.508 c 0,-0.18 0.235,-0.379 0.399,-0.453 1.652,-0.75 3.031,-1.418 4.047,-1.985 1.48,-0.824 1.836,-1.562 -0.446,-2.687 -3.554,-1.758 -6.371,-7.453 -10.152,-9.477 -0.941,-0.508 -2.621,-0.898 -4.512,-1.219 z" /></g><g
         transform="matrix(1,0,0,-1,0,320.01642)"
         id="g80"><path
           inkscape:connector-curvature="0"
           id="path82"
           style="fill:none;stroke:#9099bd;stroke-width:0.82841802;stroke-linecap:butt;stroke-linejoin:miter;stroke-miterlimit:10;stroke-dasharray:none;stroke-opacity:1"
           d="m 328.383,147.738 -0.688,64.403" /></g><path
         inkscape:connector-curvature="0"
         id="path84"
         style="fill:#ffffff;fill-opacity:1;fill-rule:evenodd;stroke:none"
         d="m 233.605,163.735 c -8.945,-2.515 -30.91,-9.777 -30.89,-15.148 0.015,-5.262 22.644,-13.141 30.89,-15.332 v 30.48" /><g
         transform="matrix(1,0,0,-1,0,320.01642)"
         id="g86"><path
           inkscape:connector-curvature="0"
           id="path88"
           style="fill:none;stroke:#2b2828;stroke-width:1.65683603;stroke-linecap:butt;stroke-linejoin:miter;stroke-miterlimit:10;stroke-dasharray:none;stroke-opacity:1"
           d="m 233.605,156.281 c -8.945,2.516 -30.91,9.778 -30.89,15.149 0.015,5.261 22.644,13.14 30.89,15.332 z" /></g><text
         id="text92"
         style="font-variant:normal;font-weight:normal;font-size:11.84238434px;font-family:Arial;-inkscape-font-specification:ArialMT;writing-mode:lr-tb;fill:#ffffff;fill-opacity:1;fill-rule:nonzero;stroke:none"
         transform="matrix(0.88873135,0.18440645,-0.45291277,-0.98285007,782.14152,189.72472)"><tspan
           id="tspan90"
           sodipodi:role="line"
           y="0"
           x="0 -21.280764 -13.381894 -6.6909471 14.577974 6.6791048">1N36CD</tspan></text>
<path
         inkscape:connector-curvature="0"
         id="path94"
         style="fill:#ffffff;fill-opacity:1;fill-rule:evenodd;stroke:none"
         d="m 387.195,112.013 c 34.602,5.671 64.785,-6.274 95.535,-15.313 -31.265,-0.742 -65.019,-0.469 -104.601,1.703 -17.477,0.957 -4.871,11.324 9.066,13.61" /><g
         transform="matrix(1,0,0,-1,0,320.01642)"
         id="g96"><path
           inkscape:connector-curvature="0"
           id="path98"
           style="fill:none;stroke:#2b2828;stroke-width:1.65683603;stroke-linecap:butt;stroke-linejoin:miter;stroke-miterlimit:10;stroke-dasharray:none;stroke-opacity:1"
           d="m 395.195,190.398 c 0,-2.519 8.95,-2.921 14.18,-2.945 15.078,-0.055 26.59,1.078 46.754,2.719 l 26.601,33.144 c -31.265,0.743 -65.019,0.469 -104.601,-1.703 -6.008,-0.328 -8.461,-1.769 -8.527,-3.613 l 25.601,-27.602 z" /></g><g
         transform="matrix(1,0,0,-1,0,320.01642)"
         id="g100"><path
           inkscape:connector-curvature="0"
           id="path102"
           style="fill:none;stroke:#2b2828;stroke-width:1.65683603;stroke-linecap:butt;stroke-linejoin:miter;stroke-miterlimit:10;stroke-dasharray:none;stroke-opacity:1"
           d="m 395.195,190.398 c 0,-2.519 8.95,-2.921 14.18,-2.945 15.078,-0.055 26.59,1.078 46.754,2.719 -15.524,0.59 -31.047,1.555 -46.57,1.773 -4.95,0.071 -14.368,-0.445 -14.364,-1.547 z" /></g><g
         transform="matrix(1,0,0,-1,0,320.01642)"
         id="g104"><path
           inkscape:connector-curvature="0"
           id="path106"
           style="fill:none;stroke:#2b2828;stroke-width:0.82841802;stroke-linecap:butt;stroke-linejoin:miter;stroke-miterlimit:10;stroke-dasharray:none;stroke-opacity:1"
           d="m 458.922,193.414 -13.738,1.219 5.636,9.773" /></g><g
         transform="matrix(1,0,0,-1,0,320.01642)"
         id="g108"><path
           inkscape:connector-curvature="0"
           id="path110"
           style="fill:none;stroke:#2b2828;stroke-width:0.82841802;stroke-linecap:butt;stroke-linejoin:miter;stroke-miterlimit:10;stroke-dasharray:none;stroke-opacity:1"
           d="m 466.289,202.695 -18.746,2.118 11.129,17.886 22.558,-1.351" /></g><path
         inkscape:connector-curvature="0"
         id="path112"
         style="fill:#d3d8e8;fill-opacity:1;fill-rule:nonzero;stroke:none"
         d="m 377.043,172.122 c 3.973,-5.93 24.508,-12.867 36.156,-12.926 l 62.399,-0.308 c 1.523,-0.008 3.461,0.75 4.019,2.167 l 14.238,35.907 c -38.824,6.187 -80.359,-7.703 -116.812,-24.84" /><g
         transform="matrix(1,0,0,-1,0,320.01642)"
         id="g114"><path
           inkscape:connector-curvature="0"
           id="path116"
           style="fill:none;stroke:#2b2828;stroke-width:1.65683603;stroke-linecap:butt;stroke-linejoin:miter;stroke-miterlimit:10;stroke-dasharray:none;stroke-opacity:1"
           d="m 377.043,147.895 c 3.973,5.929 24.508,12.867 36.156,12.925 l 62.399,0.309 c 1.523,0.008 3.461,-0.75 4.019,-2.168 l 14.238,-35.906 c -38.824,-6.188 -80.359,7.703 -116.812,24.84 z" /></g><path
         inkscape:connector-curvature="0"
         id="path118"
         style="fill:#d3d8e8;fill-opacity:1;fill-rule:nonzero;stroke:none"
         d="m 501.617,183.516 c 0.715,1.903 4.082,1.204 6.055,0.715 l 25.832,-6.418 c 2.117,-0.527 3.922,-2.511 2.469,-6.066 l -3.856,-9.434 c -0.547,-1.336 -2.328,-2.14 -3.777,-2.14 h -29.75 c -3.633,0 -4.914,2.226 -3.742,5.343 l 6.769,18" /><g
         transform="matrix(1,0,0,-1,0,320.01642)"
         id="g120"><path
           inkscape:connector-curvature="0"
           id="path122"
           style="fill:none;stroke:#2b2828;stroke-width:1.491153;stroke-linecap:butt;stroke-linejoin:miter;stroke-miterlimit:10;stroke-dasharray:none;stroke-opacity:1"
           d="m 501.617,136.5 c 0.715,-1.902 4.082,-1.203 6.055,-0.715 l 25.832,6.418 c 2.117,0.527 3.922,2.512 2.469,6.067 l -3.856,9.433 c -0.547,1.336 -2.328,2.141 -3.777,2.141 h -29.75 c -3.633,0 -4.914,-2.227 -3.742,-5.344 z" /></g><g
         transform="matrix(1,0,0,-1,0,320.01642)"
         id="g124"><path
           inkscape:connector-curvature="0"
           id="path126"
           style="fill:none;stroke:#9099bd;stroke-width:0.82841802;stroke-linecap:butt;stroke-linejoin:miter;stroke-miterlimit:10;stroke-dasharray:none;stroke-opacity:1"
           d="m 254.637,200.012 73.07,11.715" /></g><g
         transform="matrix(1,0,0,-1,0,320.01642)"
         id="g128"><path
           inkscape:connector-curvature="0"
           id="path130"
           style="fill:none;stroke:#9099bd;stroke-width:0.82841802;stroke-linecap:butt;stroke-linejoin:miter;stroke-miterlimit:10;stroke-dasharray:none;stroke-opacity:1"
           d="m 235.148,172.09 h 92.899" /></g><g
         transform="matrix(1,0,0,-1,0,320.01642)"
         id="g132"><path
           inkscape:connector-curvature="0"
           id="path134"
           style="fill:none;stroke:#9099bd;stroke-width:0.82841802;stroke-linecap:butt;stroke-linejoin:miter;stroke-miterlimit:10;stroke-dasharray:none;stroke-opacity:1"
           d="m 261.414,154.863 c -9.644,2.407 -17.711,4.098 -22.953,8.731 -0.781,0.691 -1.648,1.613 -1.648,2.484 v 12.199 c 0,0.754 0.265,1.625 0.683,2.219 2.375,3.363 13.332,11.551 19.793,15.762" /></g><g
         transform="matrix(1,0,0,-1,0,320.01642)"
         id="g136"><path
           inkscape:connector-curvature="0"
           id="path138"
           style="fill:none;stroke:#9099bd;stroke-width:0.82841802;stroke-linecap:butt;stroke-linejoin:miter;stroke-miterlimit:10;stroke-dasharray:none;stroke-opacity:1"
           d="m 367.973,148.246 9.269,26.324 104.938,0.004 20.605,-50.722" /></g><g
         transform="matrix(1,0,0,-1,0,320.01642)"
         id="g140"><path
           inkscape:connector-curvature="0"
           id="path142"
           style="fill:none;stroke:#2b2828;stroke-width:1.82666099;stroke-linecap:butt;stroke-linejoin:miter;stroke-miterlimit:10;stroke-dasharray:none;stroke-opacity:1"
           d="m 704.586,155.738 c 11.969,-1.105 24.016,-1.121 36.012,-0.508 l -0.887,6.989 c -11.723,0.394 -23.441,-0.172 -35.125,-1.098 -12.535,-1.215 -9.82,-4.492 0,-5.383 z" /></g><g
         transform="matrix(1,0,0,-1,0,320.01642)"
         id="g144"><path
           inkscape:connector-curvature="0"
           id="path146"
           style="fill:none;stroke:#9099bd;stroke-width:3.35511398;stroke-linecap:round;stroke-linejoin:miter;stroke-miterlimit:10;stroke-dasharray:none;stroke-opacity:1"
           d="m 234.652,111.387 -0.687,121.398" /></g><path
         inkscape:connector-curvature="0"
         id="path148"
         style="fill:#e2e568;fill-opacity:1;fill-rule:evenodd;stroke:none"
         d="m 745.574,164.485 c 13.219,-0.89 26.086,-2.476 38.844,-3.984 -13.195,-1.035 -26.426,-2.09 -39.715,-2.559 -1.937,-0.094 -2.851,1.223 -2.629,3.246 0.258,2.391 0.942,3.446 3.5,3.297" /><g
         transform="matrix(1,0,0,-1,0,320.01642)"
         id="g150"><path
           inkscape:connector-curvature="0"
           id="path152"
           style="fill:none;stroke:#2b2828;stroke-width:1.82666099;stroke-linecap:butt;stroke-linejoin:miter;stroke-miterlimit:10;stroke-dasharray:none;stroke-opacity:1"
           d="m 745.574,155.531 c 13.219,0.891 26.086,2.477 38.844,3.985 -13.195,1.035 -26.426,2.089 -39.715,2.558 -1.937,0.094 -2.851,-1.222 -2.629,-3.246 0.258,-2.39 0.942,-3.445 3.5,-3.297 z" /></g><g
         transform="matrix(1,0,0,-1,0,320.01642)"
         id="g154"><path
           inkscape:connector-curvature="0"
           id="path156"
           style="fill:none;stroke:#2b2828;stroke-width:1.30835903;stroke-linecap:butt;stroke-linejoin:miter;stroke-miterlimit:10;stroke-dasharray:none;stroke-opacity:1"
           d="m 423.066,195.539 c 2.575,0 4.672,2.102 4.672,4.676 0,2.57 -2.097,4.672 -4.672,4.672 -2.57,0 -4.671,-2.102 -4.671,-4.672 0,-2.574 2.101,-4.676 4.671,-4.676 z" /></g><g
         transform="matrix(1,0,0,-1,0,320.01642)"
         id="g158"><path
           inkscape:connector-curvature="0"
           id="path160"
           style="fill:none;stroke:#2b2828;stroke-width:1.30835903;stroke-linecap:butt;stroke-linejoin:miter;stroke-miterlimit:10;stroke-dasharray:none;stroke-opacity:1"
           d="m 423.074,194.457 v 11.512" /></g><g
         transform="matrix(1,0,0,-1,0,320.01642)"
         id="g162"><path
           inkscape:connector-curvature="0"
           id="path164"
           style="fill:none;stroke:#2b2828;stroke-width:1.30835903;stroke-linecap:butt;stroke-linejoin:miter;stroke-miterlimit:10;stroke-dasharray:none;stroke-opacity:1"
           d="m 417.176,200.215 h 11.797" /></g><path
         inkscape:connector-curvature="0"
         id="path166"
         style="fill:#2b2828;fill-opacity:1;fill-rule:evenodd;stroke:none"
         d="m 423.066,124.477 c 2.575,0 4.672,-2.101 4.672,-4.675 h -4.672 v 4.675" /><path
         inkscape:connector-curvature="0"
         id="path168"
         style="fill:#2b2828;fill-opacity:1;fill-rule:evenodd;stroke:none"
         d="m 423.066,115.13 c -2.57,0 -4.671,2.101 -4.671,4.672 h 4.671 v -4.672" /><g
         transform="matrix(1,0,0,-1,0,320.01642)"
         id="g170"><path
           inkscape:connector-curvature="0"
           id="path172"
           style="fill:none;stroke:#000000;stroke-width:1.65683603;stroke-linecap:butt;stroke-linejoin:miter;stroke-miterlimit:10;stroke-dasharray:9.941009, 1.656836;stroke-dashoffset:0;stroke-opacity:1"
           d="m 140.215,217.559 443.109,9.64" /></g><g
         transform="matrix(1,0,0,-1,0,320.01642)"
         id="g174"><path
           inkscape:connector-curvature="0"
           id="path176"
           style="fill:none;stroke:#000000;stroke-width:2.48525405;stroke-linecap:butt;stroke-linejoin:miter;stroke-miterlimit:10;stroke-dasharray:19.882018, 4.970517, 2.485254, 4.970517;stroke-dashoffset:0;stroke-opacity:1"
           d="M 177.273,171.574 H 818.695" /></g><path
         inkscape:connector-curvature="0"
         id="path178"
         style="fill:#f3d872;fill-opacity:1;fill-rule:evenodd;stroke:none"
         d="M 121.5,99.223 V 83.669 H 44.98 V 69.907 L 3.391,91.446 44.98,112.985 V 99.223 h 76.52" /><g
         transform="matrix(1,0,0,-1,0,320.01642)"
         id="g180"><path
           inkscape:connector-curvature="0"
           id="path182"
           style="fill:none;stroke:#000000;stroke-width:1.65683603;stroke-linecap:butt;stroke-linejoin:miter;stroke-miterlimit:10;stroke-dasharray:none;stroke-opacity:1"
           d="m 121.5,220.793 v 15.555 H 44.98 v 13.761 L 3.391,228.57 44.98,207.031 v 13.762 z" /></g><g
         transform="matrix(1,0,0,-1,0,320.01642)"
         id="g184"><path
           inkscape:connector-curvature="0"
           id="path186"
           style="fill:none;stroke:#000000;stroke-width:2.07104492;stroke-linecap:butt;stroke-linejoin:miter;stroke-miterlimit:10;stroke-dasharray:24.852535, 2.071045;stroke-dashoffset:0;stroke-opacity:1"
           d="M 67.633,228.57 H 212.426" /></g><path
         inkscape:connector-curvature="0"
         id="path188"
         style="fill:#121466;fill-opacity:1;fill-rule:nonzero;stroke:none"
         d="m 210.445,148.442 c 0,3.766 -3.054,6.824 -6.824,6.824 -3.769,0 -6.82,-3.058 -6.82,-6.824 0,-3.765 3.051,-6.824 6.82,-6.824 3.77,0 6.824,3.059 6.824,6.824" /><g
         transform="rotate(180,-362.72602,102.25805)"
         id="g192"><path
           inkscape:connector-curvature="0"
           id="path194"
           style="fill:none;stroke:#808080;stroke-width:1.67755699;stroke-linecap:butt;stroke-linejoin:miter;stroke-miterlimit:10;stroke-dasharray:none;stroke-opacity:1"
           d="m -574.105,162.766 v -30.758 c 0,-35.031 136.449,-25.223 136.449,-62.266 V 50.43" /></g><path
         inkscape:connector-curvature="0"
         id="path206"
         style="fill:#808080;fill-opacity:1;fill-rule:nonzero;stroke:none"
         d="m 726.574,181.001 c -2.601,-4.375 -4.164,-8.746 -4.683,-13.117 -0.524,4.371 -2.082,8.742 -4.688,13.117 l 4.688,-5.246" /><g
         transform="rotate(180,0,160.00821)"
         id="g208"><path
           inkscape:connector-curvature="0"
           id="path210"
           style="fill:none;stroke:#808080;stroke-width:1.67755699;stroke-linecap:butt;stroke-linejoin:miter;stroke-miterlimit:10;stroke-dasharray:none;stroke-opacity:1"
           d="M -721.73,145.992 V 115.23 c 0,-35.027 55.925,-31.933 55.925,-68.976 V 26.945" /></g><path
         inkscape:connector-curvature="0"
         id="path212"
         style="fill:#808080;fill-opacity:1;fill-rule:nonzero;stroke:none"
         d="m 171.75,116.493 c -2.602,-4.375 -4.16,-8.746 -4.68,-13.117 -0.523,4.371 -2.082,8.742 -4.687,13.117 l 4.687,-5.246" /><g
         transform="rotate(180,0,160.00821)"
         id="g214"><path
           inkscape:connector-curvature="0"
           id="path216"
           style="fill:none;stroke:#808080;stroke-width:1.67755699;stroke-linecap:butt;stroke-linejoin:miter;stroke-miterlimit:10;stroke-dasharray:none;stroke-opacity:1"
           d="m -166.91,210.5 v -17.34 c 0,-35.031 86.867,-1.789 86.867,-38.832 v -19.312" /></g><g
         transform="matrix(1,0,0,-1,0,320.01642)"
         id="g218"><path
           inkscape:connector-curvature="0"
           id="path220"
           style="fill:none;stroke:#121466;stroke-width:4.193892;stroke-linecap:butt;stroke-linejoin:miter;stroke-miterlimit:10;stroke-dasharray:none;stroke-opacity:1"
           d="m 203.301,171.574 h 138.73" /></g><g
         transform="matrix(1,0,0,-1,0,320.01642)"
         id="g222"><path
           inkscape:connector-curvature="0"
           id="path224"
           style="fill:#121466;fill-opacity:1;fill-rule:nonzero;stroke:#121466;stroke-width:1.35882103;stroke-linecap:round;stroke-linejoin:round;stroke-miterlimit:4;stroke-dasharray:none;stroke-opacity:1"
           d="m 334.516,178.113 c 5.656,-3.367 11.312,-5.863 16.968,-6.539 -5.656,-0.676 -11.312,-3.172 -16.968,-6.539 l 6.785,6.539 z" /></g><g
         transform="matrix(1,0,0,-1,0,320.01642)"
         id="g226"><path
           inkscape:connector-curvature="0"
           id="path228"
           style="fill:none;stroke:#121466;stroke-width:4.193892;stroke-linecap:butt;stroke-linejoin:miter;stroke-miterlimit:10;stroke-dasharray:none;stroke-opacity:1"
           d="M 203.621,171.895 V 20.164" /></g><g
         transform="matrix(1,0,0,-1,0,320.01642)"
         id="g230"><path
           inkscape:connector-curvature="0"
           id="path232"
           style="fill:#121466;fill-opacity:1;fill-rule:nonzero;stroke:#121466;stroke-width:1.35882103;stroke-linecap:round;stroke-linejoin:round;stroke-miterlimit:4;stroke-dasharray:none;stroke-opacity:1"
           d="m 210.16,27.68 c -3.367,-5.66 -5.863,-11.313 -6.539,-16.973 -0.676,5.66 -3.168,11.313 -6.535,16.973 l 6.535,-6.789 z" /></g><g
         transform="matrix(1,0,0,-1,0,320.01642)"
         id="g240"><path
           inkscape:connector-curvature="0"
           id="path242"
           style="fill:none;stroke:#808080;stroke-width:1.67755699;stroke-linecap:butt;stroke-linejoin:miter;stroke-miterlimit:9.69999981;stroke-dasharray:none;stroke-opacity:1"
           d="m 423.148,211.535 v 33.836 c 0,9.672 -24.386,16.457 -0.199,16.457 H 565.43" /></g><path
         inkscape:connector-curvature="0"
         id="path244"
         style="fill:#000000;fill-opacity:1;fill-rule:nonzero;stroke:none"
         d="m 164.863,55.126 -1.425,-0.305 c -0.516,-2.226 -1.442,-3.512 -1.571,-3.723 -0.152,2.172 -1,4.028 -2.937,4.028 l 0.172,-0.594 c 1.726,0 1.617,-3.703 1.683,-4.953 -0.781,-1.016 -1.812,-2.422 -3.086,-2.422 -1.195,0 -1.23,2.133 -1.23,2.461 0,2.457 1.054,4.914 2.633,4.914 l -0.172,0.594 c -2,0 -4.153,-2.473 -4.153,-5.641 0,-1.984 1.114,-3.359 2.653,-3.359 1.48,0 3.031,1.418 3.453,1.898 0.191,-1.383 0.715,-1.844 1.445,-1.844 0.594,0 1.09,0.399 1.477,0.977 0.343,0.523 0.562,1.117 0.273,1.117 -0.191,0 -0.371,-0.367 -0.64,-0.746 -0.227,-0.332 -0.493,-0.621 -0.825,-0.621 -0.711,0 -0.574,2.016 -0.617,2.254 0.598,0.824 2.152,2.719 2.867,5.965 z" /><path
         inkscape:connector-curvature="0"
         id="path246"
         style="fill:#000000;fill-opacity:1;fill-rule:nonzero;stroke:none"
         d="m 178.012,52.376 h -2.657 v -0.25 c 0.688,-0.067 0.93,-0.219 0.93,-0.578 0,-0.285 -0.086,-0.633 -0.219,-1.008 l -1.683,-4.555 -1.77,4.578 c -0.031,0.067 -0.148,0.364 -0.16,0.407 -0.121,0.281 -0.199,0.535 -0.199,0.683 0,0.32 0.305,0.461 1.027,0.473 v 0.25 h -3.582 v -0.25 c 0.766,-0.012 0.899,-0.137 1.356,-1.211 l 0.445,-1.106 -1.441,-3.789 -1.934,5.055 c -0.094,0.238 -0.145,0.473 -0.145,0.621 0,0.293 0.188,0.387 0.875,0.43 v 0.25 h -3.296 v -0.25 c 0.687,-0.067 0.886,-0.309 1.386,-1.574 l 2.594,-7.219 h 0.203 l 2.067,5.687 2.148,-5.687 h 0.199 c 1.145,3.515 1.278,3.887 2.742,7.84 0.258,0.699 0.403,0.816 1.114,0.953 z" /><g
         transform="matrix(1,0,0,-1,0,320.01642)"
         id="g248"><path
           inkscape:connector-curvature="0"
           id="path250"
           style="fill:none;stroke:#b90505;stroke-width:1.03999996;stroke-linecap:butt;stroke-linejoin:miter;stroke-miterlimit:10;stroke-dasharray:none;stroke-opacity:1"
           d="m 181.219,227.555 c 0.015,-3.075 0.109,-5.395 0.523,-8.235" /></g><g
         transform="matrix(1,0,0,-1,0,320.01642)"
         id="g252"><path
           inkscape:connector-curvature="0"
           id="path254"
           style="fill:none;stroke:#b90505;stroke-width:1.03999996;stroke-linecap:round;stroke-linejoin:round;stroke-miterlimit:10;stroke-dasharray:none;stroke-opacity:1"
           d="m 183.316,222.738 c -0.668,-0.429 -1.363,-3.125 -1.382,-3.91 -0.348,0.711 -1.942,3.125 -2.672,3.203" /></g><g
         transform="matrix(0,1,1,0,0,320.01642)"
         id="g256"><path
           inkscape:connector-curvature="0"
           id="path258"
           style="fill:none;stroke:#808080;stroke-width:1.60000002;stroke-linecap:round;stroke-linejoin:round;stroke-miterlimit:10;stroke-dasharray:none;stroke-opacity:1"
           d="m -223.766,175.156 -0.132,-15.781 c -0.055,-6.723 -8.559,7.52 -19.661,7.52 h -17.55" /></g><g
         transform="matrix(1,-0.0300865,0.0300865,1,0,320.01642)"
         id="g260"><path
           inkscape:connector-curvature="0"
           id="path262"
           style="fill:none;stroke:#121466;stroke-width:2.44291806;stroke-linecap:butt;stroke-linejoin:miter;stroke-miterlimit:10;stroke-dasharray:none;stroke-opacity:1"
           d="m 385.526,-195.358 92.819,0.047" /></g><g
         transform="matrix(1,-0.0300865,0.0300865,1,0,320.01642)"
         id="g264"><path
           inkscape:connector-curvature="0"
           id="path266"
           style="fill:none;stroke:#121466;stroke-width:1.59927595;stroke-linecap:butt;stroke-linejoin:miter;stroke-miterlimit:10;stroke-dasharray:none;stroke-opacity:1"
           d="m 386.026,-190.429 -0.497,-8.788" /></g><g
         transform="matrix(1,-0.0300865,0.0300865,1,0,320.01642)"
         id="g268"><path
           inkscape:connector-curvature="0"
           id="path270"
           style="fill:none;stroke:#121466;stroke-width:1.59927595;stroke-linecap:butt;stroke-linejoin:miter;stroke-miterlimit:10;stroke-dasharray:none;stroke-opacity:1"
           d="m 477.942,-199.171 -0.002,7.715" /></g><path
         inkscape:connector-curvature="0"
         id="path272"
         style="fill:#000000;fill-opacity:1;fill-rule:nonzero;stroke:none"
         d="m 369.824,47.044 c -0.008,-2.817 -2.293,-5.094 -5.109,-5.09 l -69.988,0.09 c -2.817,0.008 -5.106,-2.274 -5.11,-5.09 0.008,2.816 -2.269,5.105 -5.086,5.109 l -76,0.09 c -2.816,0.008 -5.093,2.293 -5.086,5.11 v -1.02 c -0.007,-2.816 2.27,-6.219 5.086,-6.223 l 76,-0.09 c 2.817,-0.007 5.09,-2.14 5.086,-4.957 0.008,2.817 2.293,4.942 5.11,4.938 l 69.988,-0.09 c 2.816,-0.008 5.105,2.43 5.109,5.242 v 1.981" /><g
         transform="rotate(-90,160.00821,160.00821)"
         id="g274"><path
           inkscape:connector-curvature="0"
           id="path276"
           style="fill:none;stroke:#121466;stroke-width:0.81889302;stroke-linecap:round;stroke-linejoin:miter;stroke-miterlimit:10;stroke-dasharray:2.456678, 2.456678;stroke-dashoffset:0;stroke-opacity:1"
           d="M 271.406,203.621 H 180.648" /></g><g
         transform="rotate(-90,160.00821,160.00821)"
         id="g278"><path
           inkscape:connector-curvature="0"
           id="path280"
           style="fill:none;stroke:#121466;stroke-width:0.81889302;stroke-linecap:round;stroke-linejoin:miter;stroke-miterlimit:10;stroke-dasharray:2.456678, 2.456678;stroke-dashoffset:0;stroke-opacity:1"
           d="M 297.492,369.875 H 222.25" /></g><path
         inkscape:connector-curvature="0"
         id="path282"
         style="fill:#000000;fill-opacity:1;fill-rule:nonzero;stroke:none"
         d="m 281.801,28.614 v 0.09 l -0.016,0.086 -0.012,0.039 -0.015,0.035 -0.016,0.039 -0.012,0.035 -0.019,0.032 -0.023,0.035 -0.02,0.031 -0.027,0.027 -0.028,0.024 -0.054,0.054 -0.032,0.024 -0.062,0.039 -0.027,0.019 -0.036,0.02 -0.07,0.031 -0.035,0.012 -0.031,0.012 -0.036,0.011 -0.035,0.008 -0.039,0.004 -0.035,0.008 -0.031,0.004 -0.035,0.004 h -0.071 c -0.961,0 -2.187,-1.434 -3.14,-2.946 -0.024,0.02 -0.156,0.657 -0.156,0.657 -0.305,1.261 -0.665,1.988 -1.317,2.289 0,0 -2.183,-0.453 -2.433,-0.532 v -0.324 c 0.382,0.098 0.671,0.129 0.898,0.129 1.055,0 1.227,-1.012 1.953,-3.769 -0.875,-1.282 -2.223,-3.407 -2.754,-3.407 -0.457,0 -0.48,0.461 -1.07,0.461 -0.426,0 -0.692,-0.308 -0.692,-0.691 0,-0.496 0.364,-0.84 0.899,-0.84 1.344,0 2.582,2.387 3.754,3.902 0.054,-0.148 0.492,-1.855 0.492,-1.855 0.48,-1.758 0.832,-2.047 1.328,-2.047 0.57,0 1.469,0.594 2.387,2.258 l -0.285,0.172 c -0.305,-0.418 -0.86,-1.344 -1.34,-1.344 -0.672,0 -1.051,2.719 -1.531,4.426 0.113,0.156 1.437,2.297 2.164,2.297 0.363,0 0.691,-0.301 1.011,-0.301 0.481,0 0.657,0.375 0.657,0.738 z" /><path
         inkscape:connector-curvature="0"
         id="path284"
         style="fill:#000000;fill-opacity:1;fill-rule:nonzero;stroke:none"
         d="m 290.656,23.763 -0.121,3.023 h -0.285 c -0.078,-0.281 -0.289,-0.441 -0.559,-0.441 -0.125,0 -0.32,0.043 -0.523,0.121 -0.656,0.214 -1.328,0.32 -1.953,0.32 -1.098,0 -2.207,-0.418 -3.043,-1.152 -0.938,-0.832 -1.449,-2.075 -1.449,-3.547 0,-1.25 0.406,-2.395 1.09,-3.16 0.8,-0.868 2.035,-1.379 3.359,-1.379 1.516,0 2.84,0.613 3.656,1.699 l -0.246,0.238 c -0.988,-0.945 -1.871,-1.347 -2.98,-1.347 -0.844,0 -1.594,0.269 -2.168,0.773 -0.739,0.66 -1.153,1.863 -1.153,3.348 0,2.421 1.246,3.992 3.184,3.992 0.765,0 1.461,-0.285 1.996,-0.821 0.434,-0.425 0.629,-0.804 0.883,-1.667 z" /><path
         inkscape:connector-curvature="0"
         id="path286"
         style="fill:#000000;fill-opacity:1;fill-rule:nonzero;stroke:none"
         d="m 292.473,15.536 0.039,0.012 0.035,0.007 0.027,0.008 0.035,0.012 0.094,0.023 0.027,0.012 0.165,0.059 0.05,0.019 0.047,0.024 0.051,0.023 0.055,0.024 0.05,0.031 0.082,0.047 0.032,0.015 0.027,0.02 0.063,0.039 0.035,0.019 c 0.652,0.415 1.082,1.012 1.082,2.075 0,1.027 -0.485,1.461 -1.114,1.461 -0.558,0 -0.917,-0.348 -0.917,-0.891 0,-0.5 0.343,-0.84 0.839,-0.84 0.149,0 0.293,0.024 0.442,0.117 0.054,0.032 0.066,0.043 0.094,0.043 0.066,0 0.105,-0.136 0.105,-0.289 0,-0.14 0,-1.113 -1.445,-1.652 z" /><path
         inkscape:connector-curvature="0"
         id="path288"
         style="fill:#000000;fill-opacity:1;fill-rule:nonzero;stroke:none"
         d="m 305.5,18.149 h -0.09 l -0.043,0.004 h -0.043 l -0.039,0.004 -0.035,0.004 -0.078,0.008 -0.035,0.004 -0.035,0.007 -0.063,0.012 -0.062,0.02 -0.11,0.039 -0.047,0.023 -0.047,0.028 -0.043,0.023 -0.039,0.035 -0.035,0.031 -0.027,0.039 -0.031,0.04 -0.028,0.043 -0.023,0.042 -0.024,0.047 -0.019,0.051 -0.02,0.055 -0.031,0.109 -0.012,0.063 -0.007,0.062 -0.012,0.067 -0.016,0.14 -0.008,0.078 v 0.075 l -0.007,0.082 v 0.082 l -0.348,8.14 h -0.426 l -5.758,-8.359 c -0.652,-0.938 -1.004,-1.098 -1.472,-1.098 l -0.067,-0.414 h 2.875 l 0.067,0.414 c -0.52,0 -0.824,0.098 -0.824,0.457 0,0.215 0.105,0.512 0.355,0.879 l 0.98,1.438 h 2.973 l -0.016,0.668 h -2.476 l 2.316,3.359 0.16,-3.359 0.016,-0.668 0.082,-1.696 c 0.027,-0.98 -0.418,-1.078 -1.219,-1.078 l -0.097,-0.414 h 3.898 z" /><path
         inkscape:connector-curvature="0"
         id="path290"
         style="fill:#000000;fill-opacity:1;fill-rule:nonzero;stroke:none"
         d="m 349.484,136.235 v 0.094 l -0.007,0.039 -0.008,0.043 -0.012,0.039 -0.031,0.078 -0.016,0.035 -0.019,0.028 -0.024,0.035 -0.015,0.031 -0.11,0.109 -0.031,0.024 -0.031,0.019 -0.032,0.016 -0.027,0.02 -0.035,0.019 -0.07,0.031 -0.036,0.012 -0.031,0.012 -0.035,0.011 -0.07,0.016 -0.039,0.008 -0.035,0.004 -0.032,0.004 h -0.07 c -0.961,0 -2.188,-1.434 -3.141,-2.949 -0.023,0.019 -0.156,0.66 -0.156,0.66 -0.305,1.257 -0.664,1.984 -1.316,2.289 0,0 -2.184,-0.453 -2.434,-0.535 v -0.321 c 0.383,0.094 0.672,0.129 0.899,0.129 1.054,0 1.226,-1.015 1.953,-3.769 -0.875,-1.286 -2.223,-3.411 -2.754,-3.411 -0.461,0 -0.481,0.461 -1.071,0.461 -0.425,0 -0.691,-0.304 -0.691,-0.691 0,-0.496 0.359,-0.836 0.898,-0.836 1.34,0 2.583,2.387 3.754,3.899 0.055,-0.149 0.493,-1.856 0.493,-1.856 0.48,-1.754 0.832,-2.043 1.328,-2.043 0.57,0 1.468,0.59 2.386,2.254 l -0.285,0.176 c -0.308,-0.422 -0.859,-1.348 -1.34,-1.348 -0.671,0 -1.05,2.723 -1.531,4.43 0.113,0.156 1.438,2.297 2.164,2.297 0.364,0 0.688,-0.305 1.012,-0.305 0.48,0 0.656,0.379 0.656,0.742 z" /><path
         inkscape:connector-curvature="0"
         id="path292"
         style="fill:#000000;fill-opacity:1;fill-rule:nonzero;stroke:none"
         d="m 358.336,131.388 -0.117,3.023 h -0.285 c -0.086,-0.281 -0.293,-0.441 -0.563,-0.441 -0.121,0 -0.32,0.039 -0.523,0.117 -0.657,0.215 -1.328,0.324 -1.953,0.324 -1.094,0 -2.211,-0.422 -3.043,-1.152 -0.934,-0.836 -1.446,-2.079 -1.446,-3.547 0,-1.25 0.399,-2.395 1.086,-3.164 0.805,-0.864 2.035,-1.375 3.363,-1.375 1.512,0 2.84,0.609 3.657,1.699 l -0.246,0.238 c -0.993,-0.945 -1.871,-1.351 -2.989,-1.351 -0.836,0 -1.589,0.269 -2.164,0.773 -0.738,0.66 -1.156,1.863 -1.156,3.352 0,2.421 1.25,3.988 3.191,3.988 0.766,0 1.461,-0.285 1.993,-0.82 0.433,-0.426 0.632,-0.801 0.886,-1.664 z" /><path
         inkscape:connector-curvature="0"
         id="path294"
         style="fill:#000000;fill-opacity:1;fill-rule:nonzero;stroke:none"
         d="m 223.266,309.622 h -5.953 l -0.821,-2.469 h 0.375 c 0.481,1.164 0.946,1.192 1.629,1.192 h 3.121 l -6.601,-7.469 h 6.05 l 0.86,2.543 h -0.363 c -0.461,-1.321 -1.168,-1.321 -1.895,-1.321 h -3.027 z" /><path
         inkscape:connector-curvature="0"
         id="path296"
         style="fill:#000000;fill-opacity:1;fill-rule:nonzero;stroke:none"
         d="m 231.863,304.044 -0.117,3.023 h -0.285 c -0.086,-0.277 -0.293,-0.441 -0.566,-0.441 -0.118,0 -0.317,0.043 -0.52,0.121 -0.656,0.215 -1.328,0.32 -1.949,0.32 -1.098,0 -2.211,-0.418 -3.047,-1.152 -0.934,-0.832 -1.445,-2.074 -1.445,-3.547 0,-1.246 0.398,-2.395 1.086,-3.16 0.804,-0.867 2.035,-1.375 3.363,-1.375 1.512,0 2.84,0.609 3.656,1.695 l -0.246,0.238 c -0.992,-0.945 -1.871,-1.347 -2.984,-1.347 -0.84,0 -1.594,0.269 -2.168,0.773 -0.739,0.66 -1.157,1.863 -1.157,3.352 0,2.418 1.25,3.988 3.192,3.988 0.765,0 1.461,-0.285 1.992,-0.82 0.434,-0.426 0.633,-0.801 0.887,-1.668 z" /><g
         transform="matrix(1,0,0,-1,0,320.01642)"
         id="g298"><path
           inkscape:connector-curvature="0"
           id="path300"
           style="fill:none;stroke:#121466;stroke-width:3.20000005;stroke-linecap:butt;stroke-linejoin:miter;stroke-miterlimit:10;stroke-dasharray:none;stroke-opacity:1"
           d="m 371.816,222.02 155.297,3.988" /></g><g
         transform="matrix(1,0,0,-1,0,320.01642)"
         id="g302"><path
           inkscape:connector-curvature="0"
           id="path304"
           style="fill:#121466;fill-opacity:1;fill-rule:nonzero;stroke:#121466;stroke-width:1.22293901;stroke-linecap:round;stroke-linejoin:round;stroke-miterlimit:4;stroke-dasharray:none;stroke-opacity:1"
           d="m 520.316,231.715 c 5.149,-2.938 10.278,-5.086 15.383,-5.602 -5.082,-0.703 -10.129,-3.043 -15.164,-6.168 l 6,6 z" /></g><path
         inkscape:connector-curvature="0"
         id="path306"
         style="fill:#121466;fill-opacity:1;fill-rule:nonzero;stroke:none"
         d="m 373.242,98.513 c 0,1.859 -1.508,3.367 -3.371,3.367 -1.855,0 -3.363,-1.508 -3.363,-3.367 0,-1.86 1.508,-3.364 3.363,-3.364 1.863,0 3.371,1.504 3.371,3.364" /><path
         inkscape:connector-curvature="0"
         id="path308"
         style="fill:#000000;fill-opacity:1;fill-rule:nonzero;stroke:none"
         d="m 537.48,84.391 h -3.039 l -0.046,-0.269 c 0.644,0 0.851,-0.309 0.851,-0.547 0,-0.254 -0.23,-0.609 -0.5,-0.898 l -2.519,-2.75 -0.727,2.265 c -0.098,0.305 -0.289,0.774 -0.289,1.211 0,0.621 0.676,0.719 1.125,0.719 l 0.043,0.269 h -4.32 l -0.051,-0.269 c 1.078,0 1.367,-0.484 1.672,-1.399 l 1.371,-4.117 c -1.274,-1.496 -3.301,-3.648 -3.301,-3.648 -0.559,-0.629 -1.254,-1.149 -1.828,-1.149 l -0.051,-0.269 h 3.488 l 0.051,0.269 c -0.402,0 -1.047,0.02 -1.047,0.532 0,0.257 0.27,0.644 0.465,0.851 l 2.442,2.735 0.839,-2.52 c 0.082,-0.215 0.161,-0.582 0.161,-0.852 0,-0.691 -0.563,-0.746 -1.207,-0.746 l -0.047,-0.269 h 4.297 l 0.042,0.269 c -0.785,0 -1.234,0.34 -1.558,1.325 l -1.348,4.117 2.746,3.07 c 0.5,0.543 1.61,1.801 2.239,1.801 z" /><path
         inkscape:connector-curvature="0"
         id="path310"
         style="fill:#000000;fill-opacity:1;fill-rule:nonzero;stroke:none"
         d="m 791.898,118.294 v 0.039 l -0.003,0.039 -0.004,0.035 -0.008,0.035 -0.008,0.031 -0.016,0.036 -0.011,0.031 -0.012,0.027 -0.016,0.028 -0.039,0.054 -0.019,0.024 -0.024,0.023 -0.023,0.02 -0.024,0.023 -0.023,0.02 -0.027,0.015 -0.024,0.016 -0.031,0.019 -0.023,0.016 -0.032,0.012 -0.027,0.011 -0.031,0.012 -0.028,0.008 -0.031,0.012 -0.031,0.004 -0.028,0.007 -0.031,0.008 -0.027,0.004 h -0.09 c -0.805,0 -1.836,-1.203 -2.637,-2.473 -0.019,0.016 -0.132,0.551 -0.132,0.551 -0.258,1.059 -0.555,1.668 -1.11,1.922 0,0 -1.828,-0.379 -2.039,-0.449 v -0.27 c 0.324,0.082 0.566,0.11 0.754,0.11 0.883,0 1.031,-0.852 1.641,-3.164 -0.739,-1.078 -1.868,-2.864 -2.313,-2.864 -0.387,0 -0.406,0.387 -0.902,0.387 -0.36,0 -0.578,-0.258 -0.578,-0.582 0,-0.418 0.3,-0.703 0.754,-0.703 1.128,0 2.171,2.004 3.156,3.277 0.043,-0.129 0.414,-1.562 0.414,-1.562 0.402,-1.473 0.691,-1.715 1.113,-1.715 0.481,0 1.235,0.496 2.008,1.895 l -0.242,0.144 c -0.258,-0.352 -0.723,-1.129 -1.125,-1.129 -0.563,0 -0.883,2.285 -1.289,3.719 0.097,0.133 1.211,1.93 1.816,1.93 0.309,0 0.582,-0.254 0.856,-0.254 0.402,0 0.546,0.316 0.546,0.621 z" /><g
         transform="rotate(-90,160.00821,160.00821)"
         id="g312"><path
           inkscape:connector-curvature="0"
           id="path314"
           style="fill:none;stroke:#121466;stroke-width:0.81889302;stroke-linecap:round;stroke-linejoin:miter;stroke-miterlimit:10;stroke-dasharray:2.456678, 2.456678;stroke-dashoffset:0;stroke-opacity:1"
           d="M 297.492,380.074 H 212.016" /></g><g
         transform="rotate(-90,160.00821,160.00821)"
         id="g316"><path
           inkscape:connector-curvature="0"
           id="path318"
           style="fill:none;stroke:#121466;stroke-width:0.81889302;stroke-linecap:round;stroke-linejoin:miter;stroke-miterlimit:10;stroke-dasharray:2.456678, 2.456678;stroke-dashoffset:0;stroke-opacity:1"
           d="M 272.691,471.914 H 215.215" /></g><path
         inkscape:connector-curvature="0"
         id="path320"
         style="fill:#000000;fill-opacity:1;fill-rule:nonzero;stroke:none"
         d="m 471.844,47.044 c -0.008,-2.817 -2.293,-5.094 -5.11,-5.09 l -36.386,0.09 c -2.817,0.008 -5.106,-2.274 -5.11,-5.09 0.008,2.816 -2.273,5.105 -5.09,5.109 l -34.875,0.09 c -2.82,0.008 -5.097,2.293 -5.089,5.11 v -1.02 c -0.008,-2.816 2.269,-6.219 5.089,-6.223 l 34.875,-0.09 c 2.817,-0.007 5.094,-2.14 5.09,-4.957 0.008,2.817 2.293,4.942 5.11,4.938 l 36.386,-0.09 c 2.817,-0.008 5.106,2.43 5.11,5.242 v 1.981" /><g
         transform="matrix(1,0,0,-1,0,320.01642)"
         id="g322"><path
           inkscape:connector-curvature="0"
           id="path324"
           style="fill:none;stroke:#121466;stroke-width:3.20000005;stroke-linecap:butt;stroke-linejoin:miter;stroke-miterlimit:10;stroke-dasharray:none;stroke-opacity:1"
           d="m 380.141,206.898 402.39,10.844" /></g><g
         transform="matrix(1,0,0,-1,0,320.01642)"
         id="g326"><path
           inkscape:connector-curvature="0"
           id="path328"
           style="fill:#121466;fill-opacity:1;fill-rule:nonzero;stroke:#121466;stroke-width:1.20784104;stroke-linecap:round;stroke-linejoin:round;stroke-miterlimit:4;stroke-dasharray:none;stroke-opacity:1"
           d="m 776.621,223.375 c 5.082,-2.898 10.149,-5.023 15.188,-5.531 -5.016,-0.696 -10,-3.004 -14.973,-6.09 l 5.926,5.922 z" /></g><path
         inkscape:connector-curvature="0"
         id="path330"
         style="fill:#121466;fill-opacity:1;fill-rule:nonzero;stroke:none"
         d="m 382.977,112.989 c 0,1.863 -1.508,3.371 -3.372,3.371 -1.855,0 -3.363,-1.508 -3.363,-3.371 0,-1.859 1.508,-3.363 3.363,-3.363 1.864,0 3.372,1.504 3.372,3.363" /><g
         transform="matrix(1,0,0,-1,0,320.01642)"
         id="g332"><path
           inkscape:connector-curvature="0"
           id="path334"
           style="fill:none;stroke:#121466;stroke-width:0.95605499;stroke-linecap:butt;stroke-linejoin:miter;stroke-miterlimit:10;stroke-dasharray:none;stroke-opacity:1"
           d="m 369.941,296.59 h 7.473" /></g><g
         transform="matrix(1,0,0,-1,0,320.01642)"
         id="g336"><path
           inkscape:connector-curvature="0"
           id="path338"
           style="fill:#121466;fill-opacity:1;fill-rule:nonzero;stroke:#121466;stroke-width:0.57716399;stroke-linecap:round;stroke-linejoin:round;stroke-miterlimit:4;stroke-dasharray:none;stroke-opacity:1"
           d="m 373.574,299.953 c 1.985,-1.73 3.969,-3.015 5.953,-3.363 -1.984,-0.348 -3.968,-1.629 -5.953,-3.363 l 2.379,3.363 z" /></g><path
         inkscape:connector-curvature="0"
         id="path340"
         style="fill:#808080;fill-opacity:1;fill-rule:nonzero;stroke:none"
         d="m 427.758,101.891 c -2.602,4.372 -4.16,8.747 -4.68,13.118 -0.523,-4.371 -2.082,-8.746 -4.687,-13.118 l 4.687,5.247" /><g
         transform="rotate(90,-160.00821,160.00821)"
         id="g342"><path
           inkscape:connector-curvature="0"
           id="path344"
           style="fill:none;stroke:#808080;stroke-width:1.60000002;stroke-linecap:round;stroke-linejoin:round;stroke-miterlimit:10;stroke-dasharray:none;stroke-opacity:1"
           d="m -199.703,-379.574 h 5.742 c 3.961,0 6.188,0.578 11.223,5.031 l 48.586,42.941 c 5.039,4.454 1.968,-6.968 5.929,-6.968 h 23.344" /></g><text
         y="-301.13895"
         x="613.77283"
         transform="scale(1,-1)"
         style="font-variant:normal;font-weight:normal;font-size:20.13068199px;font-family:'Times New Roman';-inkscape-font-specification:TimesNewRomanPSMT;writing-mode:lr-tb;fill:#000000;fill-opacity:1;fill-rule:nonzero;stroke:none"
         id="text1155"><tspan
           y="-301.13895"
           x="613.77283"
           sodipodi:role="line"
           id="tspan1153">horizontal tail</tspan></text>
<text
         id="text1161"
         style="font-variant:normal;font-weight:normal;font-size:20.13068199px;font-family:'Times New Roman';-inkscape-font-specification:TimesNewRomanPSMT;writing-mode:lr-tb;fill:#000000;fill-opacity:1;fill-rule:nonzero;stroke:none"
         transform="scale(1,-1)"
         x="570.32269"
         y="-54.188251"><tspan
           id="tspan1159"
           sodipodi:role="line"
           x="570.32269"
           y="-54.188251">center of gravity</tspan></text>
<text
         id="text1165"
         style="font-variant:normal;font-weight:normal;font-size:20.13068199px;font-family:'Times New Roman';-inkscape-font-specification:TimesNewRomanPSMT;writing-mode:lr-tb;fill:#000000;fill-opacity:1;fill-rule:nonzero;stroke:none"
         transform="scale(1,-1)"
         x="15.37114"
         y="-194.43864"><tspan
           id="tspan1163"
           sodipodi:role="line"
           x="15.37114"
           y="-194.43864">root chord line</tspan></text>
<g
         style="font-style:normal;font-variant:normal;font-weight:normal;font-stretch:normal;letter-spacing:normal;word-spacing:normal;text-anchor:start;fill:#000000;fill-opacity:1;fill-rule:evenodd;stroke:#000000;stroke-linecap:butt;stroke-linejoin:miter;stroke-miterlimit:10.43299961;stroke-dasharray:none;stroke-dashoffset:0;stroke-opacity:1"
         ns0:scale="2.0"
         ns0:preamble="C:\\Program Files\\Inkscape\\share\\extensions\\default_packages_mt2pro.tex"
         ns0:text="$\\boldsymbol{V}_{\\!\\!G} = -\\boldsymbol{V}_{\\!\\!\\infty}$"
         word-spacing="normal"
         letter-spacing="normal"
         font-size-adjust="none"
         font-stretch="normal"
         font-weight="normal"
         font-variant="normal"
         font-style="normal"
         stroke-miterlimit="10.433"
         xml:space="preserve"
         transform="matrix(2,0,0,2,-290.4749,-1198.2729)"
         id="content"><path
           id="path2030"
           style="font-style:normal;font-variant:normal;font-weight:normal;font-stretch:normal;letter-spacing:normal;word-spacing:normal;text-anchor:start;fill:#000000;fill-opacity:1;fill-rule:evenodd;stroke:#000000;stroke-width:0;stroke-linecap:butt;stroke-linejoin:miter;stroke-miterlimit:10.43299961;stroke-dasharray:none;stroke-dashoffset:0;stroke-opacity:1"
           word-spacing="normal"
           stroke-miterlimit="10.433"
           letter-spacing="normal"
           font-weight="normal"
           font-variant="normal"
           font-style="normal"
           font-stretch="normal"
           font-size-adjust="none"
           d="m 156.16,663.83 0.02,0.23 h -1.94 l -0.02,-0.22 c 0.41,-0.02 0.62,-0.1 0.62,-0.38 0,-0.2 -0.26,-0.67 -0.41,-0.88 l -2.41,-3.36 -0.11,4.04 c -0.01,0.41 0.23,0.56 0.72,0.58 l 0.02,0.22 h -2.88 l -0.02,-0.22 c 0.6,0 0.66,-0.15 0.76,-1.23 l 0.19,-5.52 h 0.26 l 4.4,6.15 c 0.19,0.27 0.4,0.61 0.8,0.59 z"
           inkscape:connector-curvature="0" /><path
           id="path2032"
           style="font-style:normal;font-variant:normal;font-weight:normal;font-stretch:normal;letter-spacing:normal;word-spacing:normal;text-anchor:start;fill:#000000;fill-opacity:1;fill-rule:evenodd;stroke:#000000;stroke-width:0;stroke-linecap:butt;stroke-linejoin:miter;stroke-miterlimit:10.43299961;stroke-dasharray:none;stroke-dashoffset:0;stroke-opacity:1"
           word-spacing="normal"
           stroke-miterlimit="10.433"
           letter-spacing="normal"
           font-weight="normal"
           font-variant="normal"
           font-style="normal"
           font-stretch="normal"
           font-size-adjust="none"
           d="m 160.47,658.29 h -2.22 l -0.05,-0.23 c 0.46,0 0.67,-0.15 0.67,-0.34 0,-0.04 -0.01,-0.07 -0.02,-0.1 l -0.39,-1.39 c -0.24,-0.15 -0.51,-0.24 -0.83,-0.24 -0.99,0 -1.41,0.73 -1.41,1.51 0,1.32 0.89,3.03 2.34,3.03 0.78,0 1.1,-0.49 1.1,-1.3 h 0.21 l 0.36,1.63 h -0.24 c -0.06,-0.1 -0.13,-0.2 -0.29,-0.2 -0.18,0 -0.68,0.21 -1.21,0.21 -1.97,0 -3.2,-1.76 -3.2,-3.2 0,-0.77 0.56,-2.03 2.25,-2.03 0.49,0 1.17,0.13 1.72,0.42 l 0.42,1.5 c 0.12,0.42 0.28,0.5 0.75,0.5 z"
           inkscape:connector-curvature="0" /><polygon
           id="polygon2034"
           style="font-style:normal;font-variant:normal;font-weight:normal;font-stretch:normal;letter-spacing:normal;word-spacing:normal;text-anchor:start;fill:#000000;fill-opacity:1;fill-rule:evenodd;stroke:#000000;stroke-width:0;stroke-linecap:butt;stroke-linejoin:miter;stroke-miterlimit:10.43299961;stroke-dasharray:none;stroke-dashoffset:0;stroke-opacity:1"
           word-spacing="normal"
           stroke-miterlimit="10.433"
           letter-spacing="normal"
           font-weight="normal"
           font-variant="normal"
           font-style="normal"
           font-stretch="normal"
           font-size-adjust="none"
           points="165.21,660.46 171.87,660.46 171.87,661.02 165.21,661.02 " /><polygon
           id="polygon2036"
           style="font-style:normal;font-variant:normal;font-weight:normal;font-stretch:normal;letter-spacing:normal;word-spacing:normal;text-anchor:start;fill:#000000;fill-opacity:1;fill-rule:evenodd;stroke:#000000;stroke-width:0;stroke-linecap:butt;stroke-linejoin:miter;stroke-miterlimit:10.43299961;stroke-dasharray:none;stroke-dashoffset:0;stroke-opacity:1"
           word-spacing="normal"
           stroke-miterlimit="10.433"
           letter-spacing="normal"
           font-weight="normal"
           font-variant="normal"
           font-style="normal"
           font-stretch="normal"
           font-size-adjust="none"
           points="165.21,658.46 171.87,658.46 171.87,659.01 165.21,659.01 " /><polygon
           id="polygon2038"
           style="font-style:normal;font-variant:normal;font-weight:normal;font-stretch:normal;letter-spacing:normal;word-spacing:normal;text-anchor:start;fill:#000000;fill-opacity:1;fill-rule:evenodd;stroke:#000000;stroke-width:0;stroke-linecap:butt;stroke-linejoin:miter;stroke-miterlimit:10.43299961;stroke-dasharray:none;stroke-dashoffset:0;stroke-opacity:1"
           word-spacing="normal"
           stroke-miterlimit="10.433"
           letter-spacing="normal"
           font-weight="normal"
           font-variant="normal"
           font-style="normal"
           font-stretch="normal"
           font-size-adjust="none"
           points="176.02,659.49 182.13,659.49 182.13,659.99 176.02,659.99 " /><path
           id="path2040"
           style="font-style:normal;font-variant:normal;font-weight:normal;font-stretch:normal;letter-spacing:normal;word-spacing:normal;text-anchor:start;fill:#000000;fill-opacity:1;fill-rule:evenodd;stroke:#000000;stroke-width:0;stroke-linecap:butt;stroke-linejoin:miter;stroke-miterlimit:10.43299961;stroke-dasharray:none;stroke-dashoffset:0;stroke-opacity:1"
           word-spacing="normal"
           stroke-miterlimit="10.433"
           letter-spacing="normal"
           font-weight="normal"
           font-variant="normal"
           font-style="normal"
           font-stretch="normal"
           font-size-adjust="none"
           d="m 190.13,663.83 0.02,0.23 h -1.95 l -0.02,-0.22 c 0.42,-0.02 0.62,-0.1 0.62,-0.38 0,-0.2 -0.26,-0.67 -0.41,-0.88 l -2.4,-3.36 -0.11,4.04 c -0.01,0.41 0.23,0.56 0.72,0.58 l 0.02,0.22 h -2.89 l -0.02,-0.22 c 0.6,0 0.66,-0.15 0.76,-1.23 l 0.19,-5.52 h 0.26 l 4.41,6.15 c 0.19,0.27 0.4,0.61 0.8,0.59 z"
           inkscape:connector-curvature="0" /><path
           id="path2042"
           style="font-style:normal;font-variant:normal;font-weight:normal;font-stretch:normal;letter-spacing:normal;word-spacing:normal;text-anchor:start;fill:#000000;fill-opacity:1;fill-rule:evenodd;stroke:#000000;stroke-width:0;stroke-linecap:butt;stroke-linejoin:miter;stroke-miterlimit:10.43299961;stroke-dasharray:none;stroke-dashoffset:0;stroke-opacity:1"
           word-spacing="normal"
           stroke-miterlimit="10.433"
           letter-spacing="normal"
           font-weight="normal"
           font-variant="normal"
           font-style="normal"
           font-stretch="normal"
           font-size-adjust="none"
           d="m 196.14,657.42 h -0.32 c 0,-0.42 -0.34,-1.09 -1.12,-1.09 -0.89,0 -1.53,1 -1.71,1.25 0.28,0.35 0.87,1.21 1.64,1.21 0.47,0 1.19,-0.48 1.19,-1.37 v 0 h 0.32 c 0,1.14 -0.77,1.74 -1.57,1.74 -0.89,0 -1.58,-0.97 -1.81,-1.26 -0.28,0.35 -0.93,1.26 -2,1.26 -1.11,0 -1.61,-1.06 -1.61,-1.77 l 0.32,-0.01 c 0,0.5 0.41,1.1 1.09,1.1 0.87,0 1.47,-0.87 1.71,-1.22 v 0 c -0.3,-0.36 -0.87,-1.24 -1.6,-1.24 -0.44,0 -1.2,0.44 -1.2,1.36 l -0.32,0.01 c 0,-0.89 0.57,-1.73 1.56,-1.73 0.9,0 1.51,0.91 1.79,1.26 0.26,-0.36 1.01,-1.26 1.98,-1.26 0.98,0 1.66,0.89 1.66,1.76 z"
           inkscape:connector-curvature="0" /></g></g></g></svg>