<?xml version="1.0" encoding="UTF-8" standalone="no"?>
<!-- Created with Inkscape (http://www.inkscape.org/) -->

<svg
   xmlns:dc="http://purl.org/dc/elements/1.1/"
   xmlns:cc="http://creativecommons.org/ns#"
   xmlns:rdf="http://www.w3.org/1999/02/22-rdf-syntax-ns#"
   xmlns:svg="http://www.w3.org/2000/svg"
   xmlns="http://www.w3.org/2000/svg"
   xmlns:sodipodi="http://sodipodi.sourceforge.net/DTD/sodipodi-0.dtd"
   xmlns:inkscape="http://www.inkscape.org/namespaces/inkscape"
   width="210mm"
   height="297mm"
   viewBox="0 0 210 297"
   version="1.1"
   id="svg10441"
   inkscape:version="0.92.2 (5c3e80d, 2017-08-06)"
   sodipodi:docname="airfoil.svg">
  <defs
     id="defs10435" />
  <sodipodi:namedview
     id="base"
     pagecolor="#ffffff"
     bordercolor="#666666"
     borderopacity="1.0"
     inkscape:pageopacity="0.0"
     inkscape:pageshadow="2"
     inkscape:zoom="0.98994949"
     inkscape:cx="-487.59923"
     inkscape:cy="531.64308"
     inkscape:document-units="mm"
     inkscape:current-layer="layer1"
     showgrid="false"
     inkscape:window-width="3440"
     inkscape:window-height="1346"
     inkscape:window-x="-11"
     inkscape:window-y="-11"
     inkscape:window-maximized="1" />
  <metadata
     id="metadata10438">
    <rdf:RDF>
      <cc:Work
         rdf:about="">
        <dc:format>image/svg+xml</dc:format>
        <dc:type
           rdf:resource="http://purl.org/dc/dcmitype/StillImage" />
        <dc:title></dc:title>
      </cc:Work>
    </rdf:RDF>
  </metadata>
  <g
     inkscape:label="Livello 1"
     inkscape:groupmode="layer"
     id="layer1">
    <g
       transform="matrix(0.26458333,0,0,0.26458333,3.3787219,-119.6975)"
       id="g10407">
      <path
         inkscape:connector-curvature="0"
         id="path100"
         style="fill:#e6e6ff;fill-opacity:1;fill-rule:nonzero;stroke:none;stroke-width:0.14945693"
         d="m 482.41333,744.38805 c 0,0 -0.28762,1.38817 -0.61314,2.04988 -0.35588,0.72623 -0.81669,1.31449 -1.36737,1.90754 -0.64656,0.69674 -1.33299,1.22396 -2.11082,1.76674 -0.92824,0.6449 -1.82897,1.12762 -2.84054,1.62707 -1.19088,0.58893 -2.30382,1.03139 -3.54981,1.49363 -1.43998,0.53262 -2.76175,0.93738 -4.23792,1.36032 -1.67791,0.48081 -3.20347,0.85169 -4.90496,1.23769 -1.90339,0.43181 -3.62512,0.76929 -5.54561,1.12048 -2.11896,0.389 -4.02906,0.69501 -6.15886,1.01611 -2.32376,0.34772 -4.4157,0.6259 -6.7457,0.91716 -2.51678,0.31539 -4.77978,0.56728 -7.2999,0.83636 -2.69881,0.28608 -5.12466,0.51658 -7.82559,0.76523 -2.86948,0.26275 -5.44807,0.47952 -8.31864,0.71224 -3.02855,0.24687 -5.74911,0.45145 -8.77923,0.67591 -3.17644,0.2355 -6.02887,0.43556 -9.20714,0.65773 -3.31275,0.23158 -6.28756,0.43034 -9.60112,0.656 -3.4362,0.23345 -6.52307,0.44005 -9.96035,0.67667 -3.54934,0.24445 -6.73582,0.46172 -10.28542,0.71526 -3.64983,0.25977 -6.92562,0.49683 -10.57469,0.77309 -3.73703,0.2838 -7.09243,0.54538 -10.82642,0.8514 -3.81307,0.31235 -7.23394,0.60252 -11.04295,0.94449 -3.89085,0.35018 -7.38046,0.68902 -11.26975,1.06162 -4.00262,0.38212 -7.59548,0.73816 -11.59857,1.12789 -4.03735,0.39292 -7.664,0.74455 -11.70095,1.14043 -4.05935,0.39746 -7.70316,0.75596 -11.76022,1.15914 -4.06447,0.40419 -7.71191,0.76923 -11.77368,1.1821 -4.0514,0.41145 -7.68853,0.78564 -11.73851,1.20745 -4.0244,0.42132 -7.63789,0.80282 -11.66087,1.2345 -3.98111,0.42896 -7.55576,0.8187 -11.53504,1.26098 -3.92282,0.43603 -7.44509,0.83367 -11.36567,1.28599 -3.8495,0.44256 -7.30311,0.84586 -11.1489,1.30451 -3.75991,0.44685 -7.13428,0.85586 -10.89216,1.31752 -3.65382,0.4504 -6.93436,0.86161 -10.58615,1.32681 -3.53609,0.45082 -6.7082,0.86072 -10.24246,1.32487 -3.401,0.44585 -6.4541,0.8545 -9.85475,1.31388 -3.25386,0.44073 -6.17376,0.84165 -9.42747,1.29443 -3.09401,0.42935 -5.87034,0.82111 -8.96272,1.2623 -2.91934,0.41593 -5.54046,0.79543 -8.45838,1.22172 -2.73472,0.39812 -5.18919,0.76077 -7.92269,1.16778 -2.53826,0.37868 -4.81591,0.72159 -7.35188,1.10599 -2.33055,0.35319 -4.42272,0.67364 -6.75246,1.03275 -2.11249,0.32626 -4.009,0.62135 -6.12088,0.95206 -1.88595,0.29515 -3.57813,0.56219 -5.46515,0.86051 -1.6522,0.26156 -3.13453,0.49677 -4.78485,0.76108 -1.41125,0.22545 -2.67613,0.42929 -4.08718,0.65623 -1.16143,0.18813 -2.20482,0.35704 -3.36773,0.54537 -0.90905,0.14745 -1.72501,0.2806 -2.63386,0.42953 -0.65242,0.10467 -1.23802,0.20167 -1.89024,0.30781 -0.39244,0.0645 -0.7449,0.1234 -1.13902,0.18657 -0.15782,0.0262 -0.45758,0.0734 -0.45758,0.0734" />
      <path
         inkscape:connector-curvature="0"
         id="path96"
         style="fill:#e6e6ff;fill-opacity:1;fill-rule:nonzero;stroke:none;stroke-width:0.14945693"
         d="m 104.66738,796.25426 c 0,0 0.17579,-0.1041 0.27011,-0.15325 0.35356,-0.18281 0.68447,-0.32178 1.04598,-0.4906 0.59949,-0.28144 1.13816,-0.53342 1.73785,-0.81339 0.83512,-0.38922 1.58822,-0.73853 2.42503,-1.12648 1.07094,-0.49553 2.03296,-0.93839 3.106,-1.42968 1.30295,-0.59678 2.47281,-1.13003 3.77953,-1.7213 1.52836,-0.69109 2.90351,-1.31136 4.43752,-1.99418 1.75121,-0.78203 3.32695,-1.47963 5.08423,-2.25042 1.96935,-0.86328 3.73848,-1.63571 5.71411,-2.48627 2.17923,-0.93886 4.14,-1.77682 6.32591,-2.7 2.38401,-1.00771 4.52687,-1.90387 6.91816,-2.89146 2.57982,-1.06476 4.89819,-2.01217 7.48699,-3.05554 2.7661,-1.11448 5.25357,-2.10472 8.02906,-3.19484 2.9445,-1.15558 5.59154,-2.1813 8.54732,-3.30975 3.1106,-1.18743 5.90914,-2.2415 9.03162,-3.39737 3.26735,-1.21046 6.20675,-2.28236 9.48807,-3.45703 3.412,-1.22277 6.48124,-2.30496 9.9074,-3.49046 3.54581,-1.22606 6.73385,-2.31098 10.29424,-3.49681 3.66415,-1.22119 6.96016,-2.29981 10.63929,-3.47781 3.77038,-1.20561 7.16334,-2.27038 10.94891,-3.43131 3.86241,-1.18355 7.33684,-2.22632 11.21357,-3.36054 3.94066,-1.15206 7.48425,-2.16359 11.43963,-3.26336 4.00195,-1.11219 7.60178,-2.0877 11.61906,-3.14316 4.04905,-1.06586 7.68984,-1.9957 11.75315,-3.00166 4.0779,-1.00948 7.74802,-1.89055 11.84207,-2.83737 4.09237,-0.9481 7.77358,-1.77036 11.88251,-2.65284 4.09115,-0.88005 7.77033,-1.64017 11.87528,-2.45271 4.0715,-0.80343 7.73303,-1.50531 11.81975,-2.23087 4.10132,-0.72908 7.78931,-1.35916 11.90782,-1.98499 4.07114,-0.61933 7.73581,-1.12251 11.82321,-1.62338 4.00744,-0.4899 7.61252,-0.87778 11.63326,-1.24881 3.92389,-0.36227 7.45436,-0.6343 11.38711,-0.8771 3.82365,-0.23535 7.26093,-0.39502 11.08879,-0.51178 3.70313,-0.1132 7.03012,-0.1642 10.73599,-0.15861 3.56532,0.004 6.7666,0.059 10.33149,0.18055 3.4102,0.11559 6.47102,0.26859 9.87574,0.49808 3.23906,0.22055 6.14339,0.46443 9.37212,0.79653 3.05276,0.31402 5.78903,0.64132 8.8266,1.06453 2.85171,0.39895 5.40516,0.80114 8.23852,1.30821 2.63678,0.4707 4.99711,0.93863 7.61258,1.51786 2.41047,0.53647 4.56696,1.05803 6.95127,1.70068 2.176,0.58677 4.11982,1.15261 6.26395,1.84785 1.93122,0.62792 3.65503,1.2285 5.54718,1.96739 1.68038,0.65784 3.17832,1.2834 4.80967,2.05659 1.42663,0.67759 2.69302,1.31985 4.05495,2.11947 1.16998,0.68719 2.2053,1.33856 3.28749,2.15546 0.91399,0.69066 1.71615,1.34688 2.5085,2.17341 0.66185,0.68907 1.23401,1.35123 1.72668,2.17064 0.41831,0.69535 0.74627,1.36992 0.94194,2.15769 0.17661,0.71496 0.15874,2.13398 0.15874,2.13398" />
      <path
         inkscape:connector-curvature="0"
         id="path98"
         style="fill:none;stroke:#999999;stroke-width:3.72246432;stroke-linecap:butt;stroke-linejoin:miter;stroke-miterlimit:10;stroke-dasharray:none;stroke-opacity:1"
         d="m 104.66738,796.25426 c 0,0 0.17579,-0.1041 0.27011,-0.15325 0.35356,-0.18281 0.68447,-0.32178 1.04598,-0.4906 0.59949,-0.28144 1.13816,-0.53342 1.73785,-0.81339 0.83512,-0.38922 1.58822,-0.73853 2.42503,-1.12648 1.07094,-0.49553 2.03296,-0.93839 3.106,-1.42968 1.30295,-0.59678 2.47281,-1.13003 3.77953,-1.7213 1.52836,-0.69109 2.90351,-1.31136 4.43752,-1.99418 1.75121,-0.78203 3.32695,-1.47963 5.08423,-2.25042 1.96935,-0.86328 3.73848,-1.63571 5.71411,-2.48627 2.17923,-0.93886 4.14,-1.77682 6.32591,-2.7 2.38401,-1.00771 4.52687,-1.90387 6.91816,-2.89146 2.57982,-1.06476 4.89819,-2.01217 7.48699,-3.05554 2.7661,-1.11448 5.25357,-2.10472 8.02906,-3.19484 2.9445,-1.15558 5.59154,-2.1813 8.54732,-3.30975 3.1106,-1.18743 5.90914,-2.2415 9.03162,-3.39737 3.26735,-1.21046 6.20675,-2.28236 9.48807,-3.45703 3.412,-1.22277 6.48124,-2.30496 9.9074,-3.49046 3.54581,-1.22606 6.73385,-2.31098 10.29424,-3.49681 3.66415,-1.22119 6.96016,-2.29981 10.63929,-3.47781 3.77038,-1.20561 7.16334,-2.27038 10.94891,-3.43131 3.86241,-1.18355 7.33684,-2.22632 11.21357,-3.36054 3.94066,-1.15206 7.48425,-2.16359 11.43963,-3.26336 4.00195,-1.11219 7.60178,-2.0877 11.61906,-3.14316 4.04905,-1.06586 7.68984,-1.9957 11.75315,-3.00166 4.0779,-1.00948 7.74802,-1.89055 11.84207,-2.83737 4.09237,-0.9481 7.77358,-1.77036 11.88251,-2.65284 4.09115,-0.88005 7.77033,-1.64017 11.87528,-2.45271 4.0715,-0.80343 7.73303,-1.50531 11.81975,-2.23087 4.10132,-0.72908 7.78931,-1.35916 11.90782,-1.98499 4.07114,-0.61933 7.73581,-1.12251 11.82321,-1.62338 4.00744,-0.4899 7.61252,-0.87778 11.63326,-1.24881 3.92389,-0.36227 7.45436,-0.6343 11.38711,-0.8771 3.82365,-0.23535 7.26093,-0.39502 11.08879,-0.51178 3.70313,-0.1132 7.03012,-0.1642 10.73599,-0.15861 3.56532,0.004 6.7666,0.059 10.33149,0.18055 3.4102,0.11559 6.47102,0.26859 9.87574,0.49808 3.23906,0.22055 6.14339,0.46443 9.37212,0.79653 3.05276,0.31402 5.78903,0.64132 8.8266,1.06453 2.85171,0.39895 5.40516,0.80114 8.23852,1.30821 2.63678,0.4707 4.99711,0.93863 7.61258,1.51786 2.41047,0.53647 4.56696,1.05803 6.95127,1.70068 2.176,0.58677 4.11982,1.15261 6.26395,1.84785 1.93122,0.62792 3.65503,1.2285 5.54718,1.96739 1.68038,0.65784 3.17832,1.2834 4.80967,2.05659 1.42663,0.67759 2.69302,1.31985 4.05495,2.11947 1.16998,0.68719 2.2053,1.33856 3.28749,2.15546 0.91399,0.69066 1.71615,1.34688 2.5085,2.17341 0.66185,0.68907 1.23401,1.35123 1.72668,2.17064 0.41831,0.69535 0.74627,1.36992 0.94194,2.15769 0.17661,0.71496 0.15874,2.13398 0.15874,2.13398" />
      <path
         inkscape:connector-curvature="0"
         id="path102"
         style="fill:none;stroke:#999999;stroke-width:3.72246432;stroke-linecap:butt;stroke-linejoin:miter;stroke-miterlimit:10;stroke-dasharray:none;stroke-opacity:1"
         d="m 482.41333,744.38805 c 0,0 -0.28762,1.38817 -0.61314,2.04988 -0.35588,0.72623 -0.81669,1.31449 -1.36737,1.90754 -0.64656,0.69674 -1.33299,1.22396 -2.11082,1.76674 -0.92824,0.6449 -1.82897,1.12762 -2.84054,1.62707 -1.19088,0.58893 -2.30382,1.03139 -3.54981,1.49363 -1.43998,0.53262 -2.76175,0.93738 -4.23792,1.36032 -1.67791,0.48081 -3.20347,0.85169 -4.90496,1.23769 -1.90339,0.43181 -3.62512,0.76929 -5.54561,1.12048 -2.11896,0.389 -4.02906,0.69501 -6.15886,1.01611 -2.32376,0.34772 -4.4157,0.6259 -6.7457,0.91716 -2.51678,0.31539 -4.77978,0.56728 -7.2999,0.83636 -2.69881,0.28608 -5.12466,0.51658 -7.82559,0.76523 -2.86948,0.26275 -5.44807,0.47952 -8.31864,0.71224 -3.02855,0.24687 -5.74911,0.45145 -8.77923,0.67591 -3.17644,0.2355 -6.02887,0.43556 -9.20714,0.65773 -3.31275,0.23158 -6.28756,0.43034 -9.60112,0.656 -3.4362,0.23345 -6.52307,0.44005 -9.96035,0.67667 -3.54934,0.24445 -6.73582,0.46172 -10.28542,0.71526 -3.64983,0.25977 -6.92562,0.49683 -10.57469,0.77309 -3.73703,0.2838 -7.09243,0.54538 -10.82642,0.8514 -3.81307,0.31235 -7.23394,0.60252 -11.04295,0.94449 -3.89085,0.35018 -7.38046,0.68902 -11.26975,1.06162 -4.00262,0.38212 -7.59548,0.73816 -11.59857,1.12789 -4.03735,0.39292 -7.664,0.74455 -11.70095,1.14043 -4.05935,0.39746 -7.70316,0.75596 -11.76022,1.15914 -4.06447,0.40419 -7.71191,0.76923 -11.77368,1.1821 -4.0514,0.41145 -7.68853,0.78564 -11.73851,1.20745 -4.0244,0.42132 -7.63789,0.80282 -11.66087,1.2345 -3.98111,0.42896 -7.55576,0.8187 -11.53504,1.26098 -3.92282,0.43603 -7.44509,0.83367 -11.36567,1.28599 -3.8495,0.44256 -7.30311,0.84586 -11.1489,1.30451 -3.75991,0.44685 -7.13428,0.85586 -10.89216,1.31752 -3.65382,0.4504 -6.93436,0.86161 -10.58615,1.32681 -3.53609,0.45082 -6.7082,0.86072 -10.24246,1.32487 -3.401,0.44585 -6.4541,0.8545 -9.85475,1.31388 -3.25386,0.44073 -6.17376,0.84165 -9.42747,1.29443 -3.09401,0.42935 -5.87034,0.82111 -8.96272,1.2623 -2.91934,0.41593 -5.54046,0.79543 -8.45838,1.22172 -2.73472,0.39812 -5.18919,0.76077 -7.92269,1.16778 -2.53826,0.37868 -4.81591,0.72159 -7.35188,1.10599 -2.33055,0.35319 -4.42272,0.67364 -6.75246,1.03275 -2.11249,0.32626 -4.009,0.62135 -6.12088,0.95206 -1.88595,0.29515 -3.57813,0.56219 -5.46515,0.86051 -1.6522,0.26156 -3.13453,0.49677 -4.78485,0.76108 -1.41125,0.22545 -2.67613,0.42929 -4.08718,0.65623 -1.16143,0.18813 -2.20482,0.35704 -3.36773,0.54537 -0.90905,0.14745 -1.72501,0.2806 -2.63386,0.42953 -0.65242,0.10467 -1.23802,0.20167 -1.89024,0.30781 -0.39244,0.0645 -0.7449,0.1234 -1.13902,0.18657 -0.15782,0.0262 -0.45758,0.0734 -0.45758,0.0734" />
    </g>
  </g>
</svg>
