<?xml version="1.0" encoding="UTF-8" standalone="no"?>
<!-- Created with Inkscape (http://www.inkscape.org/) -->

<svg
   xmlns:dc="http://purl.org/dc/elements/1.1/"
   xmlns:cc="http://creativecommons.org/ns#"
   xmlns:rdf="http://www.w3.org/1999/02/22-rdf-syntax-ns#"
   xmlns:svg="http://www.w3.org/2000/svg"
   xmlns="http://www.w3.org/2000/svg"
   xmlns:sodipodi="http://sodipodi.sourceforge.net/DTD/sodipodi-0.dtd"
   xmlns:inkscape="http://www.inkscape.org/namespaces/inkscape"
   version="1.1"
   id="svg2"
   xml:space="preserve"
   width="745.9613"
   height="366.51361"
   viewBox="0 0 745.9613 366.51361"
   sodipodi:docname="B737_Drag_Breakdown.svg"
   inkscape:version="0.92.1 r15371"><metadata
     id="metadata8"><rdf:RDF><cc:Work
         rdf:about=""><dc:format>image/svg+xml</dc:format><dc:type
           rdf:resource="http://purl.org/dc/dcmitype/StillImage" /><dc:title></dc:title></cc:Work></rdf:RDF></metadata><defs
     id="defs6"><clipPath
       clipPathUnits="userSpaceOnUse"
       id="clipPath384"><path
         d="M 34,423.354 H 579.139 V 684.9 H 34 Z"
         id="path382"
         inkscape:connector-curvature="0" /></clipPath><clipPath
       clipPathUnits="userSpaceOnUse"
       id="clipPath406"><path
         d="M 34,423.354 H 579.139 V 684.9 H 34 Z"
         id="path404"
         inkscape:connector-curvature="0" /></clipPath><clipPath
       clipPathUnits="userSpaceOnUse"
       id="clipPath448"><path
         d="M 34,423.354 H 579.139 V 684.9 H 34 Z"
         id="path446"
         inkscape:connector-curvature="0" /></clipPath><clipPath
       clipPathUnits="userSpaceOnUse"
       id="clipPath474"><path
         d="M 34,423.354 H 579.139 V 684.9 H 34 Z"
         id="path472"
         inkscape:connector-curvature="0" /></clipPath><clipPath
       clipPathUnits="userSpaceOnUse"
       id="clipPath594"><path
         d="M 34,423.354 H 579.139 V 684.9 H 34 Z"
         id="path592"
         inkscape:connector-curvature="0" /></clipPath><clipPath
       clipPathUnits="userSpaceOnUse"
       id="clipPath610"><path
         d="m 271.953,669.694 h 81.17 v 5.408 h -81.17 z"
         id="path608"
         inkscape:connector-curvature="0" /></clipPath><clipPath
       clipPathUnits="userSpaceOnUse"
       id="clipPath628"><path
         d="M 0,792 H 612 V 0 H 0 Z"
         id="path626"
         inkscape:connector-curvature="0" /></clipPath></defs><sodipodi:namedview
     pagecolor="#ffffff"
     bordercolor="#666666"
     borderopacity="1"
     objecttolerance="10"
     gridtolerance="10"
     guidetolerance="10"
     inkscape:pageopacity="0"
     inkscape:pageshadow="2"
     inkscape:window-width="1280"
     inkscape:window-height="657"
     id="namedview4"
     showgrid="false"
     fit-margin-top="10"
     fit-margin-left="10"
     fit-margin-bottom="10"
     fit-margin-right="10"
     inkscape:zoom="0.3160553"
     inkscape:cx="346.04388"
     inkscape:cy="62.363974"
     inkscape:window-x="-8"
     inkscape:window-y="-8"
     inkscape:window-maximized="1"
     inkscape:current-layer="g10" /><g
     id="g10"
     inkscape:groupmode="layer"
     inkscape:label="Pagine da AERO_2013q1"
     transform="matrix(1.3333333,0,0,-1.3333333,-28.417268,816.30348)"><g
       id="g374"
       transform="translate(108,314.4004)" /><g
       id="g5219"
       transform="translate(-5.1870485,-78.736684)"><path
         inkscape:connector-curvature="0"
         id="path376"
         style="fill:#ecf7d9;fill-opacity:1;fill-rule:nonzero;stroke:none"
         d="M 578.471,427.04 H 355.004 v 253.302 h 223.467 z" /><g
         id="g378"><g
           clip-path="url(#clipPath384)"
           id="g380"><text
             id="text388"
             style="font-variant:normal;font-weight:300;font-stretch:normal;font-size:9.26939964px;font-family:'HelveticaNeueLT Std Lt';-inkscape-font-specification:HelveticaNeueLTStd-Lt;writing-mode:lr-tb;fill:#b3b5b7;fill-opacity:1;fill-rule:nonzero;stroke:none"
             transform="matrix(1,0,0,-1,63.0651,423.7194)"><tspan
               id="tspan386"
               y="0"
               x="0">0</tspan></text>
</g></g><text
         id="text398"
         style="font-variant:normal;font-weight:300;font-stretch:normal;font-size:9.26939964px;font-family:'HelveticaNeueLT Std Lt';-inkscape-font-specification:HelveticaNeueLTStd-Lt;writing-mode:lr-tb;fill:#b3b5b7;fill-opacity:1;fill-rule:nonzero;stroke:none"
         transform="matrix(1,0,0,-1,57.9113,474.2929)"><tspan
           id="tspan390"
           sodipodi:role="line"
           y="0"
           x="0 5.1537862">20</tspan><tspan
           id="tspan392"
           sodipodi:role="line"
           y="-50.573845"
           x="0 5.1537862">40</tspan><tspan
           id="tspan394"
           sodipodi:role="line"
           y="-101.14769"
           x="0 5.1537862">60</tspan><tspan
           id="tspan396"
           sodipodi:role="line"
           y="-151.72154"
           x="0 5.1537862">80</tspan></text>
<g
         id="g400"><g
           clip-path="url(#clipPath406)"
           id="g402"><text
             id="text410"
             style="font-variant:normal;font-weight:300;font-stretch:normal;font-size:9.26939964px;font-family:'HelveticaNeueLT Std Lt';-inkscape-font-specification:HelveticaNeueLTStd-Lt;writing-mode:lr-tb;fill:#b3b5b7;fill-opacity:1;fill-rule:nonzero;stroke:none"
             transform="matrix(1,0,0,-1,52.7575,676.5892)"><tspan
               id="tspan408"
               sodipodi:role="line"
               y="0"
               x="0 5.1537862 10.307572">100</tspan></text>
</g></g><g
         transform="translate(71.1255,427.4421)"
         id="g412"><path
           inkscape:connector-curvature="0"
           id="path414"
           style="fill:none;stroke:#b3b5b7;stroke-width:0.50099999;stroke-linecap:butt;stroke-linejoin:miter;stroke-miterlimit:10;stroke-dasharray:none;stroke-opacity:1"
           d="M 0,0 V 252.868" /></g><g
         transform="translate(71.1255,427.4421)"
         id="g416"><path
           inkscape:connector-curvature="0"
           id="path418"
           style="fill:none;stroke:#b3b5b7;stroke-width:0.50099999;stroke-linecap:round;stroke-linejoin:round;stroke-miterlimit:10;stroke-dasharray:none;stroke-opacity:1"
           d="M 0,0 H 5.436" /></g><g
         transform="translate(71.1255,478.0146)"
         id="g420"><path
           inkscape:connector-curvature="0"
           id="path422"
           style="fill:none;stroke:#b3b5b7;stroke-width:0.50099999;stroke-linecap:round;stroke-linejoin:round;stroke-miterlimit:10;stroke-dasharray:none;stroke-opacity:1"
           d="M 0,0 H 5.436" /></g><g
         transform="translate(71.1255,528.589)"
         id="g424"><path
           inkscape:connector-curvature="0"
           id="path426"
           style="fill:none;stroke:#b3b5b7;stroke-width:0.50099999;stroke-linecap:round;stroke-linejoin:round;stroke-miterlimit:10;stroke-dasharray:none;stroke-opacity:1"
           d="M 0,0 H 5.436" /></g><g
         transform="translate(71.1255,579.1635)"
         id="g428"><path
           inkscape:connector-curvature="0"
           id="path430"
           style="fill:none;stroke:#b3b5b7;stroke-width:0.50099999;stroke-linecap:round;stroke-linejoin:round;stroke-miterlimit:10;stroke-dasharray:none;stroke-opacity:1"
           d="M 0,0 H 5.436" /></g><g
         transform="translate(71.1255,629.7368)"
         id="g432"><path
           inkscape:connector-curvature="0"
           id="path434"
           style="fill:none;stroke:#b3b5b7;stroke-width:0.50099999;stroke-linecap:round;stroke-linejoin:round;stroke-miterlimit:10;stroke-dasharray:none;stroke-opacity:1"
           d="M 0,0 H 5.436" /></g><g
         transform="translate(71.1255,680.3109)"
         id="g436"><path
           inkscape:connector-curvature="0"
           id="path438"
           style="fill:none;stroke:#b3b5b7;stroke-width:0.50099999;stroke-linecap:round;stroke-linejoin:round;stroke-miterlimit:10;stroke-dasharray:none;stroke-opacity:1"
           d="M 0,0 H 5.436" /></g><path
         inkscape:connector-curvature="0"
         id="path440"
         style="fill:#80cc28;fill-opacity:1;fill-rule:nonzero;stroke:none"
         d="M 97.604,681.321 H 290.92 V 663.444 H 97.604 Z" /><g
         id="g442"><g
           clip-path="url(#clipPath448)"
           id="g444"><g
             transform="translate(97.6039,681.3206)"
             id="g450"><path
               inkscape:connector-curvature="0"
               id="path452"
               style="fill:none;stroke:#ffffff;stroke-width:2.00399995;stroke-linecap:butt;stroke-linejoin:miter;stroke-miterlimit:10;stroke-dasharray:none;stroke-opacity:1"
               d="M 0,0 H 193.316 V -17.877 H 0 Z" /></g></g></g><path
         inkscape:connector-curvature="0"
         id="path454"
         style="fill:#eff0f1;fill-opacity:1;fill-rule:nonzero;stroke:none"
         d="M 97.604,663.442 H 290.92 V 637.393 H 97.604 Z" /><g
         transform="translate(97.6039,663.4422)"
         id="g456"><path
           inkscape:connector-curvature="0"
           id="path458"
           style="fill:none;stroke:#ffffff;stroke-width:2.00399995;stroke-linecap:butt;stroke-linejoin:miter;stroke-miterlimit:10;stroke-dasharray:none;stroke-opacity:1"
           d="M 0,0 H 193.316 V -26.049 H 0 Z" /></g><path
         inkscape:connector-curvature="0"
         id="path460"
         style="fill:#b3b5b7;fill-opacity:1;fill-rule:nonzero;stroke:none"
         d="M 97.604,637.393 H 290.92 V 562.051 H 97.604 Z" /><g
         transform="translate(97.6039,637.3928)"
         id="g462"><path
           inkscape:connector-curvature="0"
           id="path464"
           style="fill:none;stroke:#ffffff;stroke-width:2.00399995;stroke-linecap:butt;stroke-linejoin:miter;stroke-miterlimit:10;stroke-dasharray:none;stroke-opacity:1"
           d="M 0,0 H 193.316 V -75.342 H 0 Z" /></g><path
         inkscape:connector-curvature="0"
         id="path466"
         style="fill:#d9dadb;fill-opacity:1;fill-rule:nonzero;stroke:none"
         d="M 97.604,562.05 H 290.92 V 426.178 H 97.604 Z" /><g
         id="g468"><g
           clip-path="url(#clipPath474)"
           id="g470"><g
             transform="translate(97.6039,562.0503)"
             id="g476"><path
               inkscape:connector-curvature="0"
               id="path478"
               style="fill:none;stroke:#ffffff;stroke-width:2.00399995;stroke-linecap:butt;stroke-linejoin:miter;stroke-miterlimit:10;stroke-dasharray:none;stroke-opacity:1"
               d="M 0,0 H 193.316 V -135.872 H 0 Z" /></g></g></g><text
         id="text482"
         style="font-variant:normal;font-weight:normal;font-stretch:normal;font-size:9.26939964px;font-family:'HelveticaNeueLT Std';-inkscape-font-specification:HelveticaNeueLTStd-Roman;writing-mode:lr-tb;fill:#ffffff;fill-opacity:1;fill-rule:nonzero;stroke:none"
         transform="matrix(1,0,0,-1,113.04902,669.5544)"><tspan
           id="tspan480"
           sodipodi:role="line"
           y="0"
           x="0 5.1537862 7.7306795 12.884466 22.153866 29.634272 35.297874 40.099426 45.077091 47.996952 52.974621 57.609322 62.58699 67.564659 72.718445 77.696114 82.673782 85.250671 87.651443 94.177101 99.15477 102.07463 107.0523 109.11011 111.16792 116.14558 121.64233 124.21923 130.74489 135.72255 140.35725 142.41505 147.7357 152.88948">7.0% Excrescence (Detailed Design)</tspan></text>
<text
         id="text522"
         style="font-variant:normal;font-weight:300;font-stretch:normal;font-size:9.26939964px;font-family:'HelveticaNeueLT Std Lt';-inkscape-font-specification:HelveticaNeueLTStd-Lt;writing-mode:lr-tb;fill:#231f20;fill-opacity:1;fill-rule:nonzero;stroke:none"
         transform="matrix(1,0,0,-1,108.92413,651.48834)"><tspan
           id="tspan484"
           sodipodi:role="line"
           y="0"
           x="0 5.1537862 10.307572 12.884466 18.038252 26.278749 33.759155 39.598877 42.351887 47.162708 51.621288 56.079868 61.057537 63.810551 68.621368 71.198265 73.775154 78.076157 80.996017 82.710854 90.432266 93.009163 95.586052 97.64386 102.62153 105.36527 110.17609 113.09595 115.49673 120.30754 123.06055 127.87138 132.84904 137.65987 142.47067 145.04758">10.3% Pressure, Trim, Interference, </tspan><tspan
           id="tspan486"
           sodipodi:role="line"
           y="11.12328"
           x="33.759155 38.569973 43.547642 48.868279 51.445171 59.509548 64.320366 68.612099 73.42292 75.999809 78.233734 83.211403 88.189072 93.16674 97.977554 100.7213 102.43614 107.58993 112.5676 115.14449 120.29827 122.69905 125.27594 131.11566 136.09334 140.90414 146.22479 151.0356">and Wave (Function of Shape)</tspan><tspan
           id="tspan488"
           sodipodi:role="line"
           y="12.383918"
           x="324.90173 337.99939 343.1532 345.73007 350.88388 359.12436 366.12277 371.96249 376.94016 379.86002 382.26077 387.07159 391.88242 396.69324 399.27014 405.45282 410.6066 415.58429 420.73807 425.71573 430.69339 435.50421 439.9628"> 0.3% Surface Roughness</tspan><tspan
           id="tspan490"
           sodipodi:role="line"
           y="49.739601"
           x="324.90173 337.99939 343.1532 345.73007 350.88388 359.12436 366.12277 368.18057 373.15823 375.90198 380.7128 383.7995 388.77716 393.58798 395.30283 397.87973 403.71945 405.4343 408.35416 412.46976 417.62354"> 2.4% Internal Airfow</tspan><tspan
           id="tspan492"
           sodipodi:role="line"
           y="122.05019"
           x="324.90173 337.99939 343.1532 345.73007 350.88388 359.12436 366.12277 373.84418 375.55902 380.01758 387.73901 392.54984 395.29355 400.10437 405.08206 409.89285 414.35144 416.92834 421.73917 426.71683 432.03748 434.61435 441.48297 446.29379 451.61444"> 2.4% Mismatches and Gaps</tspan><tspan
           id="tspan494"
           sodipodi:role="line"
           y="188.00197"
           x="324.90173 337.99939 343.1532 345.73007 350.88388 359.12436 366.12277 372.47229 374.18713 378.64572 383.45654 386.20956 391.02036 393.7641 398.57492 401.15182 403.20963 405.95337 410.76419 418.4856"> 1.9% Discrete Items</tspan><tspan
           id="tspan496"
           sodipodi:role="line"
           y="48.942432"
           x="-10.289034 0 5.1537862 10.307572 12.884466 18.038252 26.278749 33.759155 35.816963 40.794628 46.115265 51.092934 55.903751 60.714569 66.035202 68.612099 70.846024 75.823692 80.801361 85.77903 90.589844 93.333588 95.048431 100.20222 105.17988 107.75677 112.91056 115.31133 117.88823 126.12872 130.93954 132.65439 137.80817 142.78584 145.52959"> 29.5% Induced (Function of Weight,</tspan><tspan
           id="tspan498"
           sodipodi:role="line"
           y="60.065712"
           x="-10.289034 33.759155 39.598877 44.919514 49.730331 54.708 57.284893 59.861786 64.672607 69.650269 74.970909 77.547798 83.38752 88.70816 93.518974 98.496643 101.07354 106.05121 111.20499 116.01581 121.33645 123.05128 128.02895 133.18274"> Span, and Span Loading)</tspan><tspan
           id="tspan500"
           sodipodi:role="line"
           y="154.35405"
           x="-10.289034 0 5.1537862 10.307572 12.884466 18.038252 26.278749 33.759155 39.598877 44.233578 45.948418 50.926083 53.502975 58.480644 61.400505 63.115345 67.926163 70.669907 72.384743 77.538528 82.516197 85.093094 87.327019 92.304688 97.282356 102.26002 107.07084 109.81458 111.52942 116.6832 121.66087 124.23777 129.39156 131.79233 134.36922 142.60973 147.42053 150.16428 152.90802 157.71884"> 53.2% Skin Friction (Function of Wetted</tspan><tspan
           id="tspan502"
           sodipodi:role="line"
           y="165.47733"
           x="-10.289034 33.759155 39.598877 42.351887 47.162708 51.973526 54.550419 59.361237 64.338905 69.659538 72.236435 78.762093 83.739761 88.550575 91.470436 96.281258 101.09208 103.83582 108.64664 111.5665 113.28133 117.73992 120.48366 122.1985 127.00932 129.58621 134.56387 139.37469 144.35237 149.50615 152.24989 157.22757 161.68614"> Area and Characteristic Lengths)</tspan><tspan
           id="tspan504"
           y="216.43121"
           x="283.99588">0</tspan><tspan
           id="tspan506"
           y="189.5407"
           x="283.1709">1</tspan><tspan
           id="tspan508"
           y="159.96204"
           x="283.1709">2</tspan><tspan
           id="tspan510"
           y="130.38338"
           x="283.1709">3</tspan><tspan
           id="tspan512"
           y="100.80473"
           x="283.1709">4</tspan><tspan
           id="tspan514"
           y="71.226067"
           x="283.1709">5</tspan><tspan
           id="tspan516"
           y="41.647415"
           x="283.1709">6</tspan><tspan
           id="tspan518"
           y="12.068759"
           x="283.1709">7</tspan><tspan
           id="tspan520"
           y="-17.509897"
           x="283.1709">8</tspan></text>
<g
         transform="translate(399.9674,435.8561)"
         id="g524"><path
           inkscape:connector-curvature="0"
           id="path526"
           style="fill:none;stroke:#231f20;stroke-width:0.50099999;stroke-linecap:round;stroke-linejoin:miter;stroke-miterlimit:10;stroke-dasharray:none;stroke-opacity:1"
           d="M 0,0 V 236.641" /></g><g
         transform="translate(400.307,435.8561)"
         id="g528"><path
           inkscape:connector-curvature="0"
           id="path530"
           style="fill:none;stroke:#231f20;stroke-width:0.50099999;stroke-linecap:round;stroke-linejoin:miter;stroke-miterlimit:10;stroke-dasharray:none;stroke-opacity:1"
           d="M 0,0 H 5.284" /></g><g
         transform="translate(400.308,465.4346)"
         id="g532"><path
           inkscape:connector-curvature="0"
           id="path534"
           style="fill:none;stroke:#231f20;stroke-width:0.50099999;stroke-linecap:round;stroke-linejoin:miter;stroke-miterlimit:10;stroke-dasharray:none;stroke-opacity:1"
           d="M 0,0 H 5.344" /></g><g
         transform="translate(400.308,495.0149)"
         id="g536"><path
           inkscape:connector-curvature="0"
           id="path538"
           style="fill:none;stroke:#231f20;stroke-width:0.50099999;stroke-linecap:round;stroke-linejoin:miter;stroke-miterlimit:10;stroke-dasharray:none;stroke-opacity:1"
           d="M 0,0 H 5.344" /></g><g
         transform="translate(400.308,524.5963)"
         id="g540"><path
           inkscape:connector-curvature="0"
           id="path542"
           style="fill:none;stroke:#231f20;stroke-width:0.50099999;stroke-linecap:round;stroke-linejoin:miter;stroke-miterlimit:10;stroke-dasharray:none;stroke-opacity:1"
           d="M 0,0 H 5.344" /></g><g
         transform="translate(400.308,554.1757)"
         id="g544"><path
           inkscape:connector-curvature="0"
           id="path546"
           style="fill:none;stroke:#231f20;stroke-width:0.50099999;stroke-linecap:round;stroke-linejoin:miter;stroke-miterlimit:10;stroke-dasharray:none;stroke-opacity:1"
           d="M 0,0 H 5.344" /></g><g
         transform="translate(400.308,583.7551)"
         id="g548"><path
           inkscape:connector-curvature="0"
           id="path550"
           style="fill:none;stroke:#231f20;stroke-width:0.50099999;stroke-linecap:round;stroke-linejoin:miter;stroke-miterlimit:10;stroke-dasharray:none;stroke-opacity:1"
           d="M 0,0 H 5.344" /></g><g
         transform="translate(400.308,613.3364)"
         id="g552"><path
           inkscape:connector-curvature="0"
           id="path554"
           style="fill:none;stroke:#231f20;stroke-width:0.50099999;stroke-linecap:round;stroke-linejoin:miter;stroke-miterlimit:10;stroke-dasharray:none;stroke-opacity:1"
           d="M 0,0 H 5.344" /></g><g
         transform="translate(400.308,642.9163)"
         id="g556"><path
           inkscape:connector-curvature="0"
           id="path558"
           style="fill:none;stroke:#231f20;stroke-width:0.50099999;stroke-linecap:round;stroke-linejoin:miter;stroke-miterlimit:10;stroke-dasharray:none;stroke-opacity:1"
           d="M 0,0 H 5.344" /></g><g
         transform="translate(400.308,672.4967)"
         id="g560"><path
           inkscape:connector-curvature="0"
           id="path562"
           style="fill:none;stroke:#231f20;stroke-width:0.50099999;stroke-linecap:round;stroke-linejoin:miter;stroke-miterlimit:10;stroke-dasharray:none;stroke-opacity:1"
           d="M 0,0 H 5.344" /></g><path
         inkscape:connector-curvature="0"
         id="path564"
         style="fill:#80cc28;fill-opacity:1;fill-rule:nonzero;stroke:none"
         d="m 418.802,646.791 h 16.749 v -8.962 h -16.749 z" /><g
         transform="translate(418.8022,646.7914)"
         id="g566"><path
           inkscape:connector-curvature="0"
           id="path568"
           style="fill:none;stroke:#ecf7d9;stroke-width:1.00199997;stroke-linecap:butt;stroke-linejoin:miter;stroke-miterlimit:10;stroke-dasharray:none;stroke-opacity:1"
           d="M 0,0 H 16.749 V -8.962 H 0 Z" /></g><path
         inkscape:connector-curvature="0"
         id="path570"
         style="fill:#75937c;fill-opacity:1;fill-rule:nonzero;stroke:none"
         d="m 418.802,637.829 h 16.749 v -71.702 h -16.749 z" /><g
         transform="translate(418.8022,637.8286)"
         id="g572"><path
           inkscape:connector-curvature="0"
           id="path574"
           style="fill:none;stroke:#ecf7d9;stroke-width:1.00199997;stroke-linecap:butt;stroke-linejoin:miter;stroke-miterlimit:10;stroke-dasharray:none;stroke-opacity:1"
           d="M 0,0 H 16.749 V -71.702 H 0 Z" /></g><path
         inkscape:connector-curvature="0"
         id="path576"
         style="fill:#1f3a29;fill-opacity:1;fill-rule:nonzero;stroke:none"
         d="m 418.802,566.128 h 16.749 v -74.69 h -16.749 z" /><g
         transform="translate(418.8022,566.1278)"
         id="g578"><path
           inkscape:connector-curvature="0"
           id="path580"
           style="fill:none;stroke:#ecf7d9;stroke-width:1.00199997;stroke-linecap:butt;stroke-linejoin:miter;stroke-miterlimit:10;stroke-dasharray:none;stroke-opacity:1"
           d="M 0,0 H 16.749 V -74.69 H 0 Z" /></g><path
         inkscape:connector-curvature="0"
         id="path582"
         style="fill:#b3e072;fill-opacity:1;fill-rule:nonzero;stroke:none"
         d="m 418.802,491.437 h 16.749 v -56.765 h -16.749 z" /><g
         transform="translate(418.8022,491.4367)"
         id="g584"><path
           inkscape:connector-curvature="0"
           id="path586"
           style="fill:none;stroke:#ecf7d9;stroke-width:1.00199997;stroke-linecap:butt;stroke-linejoin:miter;stroke-miterlimit:10;stroke-dasharray:none;stroke-opacity:1"
           d="M 0,0 H 16.749 V -56.765 H 0 Z" /></g><g
         id="g588"><g
           clip-path="url(#clipPath594)"
           id="g590"><text
             id="text598"
             style="font-variant:normal;font-weight:bold;font-stretch:normal;font-size:9.26939964px;font-family:'HelveticaNeueLT Std';-inkscape-font-specification:HelveticaNeueLTStd-Bd;writing-mode:lr-tb;fill:#80cc28;fill-opacity:1;fill-rule:nonzero;stroke:none"
             transform="matrix(0,1,1,0,40.8346,505.1738)"><tspan
               id="tspan596"
               sodipodi:role="line"
               y="0"
               x="0 4.6346998 10.298304 13.561132 18.881767 21.273273 23.850166 30.199705 32.591209 36.197006 41.860611 44.252117 49.57275 55.069504 60.390141 62.967033 69.835663 73.44146 78.762093 84.425697 87.002586 89.74633 99.015732">Total Airplane Drag (%)</tspan></text>
</g></g><text
         id="text602"
         style="font-variant:normal;font-weight:bold;font-stretch:normal;font-size:9.26939964px;font-family:'HelveticaNeueLT Std';-inkscape-font-specification:HelveticaNeueLTStd-Bd;writing-mode:lr-tb;fill:#231f20;fill-opacity:1;fill-rule:nonzero;stroke:none"
         transform="matrix(0,1,1,0,373.4981,447.2422)"><tspan
           id="tspan600"
           sodipodi:role="line"
           y="0"
           x="0 6.0065713 10.984239 16.304874 19.743822 25.064457 30.042126 35.362762 40.683395 46.180149 51.500786 56.821423 59.398315 66.266937 69.872734 75.193375 80.856979 83.433868 86.177612 95.447014 98.023903 103.68751 106.77422 109.35111 115.70065 118.09216 121.69795 127.36156 129.75307 135.0737 140.57045 145.89108 148.46799 155.33661 158.9424 164.43916 166.83066 171.80833 177.12897 179.70586 186.57448 190.18028 195.50092 201.16452">Excrescence Drag (% of Airplane Cruise Drag)</tspan></text>
<g
         id="g604"><g
           clip-path="url(#clipPath610)"
           id="g606"><g
             transform="translate(283.4261,672.3973)"
             id="g612"><path
               inkscape:connector-curvature="0"
               id="path614"
               style="fill:none;stroke:#80cc28;stroke-width:0.75199997;stroke-linecap:butt;stroke-linejoin:miter;stroke-miterlimit:4;stroke-dasharray:none;stroke-opacity:1"
               d="M 0,0 H 69.144" /></g><g
             transform="translate(348.8264,674.9036)"
             id="g616"><path
               inkscape:connector-curvature="0"
               id="path618"
               style="fill:none;stroke:#80cc28;stroke-width:0.75199997;stroke-linecap:butt;stroke-linejoin:miter;stroke-miterlimit:4;stroke-dasharray:none;stroke-opacity:1"
               d="M 0,0 3.744,-2.506 0,-5.013" /></g></g></g></g></g></svg>