<?xml version="1.0" encoding="UTF-8" standalone="no"?>
<!-- Created with Inkscape (http://www.inkscape.org/) -->

<svg
   xmlns:dc="http://purl.org/dc/elements/1.1/"
   xmlns:cc="http://creativecommons.org/ns#"
   xmlns:rdf="http://www.w3.org/1999/02/22-rdf-syntax-ns#"
   xmlns:svg="http://www.w3.org/2000/svg"
   xmlns="http://www.w3.org/2000/svg"
   xmlns:sodipodi="http://sodipodi.sourceforge.net/DTD/sodipodi-0.dtd"
   xmlns:inkscape="http://www.inkscape.org/namespaces/inkscape"
   version="1.1"
   id="svg2"
   xml:space="preserve"
   width="261.68625"
   height="71.529106"
   viewBox="0 0 261.68625 71.529106"
   sodipodi:docname="B747_clipart_sideview.svg"
   inkscape:version="0.92.1 r15371"><metadata
     id="metadata8"><rdf:RDF><cc:Work
         rdf:about=""><dc:format>image/svg+xml</dc:format><dc:type
           rdf:resource="http://purl.org/dc/dcmitype/StillImage" /><dc:title></dc:title></cc:Work></rdf:RDF></metadata><defs
     id="defs6"><clipPath
       clipPathUnits="userSpaceOnUse"
       id="clipPath34"><path
         d="M 390.253,624.782 573.295,547.085 593.847,595.503 410.805,673.2 Z"
         id="path32"
         inkscape:connector-curvature="0" /></clipPath></defs><sodipodi:namedview
     pagecolor="#ffffff"
     bordercolor="#666666"
     borderopacity="1"
     objecttolerance="10"
     gridtolerance="10"
     guidetolerance="10"
     inkscape:pageopacity="0"
     inkscape:pageshadow="2"
     inkscape:window-width="1280"
     inkscape:window-height="657"
     id="namedview4"
     showgrid="false"
     fit-margin-top="0"
     fit-margin-left="0"
     fit-margin-right="0"
     fit-margin-bottom="0"
     inkscape:zoom="2.2037508"
     inkscape:cx="128.20427"
     inkscape:cy="37.412703"
     inkscape:window-x="-8"
     inkscape:window-y="-8"
     inkscape:window-maximized="1"
     inkscape:current-layer="g10" /><g
     id="g10"
     inkscape:groupmode="layer"
     inkscape:label="Pagine da AERO_2014q3-2"
     transform="matrix(1.3333333,0,0,-1.3333333,-266.12971,707.62552)"><g
       id="g28"
       transform="rotate(23.04962,656.35546,90.579205)"><g
         id="g30"
         clip-path="url(#clipPath34)"><g
           id="g36"
           transform="translate(444.4471,628.9721)"><path
             d="m 0,0 c 20.739,-8.679 55.408,-23.19 55.892,-23.87 3.262,-0.721 21.909,-6.063 29.152,-9.138 7.243,-3.074 26.049,-10.974 29.285,-12.929 3.237,-1.955 3.68,-2.475 5.44,-6.541 2.145,-2.571 8.459,-9.4 7.653,-11.299 -0.806,-1.899 -13.076,-4.409 -34.101,4.516 -21.027,8.925 -51.101,20.778 -59.831,24.65 -8.731,3.872 -6.683,3.418 -6.683,3.418 -11.187,4.147 -19.012,8.026 -32.2,17.402 -13.324,9.474 -30.369,21.612 -33.365,23.548 -2.996,1.935 -1.903,7.938 3.039,6.089 0.217,-0.081 0.866,-0.368 1.808,-0.795 l 0.073,28.716 c 0,0 8.931,-2.378 10.068,-4.816 C -22.632,36.513 -8.539,8.803 -6.941,6.169 -5.343,3.536 -2.307,0.966 0,0"
             style="fill:#a4a6a7;fill-opacity:1;fill-rule:nonzero;stroke:none"
             id="path38"
             inkscape:connector-curvature="0" /></g><g
           id="g40"
           transform="translate(444.4471,628.9721)"><path
             d="m 0,0 c 20.739,-8.679 55.408,-23.19 55.892,-23.87 3.262,-0.721 21.909,-6.063 29.152,-9.138 7.243,-3.074 26.049,-10.974 29.285,-12.929 3.237,-1.955 3.68,-2.475 5.44,-6.541 2.145,-2.571 8.459,-9.4 7.653,-11.299 -0.806,-1.899 -13.076,-4.409 -34.101,4.516 -21.027,8.925 -51.101,20.778 -59.831,24.65 -8.731,3.872 -6.683,3.418 -6.683,3.418 -11.187,4.147 -19.012,8.026 -32.2,17.402 -13.324,9.474 -30.369,21.612 -33.365,23.548 -2.996,1.935 -1.903,7.938 3.039,6.089 0.217,-0.081 0.866,-0.368 1.808,-0.795 l 0.073,28.716 c 0,0 8.931,-2.378 10.068,-4.816 C -22.632,36.513 -8.539,8.803 -6.941,6.169 -5.343,3.536 -2.307,0.966 0,0 Z"
             style="fill:none;stroke:#ffffff;stroke-width:0.75;stroke-linecap:butt;stroke-linejoin:miter;stroke-miterlimit:10;stroke-dasharray:none;stroke-opacity:1"
             id="path42"
             inkscape:connector-curvature="0" /></g><g
           id="g44"
           transform="translate(469.6395,609.0311)"><path
             d="m 0,0 c -4.207,0.406 -4.616,0.432 -4.733,0.156 -0.191,-0.451 1.06,-1.048 2.505,-1.833 1.253,-0.682 4.365,-1.734 4.365,-1.734"
             style="fill:#a4a6a7;fill-opacity:1;fill-rule:nonzero;stroke:#ffffff;stroke-width:0.75;stroke-linecap:butt;stroke-linejoin:miter;stroke-miterlimit:10;stroke-dasharray:none;stroke-opacity:1"
             id="path46"
             inkscape:connector-curvature="0" /></g><g
           id="g48"
           transform="translate(474.7996,604.9344)"><path
             d="m 0,0 c -4.207,0.406 -4.616,0.432 -4.733,0.156 -0.191,-0.451 1.06,-1.048 2.505,-1.833 1.253,-0.682 4.365,-1.734 4.365,-1.734"
             style="fill:#a4a6a7;fill-opacity:1;fill-rule:nonzero;stroke:#ffffff;stroke-width:0.75;stroke-linecap:butt;stroke-linejoin:miter;stroke-miterlimit:10;stroke-dasharray:none;stroke-opacity:1"
             id="path50"
             inkscape:connector-curvature="0" /></g><g
           id="g52"
           transform="translate(481.7306,598.1488)"><path
             d="m 0,0 c -4.207,0.406 -4.616,0.432 -4.733,0.156 -0.191,-0.451 1.06,-1.048 2.505,-1.833 1.253,-0.682 4.365,-1.734 4.365,-1.734"
             style="fill:#a4a6a7;fill-opacity:1;fill-rule:nonzero;stroke:#ffffff;stroke-width:0.75;stroke-linecap:butt;stroke-linejoin:miter;stroke-miterlimit:10;stroke-dasharray:none;stroke-opacity:1"
             id="path54"
             inkscape:connector-curvature="0" /></g><g
           id="g56"
           transform="translate(488.311,594.6692)"><path
             d="M 0,0 C 0,0 3.01,-1.738 3.912,-3.643"
             style="fill:#a4a6a7;fill-opacity:1;fill-rule:nonzero;stroke:#ffffff;stroke-width:0.75;stroke-linecap:butt;stroke-linejoin:miter;stroke-miterlimit:10;stroke-dasharray:none;stroke-opacity:1"
             id="path58"
             inkscape:connector-curvature="0" /></g><g
           id="g60"
           transform="translate(429.0252,631.0281)"><path
             d="m 0,0 c -3.334,-0.432 -11.13,2.443 -13.119,4.156 -2.828,1.527 -8.476,4.089 -8.476,4.089 l -5.177,6.487 c 0,0 4.837,-1.402 7.088,-3.009 C -17.433,10.116 0,0 0,0"
             style="fill:#a4a6a7;fill-opacity:1;fill-rule:nonzero;stroke:none"
             id="path62"
             inkscape:connector-curvature="0" /></g><g
           id="g64"
           transform="translate(429.0252,631.0281)"><path
             d="m 0,0 c -3.334,-0.432 -11.13,2.443 -13.119,4.156 -2.828,1.527 -8.476,4.089 -8.476,4.089 l -5.177,6.487 c 0,0 4.837,-1.402 7.088,-3.009 C -17.433,10.116 0,0 0,0 Z"
             style="fill:none;stroke:#ffffff;stroke-width:0.75;stroke-linecap:butt;stroke-linejoin:miter;stroke-miterlimit:10;stroke-dasharray:none;stroke-opacity:1"
             id="path66"
             inkscape:connector-curvature="0" /></g><g
           id="g68"
           transform="translate(478.3999,601.6464)"><path
             d="m 0,0 c 0,0 -5.028,1.808 -7.1,2.851 -1.434,4.683 -9.796,10.512 -12.563,13.398 -2.767,2.886 -6.164,5.631 -6.164,5.631 l -1.919,5.459 c 0,0 2.788,-0.532 3.658,-1.553 0.87,-1.021 4.016,-5.127 5.499,-6.815 0.719,-0.224 1.123,-0.233 1.657,-0.703 0.533,-0.471 22.027,-16.438 30.405,-21.461 8.378,-5.023 14.372,-7.625 23.569,-11.553 9.198,-3.929 12.589,-9.917 12.16,-10.927 -0.429,-1.01 -8.495,0.05 -18.877,5.299"
             style="fill:#a4a6a7;fill-opacity:1;fill-rule:nonzero;stroke:#ffffff;stroke-width:0.75;stroke-linecap:butt;stroke-linejoin:miter;stroke-miterlimit:10;stroke-dasharray:none;stroke-opacity:1"
             id="path70"
             inkscape:connector-curvature="0" /></g><g
           id="g72"
           transform="translate(480.9291,601.5502)"><path
             d="M 0,0 -7.394,1.835 C -7.77,1.517 -8.349,0.13 -8.338,-0.387 c 0.809,-0.654 6.239,-4.045 6.239,-4.045"
             style="fill:#a4a6a7;fill-opacity:1;fill-rule:nonzero;stroke:#ffffff;stroke-width:0.75;stroke-linecap:butt;stroke-linejoin:miter;stroke-miterlimit:10;stroke-dasharray:none;stroke-opacity:1"
             id="path74"
             inkscape:connector-curvature="0" /></g><g
           id="g76"
           transform="translate(502.1807,588.1341)"><path
             d="m 0,0 -7.557,1.904 c 0,0 -1.136,-1.396 -0.943,-2.222 0.809,-0.654 6.401,-4.114 6.401,-4.114"
             style="fill:#a4a6a7;fill-opacity:1;fill-rule:nonzero;stroke:#ffffff;stroke-width:0.75;stroke-linecap:butt;stroke-linejoin:miter;stroke-miterlimit:10;stroke-dasharray:none;stroke-opacity:1"
             id="path78"
             inkscape:connector-curvature="0" /></g><g
           id="g80"
           transform="translate(480.0428,599.9738)"><path
             d="m 0,0 c -0.556,-1.31 -1.394,-3.539 -1.394,-3.539 0,0 5.041,-3.226 7.537,-3.743 L 8.64,-7.798 c 0,0 1.487,2.736 2.618,6.167 C 9.86,-0.06 4.692,2.351 1.316,2.589 1.316,2.589 0.556,1.31 0,0"
             style="fill:#a4a6a7;fill-opacity:1;fill-rule:nonzero;stroke:none"
             id="path82"
             inkscape:connector-curvature="0" /></g><g
           id="g84"
           transform="translate(480.0428,599.9738)"><path
             d="m 0,0 c -0.556,-1.31 -1.394,-3.539 -1.394,-3.539 0,0 5.041,-3.226 7.537,-3.743 L 8.64,-7.798 c 0,0 1.487,2.736 2.618,6.167 C 9.86,-0.06 4.692,2.351 1.316,2.589 1.316,2.589 0.556,1.31 0,0 Z"
             style="fill:none;stroke:#ffffff;stroke-width:0.75;stroke-linecap:butt;stroke-linejoin:miter;stroke-miterlimit:10;stroke-dasharray:none;stroke-opacity:1"
             id="path86"
             inkscape:connector-curvature="0" /></g><g
           id="g88"
           transform="translate(501.2943,586.5577)"><path
             d="m 0,0 c -0.556,-1.31 -1.394,-3.539 -1.394,-3.539 0,0 5.041,-3.226 7.537,-3.743 L 8.64,-7.798 c 0,0 1.487,2.736 2.618,6.167 C 9.86,-0.06 4.692,2.351 1.316,2.589 1.316,2.589 0.556,1.31 0,0"
             style="fill:#a4a6a7;fill-opacity:1;fill-rule:nonzero;stroke:none"
             id="path90"
             inkscape:connector-curvature="0" /></g><g
           id="g92"
           transform="translate(501.2943,586.5577)"><path
             d="m 0,0 c -0.556,-1.31 -1.394,-3.539 -1.394,-3.539 0,0 5.041,-3.226 7.537,-3.743 L 8.64,-7.798 c 0,0 1.487,2.736 2.618,6.167 C 9.86,-0.06 4.692,2.351 1.316,2.589 1.316,2.589 0.556,1.31 0,0 Z"
             style="fill:none;stroke:#ffffff;stroke-width:0.75;stroke-linecap:butt;stroke-linejoin:miter;stroke-miterlimit:10;stroke-dasharray:none;stroke-opacity:1"
             id="path94"
             inkscape:connector-curvature="0" /></g></g></g><path
       style="fill:none;stroke:#000000;stroke-width:0.75px;stroke-linecap:butt;stroke-linejoin:miter;stroke-opacity:1"
       d="M 199.59729,480.44732 H 395.86198"
       id="path4955"
       inkscape:connector-curvature="0"
       sodipodi:nodetypes="cc" /></g></svg>