<?xml version="1.0" encoding="UTF-8" standalone="no"?>
<!-- Created with Inkscape (http://www.inkscape.org/) -->

<svg
   xmlns:ns0="http://www.iki.fi/pav/software/textext/"
   xmlns:dc="http://purl.org/dc/elements/1.1/"
   xmlns:cc="http://creativecommons.org/ns#"
   xmlns:rdf="http://www.w3.org/1999/02/22-rdf-syntax-ns#"
   xmlns:svg="http://www.w3.org/2000/svg"
   xmlns="http://www.w3.org/2000/svg"
   xmlns:sodipodi="http://sodipodi.sourceforge.net/DTD/sodipodi-0.dtd"
   xmlns:inkscape="http://www.inkscape.org/namespaces/inkscape"
   width="111.90488mm"
   height="183.9799mm"
   viewBox="0 0 111.90487 183.9799"
   version="1.1"
   id="svg10028"
   inkscape:version="0.92.1 r15371"
   sodipodi:docname="Drag_Polar_Parabolic.svg"
   inkscape:export-filename="Drag_Polar.png"
   inkscape:export-xdpi="200"
   inkscape:export-ydpi="200">
  <sodipodi:namedview
     id="base"
     pagecolor="#ffffff"
     bordercolor="#666666"
     borderopacity="1.0"
     inkscape:pageopacity="0.0"
     inkscape:pageshadow="2"
     inkscape:zoom="0.42453462"
     inkscape:cx="-129.43648"
     inkscape:cy="397.15738"
     inkscape:document-units="mm"
     inkscape:current-layer="layer2"
     showgrid="false"
     fit-margin-top="0"
     fit-margin-left="0"
     fit-margin-right="0"
     fit-margin-bottom="0"
     inkscape:window-width="1280"
     inkscape:window-height="657"
     inkscape:window-x="-8"
     inkscape:window-y="-8"
     inkscape:window-maximized="1" />
  <defs
     id="defs10022">
    <marker
       inkscape:stockid="Arrow1Send"
       orient="auto"
       refY="0"
       refX="0"
       id="marker6597"
       style="overflow:visible"
       inkscape:isstock="true">
      <path
         id="path6595"
         d="M 0,0 5,-5 -12.5,0 5,5 Z"
         style="fill:#000000;fill-opacity:1;fill-rule:evenodd;stroke:#000000;stroke-width:1.00000003pt;stroke-opacity:1"
         transform="matrix(-0.2,0,0,-0.2,-1.2,0)"
         inkscape:connector-curvature="0" />
    </marker>
    <marker
       inkscape:stockid="Arrow1Sstart"
       orient="auto"
       refY="0"
       refX="0"
       id="marker6587"
       style="overflow:visible"
       inkscape:isstock="true">
      <path
         id="path6585"
         d="M 0,0 5,-5 -12.5,0 5,5 Z"
         style="fill:#000000;fill-opacity:1;fill-rule:evenodd;stroke:#000000;stroke-width:1.00000003pt;stroke-opacity:1"
         transform="matrix(0.2,0,0,0.2,1.2,0)"
         inkscape:connector-curvature="0" />
    </marker>
    <marker
       inkscape:collect="always"
       inkscape:isstock="true"
       style="overflow:visible"
       id="Arrow1Sstart"
       refX="0"
       refY="0"
       orient="auto"
       inkscape:stockid="Arrow1Sstart">
      <path
         inkscape:connector-curvature="0"
         transform="matrix(0.2,0,0,0.2,1.2,0)"
         style="fill:#000000;fill-opacity:1;fill-rule:evenodd;stroke:#000000;stroke-width:1.00000003pt;stroke-opacity:1"
         d="M 0,0 5,-5 -12.5,0 5,5 Z"
         id="path4511" />
    </marker>
    <marker
       inkscape:collect="always"
       inkscape:isstock="true"
       style="overflow:visible"
       id="marker5991"
       refX="0"
       refY="0"
       orient="auto"
       inkscape:stockid="Arrow1Send">
      <path
         inkscape:connector-curvature="0"
         transform="matrix(-0.2,0,0,-0.2,-1.2,0)"
         style="fill:#000000;fill-opacity:1;fill-rule:evenodd;stroke:#000000;stroke-width:1.00000003pt;stroke-opacity:1"
         d="M 0,0 5,-5 -12.5,0 5,5 Z"
         id="path5989" />
    </marker>
    <marker
       inkscape:isstock="true"
       style="overflow:visible"
       id="marker4887"
       refX="0"
       refY="0"
       orient="auto"
       inkscape:stockid="Arrow1Send">
      <path
         inkscape:connector-curvature="0"
         transform="matrix(-0.2,0,0,-0.2,-1.2,0)"
         style="fill:#000000;fill-opacity:1;fill-rule:evenodd;stroke:#000000;stroke-width:1.00000003pt;stroke-opacity:1"
         d="M 0,0 5,-5 -12.5,0 5,5 Z"
         id="path4885" />
    </marker>
    <marker
       inkscape:stockid="Arrow1Mend"
       orient="auto"
       refY="0"
       refX="0"
       id="marker4833"
       style="overflow:visible"
       inkscape:isstock="true">
      <path
         inkscape:connector-curvature="0"
         id="path4831"
         d="M 0,0 5,-5 -12.5,0 5,5 Z"
         style="fill:#000000;fill-opacity:1;fill-rule:evenodd;stroke:#000000;stroke-width:1.00000003pt;stroke-opacity:1"
         transform="matrix(-0.4,0,0,-0.4,-4,0)" />
    </marker>
    <marker
       inkscape:collect="always"
       inkscape:stockid="Arrow1Send"
       orient="auto"
       refY="0"
       refX="0"
       id="Arrow1Send"
       style="overflow:visible"
       inkscape:isstock="true">
      <path
         inkscape:connector-curvature="0"
         id="path4514"
         d="M 0,0 5,-5 -12.5,0 5,5 Z"
         style="fill:#000000;fill-opacity:1;fill-rule:evenodd;stroke:#000000;stroke-width:1.00000003pt;stroke-opacity:1"
         transform="matrix(-0.2,0,0,-0.2,-1.2,0)" />
    </marker>
    <marker
       inkscape:stockid="Arrow1Mend"
       orient="auto"
       refY="0"
       refX="0"
       id="Arrow1Mend"
       style="overflow:visible"
       inkscape:isstock="true">
      <path
         inkscape:connector-curvature="0"
         id="path4508"
         d="M 0,0 5,-5 -12.5,0 5,5 Z"
         style="fill:#000000;fill-opacity:1;fill-rule:evenodd;stroke:#000000;stroke-width:1.00000003pt;stroke-opacity:1"
         transform="matrix(-0.4,0,0,-0.4,-4,0)" />
    </marker>
  </defs>
  <metadata
     id="metadata10025">
    <rdf:RDF>
      <cc:Work
         rdf:about="">
        <dc:format>image/svg+xml</dc:format>
        <dc:type
           rdf:resource="http://purl.org/dc/dcmitype/StillImage" />
        <dc:title></dc:title>
      </cc:Work>
    </rdf:RDF>
  </metadata>
  <g
     transform="translate(-24.627181,20.97726)"
     inkscape:groupmode="layer"
     id="layer2"
     inkscape:label="Layer 1">
    <path
       style="fill:none;stroke:#000000;stroke-width:0.79374999;stroke-linecap:round;stroke-linejoin:round;stroke-miterlimit:4;stroke-dasharray:none;stroke-opacity:1;marker-end:url(#Arrow1Send)"
       d="M 27.16679,76.468284 H 135.11494"
       id="path20822-5"
       inkscape:connector-curvature="0"
       sodipodi:nodetypes="cc" />
    <path
       sodipodi:nodetypes="cc"
       inkscape:connector-curvature="0"
       id="path4883"
       d="M 38.324239,160.28213 V -19.560142"
       style="fill:none;stroke:#000000;stroke-width:0.79374999;stroke-linecap:round;stroke-linejoin:round;stroke-miterlimit:4;stroke-dasharray:none;stroke-opacity:1;marker-end:url(#marker4887)" />
    <path
       sodipodi:nodetypes="cczcc"
       inkscape:connector-curvature="0"
       d="M 130.64201,162.33623 C 107.40929,148.11436 89.968745,133.89248 78.355265,119.67062 66.741805,105.44873 60.926345,91.226864 60.926345,76.468281 c 0,-14.758584 5.81545,-28.980451 17.42892,-43.20234 C 89.968735,19.044082 107.40928,4.8222032 130.642,-9.3996658"
       style="fill:none;fill-opacity:1;stroke:#24627b;stroke-width:1.32291663;stroke-linecap:round;stroke-miterlimit:4;stroke-dasharray:none;stroke-dashoffset:0;stroke-opacity:1"
       id="path5406" />
    <path
       sodipodi:nodetypes="cc"
       inkscape:connector-curvature="0"
       id="path5421"
       d="M 60.529468,1.150588 V 75.46057"
       style="fill:none;stroke:#000000;stroke-width:0.79374999;stroke-linecap:round;stroke-linejoin:miter;stroke-miterlimit:4;stroke-dasharray:2.38125, 2.38125;stroke-dashoffset:0;stroke-opacity:1" />
    <path
       sodipodi:nodetypes="cc"
       inkscape:connector-curvature="0"
       id="path5981"
       d="M 39.76055,32.703915 H 59.703958"
       style="fill:none;stroke:#000000;stroke-width:0.5291667;stroke-linecap:butt;stroke-linejoin:miter;stroke-miterlimit:4;stroke-dasharray:none;stroke-opacity:1;marker-start:url(#Arrow1Sstart);marker-end:url(#marker5991)" />
    <g
       id="content"
       transform="matrix(0.8,0,0,-0.8,-76.291746,554.88085)"
       xml:space="preserve"
       stroke-miterlimit="10.433"
       font-style="normal"
       font-variant="normal"
       font-weight="normal"
       font-stretch="normal"
       font-size-adjust="none"
       letter-spacing="normal"
       word-spacing="normal"
       ns0:text="$C_{D0}$"
       ns0:preamble="C:\\Users\\agodemar\\AppData\\Roaming\\inkscape\\extensions\\default_packages_mt2pro.tex"
       style="font-style:normal;font-variant:normal;font-weight:normal;font-stretch:normal;letter-spacing:normal;word-spacing:normal;text-anchor:start;display:inline;opacity:0.92000002;fill:#000000;fill-opacity:1;fill-rule:evenodd;stroke:#000000;stroke-linecap:butt;stroke-linejoin:miter;stroke-miterlimit:10.43299961;stroke-dasharray:none;stroke-dashoffset:0;stroke-opacity:1"><path
         inkscape:connector-curvature="0"
         d="m 155.75,664.08 h -0.21 c -0.07,-0.12 -0.17,-0.27 -0.41,-0.27 -0.23,0 -0.87,0.28 -1.56,0.28 -2.19,0 -4.24,-2.12 -4.24,-4.26 0,-1.74 1.3,-2.74 2.72,-2.74 1.27,0 2.38,0.77 2.88,1.64 l -0.28,0.01 c -0.47,-0.59 -1.23,-1.22 -2.25,-1.22 -1.11,0 -1.83,0.77 -1.83,2.2 0,1.75 1.17,4.03 3.09,4.03 1.05,0 1.47,-0.69 1.47,-1.76 h 0.18 z"
         font-size-adjust="none"
         font-stretch="normal"
         font-style="normal"
         font-variant="normal"
         font-weight="normal"
         letter-spacing="normal"
         stroke-miterlimit="10.433"
         word-spacing="normal"
         style="font-style:normal;font-variant:normal;font-weight:normal;font-stretch:normal;letter-spacing:normal;word-spacing:normal;text-anchor:start;display:inline;opacity:0.92000002;fill:#000000;fill-opacity:1;fill-rule:evenodd;stroke:#000000;stroke-width:0;stroke-linecap:butt;stroke-linejoin:miter;stroke-miterlimit:10.43299961;stroke-dasharray:none;stroke-dashoffset:0;stroke-opacity:1"
         id="path6164" /><path
         inkscape:connector-curvature="0"
         d="m 161.22,658.7 v 0.1 l -0.01,0.11 -0.01,0.1 -0.01,0.1 -0.02,0.1 -0.03,0.1 -0.03,0.09 -0.03,0.1 -0.04,0.09 -0.05,0.09 -0.05,0.08 -0.05,0.09 -0.06,0.08 -0.06,0.08 -0.07,0.07 -0.07,0.07 -0.07,0.07 -0.08,0.07 -0.09,0.06 -0.09,0.06 -0.09,0.05 -0.1,0.05 -0.1,0.05 -0.11,0.04 -0.11,0.04 -0.12,0.03 -0.12,0.03 -0.13,0.02 -0.13,0.02 -0.13,0.01 -0.14,0.01 h -0.15 l -0.12,-0.34 c 1.11,0 1.54,-0.83 1.54,-1.76 v 0 c 0,-1.21 -0.85,-2.59 -2.81,-2.59 h -0.38 l 1.25,4.35 h 0.4 l 0.12,0.34 h -1.96 l -0.04,-0.21 c 0.27,0 0.6,0 0.6,-0.31 0,-0.1 -0.04,-0.21 -0.11,-0.47 l -0.91,-3.1 c -0.21,-0.71 -0.45,-0.71 -0.79,-0.71 l -0.03,-0.22 h 2.05 c 2.13,0 3.54,1.35 3.54,2.96 z"
         font-size-adjust="none"
         font-stretch="normal"
         font-style="normal"
         font-variant="normal"
         font-weight="normal"
         letter-spacing="normal"
         stroke-miterlimit="10.433"
         word-spacing="normal"
         style="font-style:normal;font-variant:normal;font-weight:normal;font-stretch:normal;letter-spacing:normal;word-spacing:normal;text-anchor:start;display:inline;opacity:0.92000002;fill:#000000;fill-opacity:1;fill-rule:evenodd;stroke:#000000;stroke-width:0;stroke-linecap:butt;stroke-linejoin:miter;stroke-miterlimit:10.43299961;stroke-dasharray:none;stroke-dashoffset:0;stroke-opacity:1"
         id="path6166" /><path
         inkscape:connector-curvature="0"
         d="m 165.73,658.05 v 0.12 l -0.01,0.11 -0.01,0.12 -0.01,0.11 -0.01,0.11 -0.02,0.11 -0.02,0.11 -0.03,0.11 -0.03,0.11 -0.03,0.1 -0.03,0.1 -0.04,0.09 -0.04,0.1 -0.05,0.09 -0.04,0.09 -0.06,0.08 -0.05,0.08 -0.06,0.08 -0.06,0.07 -0.06,0.07 -0.07,0.06 -0.07,0.06 -0.07,0.06 -0.08,0.05 -0.08,0.04 -0.08,0.04 -0.09,0.04 -0.09,0.02 -0.09,0.03 -0.09,0.01 -0.1,0.01 h -0.1 v -0.27 c 0.75,0 0.8,-1.3 0.8,-2.11 v 0 c 0,-0.97 -0.24,-2.12 -0.82,-2.12 -0.72,0 -0.8,1.15 -0.8,2.12 0,0.81 0.05,2.11 0.82,2.11 v 0.27 c -1.11,0 -1.69,-1.13 -1.69,-2.38 0,-1.27 0.56,-2.39 1.69,-2.39 1.06,0 1.67,1.12 1.67,2.39 z"
         font-size-adjust="none"
         font-stretch="normal"
         font-style="normal"
         font-variant="normal"
         font-weight="normal"
         letter-spacing="normal"
         stroke-miterlimit="10.433"
         word-spacing="normal"
         style="font-style:normal;font-variant:normal;font-weight:normal;font-stretch:normal;letter-spacing:normal;word-spacing:normal;text-anchor:start;display:inline;opacity:0.92000002;fill:#000000;fill-opacity:1;fill-rule:evenodd;stroke:#000000;stroke-width:0;stroke-linecap:butt;stroke-linejoin:miter;stroke-miterlimit:10.43299961;stroke-dasharray:none;stroke-dashoffset:0;stroke-opacity:1"
         id="path6168" /></g>    <g
       style="font-style:normal;font-variant:normal;font-weight:normal;font-stretch:normal;letter-spacing:normal;word-spacing:normal;text-anchor:start;display:inline;opacity:0.92000002;fill:#000000;fill-opacity:1;fill-rule:evenodd;stroke:#000000;stroke-linecap:butt;stroke-linejoin:miter;stroke-miterlimit:10.43299961;stroke-dasharray:none;stroke-dashoffset:0;stroke-opacity:1"
       ns0:preamble="C:\\Users\\agodemar\\AppData\\Roaming\\inkscape\\extensions\\default_packages_mt2pro.tex"
       ns0:text="$C_{L}$"
       word-spacing="normal"
       letter-spacing="normal"
       font-size-adjust="none"
       font-stretch="normal"
       font-weight="normal"
       font-variant="normal"
       font-style="normal"
       stroke-miterlimit="10.433"
       xml:space="preserve"
       transform="matrix(0.8,0,0,-0.8,-94.836819,510.29474)"
       id="g6261"><path
         id="path6257"
         style="font-style:normal;font-variant:normal;font-weight:normal;font-stretch:normal;letter-spacing:normal;word-spacing:normal;text-anchor:start;display:inline;opacity:0.92000002;fill:#000000;fill-opacity:1;fill-rule:evenodd;stroke:#000000;stroke-width:0;stroke-linecap:butt;stroke-linejoin:miter;stroke-miterlimit:10.43299961;stroke-dasharray:none;stroke-dashoffset:0;stroke-opacity:1"
         word-spacing="normal"
         stroke-miterlimit="10.433"
         letter-spacing="normal"
         font-weight="normal"
         font-variant="normal"
         font-style="normal"
         font-stretch="normal"
         font-size-adjust="none"
         d="m 155.75,664.08 h -0.21 c -0.07,-0.12 -0.17,-0.27 -0.41,-0.27 -0.23,0 -0.87,0.28 -1.56,0.28 -2.19,0 -4.24,-2.12 -4.24,-4.26 0,-1.74 1.3,-2.74 2.72,-2.74 1.27,0 2.38,0.77 2.88,1.64 l -0.28,0.01 c -0.47,-0.59 -1.23,-1.22 -2.25,-1.22 -1.11,0 -1.83,0.77 -1.83,2.2 0,1.75 1.17,4.03 3.09,4.03 1.05,0 1.47,-0.69 1.47,-1.76 h 0.18 z"
         inkscape:connector-curvature="0" /><path
         id="path6259"
         style="font-style:normal;font-variant:normal;font-weight:normal;font-stretch:normal;letter-spacing:normal;word-spacing:normal;text-anchor:start;display:inline;opacity:0.92000002;fill:#000000;fill-opacity:1;fill-rule:evenodd;stroke:#000000;stroke-width:0;stroke-linecap:butt;stroke-linejoin:miter;stroke-miterlimit:10.43299961;stroke-dasharray:none;stroke-dashoffset:0;stroke-opacity:1"
         word-spacing="normal"
         stroke-miterlimit="10.433"
         letter-spacing="normal"
         font-weight="normal"
         font-variant="normal"
         font-style="normal"
         font-stretch="normal"
         font-size-adjust="none"
         d="m 160.24,657.22 h -0.26 c -0.39,-0.88 -0.85,-1.12 -1.64,-1.12 h -0.76 c -0.2,0 -0.51,-0.02 -0.51,0.28 0,0.07 0.06,0.32 0.08,0.41 l 0.9,3.05 c 0.15,0.5 0.36,0.71 0.73,0.71 l 0.04,0.21 h -2.05 l -0.04,-0.21 c 0.28,0 0.6,0 0.6,-0.31 0,-0.1 -0.04,-0.21 -0.11,-0.47 l -0.91,-3.1 c -0.21,-0.71 -0.49,-0.71 -0.79,-0.71 l -0.03,-0.22 h 4.23 z"
         inkscape:connector-curvature="0" /></g>    <g
       id="g6359"
       transform="matrix(0.8,0,0,-0.8,7.5560537,610.61243)"
       xml:space="preserve"
       stroke-miterlimit="10.433"
       font-style="normal"
       font-variant="normal"
       font-weight="normal"
       font-stretch="normal"
       font-size-adjust="none"
       letter-spacing="normal"
       word-spacing="normal"
       ns0:text="$C_{D}$"
       ns0:preamble="C:\\Users\\agodemar\\AppData\\Roaming\\inkscape\\extensions\\default_packages_mt2pro.tex"
       style="font-style:normal;font-variant:normal;font-weight:normal;font-stretch:normal;letter-spacing:normal;word-spacing:normal;text-anchor:start;display:inline;opacity:0.92000002;fill:#000000;fill-opacity:1;fill-rule:evenodd;stroke:#000000;stroke-linecap:butt;stroke-linejoin:miter;stroke-miterlimit:10.43299961;stroke-dasharray:none;stroke-dashoffset:0;stroke-opacity:1"><path
         inkscape:connector-curvature="0"
         d="m 155.75,664.08 h -0.21 c -0.07,-0.12 -0.17,-0.27 -0.41,-0.27 -0.23,0 -0.87,0.28 -1.56,0.28 -2.19,0 -4.24,-2.12 -4.24,-4.26 0,-1.74 1.3,-2.74 2.72,-2.74 1.27,0 2.38,0.77 2.88,1.64 l -0.28,0.01 c -0.47,-0.59 -1.23,-1.22 -2.25,-1.22 -1.11,0 -1.83,0.77 -1.83,2.2 0,1.75 1.17,4.03 3.09,4.03 1.05,0 1.47,-0.69 1.47,-1.76 h 0.18 z"
         font-size-adjust="none"
         font-stretch="normal"
         font-style="normal"
         font-variant="normal"
         font-weight="normal"
         letter-spacing="normal"
         stroke-miterlimit="10.433"
         word-spacing="normal"
         style="font-style:normal;font-variant:normal;font-weight:normal;font-stretch:normal;letter-spacing:normal;word-spacing:normal;text-anchor:start;display:inline;opacity:0.92000002;fill:#000000;fill-opacity:1;fill-rule:evenodd;stroke:#000000;stroke-width:0;stroke-linecap:butt;stroke-linejoin:miter;stroke-miterlimit:10.43299961;stroke-dasharray:none;stroke-dashoffset:0;stroke-opacity:1"
         id="path6355" /><path
         inkscape:connector-curvature="0"
         d="m 161.22,658.7 v 0.1 l -0.01,0.11 -0.01,0.1 -0.01,0.1 -0.02,0.1 -0.03,0.1 -0.03,0.09 -0.03,0.1 -0.04,0.09 -0.05,0.09 -0.05,0.08 -0.05,0.09 -0.06,0.08 -0.06,0.08 -0.07,0.07 -0.07,0.07 -0.07,0.07 -0.08,0.07 -0.09,0.06 -0.09,0.06 -0.09,0.05 -0.1,0.05 -0.1,0.05 -0.11,0.04 -0.11,0.04 -0.12,0.03 -0.12,0.03 -0.13,0.02 -0.13,0.02 -0.13,0.01 -0.14,0.01 h -0.15 l -0.12,-0.34 c 1.11,0 1.54,-0.83 1.54,-1.76 v 0 c 0,-1.21 -0.85,-2.59 -2.81,-2.59 h -0.38 l 1.25,4.35 h 0.4 l 0.12,0.34 h -1.96 l -0.04,-0.21 c 0.27,0 0.6,0 0.6,-0.31 0,-0.1 -0.04,-0.21 -0.11,-0.47 l -0.91,-3.1 c -0.21,-0.71 -0.45,-0.71 -0.79,-0.71 l -0.03,-0.22 h 2.05 c 2.13,0 3.54,1.35 3.54,2.96 z"
         font-size-adjust="none"
         font-stretch="normal"
         font-style="normal"
         font-variant="normal"
         font-weight="normal"
         letter-spacing="normal"
         stroke-miterlimit="10.433"
         word-spacing="normal"
         style="font-style:normal;font-variant:normal;font-weight:normal;font-stretch:normal;letter-spacing:normal;word-spacing:normal;text-anchor:start;display:inline;opacity:0.92000002;fill:#000000;fill-opacity:1;fill-rule:evenodd;stroke:#000000;stroke-width:0;stroke-linecap:butt;stroke-linejoin:miter;stroke-miterlimit:10.43299961;stroke-dasharray:none;stroke-dashoffset:0;stroke-opacity:1"
         id="path6357" /></g>    <path
       sodipodi:nodetypes="ccc"
       inkscape:connector-curvature="0"
       id="path6551"
       d="m 85.703864,125.3977 7.478771,-9.97171 h 31.437975"
       style="fill:none;stroke:#878787;stroke-width:0.5291667;stroke-linecap:round;stroke-linejoin:miter;stroke-miterlimit:4;stroke-dasharray:none;stroke-opacity:1" />
    <text
       id="text6555"
       y="104.12511"
       x="93.483604"
       style="font-style:normal;font-variant:normal;font-weight:normal;font-stretch:normal;font-size:7.46743202px;line-height:0.99000001;font-family:'Times New Roman';-inkscape-font-specification:'Times New Roman, Normal';font-variant-ligatures:normal;font-variant-caps:normal;font-variant-numeric:normal;font-feature-settings:normal;text-align:start;letter-spacing:0px;word-spacing:0px;writing-mode:lr-tb;text-anchor:start;fill:#000000;fill-opacity:1;stroke:none;stroke-width:0.1866858"
       xml:space="preserve"><tspan
         style="font-style:normal;font-variant:normal;font-weight:normal;font-stretch:normal;font-size:7.46743202px;line-height:0.99000001;font-family:'Times New Roman';-inkscape-font-specification:'Times New Roman, Normal';font-variant-ligatures:normal;font-variant-caps:normal;font-variant-numeric:normal;font-feature-settings:normal;text-align:start;writing-mode:lr-tb;text-anchor:start;stroke-width:0.1866858"
         y="104.12511"
         x="93.483604"
         id="tspan6553"
         sodipodi:role="line">parabolic</tspan><tspan
         id="tspan6557"
         style="font-style:normal;font-variant:normal;font-weight:normal;font-stretch:normal;font-size:7.46743202px;line-height:0.99000001;font-family:'Times New Roman';-inkscape-font-specification:'Times New Roman, Normal';font-variant-ligatures:normal;font-variant-caps:normal;font-variant-numeric:normal;font-feature-settings:normal;text-align:start;writing-mode:lr-tb;text-anchor:start;stroke-width:0.1866858"
         y="111.51787"
         x="93.483604"
         sodipodi:role="line">drag polar</tspan></text>
    <path
       style="fill:none;stroke:#000000;stroke-width:0.5291667;stroke-linecap:butt;stroke-linejoin:miter;stroke-miterlimit:4;stroke-dasharray:none;stroke-opacity:1;marker-start:url(#marker6587);marker-end:url(#marker6597)"
       d="M 61.926979,17.064441 H 91.924554"
       id="path6583"
       inkscape:connector-curvature="0"
       sodipodi:nodetypes="cc" />
    <g
       style="font-style:normal;font-variant:normal;font-weight:normal;font-stretch:normal;letter-spacing:normal;word-spacing:normal;text-anchor:start;display:inline;opacity:0.92000002;fill:#000000;fill-opacity:1;fill-rule:evenodd;stroke:#000000;stroke-linecap:butt;stroke-linejoin:miter;stroke-miterlimit:10.43299961;stroke-dasharray:none;stroke-dashoffset:0;stroke-opacity:1"
       ns0:preamble="C:\\Users\\agodemar\\AppData\\Roaming\\inkscape\\extensions\\default_packages_mt2pro.tex"
       ns0:text="$K\\,C_{L}^2$"
       word-spacing="normal"
       letter-spacing="normal"
       font-size-adjust="none"
       font-stretch="normal"
       font-weight="normal"
       font-variant="normal"
       font-style="normal"
       stroke-miterlimit="10.433"
       xml:space="preserve"
       transform="matrix(0.8,0,0,-0.8,-51.799402,538.44383)"
       id="g7160"><path
         id="path7152"
         style="font-style:normal;font-variant:normal;font-weight:normal;font-stretch:normal;letter-spacing:normal;word-spacing:normal;text-anchor:start;display:inline;opacity:0.92000002;fill:#000000;fill-opacity:1;fill-rule:evenodd;stroke:#000000;stroke-width:0;stroke-linecap:butt;stroke-linejoin:miter;stroke-miterlimit:10.43299961;stroke-dasharray:none;stroke-dashoffset:0;stroke-opacity:1"
         word-spacing="normal"
         stroke-miterlimit="10.433"
         letter-spacing="normal"
         font-weight="normal"
         font-variant="normal"
         font-style="normal"
         font-stretch="normal"
         font-size-adjust="none"
         d="m 158.29292,663.94 h -2.17 l -0.03,-0.17 c 0.31,0 0.48,-0.06 0.48,-0.28 0,-0.21 -0.43,-0.63 -0.95,-1 l -2.17,-1.52 0.51,1.81 c 0.19,0.71 0.55,0.99 1.1,0.99 l 0.03,0.17 h -2.73 l -0.03,-0.17 c 0.29,0 0.75,-0.03 0.75,-0.48 0,-0.13 -0.03,-0.29 -0.14,-0.66 l -1.17,-4.23 c -0.28,-1.01 -0.6,-1 -1.03,-1 l -0.03,-0.17 h 2.62 l 0.03,0.17 c -0.26,0 -0.72,0.04 -0.72,0.53 0,0.09 0.03,0.22 0.06,0.33 l 0.7,2.5 1.44,-2.28 c 0.16,-0.27 0.28,-0.53 0.28,-0.69 0,-0.14 -0.15,-0.39 -0.68,-0.39 l -0.03,-0.17 h 2.82 l 0.03,0.17 c -0.58,0 -0.81,0.09 -1.31,0.95 l -1.63,2.74 2.76,2.07 c 0.61,0.47 0.96,0.61 1.18,0.61 z"
         inkscape:connector-curvature="0" /><path
         id="path7154"
         style="font-style:normal;font-variant:normal;font-weight:normal;font-stretch:normal;letter-spacing:normal;word-spacing:normal;text-anchor:start;display:inline;opacity:0.92000002;fill:#000000;fill-opacity:1;fill-rule:evenodd;stroke:#000000;stroke-width:0;stroke-linecap:butt;stroke-linejoin:miter;stroke-miterlimit:10.43299961;stroke-dasharray:none;stroke-dashoffset:0;stroke-opacity:1"
         word-spacing="normal"
         stroke-miterlimit="10.433"
         letter-spacing="normal"
         font-weight="normal"
         font-variant="normal"
         font-style="normal"
         font-stretch="normal"
         font-size-adjust="none"
         d="m 166.08,664.08 h -0.21 c -0.07,-0.12 -0.16,-0.27 -0.41,-0.27 -0.22,0 -0.87,0.28 -1.56,0.28 -2.18,0 -4.24,-2.12 -4.24,-4.26 0,-1.74 1.3,-2.74 2.72,-2.74 1.27,0 2.38,0.77 2.89,1.64 l -0.28,0.01 c -0.48,-0.59 -1.24,-1.22 -2.26,-1.22 -1.1,0 -1.83,0.77 -1.83,2.2 0,1.75 1.17,4.03 3.09,4.03 1.05,0 1.47,-0.69 1.47,-1.76 h 0.19 z"
         inkscape:connector-curvature="0" /><path
         id="path7156"
         style="font-style:normal;font-variant:normal;font-weight:normal;font-stretch:normal;letter-spacing:normal;word-spacing:normal;text-anchor:start;display:inline;opacity:0.92000002;fill:#000000;fill-opacity:1;fill-rule:evenodd;stroke:#000000;stroke-width:0;stroke-linecap:butt;stroke-linejoin:miter;stroke-miterlimit:10.43299961;stroke-dasharray:none;stroke-dashoffset:0;stroke-opacity:1"
         word-spacing="normal"
         stroke-miterlimit="10.433"
         letter-spacing="normal"
         font-weight="normal"
         font-variant="normal"
         font-style="normal"
         font-stretch="normal"
         font-size-adjust="none"
         d="m 171.1,661.84 -0.22,0.03 c -0.24,-0.34 -0.41,-0.41 -0.77,-0.41 h -1.65 c 1.19,0.98 2.25,1.87 2.25,2.84 0,0.73 -0.7,1.24 -1.47,1.24 -0.76,0 -1.37,-0.36 -1.62,-1.37 h 0.25 c 0.23,0.39 0.51,0.78 1.09,0.78 0.63,0 1,-0.43 1,-0.93 0,-0.72 -0.89,-1.79 -2.41,-2.97 v -0.17 h 3.1 z"
         inkscape:connector-curvature="0" /><path
         id="path7158"
         style="font-style:normal;font-variant:normal;font-weight:normal;font-stretch:normal;letter-spacing:normal;word-spacing:normal;text-anchor:start;display:inline;opacity:0.92000002;fill:#000000;fill-opacity:1;fill-rule:evenodd;stroke:#000000;stroke-width:0;stroke-linecap:butt;stroke-linejoin:miter;stroke-miterlimit:10.43299961;stroke-dasharray:none;stroke-dashoffset:0;stroke-opacity:1"
         word-spacing="normal"
         stroke-miterlimit="10.433"
         letter-spacing="normal"
         font-weight="normal"
         font-variant="normal"
         font-style="normal"
         font-stretch="normal"
         font-size-adjust="none"
         d="m 170.57,655.49 h -0.26 c -0.4,-0.88 -0.85,-1.12 -1.65,-1.12 h -0.75 c -0.2,0 -0.51,-0.03 -0.51,0.28 0,0.07 0.05,0.32 0.08,0.41 l 0.9,3.05 c 0.14,0.5 0.36,0.7 0.73,0.7 l 0.04,0.22 h -2.05 l -0.04,-0.22 c 0.28,0 0.6,0 0.6,-0.3 0,-0.1 -0.04,-0.21 -0.12,-0.47 l -0.9,-3.11 c -0.21,-0.71 -0.49,-0.71 -0.79,-0.71 l -0.03,-0.21 h 4.23 z"
         inkscape:connector-curvature="0" /></g>  </g>
</svg>
