<?xml version="1.0" encoding="UTF-8" standalone="no"?>
<!-- Created with Inkscape (http://www.inkscape.org/) -->

<svg
   xmlns:ns1="http://www.iki.fi/pav/software/textext/"
   xmlns:dc="http://purl.org/dc/elements/1.1/"
   xmlns:cc="http://creativecommons.org/ns#"
   xmlns:rdf="http://www.w3.org/1999/02/22-rdf-syntax-ns#"
   xmlns:svg="http://www.w3.org/2000/svg"
   xmlns="http://www.w3.org/2000/svg"
   xmlns:sodipodi="http://sodipodi.sourceforge.net/DTD/sodipodi-0.dtd"
   xmlns:inkscape="http://www.inkscape.org/namespaces/inkscape"
   version="1.1"
   id="svg2"
   xml:space="preserve"
   width="621.67511"
   height="429.33752"
   viewBox="0 0 621.67511 429.33753"
   sodipodi:docname="fuselage_isoview_c172_Htail.svg"
   inkscape:version="0.92.4 (5da689c313, 2019-01-14)"><metadata
     id="metadata8"><rdf:RDF><cc:Work
         rdf:about=""><dc:format>image/svg+xml</dc:format><dc:type
           rdf:resource="http://purl.org/dc/dcmitype/StillImage" /><dc:title></dc:title></cc:Work></rdf:RDF></metadata><defs
     id="defs6"><clipPath
       clipPathUnits="userSpaceOnUse"
       id="clipPath186"><path
         d="m 600,6417 v 0 z"
         id="path184"
         inkscape:connector-curvature="0" /></clipPath></defs><sodipodi:namedview
     pagecolor="#ffffff"
     bordercolor="#666666"
     borderopacity="1"
     objecttolerance="10"
     gridtolerance="10"
     guidetolerance="10"
     inkscape:pageopacity="0"
     inkscape:pageshadow="2"
     inkscape:window-width="2382"
     inkscape:window-height="1334"
     id="namedview4"
     showgrid="false"
     inkscape:zoom="0.96047721"
     inkscape:cx="816.7845"
     inkscape:cy="61.214063"
     inkscape:window-x="1046"
     inkscape:window-y="0"
     inkscape:window-maximized="0"
     inkscape:current-layer="g10"
     fit-margin-top="5"
     fit-margin-left="5"
     fit-margin-right="5"
     fit-margin-bottom="5" /><g
     id="g10"
     inkscape:groupmode="layer"
     inkscape:label="fuselage_isoview_c172_Htail"
     transform="matrix(1.3333333,0,0,-1.3333333,-73.080077,1073.352)"><path
       inkscape:connector-curvature="0"
       id="path14"
       style="fill:none;stroke:#000000;stroke-width:0.57670319;stroke-linecap:butt;stroke-linejoin:miter;stroke-miterlimit:10;stroke-dasharray:none;stroke-opacity:1"
       d="m 135.168,529.8648 c 9.1968,-1.8936 13.0128,3.3072 1.2384,8.6652" /><path
       inkscape:connector-curvature="0"
       id="path20"
       style="fill:none;stroke:#000000;stroke-width:1.08131886;stroke-linecap:round;stroke-linejoin:round;stroke-miterlimit:10;stroke-dasharray:6.487908, 2.16264;stroke-dashoffset:0;stroke-opacity:1"
       d="m 130.6176,487.3092 v 191.016" /><path
       inkscape:connector-curvature="0"
       id="path22"
       style="fill:none;stroke:#243577;stroke-width:2.16263986;stroke-linecap:round;stroke-linejoin:round;stroke-miterlimit:10;stroke-dasharray:none;stroke-opacity:1"
       d="m 130.6188,673.65 v 42.4596" /><path
       inkscape:connector-curvature="0"
       id="path24"
       style="fill:none;stroke:#243577;stroke-width:2.45098805;stroke-linecap:round;stroke-linejoin:round;stroke-miterlimit:10;stroke-dasharray:none;stroke-opacity:1"
       d="m 133.5252,710.5068 c -1.1544,0.1932 -2.7144,6.5784 -2.9064,7.1556 -0.1932,-0.5772 -1.752,-6.9624 -2.9076,-7.1556" /><path
       inkscape:connector-curvature="0"
       id="path26"
       style="fill:none;stroke:#000000;stroke-width:1.08131886;stroke-linecap:round;stroke-linejoin:round;stroke-miterlimit:10;stroke-dasharray:6.487908, 2.16264;stroke-dashoffset:0;stroke-opacity:1"
       d="M 206.5896,503.5944 76.19292,561.9756" /><path
       inkscape:connector-curvature="0"
       id="path28"
       style="fill:none;stroke:#243577;stroke-width:2.16263986;stroke-linecap:round;stroke-linejoin:round;stroke-miterlimit:10;stroke-dasharray:none;stroke-opacity:1"
       d="M 93.93888,554.1372 61.215,568.0008" /><path
       inkscape:connector-curvature="0"
       id="path30"
       style="fill:none;stroke:#243577;stroke-width:2.45098805;stroke-linecap:round;stroke-linejoin:round;stroke-miterlimit:10;stroke-dasharray:none;stroke-opacity:1"
       d="m 67.50888,568.4916 c -0.62904,-0.9876 -7.11696,0.0672 -7.72356,0.1152 0.4566,-0.4032 5.7276,-4.3296 5.45532,-5.4684" /><path
       inkscape:connector-curvature="0"
       id="path32"
       style="fill:none;stroke:#000000;stroke-width:0.72087961;stroke-linecap:butt;stroke-linejoin:miter;stroke-miterlimit:10;stroke-dasharray:2.883516, 1.441764;stroke-dashoffset:0;stroke-opacity:1"
       d="M 386.2932,695.0172 V 801.264" /><path
       inkscape:connector-curvature="0"
       id="path34"
       style="fill:none;stroke:#243577;stroke-width:1.08131886;stroke-linecap:round;stroke-linejoin:round;stroke-miterlimit:10;stroke-dasharray:none;stroke-opacity:1"
       d="M 384.9744,795.4524 131.5776,654" /><path
       inkscape:connector-curvature="0"
       id="path36"
       style="fill:none;stroke:#243577;stroke-width:1.261536;stroke-linecap:round;stroke-linejoin:round;stroke-miterlimit:10;stroke-dasharray:none;stroke-opacity:1"
       d="m 138.0216,660.2952 c -1.1784,-3.0912 -6.5556,-6.0048 -6.9624,-6.4584 0.5976,0.1188 5.8944,3.2148 9.3048,2.4288" /><path
       inkscape:connector-curvature="0"
       id="path38"
       style="fill:none;stroke:#243577;stroke-width:1.261536;stroke-linecap:round;stroke-linejoin:round;stroke-miterlimit:10;stroke-dasharray:none;stroke-opacity:1"
       d="m 378.8988,789.4656 c 1.1784,3.09 6.5568,6.0048 6.9612,6.4584 -0.5964,-0.1188 -5.8932,-3.2148 -9.3024,-2.4288" /><path
       inkscape:connector-curvature="0"
       id="path40"
       style="fill:none;stroke:#000000;stroke-width:0.72087961;stroke-linecap:butt;stroke-linejoin:miter;stroke-miterlimit:10;stroke-dasharray:2.883516, 1.441764;stroke-dashoffset:0;stroke-opacity:1"
       d="m 328.3752,711.2748 75.7944,41.7792" /><path
       inkscape:connector-curvature="0"
       id="path42"
       style="fill:none;stroke:#000000;stroke-width:0.72087961;stroke-linecap:butt;stroke-linejoin:miter;stroke-miterlimit:10;stroke-dasharray:2.883516, 1.441764;stroke-dashoffset:18.62269974;stroke-opacity:1"
       d="m 441.3468,665.1372 75.7956,41.7804" /><path
       inkscape:connector-curvature="0"
       id="path44"
       style="fill:none;stroke:#243577;stroke-width:1.08131886;stroke-linecap:round;stroke-linejoin:round;stroke-miterlimit:10;stroke-dasharray:none;stroke-opacity:1"
       d="M 508.2264,702.6624 402.546,750.7452" /><path
       inkscape:connector-curvature="0"
       id="path46"
       style="fill:none;stroke:#243577;stroke-width:1.261536;stroke-linecap:round;stroke-linejoin:round;stroke-miterlimit:10;stroke-dasharray:none;stroke-opacity:1"
       d="m 411.5712,749.184 c -3.1788,-0.9144 -8.7396,1.6344 -9.3456,1.6872 0.4536,-0.4056 6.1104,-2.7816 7.53,-5.9796" /><path
       inkscape:connector-curvature="0"
       id="path48"
       style="fill:none;stroke:#243577;stroke-width:1.261536;stroke-linecap:round;stroke-linejoin:round;stroke-miterlimit:10;stroke-dasharray:none;stroke-opacity:1"
       d="m 499.2,704.3376 c 3.18,0.9144 8.7396,-1.6344 9.3456,-1.6872 -0.4524,0.4056 -6.1104,2.7816 -7.5288,5.9796" /><path
       inkscape:connector-curvature="0"
       id="path50"
       style="fill:#e4ecf0;fill-opacity:1;fill-rule:nonzero;stroke:none;stroke-width:0.12"
       d="m 336.4068,673.5948 -29.5308,19.602 c -2.4528,2.1108 -5.772,4.2252 -5.0796,6.0204 1.4388,3.7236 14.5248,8.1516 24.3072,10.7988 l 57.6888,-18.09 -7.896,-5.4048" /><path
       inkscape:connector-curvature="0"
       id="path52"
       style="fill:none;stroke:#000000;stroke-width:1.58593202;stroke-linecap:round;stroke-linejoin:round;stroke-miterlimit:10;stroke-dasharray:none;stroke-opacity:1"
       d="m 336.4068,673.5948 -29.5308,19.602 c -2.4528,2.1108 -5.772,4.2252 -5.0796,6.0204 1.4388,3.7236 14.5248,8.1516 24.3072,10.7988 l 57.6888,-18.09 -7.896,-5.4048" /><path
       inkscape:connector-curvature="0"
       id="path54"
       style="fill:none;stroke:#909090;stroke-width:0.57670319;stroke-linecap:butt;stroke-linejoin:miter;stroke-miterlimit:10;stroke-dasharray:none;stroke-opacity:1"
       d="M 190.4532,549.1128 C 179.5284,541.5852 152.976,528.2112 143.7432,532.56" /><path
       inkscape:connector-curvature="0"
       id="path56"
       style="fill:none;stroke:#909090;stroke-width:0.57670319;stroke-linecap:butt;stroke-linejoin:miter;stroke-miterlimit:10;stroke-dasharray:none;stroke-opacity:1"
       d="m 119.58144,554.2752 c 5.14656,1.0476 27.81936,-10.2792 30.73656,-14.2044 3.708,-4.9884 1.0764,-14.2728 -5.8128,-18.8412" /><path
       inkscape:connector-curvature="0"
       id="path58"
       style="fill:none;stroke:#909090;stroke-width:0.57670319;stroke-linecap:round;stroke-linejoin:miter;stroke-miterlimit:10;stroke-dasharray:none;stroke-opacity:1"
       d="m 148.6884,583.3776 c 8.76,0.8088 27.522,-9.6648 35.3172,-16.1076 5.6124,-4.6392 7.2528,-6.7392 6.84,-14.8536 -0.5808,-11.4024 -2.0952,-20.892 -5.0088,-24.6792" /><path
       inkscape:connector-curvature="0"
       id="path60"
       style="fill:none;stroke:#909090;stroke-width:0.57670319;stroke-linecap:butt;stroke-linejoin:miter;stroke-miterlimit:10;stroke-dasharray:none;stroke-opacity:1"
       d="m 214.7292,550.6692 c 0,1.4568 0.7536,39.9264 0.7536,39.9264" /><path
       inkscape:connector-curvature="0"
       id="path62"
       style="fill:none;stroke:#909090;stroke-width:0.57670319;stroke-linecap:round;stroke-linejoin:round;stroke-miterlimit:10;stroke-dasharray:none;stroke-opacity:1"
       d="m 259.0632,625.5396 c -12.8964,-4.8984 -44.598,-17.7108 -46.9668,-20.958" /><path
       inkscape:connector-curvature="0"
       id="path64"
       style="fill:#ebebeb;fill-opacity:1;fill-rule:evenodd;stroke:none;stroke-width:0.12"
       d="m 185.0328,624.9552 c 3.7032,1.7616 10.7412,4.2024 15.2364,5.9832 2.0076,0.7572 10.4304,0.3696 6.5964,-2.9004 -5.5188,-2.2272 -11.3832,-5.6184 -17.9592,-7.7328 -10.6896,0.3012 -5.3304,4.5516 -3.8736,4.65 v 0" /><path
       inkscape:connector-curvature="0"
       id="path66"
       style="fill:none;stroke:#909090;stroke-width:0.57670319;stroke-linecap:butt;stroke-linejoin:miter;stroke-miterlimit:10;stroke-dasharray:none;stroke-opacity:1"
       d="m 185.0328,624.9552 c 3.7032,1.7616 10.7412,4.2024 15.2364,5.9832 2.0076,0.7572 10.4304,0.3696 6.5964,-2.9004 -5.5188,-2.2272 -11.3832,-5.6184 -17.9592,-7.7328 -10.6896,0.3012 -5.3304,4.5516 -3.8736,4.65 z" /><path
       inkscape:connector-curvature="0"
       id="path68"
       style="fill:#ebebeb;fill-opacity:1;fill-rule:evenodd;stroke:none;stroke-width:0.12"
       d="m 220.92,599.6508 c -1.5024,-0.7356 -2.2944,-1.6032 -2.2944,-3.606 V 579.558 c 0.0732,-1.4652 0.8376,-1.374 2.076,-1.0836 l 17.6508,9.8664 c 1.4244,0.7968 1.0428,2.7288 1.0656,5.1648 v 10.3692 c 0,1.8 -0.024,4.8228 -2.9436,3.3924 L 220.92,599.6508 v 0" /><path
       inkscape:connector-curvature="0"
       id="path70"
       style="fill:none;stroke:#909090;stroke-width:0.86505479;stroke-linecap:butt;stroke-linejoin:miter;stroke-miterlimit:10;stroke-dasharray:none;stroke-opacity:1"
       d="m 220.92,599.6508 c -1.5024,-0.7356 -2.2944,-1.6032 -2.2944,-3.606 V 579.558 c 0.0732,-1.4652 0.8376,-1.374 2.076,-1.0836 l 17.6508,9.8664 c 1.4244,0.7968 1.0428,2.7288 1.0656,5.1648 v 10.3692 c 0,1.8 -0.024,4.8228 -2.9436,3.3924 z" /><path
       inkscape:connector-curvature="0"
       id="path72"
       style="fill:#ebebeb;fill-opacity:1;fill-rule:evenodd;stroke:none;stroke-width:0.12"
       d="m 202.962,616.4676 c 3.7032,1.7616 10.158,5.3676 14.6544,7.1484 2.0076,0.7584 10.8672,0.2244 7.032,-3.0456 -5.5176,-2.2272 -11.2368,-6.6384 -17.8128,-8.7528 -10.6896,0.3024 -5.3304,4.5528 -3.8736,4.65" /><path
       inkscape:connector-curvature="0"
       id="path74"
       style="fill:none;stroke:#909090;stroke-width:0.57670319;stroke-linecap:butt;stroke-linejoin:miter;stroke-miterlimit:10;stroke-dasharray:none;stroke-opacity:1"
       d="m 202.962,616.4676 c 3.7032,1.7616 10.158,5.3676 14.6544,7.1484 2.0076,0.7584 10.8672,0.2244 7.032,-3.0456 -5.5176,-2.2272 -11.2368,-6.6384 -17.8128,-8.7528 -10.6896,0.3024 -5.3304,4.5528 -3.8736,4.65 z" /><path
       inkscape:connector-curvature="0"
       id="path76"
       style="fill:none;stroke:#909090;stroke-width:1.80219603;stroke-linecap:butt;stroke-linejoin:miter;stroke-miterlimit:10;stroke-dasharray:none;stroke-opacity:1"
       d="m 115.87548,529.4832 c 6.84252,-1.4556 16.95612,-2.724 20.42412,1.4244 3.8952,4.6584 -3.5772,15.6672 -8.52,15.8208 -4.5756,-1.0164 -11.48832,-9.8772 -11.90412,-17.2452 z" /><path
       inkscape:connector-curvature="0"
       id="path78"
       style="fill:none;stroke:#909090;stroke-width:0.57670319;stroke-linecap:butt;stroke-linejoin:miter;stroke-miterlimit:10;stroke-dasharray:none;stroke-opacity:1"
       d="m 119.84532,539.8092 c -2.20548,2.7672 -2.45292,7.2408 3.71388,4.0776" /><path
       inkscape:connector-curvature="0"
       id="path80"
       style="fill:#ebebeb;fill-opacity:1;fill-rule:evenodd;stroke:none;stroke-width:0.12"
       d="m 232.0464,644.3712 c 2.3172,-0.0516 24.0468,-0.876 24.0468,-0.876 l 11.2764,-4.17 -20.8536,-0.1032 -14.4696,5.1492" /><path
       inkscape:connector-curvature="0"
       id="path82"
       style="fill:none;stroke:#909090;stroke-width:0.57670319;stroke-linecap:butt;stroke-linejoin:miter;stroke-miterlimit:10;stroke-dasharray:none;stroke-opacity:1"
       d="m 232.0464,644.3712 c 2.3172,-0.0516 24.0468,-0.876 24.0468,-0.876 l 11.2764,-4.17 -20.8536,-0.1032 z" /><path
       inkscape:connector-curvature="0"
       id="path84"
       style="fill:#ebebeb;fill-opacity:1;fill-rule:evenodd;stroke:none;stroke-width:0.12"
       d="m 252.7452,637.2648 c 0.3096,-0.0516 16.2312,1.1688 18.1776,0.258 16.1676,-7.5696 11.4828,-12.3576 9.2676,-16.9404 -2.7804,0.7716 -14.6748,6.7452 -14.6748,6.7452 0,0 4.7376,1.596 -6.9,7.3116 -3.8088,1.878 -4.4304,1.5648 -5.8704,2.6256" /><path
       inkscape:connector-curvature="0"
       id="path86"
       style="fill:none;stroke:#909090;stroke-width:0.57670319;stroke-linecap:butt;stroke-linejoin:miter;stroke-miterlimit:10;stroke-dasharray:none;stroke-opacity:1"
       d="m 252.7452,637.2648 c 0.3096,-0.0516 16.2312,1.1688 18.1776,0.258 16.1676,-7.5696 11.4828,-12.3576 9.2676,-16.9404 -2.7804,0.7716 -14.6748,6.7452 -14.6748,6.7452 0,0 4.7376,1.596 -6.9,7.3116 -3.8088,1.878 -4.4304,1.5648 -5.8704,2.6256 z" /><path
       inkscape:connector-curvature="0"
       id="path88"
       style="fill:#ebebeb;fill-opacity:1;fill-rule:evenodd;stroke:none;stroke-width:0.12"
       d="m 170.532,620.472 c -7.4208,-6.1116 -15.1116,-18.2244 -21.99,-34.3212 12.2208,1.338 35.3016,-12.0324 40.4868,-17.2632 6.7932,-2.8896 17.118,2.1936 22.2672,5.0436 l 0.8232,18.5364 c 0.2892,4.8132 -0.072,8.4492 -3.6036,11.7396 L 170.532,620.472" /><path
       inkscape:connector-curvature="0"
       id="path90"
       style="fill:none;stroke:#909090;stroke-width:0.86505479;stroke-linecap:round;stroke-linejoin:round;stroke-miterlimit:10;stroke-dasharray:none;stroke-opacity:1"
       d="m 170.532,620.472 c -7.4208,-6.1116 -15.1116,-18.2244 -21.99,-34.3212 12.2208,1.338 35.3016,-12.0324 40.4868,-17.2632 6.7932,-2.8896 17.118,2.1936 22.2672,5.0436 l 0.8232,18.5364 c 0.2892,4.8132 -0.072,8.4492 -3.6036,11.7396 z" /><path
       inkscape:connector-curvature="0"
       id="path92"
       style="fill:#ebebeb;fill-opacity:1;fill-rule:evenodd;stroke:none;stroke-width:0.12"
       d="m 247.0308,612.3552 c -1.5312,-0.7056 -2.2944,-2.22 -2.2944,-3.606 v -14.262 c 0.0732,-1.4664 0.8376,-1.3752 2.076,-1.0836 l 26.652,17.4864 c 1.8624,1.332 5.8092,4.3296 2.4036,5.1648 l -8.1012,1.9872 c -2.286,0.5604 -4.6716,1.8972 -7.3032,0.5088 l -13.4328,-6.1956 v 0" /><path
       inkscape:connector-curvature="0"
       id="path94"
       style="fill:none;stroke:#909090;stroke-width:0.86505479;stroke-linecap:butt;stroke-linejoin:miter;stroke-miterlimit:10;stroke-dasharray:none;stroke-opacity:1"
       d="m 247.0308,612.3552 c -1.5312,-0.7056 -2.2944,-2.22 -2.2944,-3.606 v -14.262 c 0.0732,-1.4664 0.8376,-1.3752 2.076,-1.0836 l 26.652,17.4864 c 1.8624,1.332 5.8092,4.3296 2.4036,5.1648 l -8.1012,1.9872 c -2.286,0.5604 -4.6716,1.8972 -7.3032,0.5088 z" /><path
       inkscape:connector-curvature="0"
       id="path96"
       style="fill:none;stroke:#909090;stroke-width:0.57670319;stroke-linecap:butt;stroke-linejoin:miter;stroke-miterlimit:10;stroke-dasharray:none;stroke-opacity:1"
       d="m 242.2056,564.4548 v 39.9264" /><path
       inkscape:connector-curvature="0"
       id="path98"
       style="fill:none;stroke:#909090;stroke-width:0.57670319;stroke-linecap:round;stroke-linejoin:round;stroke-miterlimit:10;stroke-dasharray:none;stroke-opacity:1"
       d="m 205.6332,600.0216 c -8.5044,-14.0856 -14.3892,-23.226 -15.5484,-27.5724 -0.9996,0.7908 -1.596,1.5768 -2.424,1.8948 2.3376,3.7476 7.4652,10.0824 17.9724,25.6776 z" /><path
       inkscape:connector-curvature="0"
       id="path100"
       style="fill:none;stroke:#909090;stroke-width:0.57670319;stroke-linecap:round;stroke-linejoin:round;stroke-miterlimit:10;stroke-dasharray:none;stroke-opacity:1"
       d="m 268.4352,629.2776 c 6.5088,-0.8616 9.948,-1.5564 12.5064,-2.7336 0.0684,0.9648 0.1452,1.4604 -0.7632,2.2512 -1.9104,0.1428 -4.7556,0.0144 -11.7432,0.4824 z" /><path
       inkscape:connector-curvature="0"
       id="path102"
       style="fill:none;stroke:#909090;stroke-width:1.80219603;stroke-linecap:round;stroke-linejoin:round;stroke-miterlimit:10;stroke-dasharray:none;stroke-opacity:1"
       d="m 126.0552,528.03 c 5.6304,-3.9108 10.4592,-6.438 16.9632,-8.1648 5.3544,-1.2948 10.5096,-1.1736 16.0644,-0.2412 18.6492,3.1284 38.172,12.2808 55.1304,20.2668 20.2296,9.528 27.666,13.0608 35.718,18.8076 21.3432,15.2328 36.702,33.474 56.0052,51.174 l 28.6296,26.8776 47.6292,44.6328 c 6.2808,5.6724 5.646,8.8428 1.8804,7.7244 -6.0924,-1.8084 -68.4696,-23.3592 -103.3044,-35.2668 l -24.3264,-8.7948 -24.5184,0.7992 c -4.0404,-0.1524 -31.3644,-8.892 -43.3488,-14.142 -11.9856,-5.25 -19.1388,-7.1688 -23.07,-12.4584 -8.6424,-9.4584 -15.1008,-22.7016 -20.2476,-33.9072 -9.5868,-8.304 -17.1348,-17.1912 -27.15792,-28.4076 -4.11516,-5.6376 -2.84208,-13.8972 0.32484,-18.6612" /><path
       inkscape:connector-curvature="0"
       id="path104"
       style="fill:#e4ecf0;fill-opacity:1;fill-rule:nonzero;stroke:none;stroke-width:0.12"
       d="m 354.0444,666.624 c 15.4464,-4.2216 49.7412,-16.4832 61.7892,-17.61 9.6408,1.9572 21.0156,9.426 23.4804,14.6244 0.3408,3.954 -42.4284,23.0676 -42.4284,23.0676 l -14.2116,-4.1196 c 0,0 -30.1848,-10.17 -28.6296,-15.9624 v 0" /><path
       inkscape:connector-curvature="0"
       id="path106"
       style="fill:none;stroke:#000000;stroke-width:1.58593202;stroke-linecap:round;stroke-linejoin:round;stroke-miterlimit:10;stroke-dasharray:none;stroke-opacity:1"
       d="m 354.0444,666.624 c 15.4464,-4.2216 49.7412,-16.4832 61.7892,-17.61 9.6408,1.9572 21.0156,9.426 23.4804,14.6244 0.3408,3.954 -42.4284,23.0676 -42.4284,23.0676 l -14.2116,-4.1196 c 0,0 -30.1848,-10.17 -28.6296,-15.9624 z" /><path
       inkscape:connector-curvature="0"
       id="path108"
       style="fill:none;stroke:#000000;stroke-width:0.86505479;stroke-linecap:round;stroke-linejoin:round;stroke-miterlimit:10;stroke-dasharray:none;stroke-opacity:1"
       d="m 312.5424,705.6552 50.6568,-21.456" /><path
       inkscape:connector-curvature="0"
       id="path110"
       style="fill:none;stroke:#000000;stroke-width:0.57670319;stroke-linecap:round;stroke-linejoin:round;stroke-miterlimit:10;stroke-dasharray:none;stroke-opacity:1"
       d="m 415.8612,649.6152 c -0.8136,0.978 6.7284,4.5504 12.276,7.512 5.5488,2.9604 9.102,5.3088 10.8,6.1704" /><path
       inkscape:connector-curvature="0"
       id="path112"
       style="fill:none;stroke:#000000;stroke-width:0.86505479;stroke-linecap:round;stroke-linejoin:round;stroke-miterlimit:10;stroke-dasharray:none;stroke-opacity:1"
       d="m 342.9984,675.3504 c 5.5476,2.9616 34.2876,14.5464 40.2084,16.572" /><path
       inkscape:connector-curvature="0"
       id="path120"
       style="fill:none;stroke:#000000;stroke-width:1.15340638;stroke-linecap:round;stroke-linejoin:round;stroke-miterlimit:10;stroke-dasharray:2.306808, 2.306808;stroke-dashoffset:20.18460083;stroke-opacity:1"
       d="m 336.9216,673.296 5.994,-4.86 12.3096,-2.3628" /><path
       inkscape:connector-curvature="0"
       id="path122"
       style="fill:none;stroke:#000000;stroke-width:0.86505479;stroke-linecap:round;stroke-linejoin:round;stroke-miterlimit:10;stroke-dasharray:none;stroke-opacity:1"
       d="m 375.258,679.7028 55.2696,-21.7488 c 0.7428,-0.2904 1.3548,-0.5136 1.128,-1.866" /><path
       inkscape:connector-curvature="0"
       id="path124"
       style="fill:none;stroke:#000000;stroke-width:1.15340638;stroke-linecap:round;stroke-linejoin:round;stroke-miterlimit:10;stroke-dasharray:2.306808, 2.306808;stroke-dashoffset:0;stroke-opacity:1"
       d="m 354.1464,666.8496 c 5.0868,-1.2792 21.7296,6.8088 27.2784,9.7692 5.5476,2.9604 10.194,5.892 15.0228,9.5928" /><path
       inkscape:connector-curvature="0"
       id="path126"
       style="fill:none;stroke:#000000;stroke-width:1.15340638;stroke-linecap:round;stroke-linejoin:round;stroke-miterlimit:10;stroke-dasharray:2.306808, 2.306808;stroke-dashoffset:12.49520016;stroke-opacity:1"
       d="m 396.1752,687.3084 -3.5916,2.3988 -8.8932,2.352" /><path
       inkscape:connector-curvature="0"
       id="path128"
       style="fill:#000000;fill-opacity:1;fill-rule:nonzero;stroke:none;stroke-width:0.12"
       d="m 329.4948,673.9836 c -0.9672,-5.1888 -1.5036,-10.434 -1.9296,-15.69 -0.654,4.5984 -1.6044,9.1368 -2.5776,13.674 l 2.2272,-0.96 2.28,2.976 v 0" /><path
       inkscape:connector-curvature="0"
       id="path130"
       style="fill:none;stroke:#000000;stroke-width:0.72087961;stroke-linecap:round;stroke-linejoin:round;stroke-miterlimit:10;stroke-dasharray:none;stroke-opacity:1"
       d="m 327.4224,685.236 c -0.5016,-18.054 -0.0348,-29.688 1.0692,-37.1244" /><path
       inkscape:connector-curvature="0"
       id="path132"
       style="fill:none;stroke:#5f5f5f;stroke-width:0.72087961;stroke-linecap:round;stroke-linejoin:round;stroke-miterlimit:10;stroke-dasharray:none;stroke-opacity:1"
       d="m 288.8904,685.8252 c 0.282,-14.22 -0.114,-15.8616 0.3768,-16.1556 2.0376,-1.2204 51.8988,27.1704 53.2884,27.1272 1.782,-0.0552 1.0548,-0.66 0.8688,-27.4716" /><path
       inkscape:connector-curvature="0"
       id="path134"
       style="fill:none;stroke:#243577;stroke-width:1.08131886;stroke-linecap:round;stroke-linejoin:round;stroke-miterlimit:10;stroke-dasharray:none;stroke-opacity:1"
       d="M 415.7256,637.6032 195.1596,514.428" /><path
       inkscape:connector-curvature="0"
       id="path136"
       style="fill:none;stroke:#243577;stroke-width:1.261536;stroke-linecap:round;stroke-linejoin:round;stroke-miterlimit:10;stroke-dasharray:none;stroke-opacity:1"
       d="m 201.5892,520.6404 c -1.1784,-3.0912 -6.5568,-6.0048 -6.9624,-6.4584 0.5964,0.1188 5.8932,3.2148 9.3024,2.4288" /><path
       inkscape:connector-curvature="0"
       id="path138"
       style="fill:none;stroke:#243577;stroke-width:1.261536;stroke-linecap:round;stroke-linejoin:round;stroke-miterlimit:10;stroke-dasharray:none;stroke-opacity:1"
       d="m 408.7968,631.11 c 1.1784,3.0912 6.5556,6.006 6.9624,6.4584 -0.5976,-0.1176 -5.8944,-3.2136 -9.3036,-2.4276" /><path
       inkscape:connector-curvature="0"
       id="path140"
       style="fill:none;stroke:#000000;stroke-width:1.15340638;stroke-linecap:round;stroke-linejoin:round;stroke-miterlimit:10;stroke-dasharray:4.613628, 2.306808;stroke-dashoffset:0;stroke-opacity:1"
       d="m 421.3512,635.748 -67.668,30.1332" /><path
       inkscape:connector-curvature="0"
       id="path142"
       style="fill:#000000;fill-opacity:1;fill-rule:evenodd;stroke:none;stroke-width:0.12"
       d="m 345.2916,668.5092 c 0,-1.0524 -0.8544,-1.9068 -1.9068,-1.9068 -1.0536,0 -1.908,0.8544 -1.908,1.9068 0,1.0524 0.8544,1.9068 1.908,1.9068 1.0524,0 1.9068,-0.8544 1.9068,-1.9068" /><path
       inkscape:connector-curvature="0"
       id="path144"
       style="fill:none;stroke:#5f5f5f;stroke-width:0.72087961;stroke-linecap:round;stroke-linejoin:round;stroke-miterlimit:10;stroke-dasharray:none;stroke-opacity:1"
       d="m 367.116,635.7312 c -0.282,14.2188 0.114,11.478 -0.3768,11.772 -2.0364,1.2204 -11.784,-11.898 -12.7116,-10.8624 -0.1872,0.21 -0.3072,0.1284 -0.3732,0.6732 -0.066,0.5448 -0.0792,10.9428 -0.0504,13.6596 0.0276,2.7156 0.0972,6.9756 0.1932,13.6992"
       sodipodi:nodetypes="cccscc" /><path
       inkscape:connector-curvature="0"
       id="path146"
       style="fill:none;stroke:#5f5f5f;stroke-width:0.72087961;stroke-linecap:round;stroke-linejoin:round;stroke-miterlimit:10;stroke-dasharray:none;stroke-opacity:1"
       d="m 349.482,732.7296 c 0.2808,-14.2188 -0.1152,-19.0884 0.3756,-19.3824 2.0376,-1.2204 13.0476,7.4796 14.424,7.6836 0.9552,0.1416 0.99,0.2124 0.75,-43.8672"
       sodipodi:nodetypes="cccc" /><path
       inkscape:connector-curvature="0"
       id="path148"
       style="fill:none;stroke:#000000;stroke-width:0.72087961;stroke-linecap:round;stroke-linejoin:round;stroke-miterlimit:10;stroke-dasharray:none;stroke-opacity:1"
       d="M 322.5456,659.2008 436.932,708.954" /><path
       inkscape:connector-curvature="0"
       id="path152"
       style="fill:none;stroke:#243577;stroke-width:1.08131886;stroke-linecap:round;stroke-linejoin:round;stroke-miterlimit:10;stroke-dasharray:none;stroke-opacity:1"
       d="m 203.2692,660.9372 -71.6388,-39.972" /><path
       inkscape:connector-curvature="0"
       id="path154"
       style="fill:none;stroke:#243577;stroke-width:1.261536;stroke-linecap:round;stroke-linejoin:round;stroke-miterlimit:10;stroke-dasharray:none;stroke-opacity:1"
       d="m 138.0744,627.2604 c -1.1784,-3.0912 -6.5568,-6.0048 -6.9624,-6.4584 0.5964,0.1188 5.8944,3.2148 9.3036,2.4288" /><path
       inkscape:connector-curvature="0"
       id="path156"
       style="fill:none;stroke:#243577;stroke-width:1.261536;stroke-linecap:round;stroke-linejoin:round;stroke-miterlimit:10;stroke-dasharray:none;stroke-opacity:1"
       d="m 196.0104,654.3024 c 1.1784,3.0912 6.5556,6.006 6.9624,6.4584 -0.5976,-0.1176 -5.8944,-3.2148 -9.3036,-2.4276" /><path
       inkscape:connector-curvature="0"
       id="path158"
       style="fill:#ffffff;fill-opacity:1;fill-rule:nonzero;stroke:none;stroke-width:0.12"
       d="m 202.5792,593.6064 v 0.6192 c 0,0.0384 0.0324,0.0696 0.0708,0.0696 h 1.2372 c 0.0384,0 0.0684,-0.0312 0.0684,-0.0696 v -1.2372 c 0,-0.0384 -0.03,-0.0684 -0.0684,-0.0684 H 202.65 c -0.0384,0 -0.0708,0.03 -0.0708,0.0684" /><path
       inkscape:connector-curvature="0"
       id="path160"
       style="fill:none;stroke:#000000;stroke-width:1.03211522;stroke-linecap:butt;stroke-linejoin:miter;stroke-miterlimit:10;stroke-dasharray:none;stroke-opacity:1"
       d="m 208.4292,593.6064 c 0,2.8512 -2.3124,5.1612 -5.16,5.1612 -2.8512,0 -5.1612,-2.31 -5.1612,-5.1612 0,-2.8488 2.31,-5.16 5.1612,-5.16 2.8476,0 5.16,2.3112 5.16,5.16 z" /><path
       inkscape:connector-curvature="0"
       id="path162"
       style="fill:#000000;fill-opacity:1;fill-rule:nonzero;stroke:none;stroke-width:0.12"
       d="m 203.2692,593.6064 v -5.16 c 2.8476,0 5.16,2.3112 5.16,5.16" /><path
       inkscape:connector-curvature="0"
       id="path164"
       style="fill:#000000;fill-opacity:1;fill-rule:nonzero;stroke:none;stroke-width:0.12"
       d="m 203.2692,593.6064 v 5.1612 c -2.8512,0 -5.1612,-2.31 -5.1612,-5.1612" /><path
       inkscape:connector-curvature="0"
       id="path168"
       style="fill:#000000;fill-opacity:1;fill-rule:evenodd;stroke:none;stroke-width:0.12"
       d="m 366.8928,677.9208 c 0,-1.0524 -0.8544,-1.9068 -1.9068,-1.9068 -1.0536,0 -1.9068,0.8544 -1.9068,1.9068 0,1.0524 0.8532,1.9068 1.9068,1.9068 1.0524,0 1.9068,-0.8544 1.9068,-1.9068" /><path
       inkscape:connector-curvature="0"
       id="path170"
       style="fill:#000000;fill-opacity:1;fill-rule:evenodd;stroke:none;stroke-width:0.12"
       d="m 355.824,666.5604 c 0,-1.0524 -0.8544,-1.9068 -1.9068,-1.9068 -1.0524,0 -1.9068,0.8544 -1.9068,1.9068 0,1.0536 0.8544,1.9068 1.9068,1.9068 1.0524,0 1.9068,-0.8532 1.9068,-1.9068" /><path
       inkscape:connector-curvature="0"
       id="path172"
       style="fill:none;stroke:#000000;stroke-width:0.72087961;stroke-linecap:round;stroke-linejoin:miter;stroke-miterlimit:10;stroke-dasharray:none;stroke-opacity:1"
       d="m 197.3292,512.7576 -5.922,2.6016" /><path
       inkscape:connector-curvature="0"
       id="path174"
       style="fill:none;stroke:#000000;stroke-width:0.72087961;stroke-linecap:round;stroke-linejoin:miter;stroke-miterlimit:10;stroke-dasharray:2.883516, 1.441764;stroke-dashoffset:0;stroke-opacity:1"
       d="m 194.1084,507.936 v 11.7672" /><path
       inkscape:connector-curvature="0"
       id="path176"
       style="fill:none;stroke:#000000;stroke-width:1.441764;stroke-linecap:round;stroke-linejoin:round;stroke-miterlimit:10;stroke-dasharray:11.534064, 2.883516, 1.441764, 2.883516;stroke-dashoffset:14.41759968;stroke-opacity:1"
       d="M 444.1044,712.3284 100.53792,520.9536" /><path
       inkscape:connector-curvature="0"
       id="path178"
       style="fill:none;stroke:#000000;stroke-width:1.15340638;stroke-linecap:round;stroke-linejoin:miter;stroke-miterlimit:10;stroke-dasharray:4.613628, 2.306808;stroke-dashoffset:0;stroke-opacity:1"
       d="m 203.2692,574.9116 v 94.1352" /><g
       id="g180"
       transform="scale(0.12)"><g
         clip-path="url(#clipPath186)"
         id="g182"><g
           transform="matrix(685,0,0,-4,-196.1,5357.9)"
           id="g188"><rect
             id="rect190"
             style="fill:#000000;fill-opacity:1;fill-rule:nonzero"
             transform="matrix(1,0,0,-1,0,1)"
             height="1"
             width="1"
             y="0"
             x="0" /></g></g></g><path
       inkscape:connector-curvature="0"
       id="path218"
       style="fill:#ffffff;fill-opacity:1;fill-rule:nonzero;stroke:none;stroke-width:0.12"
       d="m 247.6908,724.0092 v 8.1708 h 15.486 v -16.3428 h -15.486" /><path
       inkscape:connector-curvature="0"
       id="path230"
       style="fill:#ffffff;fill-opacity:1;fill-rule:nonzero;stroke:none;stroke-width:0.16053116"
       d="m 150.96404,642.1068 v 8.0376 h 28.09818 v -16.0752 h -28.09818" /><path
       inkscape:connector-curvature="0"
       id="path242"
       style="fill:#ffffff;fill-opacity:1;fill-rule:nonzero;stroke:none;stroke-width:0.15259293"
       d="m 304.52829,588.05453 v 8.60966 h 31.12399 v -17.21932 h -31.12399" /><path
       inkscape:connector-curvature="0"
       id="path270"
       style="fill:#ffffff;fill-opacity:1;fill-rule:nonzero;stroke:none;stroke-width:0.14449693"
       d="m 447.17579,727.43939 v 8.79661 h 19.21822 v -17.5947 h -19.21822" /><g
       id="g1557"
       ns1:jacobian_sqrt="1.200001"
       ns1:alignment="middle center"
       ns1:scale="0.9"
       ns1:preamble="C:\\texlive\\texmf-local\\tex\\latex\\default_packages_guit.tex"
       ns1:text="$x_{\\mathrm{C},A_\\mathrm{H}^\\star}$"
       ns1:pdfconverter="pdf2svg"
       ns1:texconverter="pdflatex"
       ns1:version="0.11.0"
       transform="matrix(1.200001,0,0,-1.200001,128.08089,748.98955)"><g
         id="surface1"><g
           id="g1536"
           style="fill:#000000;fill-opacity:1"><path
             id="path1534"
             transform="translate(148.712,134.765)"
             d="m 5.15625,-4.171875 c 0,-0.265625 -0.234375,-0.390625 -0.421875,-0.390625 -0.5,0 -1.140625,0.75 -1.640625,1.546875 0,-0.015625 -0.078125,-0.34375 -0.078125,-0.34375 -0.15625,-0.65625 -0.34375,-1.03125 -0.6875,-1.203125 0,0 -1.125,0.25 -1.265625,0.28125 v 0.171875 c 0.203125,-0.046875 0.359375,-0.0625 0.46875,-0.0625 0.546875,0 0.640625,0.515625 1.015625,1.953125 C 2.09375,-1.546875 1.390625,-0.4375 1.109375,-0.4375 0.875,-0.4375 0.875,-0.671875 0.5625,-0.671875 c -0.21875,0 -0.359375,0.15625 -0.359375,0.359375 0,0.25 0.1875,0.4375 0.46875,0.4375 0.6875,0 1.34375,-1.25 1.953125,-2.03125 0.03125,0.078125 0.25,0.953125 0.25,0.953125 C 3.125,-0.03125 3.3125,0.125 3.5625,0.125 c 0.3125,0 0.78125,-0.3125 1.25,-1.1875 L 4.671875,-1.140625 c -0.171875,0.21875 -0.453125,0.6875 -0.703125,0.6875 -0.34375,0 -0.546875,-1.40625 -0.796875,-2.296875 0.0625,-0.078125 0.75,-1.203125 1.125,-1.203125 0.1875,0 0.359375,0.171875 0.53125,0.171875 0.25,0 0.328125,-0.203125 0.328125,-0.390625 z m 0,0"
             style="stroke:none;stroke-width:0"
             inkscape:connector-curvature="0" /></g><g
           id="g1540"
           style="fill:#000000;fill-opacity:1"><path
             id="path1538"
             transform="translate(154.162,136.963)"
             d="m 4.40625,-0.78125 -0.125,-0.125 c -0.515625,0.484375 -0.96875,0.703125 -1.546875,0.703125 -0.421875,0 -0.796875,-0.125 -1.09375,-0.375 C 1.234375,-0.921875 1,-1.546875 1,-2.359375 c 0,-1.25 0.65625,-2.078125 1.65625,-2.078125 0.40625,0 0.765625,0.15625 1.046875,0.4375 0.21875,0.21875 0.328125,0.40625 0.453125,0.859375 h 0.171875 l -0.0625,-1.5625 h -0.15625 c -0.046875,0.140625 -0.15625,0.21875 -0.28125,0.21875 -0.078125,0 -0.171875,-0.015625 -0.28125,-0.0625 -0.34375,-0.109375 -0.6875,-0.15625 -1.03125,-0.15625 -0.53125,0 -1.078125,0.1875 -1.5,0.546875 -0.53125,0.4375 -0.828125,1.09375 -0.828125,1.890625 0,1.421875 0.9375,2.359375 2.328125,2.359375 0.78125,0 1.46875,-0.3125 1.890625,-0.875 z m 0,0"
             style="stroke:none;stroke-width:0"
             inkscape:connector-curvature="0" /></g><g
           id="g1546"
           style="fill:#000000;fill-opacity:1"><path
             id="path1542"
             transform="translate(158.813,136.963)"
             d="M 0.609375,1.140625 C 0.8125,1.09375 0.90625,1.046875 1.09375,0.9375 c 0.328125,-0.21875 0.5625,-0.53125 0.5625,-1.078125 0,-0.53125 -0.25,-0.765625 -0.578125,-0.765625 -0.296875,0 -0.484375,0.1875 -0.484375,0.46875 0,0.265625 0.1875,0.4375 0.4375,0.4375 0.078125,0 0.15625,-0.015625 0.234375,-0.0625 0.03125,-0.015625 0.03125,-0.015625 0.046875,-0.015625 0.03125,0 0.046875,0.0625 0.046875,0.140625 0,0.078125 0,0.578125 -0.75,0.859375 z m 0,0"
             style="stroke:none;stroke-width:0"
             inkscape:connector-curvature="0" /><path
             id="path1544"
             transform="translate(161.05856,136.963)"
             d="m 5.140625,-0.21875 c -0.515625,0 -0.5625,-0.21875 -0.578125,-0.6875 L 4.375,-5.140625 H 4.15625 l -3,4.359375 c -0.34375,0.484375 -0.515625,0.5625 -0.765625,0.5625 L 0.359375,0 h 1.5 l 0.03125,-0.21875 c -0.28125,0 -0.4375,-0.046875 -0.4375,-0.234375 0,-0.109375 0.0625,-0.265625 0.1875,-0.453125 l 0.515625,-0.75 H 3.703125 L 3.75,-0.78125 c 0,0.515625 -0.21875,0.5625 -0.640625,0.5625 L 3.0625,0 H 5.09375 Z M 3.6875,-2 H 2.40625 l 1.203125,-1.75 z m 0,0"
             style="stroke:none;stroke-width:0"
             inkscape:connector-curvature="0" /></g><g
           id="g1550"
           style="fill:#000000;fill-opacity:1"><path
             id="path1548"
             transform="translate(166.701,134.224)"
             d="M 3.78125,-2.015625 H 2.5 l -0.40625,-1.09375 -0.390625,1.09375 h -1.28125 l 1.03125,0.65625 L 1.046875,-0.25 2.09375,-0.9375 3.140625,-0.25 2.75,-1.359375 Z m 0,0"
             style="stroke:none;stroke-width:0"
             inkscape:connector-curvature="0" /></g><g
           id="g1554"
           style="fill:#000000;fill-opacity:1"><path
             id="path1552"
             transform="translate(166.701,139.211)"
             d="M 3.84375,0 V -0.109375 C 3.4375,-0.140625 3.375,-0.203125 3.375,-0.59375 v -2.4375 c 0,-0.390625 0.046875,-0.453125 0.46875,-0.5 V -3.625 H 2.328125 v 0.09375 C 2.75,-3.484375 2.8125,-3.421875 2.8125,-3.03125 v 1.0625 H 1.140625 v -1.0625 c 0,-0.390625 0.0625,-0.453125 0.484375,-0.5 V -3.625 H 0.109375 v 0.09375 c 0.421875,0.046875 0.484375,0.109375 0.484375,0.5 v 2.375 c 0,0.453125 -0.0625,0.53125 -0.484375,0.546875 V 0 H 1.625 V -0.109375 C 1.21875,-0.140625 1.140625,-0.203125 1.140625,-0.59375 V -1.734375 H 2.8125 v 1.078125 c 0,0.453125 -0.0625,0.53125 -0.484375,0.546875 V 0 Z m 0,0"
             style="stroke:none;stroke-width:0"
             inkscape:connector-curvature="0" /></g></g></g><g
       id="g1724"
       ns1:jacobian_sqrt="1.200001"
       ns1:alignment="middle center"
       ns1:scale="0.9"
       ns1:preamble="C:\\texlive\\texmf-local\\tex\\latex\\default_packages_guit.tex"
       ns1:text="$A_\\mathrm{H}^\\star$"
       ns1:pdfconverter="pdf2svg"
       ns1:texconverter="pdflatex"
       ns1:version="0.11.0"
       transform="matrix(1.200001,0,0,-1.200001,181.11412,786.50218)"><g
         id="g1722"><g
           id="g1712"
           style="fill:#000000;fill-opacity:1"><path
             id="path1710"
             transform="translate(148.712,134.765)"
             d="M 6.546875,-0.171875 C 5.90625,-0.171875 5.84375,-0.46875 5.8125,-1.15625 L 5.578125,-6.875 H 5.375 l -3.890625,5.90625 c -0.453125,0.703125 -0.71875,0.796875 -1,0.796875 L 0.453125,0 h 1.84375 l 0.03125,-0.171875 c -0.328125,0 -0.5625,-0.09375 -0.5625,-0.375 0,-0.15625 0.078125,-0.375 0.265625,-0.671875 l 0.6875,-1.046875 H 4.8125 l 0.046875,1.28125 C 4.890625,-0.25 4.5625,-0.171875 4.03125,-0.171875 L 3.984375,0 h 2.53125 z m -1.75,-2.4375 H 2.953125 L 4.671875,-5.25 Z m 0,0"
             style="stroke:none;stroke-width:0"
             inkscape:connector-curvature="0" /></g><g
           id="g1716"
           style="fill:#000000;fill-opacity:1"><path
             id="path1714"
             transform="translate(155.915,131.122)"
             d="m 2.234375,-1.125 1.125,0.8125 L 2.9375,-1.625 4.046875,-2.421875 h -1.375 L 2.25,-3.71875 1.8125,-2.421875 H 0.421875 l 1.125,0.796875 -0.4375,1.3125 z m 0,0"
             style="stroke:none;stroke-width:0"
             inkscape:connector-curvature="0" /></g><g
           id="g1720"
           style="fill:#000000;fill-opacity:1"><path
             id="path1718"
             transform="translate(155.915,137.67)"
             d="M 4.890625,0 V -0.125 C 4.375,-0.171875 4.28125,-0.265625 4.28125,-0.765625 v -3.09375 c 0,-0.5 0.078125,-0.578125 0.609375,-0.625 v -0.125 h -1.9375 v 0.125 c 0.53125,0.046875 0.609375,0.125 0.609375,0.625 V -2.5 H 1.453125 v -1.359375 c 0,-0.5 0.078125,-0.578125 0.609375,-0.625 v -0.125 H 0.125 v 0.125 c 0.546875,0.046875 0.625,0.125 0.625,0.625 V -0.84375 C 0.75,-0.25 0.671875,-0.171875 0.125,-0.125 V 0 H 2.0625 V -0.125 C 1.546875,-0.171875 1.453125,-0.265625 1.453125,-0.765625 V -2.1875 H 3.5625 v 1.34375 C 3.5625,-0.25 3.5,-0.171875 2.953125,-0.125 V 0 Z m 0,0"
             style="stroke:none;stroke-width:0"
             inkscape:connector-curvature="0" /></g></g></g><g
       id="g3839"
       transform="translate(11.319131,-2.4846872)"><path
         d="m 470.49992,627.00455 -168.486,-94.0536"
         style="fill:none;stroke:#243577;stroke-width:1.08131886;stroke-linecap:round;stroke-linejoin:round;stroke-miterlimit:10;stroke-dasharray:none;stroke-opacity:1"
         id="path114"
         inkscape:connector-curvature="0" /><path
         d="m 308.28992,539.07695 c -1.1784,-3.0912 -6.5568,-6.006 -6.9624,-6.4584 0.5964,0.1176 5.8944,3.2148 9.3036,2.4288"
         style="fill:none;stroke:#243577;stroke-width:1.261536;stroke-linecap:round;stroke-linejoin:round;stroke-miterlimit:10;stroke-dasharray:none;stroke-opacity:1"
         id="path116"
         inkscape:connector-curvature="0" /><path
         d="m 464.00792,620.80295 c 1.1784,3.0912 6.5556,6.006 6.9624,6.4584 -0.5976,-0.1176 -5.8944,-3.2148 -9.3036,-2.4288"
         style="fill:none;stroke:#243577;stroke-width:1.261536;stroke-linecap:round;stroke-linejoin:round;stroke-miterlimit:10;stroke-dasharray:none;stroke-opacity:1"
         id="path118"
         inkscape:connector-curvature="0" /><path
         d="m 387.50432,584.10455 v 7.1748 h 13.932 v -14.3508 h -13.932"
         style="fill:#ffffff;fill-opacity:1;fill-rule:nonzero;stroke:none;stroke-width:0.12"
         id="path258"
         inkscape:connector-curvature="0" /><g
         transform="matrix(1.200001,0,0,-1.200001,210.98087,742.43411)"
         ns1:version="0.11.0"
         ns1:texconverter="pdflatex"
         ns1:pdfconverter="pdf2svg"
         ns1:text="$l_\\mathrm{H}$"
         ns1:preamble="C:\\texlive\\texmf-local\\tex\\latex\\default_packages_guit.tex"
         ns1:scale="0.9"
         ns1:alignment="middle center"
         ns1:jacobian_sqrt="1.200001"
         id="g1880"><g
           id="g1878"><g
             style="fill:#000000;fill-opacity:1"
             id="g1872"><path
               inkscape:connector-curvature="0"
               style="stroke:none;stroke-width:0"
               d="m 2.90625,-7.140625 c 0,0 -1.34375,0.234375 -1.625,0.25 v 0.1875 c 0.390625,0 0.65625,0.03125 0.65625,0.34375 0,0.1875 -0.125,0.671875 -0.1875,0.90625 l -1.140625,4.125 c -0.0625,0.21875 -0.1875,0.71875 -0.1875,0.9375 0,0.203125 0.0625,0.515625 0.421875,0.515625 0.6875,0 1.3125,-0.9375 1.453125,-1.203125 L 2.15625,-1.171875 C 1.859375,-0.703125 1.5,-0.375 1.328125,-0.375 1.21875,-0.375 1.1875,-0.453125 1.1875,-0.5625 c 0,-0.125 0.03125,-0.234375 0.09375,-0.46875 z m 0,0"
               transform="translate(148.712,134.765)"
               id="path1870" /></g><g
             style="fill:#000000;fill-opacity:1"
             id="g1876"><path
               inkscape:connector-curvature="0"
               style="stroke:none;stroke-width:0"
               d="M 4.890625,0 V -0.125 C 4.375,-0.171875 4.28125,-0.265625 4.28125,-0.765625 v -3.09375 c 0,-0.5 0.078125,-0.578125 0.609375,-0.625 v -0.125 h -1.9375 v 0.125 c 0.53125,0.046875 0.609375,0.125 0.609375,0.625 V -2.5 H 1.453125 v -1.359375 c 0,-0.5 0.078125,-0.578125 0.609375,-0.625 v -0.125 H 0.125 v 0.125 c 0.546875,0.046875 0.625,0.125 0.625,0.625 V -0.84375 C 0.75,-0.25 0.671875,-0.171875 0.125,-0.125 V 0 H 2.0625 V -0.125 C 1.546875,-0.171875 1.453125,-0.265625 1.453125,-0.765625 V -2.1875 H 3.5625 v 1.34375 C 3.5625,-0.25 3.5,-0.171875 2.953125,-0.125 V 0 Z m 0,0"
               transform="translate(151.791,136.259)"
               id="path1874" /></g></g></g></g><g
       id="g2040"
       ns1:jacobian_sqrt="1.200001"
       ns1:alignment="middle center"
       ns1:scale="0.9"
       ns1:preamble="C:\\texlive\\texmf-local\\tex\\latex\\default_packages_guit.tex"
       ns1:text="$A_\\mathrm{H}$"
       ns1:pdfconverter="pdf2svg"
       ns1:texconverter="pdflatex"
       ns1:version="0.11.0"
       transform="matrix(1.200001,0,0,-1.200001,103.14224,851.97479)"><g
         id="g2038"><g
           id="g2032"
           style="fill:#000000;fill-opacity:1"><path
             id="path2030"
             transform="translate(148.712,134.765)"
             d="M 6.546875,-0.171875 C 5.90625,-0.171875 5.84375,-0.46875 5.8125,-1.15625 L 5.578125,-6.875 H 5.375 l -3.890625,5.90625 c -0.453125,0.703125 -0.71875,0.796875 -1,0.796875 L 0.453125,0 h 1.84375 l 0.03125,-0.171875 c -0.328125,0 -0.5625,-0.09375 -0.5625,-0.375 0,-0.15625 0.078125,-0.375 0.265625,-0.671875 l 0.6875,-1.046875 H 4.8125 l 0.046875,1.28125 C 4.890625,-0.25 4.5625,-0.171875 4.03125,-0.171875 L 3.984375,0 h 2.53125 z m -1.75,-2.4375 H 2.953125 L 4.671875,-5.25 Z m 0,0"
             style="stroke:none;stroke-width:0"
             inkscape:connector-curvature="0" /></g><g
           id="g2036"
           style="fill:#000000;fill-opacity:1"><path
             id="path2034"
             transform="translate(155.915,136.259)"
             d="M 4.890625,0 V -0.125 C 4.375,-0.171875 4.28125,-0.265625 4.28125,-0.765625 v -3.09375 c 0,-0.5 0.078125,-0.578125 0.609375,-0.625 v -0.125 h -1.9375 v 0.125 c 0.53125,0.046875 0.609375,0.125 0.609375,0.625 V -2.5 H 1.453125 v -1.359375 c 0,-0.5 0.078125,-0.578125 0.609375,-0.625 v -0.125 H 0.125 v 0.125 c 0.546875,0.046875 0.625,0.125 0.625,0.625 V -0.84375 C 0.75,-0.25 0.671875,-0.171875 0.125,-0.125 V 0 H 2.0625 V -0.125 C 1.546875,-0.171875 1.453125,-0.265625 1.453125,-0.765625 V -2.1875 H 3.5625 v 1.34375 C 3.5625,-0.25 3.5,-0.171875 2.953125,-0.125 V 0 Z m 0,0"
             style="stroke:none;stroke-width:0"
             inkscape:connector-curvature="0" /></g></g></g><g
       id="g2206"
       ns1:jacobian_sqrt="1.200001"
       ns1:alignment="middle center"
       ns1:scale="0.9"
       ns1:preamble="C:\\texlive\\texmf-local\\tex\\latex\\default_packages_guit.tex"
       ns1:text="$i_\\mathrm{H}$"
       ns1:pdfconverter="pdf2svg"
       ns1:texconverter="pdflatex"
       ns1:version="0.11.0"
       transform="matrix(1.200001,0,0,-1.200001,135.68899,811.54626)"><g
         id="g2204"><g
           id="g2198"
           style="fill:#000000;fill-opacity:1"><path
             id="path2196"
             transform="translate(148.712,134.765)"
             d="m 2.65625,-6.09375 c 0,-0.234375 -0.203125,-0.515625 -0.515625,-0.515625 -0.25,0 -0.46875,0.203125 -0.46875,0.515625 0,0.3125 0.21875,0.515625 0.484375,0.515625 0.296875,0 0.5,-0.28125 0.5,-0.515625 z m -0.390625,5.0625 -0.125,-0.109375 C 1.75,-0.5625 1.453125,-0.375 1.34375,-0.375 c -0.125,0 -0.15625,-0.078125 -0.15625,-0.1875 0,-0.125 0.046875,-0.3125 0.09375,-0.46875 L 2.25,-4.5625 c 0,0 -1.359375,0.265625 -1.65625,0.296875 v 0.15625 c 0.375,0 0.65625,-0.03125 0.65625,0.375 0,0.1875 -0.109375,0.5625 -0.171875,0.8125 0,0 -0.65625,2.09375 -0.65625,2.5 0,0.203125 0.0625,0.546875 0.421875,0.546875 0.484375,0 1.015625,-0.5 1.421875,-1.15625 z m 0,0"
             style="stroke:none;stroke-width:0"
             inkscape:connector-curvature="0" /></g><g
           id="g2202"
           style="fill:#000000;fill-opacity:1"><path
             id="path2200"
             transform="translate(151.781,136.259)"
             d="M 4.890625,0 V -0.125 C 4.375,-0.171875 4.28125,-0.265625 4.28125,-0.765625 v -3.09375 c 0,-0.5 0.078125,-0.578125 0.609375,-0.625 v -0.125 h -1.9375 v 0.125 c 0.53125,0.046875 0.609375,0.125 0.609375,0.625 V -2.5 H 1.453125 v -1.359375 c 0,-0.5 0.078125,-0.578125 0.609375,-0.625 v -0.125 H 0.125 v 0.125 c 0.546875,0.046875 0.625,0.125 0.625,0.625 V -0.84375 C 0.75,-0.25 0.671875,-0.171875 0.125,-0.125 V 0 H 2.0625 V -0.125 C 1.546875,-0.171875 1.453125,-0.265625 1.453125,-0.765625 V -2.1875 H 3.5625 v 1.34375 C 3.5625,-0.25 3.5,-0.171875 2.953125,-0.125 V 0 Z m 0,0"
             style="stroke:none;stroke-width:0"
             inkscape:connector-curvature="0" /></g></g></g><g
       id="g2370"
       ns1:jacobian_sqrt="1.200001"
       ns1:alignment="middle center"
       ns1:scale="0.9"
       ns1:preamble="C:\\texlive\\texmf-local\\tex\\latex\\default_packages_guit.tex"
       ns1:text="$G$"
       ns1:pdfconverter="pdf2svg"
       ns1:texconverter="pdflatex"
       ns1:version="0.11.0"
       transform="matrix(1.200001,0,0,-1.200001,9.8149091,757.85915)"><g
         id="g2368"><g
           id="g2366"
           style="fill:#000000;fill-opacity:1"><path
             id="path2364"
             transform="translate(148.712,134.765)"
             d="M 7.3125,-3.34375 H 4.53125 L 4.5,-3.171875 c 0.578125,0 0.84375,0.25 0.84375,0.546875 0,0.046875 -0.015625,0.109375 -0.015625,0.15625 L 4.8125,-0.546875 c -0.3125,0.203125 -0.6875,0.34375 -1.125,0.34375 -1.328125,0 -1.890625,-1.03125 -1.890625,-2.125 0,-1.828125 1.1875,-4.21875 3.09375,-4.21875 1.046875,0 1.484375,0.703125 1.484375,1.765625 H 6.546875 L 6.984375,-6.875 H 6.78125 C 6.703125,-6.75 6.609375,-6.59375 6.375,-6.59375 6.140625,-6.59375 5.5,-6.875 4.8125,-6.875 c -2.53125,0 -4.109375,2.359375 -4.109375,4.296875 0,1.046875 0.734375,2.734375 2.859375,2.734375 0.640625,0 1.5,-0.171875 2.171875,-0.5625 l 0.5625,-2.03125 c 0.15625,-0.609375 0.375,-0.734375 0.984375,-0.734375 z m 0,0"
             style="stroke:none;stroke-width:0"
             inkscape:connector-curvature="0" /></g></g></g><g
       id="g2560"
       ns1:jacobian_sqrt="1.200001"
       ns1:alignment="middle center"
       ns1:scale="0.9"
       ns1:preamble="C:\\texlive\\texmf-local\\tex\\latex\\default_packages_guit.tex"
       ns1:text="$x_{\\mathrm{C},G}$"
       ns1:pdfconverter="pdf2svg"
       ns1:texconverter="pdflatex"
       ns1:version="0.11.0"
       transform="matrix(1.200001,0,0,-1.200001,-22.382184,802.66821)"><g
         id="g2558"><g
           id="g2546"
           style="fill:#000000;fill-opacity:1"><path
             id="path2544"
             transform="translate(148.712,134.765)"
             d="m 5.15625,-4.171875 c 0,-0.265625 -0.234375,-0.390625 -0.421875,-0.390625 -0.5,0 -1.140625,0.75 -1.640625,1.546875 0,-0.015625 -0.078125,-0.34375 -0.078125,-0.34375 -0.15625,-0.65625 -0.34375,-1.03125 -0.6875,-1.203125 0,0 -1.125,0.25 -1.265625,0.28125 v 0.171875 c 0.203125,-0.046875 0.359375,-0.0625 0.46875,-0.0625 0.546875,0 0.640625,0.515625 1.015625,1.953125 C 2.09375,-1.546875 1.390625,-0.4375 1.109375,-0.4375 0.875,-0.4375 0.875,-0.671875 0.5625,-0.671875 c -0.21875,0 -0.359375,0.15625 -0.359375,0.359375 0,0.25 0.1875,0.4375 0.46875,0.4375 0.6875,0 1.34375,-1.25 1.953125,-2.03125 0.03125,0.078125 0.25,0.953125 0.25,0.953125 C 3.125,-0.03125 3.3125,0.125 3.5625,0.125 c 0.3125,0 0.78125,-0.3125 1.25,-1.1875 L 4.671875,-1.140625 c -0.171875,0.21875 -0.453125,0.6875 -0.703125,0.6875 -0.34375,0 -0.546875,-1.40625 -0.796875,-2.296875 0.0625,-0.078125 0.75,-1.203125 1.125,-1.203125 0.1875,0 0.359375,0.171875 0.53125,0.171875 0.25,0 0.328125,-0.203125 0.328125,-0.390625 z m 0,0"
             style="stroke:none;stroke-width:0"
             inkscape:connector-curvature="0" /></g><g
           id="g2550"
           style="fill:#000000;fill-opacity:1"><path
             id="path2548"
             transform="translate(154.162,136.259)"
             d="m 4.40625,-0.78125 -0.125,-0.125 c -0.515625,0.484375 -0.96875,0.703125 -1.546875,0.703125 -0.421875,0 -0.796875,-0.125 -1.09375,-0.375 C 1.234375,-0.921875 1,-1.546875 1,-2.359375 c 0,-1.25 0.65625,-2.078125 1.65625,-2.078125 0.40625,0 0.765625,0.15625 1.046875,0.4375 0.21875,0.21875 0.328125,0.40625 0.453125,0.859375 h 0.171875 l -0.0625,-1.5625 h -0.15625 c -0.046875,0.140625 -0.15625,0.21875 -0.28125,0.21875 -0.078125,0 -0.171875,-0.015625 -0.28125,-0.0625 -0.34375,-0.109375 -0.6875,-0.15625 -1.03125,-0.15625 -0.53125,0 -1.078125,0.1875 -1.5,0.546875 -0.53125,0.4375 -0.828125,1.09375 -0.828125,1.890625 0,1.421875 0.9375,2.359375 2.328125,2.359375 0.78125,0 1.46875,-0.3125 1.890625,-0.875 z m 0,0"
             style="stroke:none;stroke-width:0"
             inkscape:connector-curvature="0" /></g><g
           id="g2556"
           style="fill:#000000;fill-opacity:1"><path
             id="path2552"
             transform="translate(158.813,136.259)"
             d="M 0.609375,1.140625 C 0.8125,1.09375 0.90625,1.046875 1.09375,0.9375 c 0.328125,-0.21875 0.5625,-0.53125 0.5625,-1.078125 0,-0.53125 -0.25,-0.765625 -0.578125,-0.765625 -0.296875,0 -0.484375,0.1875 -0.484375,0.46875 0,0.265625 0.1875,0.4375 0.4375,0.4375 0.078125,0 0.15625,-0.015625 0.234375,-0.0625 0.03125,-0.015625 0.03125,-0.015625 0.046875,-0.015625 0.03125,0 0.046875,0.0625 0.046875,0.140625 0,0.078125 0,0.578125 -0.75,0.859375 z m 0,0"
             style="stroke:none;stroke-width:0"
             inkscape:connector-curvature="0" /><path
             id="path2554"
             transform="translate(161.05856,136.259)"
             d="M 5.6875,-2.546875 H 3.484375 L 3.4375,-2.328125 c 0.453125,0 0.65625,0.15625 0.65625,0.34375 0,0.046875 0,0.0625 -0.015625,0.109375 L 3.6875,-0.5 c -0.234375,0.15625 -0.5,0.25 -0.828125,0.25 -0.984375,0 -1.390625,-0.734375 -1.390625,-1.515625 0,-1.3125 0.875,-3.03125 2.328125,-3.03125 0.78125,0 1.09375,0.484375 1.09375,1.296875 H 5.09375 L 5.453125,-5.125 H 5.21875 c -0.0625,0.09375 -0.125,0.1875 -0.296875,0.1875 C 4.75,-4.9375 4.25,-5.140625 3.71875,-5.140625 c -1.96875,0 -3.1875,1.765625 -3.1875,3.203125 0,0.78125 0.5625,2.046875 2.25,2.046875 0.484375,0 1.15625,-0.140625 1.703125,-0.4375 L 4.90625,-1.8125 c 0.125,-0.4375 0.28125,-0.515625 0.75,-0.515625 z m 0,0"
             style="stroke:none;stroke-width:0"
             inkscape:connector-curvature="0" /></g></g></g><g
       id="g2750"
       ns1:jacobian_sqrt="1.200001"
       inkscapeversion="0.92.4"
       ns1:alignment="middle center"
       ns1:scale="0.9"
       ns1:preamble="C:\\texlive\\texmf-local\\tex\\latex\\default_packages_guit.tex"
       ns1:text="$x_{\\mathrm{C}}$"
       ns1:pdfconverter="pdf2svg"
       ns1:texconverter="pdflatex"
       ns1:version="0.11.0"
       transform="matrix(1.200001,0,0,-1.200001,-19.232781,726.29648)"><g
         id="g2748"><g
           id="g2742"
           style="fill:#000000;fill-opacity:1"><path
             id="path2740"
             transform="translate(148.712,134.765)"
             d="m 5.15625,-4.171875 c 0,-0.265625 -0.234375,-0.390625 -0.421875,-0.390625 -0.5,0 -1.140625,0.75 -1.640625,1.546875 0,-0.015625 -0.078125,-0.34375 -0.078125,-0.34375 -0.15625,-0.65625 -0.34375,-1.03125 -0.6875,-1.203125 0,0 -1.125,0.25 -1.265625,0.28125 v 0.171875 c 0.203125,-0.046875 0.359375,-0.0625 0.46875,-0.0625 0.546875,0 0.640625,0.515625 1.015625,1.953125 C 2.09375,-1.546875 1.390625,-0.4375 1.109375,-0.4375 0.875,-0.4375 0.875,-0.671875 0.5625,-0.671875 c -0.21875,0 -0.359375,0.15625 -0.359375,0.359375 0,0.25 0.1875,0.4375 0.46875,0.4375 0.6875,0 1.34375,-1.25 1.953125,-2.03125 0.03125,0.078125 0.25,0.953125 0.25,0.953125 C 3.125,-0.03125 3.3125,0.125 3.5625,0.125 c 0.3125,0 0.78125,-0.3125 1.25,-1.1875 L 4.671875,-1.140625 c -0.171875,0.21875 -0.453125,0.6875 -0.703125,0.6875 -0.34375,0 -0.546875,-1.40625 -0.796875,-2.296875 0.0625,-0.078125 0.75,-1.203125 1.125,-1.203125 0.1875,0 0.359375,0.171875 0.53125,0.171875 0.25,0 0.328125,-0.203125 0.328125,-0.390625 z m 0,0"
             style="stroke:none;stroke-width:0"
             inkscape:connector-curvature="0" /></g><g
           id="g2746"
           style="fill:#000000;fill-opacity:1"><path
             id="path2744"
             transform="translate(154.162,136.259)"
             d="m 4.40625,-0.78125 -0.125,-0.125 c -0.515625,0.484375 -0.96875,0.703125 -1.546875,0.703125 -0.421875,0 -0.796875,-0.125 -1.09375,-0.375 C 1.234375,-0.921875 1,-1.546875 1,-2.359375 c 0,-1.25 0.65625,-2.078125 1.65625,-2.078125 0.40625,0 0.765625,0.15625 1.046875,0.4375 0.21875,0.21875 0.328125,0.40625 0.453125,0.859375 h 0.171875 l -0.0625,-1.5625 h -0.15625 c -0.046875,0.140625 -0.15625,0.21875 -0.28125,0.21875 -0.078125,0 -0.171875,-0.015625 -0.28125,-0.0625 -0.34375,-0.109375 -0.6875,-0.15625 -1.03125,-0.15625 -0.53125,0 -1.078125,0.1875 -1.5,0.546875 -0.53125,0.4375 -0.828125,1.09375 -0.828125,1.890625 0,1.421875 0.9375,2.359375 2.328125,2.359375 0.78125,0 1.46875,-0.3125 1.890625,-0.875 z m 0,0"
             style="stroke:none;stroke-width:0"
             inkscape:connector-curvature="0" /></g></g></g><path
       inkscape:connector-curvature="0"
       id="path18"
       style="fill:none;stroke:#243577;stroke-width:2.45098805;stroke-linecap:round;stroke-linejoin:round;stroke-miterlimit:10;stroke-dasharray:none;stroke-opacity:1"
       d="m 164.9628,553.356 c -0.3888,1.1052 4.4484,5.556 4.8612,6.0036 -0.5988,-0.1104 -6.9432,-1.83 -7.6704,-0.912" /><path
       inkscape:connector-curvature="0"
       id="path16"
       style="fill:none;stroke:#243577;stroke-width:2.16263986;stroke-linecap:round;stroke-linejoin:round;stroke-miterlimit:10;stroke-dasharray:none;stroke-opacity:1"
       d="m 137.3484,541.4376 31.116,17.1708" /><g
       id="g2937"
       ns1:jacobian_sqrt="1.200001"
       inkscapeversion="0.92.4"
       ns1:alignment="middle center"
       ns1:scale="0.9"
       ns1:preamble="C:\\texlive\\texmf-local\\tex\\latex\\default_packages_guit.tex"
       ns1:text="$z_{\\mathrm{C}}$"
       ns1:pdfconverter="pdf2svg"
       ns1:texconverter="pdflatex"
       ns1:version="0.11.0"
       transform="matrix(1.200001,0,0,-1.200001,-118.58199,736.5113)"><g
         id="g2935"><g
           id="g2929"
           style="fill:#000000;fill-opacity:1"><path
             id="path2927"
             transform="translate(148.712,134.765)"
             d="m 4.453125,-4.5625 h -3.09375 l -0.4375,1.296875 H 1.125 c 0.25,-0.609375 0.484375,-0.625 0.84375,-0.625 h 1.625 L 0.15625,0 H 3.3125 L 3.765625,-1.328125 H 3.5625 c -0.234375,0.6875 -0.609375,0.6875 -0.984375,0.6875 H 1 Z m 0,0"
             style="stroke:none;stroke-width:0"
             inkscape:connector-curvature="0" /></g><g
           id="g2933"
           style="fill:#000000;fill-opacity:1"><path
             id="path2931"
             transform="translate(153.325,136.259)"
             d="m 4.40625,-0.78125 -0.125,-0.125 c -0.515625,0.484375 -0.96875,0.703125 -1.546875,0.703125 -0.421875,0 -0.796875,-0.125 -1.09375,-0.375 C 1.234375,-0.921875 1,-1.546875 1,-2.359375 c 0,-1.25 0.65625,-2.078125 1.65625,-2.078125 0.40625,0 0.765625,0.15625 1.046875,0.4375 0.21875,0.21875 0.328125,0.40625 0.453125,0.859375 h 0.171875 l -0.0625,-1.5625 h -0.15625 c -0.046875,0.140625 -0.15625,0.21875 -0.28125,0.21875 -0.078125,0 -0.171875,-0.015625 -0.28125,-0.0625 -0.34375,-0.109375 -0.6875,-0.15625 -1.03125,-0.15625 -0.53125,0 -1.078125,0.1875 -1.5,0.546875 -0.53125,0.4375 -0.828125,1.09375 -0.828125,1.890625 0,1.421875 0.9375,2.359375 2.328125,2.359375 0.78125,0 1.46875,-0.3125 1.890625,-0.875 z m 0,0"
             style="stroke:none;stroke-width:0"
             inkscape:connector-curvature="0" /></g></g></g><g
       transform="matrix(1.200001,0,0,-1.200001,-41.556687,875.65378)"
       ns1:version="0.11.0"
       ns1:texconverter="pdflatex"
       ns1:pdfconverter="pdf2svg"
       ns1:text="$z_{\\mathrm{C}}$"
       ns1:preamble="C:\\texlive\\texmf-local\\tex\\latex\\default_packages_guit.tex"
       ns1:scale="0.9"
       ns1:alignment="middle center"
       inkscapeversion="0.92.4"
       ns1:jacobian_sqrt="1.200001"
       id="g2957"><g
         id="g2955"><g
           style="fill:#000000;fill-opacity:1"
           id="g2949"><path
             inkscape:connector-curvature="0"
             style="stroke:none;stroke-width:0"
             d="m 4.453125,-4.5625 h -3.09375 l -0.4375,1.296875 H 1.125 c 0.25,-0.609375 0.484375,-0.625 0.84375,-0.625 h 1.625 L 0.15625,0 H 3.3125 L 3.765625,-1.328125 H 3.5625 c -0.234375,0.6875 -0.609375,0.6875 -0.984375,0.6875 H 1 Z m 0,0"
             transform="translate(148.712,134.765)"
             id="path2947" /></g><g
           style="fill:#000000;fill-opacity:1"
           id="g2953"><path
             inkscape:connector-curvature="0"
             style="stroke:none;stroke-width:0"
             d="m 4.40625,-0.78125 -0.125,-0.125 c -0.515625,0.484375 -0.96875,0.703125 -1.546875,0.703125 -0.421875,0 -0.796875,-0.125 -1.09375,-0.375 C 1.234375,-0.921875 1,-1.546875 1,-2.359375 c 0,-1.25 0.65625,-2.078125 1.65625,-2.078125 0.40625,0 0.765625,0.15625 1.046875,0.4375 0.21875,0.21875 0.328125,0.40625 0.453125,0.859375 h 0.171875 l -0.0625,-1.5625 h -0.15625 c -0.046875,0.140625 -0.15625,0.21875 -0.28125,0.21875 -0.078125,0 -0.171875,-0.015625 -0.28125,-0.0625 -0.34375,-0.109375 -0.6875,-0.15625 -1.03125,-0.15625 -0.53125,0 -1.078125,0.1875 -1.5,0.546875 -0.53125,0.4375 -0.828125,1.09375 -0.828125,1.890625 0,1.421875 0.9375,2.359375 2.328125,2.359375 0.78125,0 1.46875,-0.3125 1.890625,-0.875 z m 0,0"
             transform="translate(153.325,136.259)"
             id="path2951" /></g></g></g><g
       id="g3343"
       transform="translate(30.698969,14.65642)"><g
         transform="matrix(1.200001,0.66794929,0,-1.200001,86.652654,764.59959)"
         id="g3226"
         style="fill:#000000;fill-opacity:1"><path
           id="path3218"
           transform="translate(148.712,134.765)"
           d="m 2.78125,-0.65625 -0.125,-0.109375 c -0.21875,0.25 -0.390625,0.34375 -0.609375,0.34375 -0.359375,0 -0.515625,-0.25 -0.515625,-0.890625 v -2.859375 h 1.015625 v -0.3125 H 1.53125 v -1.15625 c 0,-0.09375 -0.015625,-0.125 -0.0625,-0.125 -0.0625,0.09375 -0.140625,0.1875 -0.203125,0.265625 -0.375,0.5625 -0.703125,0.921875 -0.96875,1.078125 -0.109375,0.0625 -0.171875,0.125 -0.171875,0.1875 0,0.03125 0.015625,0.046875 0.046875,0.0625 h 0.53125 v 3 c 0,0.84375 0.296875,1.265625 0.875,1.265625 0.5,0 0.875,-0.234375 1.203125,-0.75 z m 0,0"
           style="stroke:none;stroke-width:0"
           inkscape:connector-curvature="0" /><path
           id="path3220"
           transform="translate(151.4816,134.765)"
           d="m 4.40625,-0.40625 v -0.25 c -0.171875,0.140625 -0.296875,0.1875 -0.4375,0.1875 -0.234375,0 -0.296875,-0.140625 -0.296875,-0.578125 v -1.9375 C 3.671875,-3.5 3.625,-3.78125 3.484375,-4 c -0.21875,-0.390625 -0.640625,-0.578125 -1.25,-0.578125 -0.515625,0 -0.984375,0.125 -1.265625,0.359375 -0.25,0.21875 -0.40625,0.5 -0.40625,0.75 0,0.234375 0.1875,0.421875 0.421875,0.421875 0.234375,0 0.453125,-0.1875 0.453125,-0.40625 0,-0.046875 -0.015625,-0.09375 -0.015625,-0.171875 -0.03125,-0.078125 -0.03125,-0.15625 -0.03125,-0.234375 0,-0.265625 0.3125,-0.484375 0.71875,-0.484375 0.484375,0 0.75,0.28125 0.75,0.828125 v 0.609375 c -1.53125,0.609375 -1.703125,0.6875 -2.125,1.078125 -0.21875,0.1875 -0.359375,0.53125 -0.359375,0.859375 0,0.625 0.421875,1.0625 1.046875,1.0625 0.4375,0 0.84375,-0.203125 1.453125,-0.71875 0.046875,0.53125 0.21875,0.71875 0.640625,0.71875 0.328125,0 0.546875,-0.109375 0.890625,-0.5 z m -1.546875,-0.8125 c 0,0.296875 -0.046875,0.390625 -0.25,0.515625 -0.25,0.140625 -0.53125,0.21875 -0.734375,0.21875 C 1.53125,-0.484375 1.25,-0.8125 1.25,-1.25 v -0.03125 c 0,-0.59375 0.40625,-0.953125 1.609375,-1.390625 z m 0,0"
           style="stroke:none;stroke-width:0"
           inkscape:connector-curvature="0" /><path
           id="path3222"
           transform="translate(155.905,134.765)"
           d="M 2.515625,0 V -0.15625 C 1.859375,-0.203125 1.78125,-0.296875 1.78125,-1.015625 V -4.5625 L 1.75,-4.578125 0.203125,-4.03125 v 0.140625 H 0.28125 c 0.125,-0.03125 0.25,-0.03125 0.34375,-0.03125 0.234375,0 0.328125,0.15625 0.328125,0.59375 v 2.3125 c 0,0.71875 -0.109375,0.828125 -0.796875,0.859375 V 0 Z M 1.875,-5.875 c 0,-0.28125 -0.21875,-0.515625 -0.515625,-0.515625 -0.265625,0 -0.5,0.234375 -0.5,0.515625 0,0.28125 0.234375,0.5 0.5,0.5 0.296875,0 0.515625,-0.21875 0.515625,-0.5 z m 0,0"
           style="stroke:none;stroke-width:0"
           inkscape:connector-curvature="0" /><path
           id="path3224"
           transform="translate(158.6746,134.765)"
           d="m 2.5625,0 v -0.15625 c -0.640625,-0.03125 -0.75,-0.140625 -0.75,-0.6875 v -5.9375 L 1.78125,-6.8125 C 1.25,-6.640625 0.875,-6.546875 0.1875,-6.375 v 0.171875 H 0.25 c 0.109375,-0.015625 0.234375,-0.03125 0.3125,-0.03125 0.3125,0 0.421875,0.140625 0.421875,0.609375 v 4.75 c 0,0.546875 -0.140625,0.671875 -0.78125,0.71875 V 0 Z m 0,0"
           style="stroke:none;stroke-width:0"
           inkscape:connector-curvature="0" /></g><g
         transform="matrix(1.200001,0.66794929,0,-1.200001,86.652654,764.59959)"
         id="g3250"
         style="fill:#000000;fill-opacity:1"><path
           id="path3228"
           transform="translate(163.93485,134.765)"
           d="m 4.40625,-0.40625 v -0.25 c -0.171875,0.140625 -0.296875,0.1875 -0.4375,0.1875 -0.234375,0 -0.296875,-0.140625 -0.296875,-0.578125 v -1.9375 C 3.671875,-3.5 3.625,-3.78125 3.484375,-4 c -0.21875,-0.390625 -0.640625,-0.578125 -1.25,-0.578125 -0.515625,0 -0.984375,0.125 -1.265625,0.359375 -0.25,0.21875 -0.40625,0.5 -0.40625,0.75 0,0.234375 0.1875,0.421875 0.421875,0.421875 0.234375,0 0.453125,-0.1875 0.453125,-0.40625 0,-0.046875 -0.015625,-0.09375 -0.015625,-0.171875 -0.03125,-0.078125 -0.03125,-0.15625 -0.03125,-0.234375 0,-0.265625 0.3125,-0.484375 0.71875,-0.484375 0.484375,0 0.75,0.28125 0.75,0.828125 v 0.609375 c -1.53125,0.609375 -1.703125,0.6875 -2.125,1.078125 -0.21875,0.1875 -0.359375,0.53125 -0.359375,0.859375 0,0.625 0.421875,1.0625 1.046875,1.0625 0.4375,0 0.84375,-0.203125 1.453125,-0.71875 0.046875,0.53125 0.21875,0.71875 0.640625,0.71875 0.328125,0 0.546875,-0.109375 0.890625,-0.5 z m -1.546875,-0.8125 c 0,0.296875 -0.046875,0.390625 -0.25,0.515625 -0.25,0.140625 -0.53125,0.21875 -0.734375,0.21875 C 1.53125,-0.484375 1.25,-0.8125 1.25,-1.25 v -0.03125 c 0,-0.59375 0.40625,-0.953125 1.609375,-1.390625 z m 0,0"
           style="stroke:none;stroke-width:0"
           inkscape:connector-curvature="0" /><path
           id="path3230"
           transform="translate(168.35825,134.765)"
           d="M 4.234375,-1.5625 4.0625,-1.640625 C 3.59375,-0.875 3.15625,-0.59375 2.515625,-0.59375 c -0.546875,0 -0.953125,-0.25 -1.25,-0.796875 C 1.0625,-1.78125 0.984375,-2.125 0.96875,-2.765625 h 3.0625 C 3.953125,-3.40625 3.859375,-3.703125 3.609375,-4.015625 3.3125,-4.375 2.84375,-4.578125 2.328125,-4.578125 1.09375,-4.578125 0.25,-3.59375 0.25,-2.140625 0.25,-0.75 0.96875,0.09375 2.109375,0.09375 c 0.96875,0 1.703125,-0.578125 2.125,-1.65625 z m -1.21875,-1.515625 h -2.03125 c 0.109375,-0.796875 0.453125,-1.15625 1.0625,-1.15625 0.609375,0 0.84375,0.28125 0.96875,1.15625 z m 0,0"
           style="stroke:none;stroke-width:0"
           inkscape:connector-curvature="0" /><path
           id="path3232"
           transform="translate(172.78164,134.765)"
           d="m 3.34375,-4.0625 c 0,-0.328125 -0.21875,-0.515625 -0.546875,-0.515625 -0.421875,0 -0.71875,0.21875 -1.203125,0.921875 V -4.5625 L 1.546875,-4.578125 c -0.53125,0.21875 -0.890625,0.34375 -1.484375,0.53125 v 0.15625 c 0.140625,-0.03125 0.234375,-0.03125 0.359375,-0.03125 0.25,0 0.328125,0.15625 0.328125,0.59375 v 2.484375 c 0,0.5 -0.0625,0.578125 -0.703125,0.6875 V 0 H 2.4375 V -0.15625 C 1.765625,-0.171875 1.59375,-0.328125 1.59375,-0.890625 v -2.25 c 0,-0.3125 0.4375,-0.8125 0.703125,-0.8125 0.0625,0 0.140625,0.046875 0.25,0.140625 0.171875,0.140625 0.28125,0.203125 0.40625,0.203125 0.234375,0 0.390625,-0.171875 0.390625,-0.453125 z m 0,0"
           style="stroke:none;stroke-width:0"
           inkscape:connector-curvature="0" /><path
           id="path3234"
           transform="translate(176.09919,134.765)"
           d="m 4.6875,-2.328125 c 0,-1.3125 -0.921875,-2.25 -2.1875,-2.25 -1.296875,0 -2.203125,0.953125 -2.203125,2.328125 0,1.34375 0.921875,2.34375 2.171875,2.34375 1.265625,0 2.21875,-1.046875 2.21875,-2.421875 z m -0.90625,0.34375 c 0,1.125 -0.4375,1.8125 -1.1875,1.8125 -0.390625,0 -0.765625,-0.25 -0.96875,-0.640625 -0.28125,-0.515625 -0.4375,-1.21875 -0.4375,-1.921875 0,-0.953125 0.46875,-1.578125 1.171875,-1.578125 0.84375,0 1.421875,0.96875 1.421875,2.328125 z m 0,0"
           style="stroke:none;stroke-width:0"
           inkscape:connector-curvature="0" /><path
           id="path3236"
           transform="translate(181.08049,134.765)"
           d="m 4.890625,-0.421875 v -0.15625 C 4.71875,-0.5625 4.6875,-0.5625 4.671875,-0.5625 c -0.359375,0 -0.4375,-0.109375 -0.4375,-0.578125 V -6.78125 L 4.171875,-6.8125 C 3.703125,-6.640625 3.34375,-6.546875 2.71875,-6.375 v 0.171875 c 0.078125,-0.015625 0.125,-0.015625 0.21875,-0.015625 0.359375,0 0.453125,0.09375 0.453125,0.5 v 1.5625 c -0.375,-0.3125 -0.65625,-0.421875 -1.046875,-0.421875 -1.140625,0 -2.078125,1.125 -2.078125,2.53125 0,1.28125 0.75,2.140625 1.84375,2.140625 0.5625,0 0.9375,-0.1875 1.28125,-0.65625 v 0.625 l 0.03125,0.03125 z m -1.5,-0.59375 c 0,0.0625 -0.078125,0.1875 -0.171875,0.296875 -0.171875,0.203125 -0.421875,0.296875 -0.71875,0.296875 -0.828125,0 -1.375,-0.796875 -1.375,-2.015625 0,-1.125 0.484375,-1.875 1.25,-1.875 0.53125,0 1.015625,0.46875 1.015625,1 z m 0,0"
           style="stroke:none;stroke-width:0"
           inkscape:connector-curvature="0" /><path
           id="path3238"
           transform="translate(186.06179,134.765)"
           d="m 4.734375,-4.34375 v -0.140625 h -1.34375 v 0.140625 c 0.3125,0 0.484375,0.09375 0.484375,0.25 0,0.046875 -0.015625,0.109375 -0.046875,0.171875 l -0.96875,2.75 L 1.71875,-3.6875 c -0.0625,-0.140625 -0.109375,-0.265625 -0.109375,-0.375 0,-0.1875 0.15625,-0.25 0.578125,-0.28125 V -4.484375 H 0.140625 v 0.140625 c 0.265625,0.03125 0.421875,0.140625 0.5,0.3125 l 1.65625,3.46875 c 0.0625,0.171875 0.109375,0.296875 0.109375,0.375 0,0.140625 -0.234375,0.78125 -0.40625,1.078125 -0.140625,0.25 -0.359375,0.4375 -0.5,0.4375 -0.046875,0 -0.140625,-0.015625 -0.25,-0.0625 C 1.0625,1.203125 0.890625,1.15625 0.734375,1.15625 c -0.234375,0 -0.4375,0.203125 -0.4375,0.4375 0,0.328125 0.328125,0.578125 0.734375,0.578125 0.671875,0 1.15625,-0.5625 1.6875,-2 L 4.25,-3.890625 C 4.390625,-4.203125 4.5,-4.3125 4.734375,-4.34375 Z m 0,0"
           style="stroke:none;stroke-width:0"
           inkscape:connector-curvature="0" /><path
           id="path3240"
           transform="translate(191.04309,134.765)"
           d="M 4.828125,0 V -0.15625 C 4.34375,-0.203125 4.234375,-0.3125 4.234375,-0.8125 v -2.28125 c 0,-0.9375 -0.453125,-1.484375 -1.1875,-1.484375 -0.453125,0 -0.765625,0.15625 -1.4375,0.796875 V -4.5625 L 1.53125,-4.578125 c -0.484375,0.171875 -0.828125,0.28125 -1.375,0.4375 V -3.96875 C 0.21875,-4 0.3125,-4 0.421875,-4 c 0.28125,0 0.375,0.140625 0.375,0.625 v 2.484375 c 0,0.5625 -0.109375,0.703125 -0.625,0.734375 V 0 h 2.125 V -0.15625 C 1.78125,-0.1875 1.640625,-0.3125 1.640625,-0.671875 V -3.46875 c 0.46875,-0.453125 0.6875,-0.5625 1.015625,-0.5625 0.5,0 0.734375,0.296875 0.734375,0.953125 v 2.09375 c 0,0.625 -0.125,0.796875 -0.625,0.828125 V 0 Z m 0,0"
           style="stroke:none;stroke-width:0"
           inkscape:connector-curvature="0" /><path
           id="path3242"
           transform="translate(196.02439,134.765)"
           d="m 4.40625,-0.40625 v -0.25 c -0.171875,0.140625 -0.296875,0.1875 -0.4375,0.1875 -0.234375,0 -0.296875,-0.140625 -0.296875,-0.578125 v -1.9375 C 3.671875,-3.5 3.625,-3.78125 3.484375,-4 c -0.21875,-0.390625 -0.640625,-0.578125 -1.25,-0.578125 -0.515625,0 -0.984375,0.125 -1.265625,0.359375 -0.25,0.21875 -0.40625,0.5 -0.40625,0.75 0,0.234375 0.1875,0.421875 0.421875,0.421875 0.234375,0 0.453125,-0.1875 0.453125,-0.40625 0,-0.046875 -0.015625,-0.09375 -0.015625,-0.171875 -0.03125,-0.078125 -0.03125,-0.15625 -0.03125,-0.234375 0,-0.265625 0.3125,-0.484375 0.71875,-0.484375 0.484375,0 0.75,0.28125 0.75,0.828125 v 0.609375 c -1.53125,0.609375 -1.703125,0.6875 -2.125,1.078125 -0.21875,0.1875 -0.359375,0.53125 -0.359375,0.859375 0,0.625 0.421875,1.0625 1.046875,1.0625 0.4375,0 0.84375,-0.203125 1.453125,-0.71875 0.046875,0.53125 0.21875,0.71875 0.640625,0.71875 0.328125,0 0.546875,-0.109375 0.890625,-0.5 z m -1.546875,-0.8125 c 0,0.296875 -0.046875,0.390625 -0.25,0.515625 -0.25,0.140625 -0.53125,0.21875 -0.734375,0.21875 C 1.53125,-0.484375 1.25,-0.8125 1.25,-1.25 v -0.03125 c 0,-0.59375 0.40625,-0.953125 1.609375,-1.390625 z m 0,0"
           style="stroke:none;stroke-width:0"
           inkscape:connector-curvature="0" /><path
           id="path3244"
           transform="translate(200.44778,134.765)"
           d="m 7.71875,0 v -0.15625 l -0.25,-0.015625 C 7.171875,-0.1875 7.03125,-0.375 7.03125,-0.75 v -2.0625 c 0,-1.171875 -0.375,-1.765625 -1.15625,-1.765625 -0.578125,0 -1.078125,0.25 -1.625,0.828125 -0.171875,-0.5625 -0.515625,-0.828125 -1.046875,-0.828125 -0.4375,0 -0.71875,0.125 -1.546875,0.765625 v -0.75 L 1.578125,-4.578125 c -0.5,0.1875 -0.84375,0.296875 -1.390625,0.4375 V -3.96875 C 0.3125,-4 0.40625,-4 0.515625,-4 c 0.25,0 0.34375,0.15625 0.34375,0.625 v 2.53125 c 0,0.53125 -0.140625,0.6875 -0.703125,0.6875 V 0 H 2.375 V -0.15625 C 1.84375,-0.171875 1.6875,-0.28125 1.6875,-0.671875 v -2.8125 c 0,0 0.09375,-0.109375 0.15625,-0.1875 0.25,-0.21875 0.671875,-0.390625 1.03125,-0.390625 0.4375,0 0.65625,0.34375 0.65625,1.046875 v 2.15625 c 0,0.5625 -0.109375,0.671875 -0.6875,0.703125 V 0 h 2.234375 v -0.15625 c -0.5625,0 -0.71875,-0.171875 -0.71875,-0.796875 v -2.5 C 4.671875,-3.890625 5,-4.0625 5.453125,-4.0625 c 0.5625,0 0.75,0.265625 0.75,1.09375 V -0.875 c 0,0.578125 -0.078125,0.65625 -0.65625,0.71875 V 0 Z m 0,0"
           style="stroke:none;stroke-width:0"
           inkscape:connector-curvature="0" /><path
           id="path3246"
           transform="translate(208.19868,134.765)"
           d="M 2.515625,0 V -0.15625 C 1.859375,-0.203125 1.78125,-0.296875 1.78125,-1.015625 V -4.5625 L 1.75,-4.578125 0.203125,-4.03125 v 0.140625 H 0.28125 c 0.125,-0.03125 0.25,-0.03125 0.34375,-0.03125 0.234375,0 0.328125,0.15625 0.328125,0.59375 v 2.3125 c 0,0.71875 -0.109375,0.828125 -0.796875,0.859375 V 0 Z M 1.875,-5.875 c 0,-0.28125 -0.21875,-0.515625 -0.515625,-0.515625 -0.265625,0 -0.5,0.234375 -0.5,0.515625 0,0.28125 0.234375,0.5 0.5,0.5 0.296875,0 0.515625,-0.21875 0.515625,-0.5 z m 0,0"
           style="stroke:none;stroke-width:0"
           inkscape:connector-curvature="0" /><path
           id="path3248"
           transform="translate(210.96829,134.765)"
           d="M 4.109375,-1.46875 3.96875,-1.5625 C 3.484375,-0.859375 3.125,-0.625 2.5625,-0.625 c -0.921875,0 -1.546875,-0.796875 -1.546875,-1.9375 0,-1.03125 0.546875,-1.734375 1.359375,-1.734375 0.359375,0 0.484375,0.109375 0.578125,0.484375 l 0.0625,0.21875 C 3.09375,-3.3125 3.28125,-3.140625 3.5,-3.140625 c 0.265625,0 0.46875,-0.1875 0.46875,-0.421875 0,-0.546875 -0.703125,-1.015625 -1.53125,-1.015625 -0.46875,0 -0.953125,0.171875 -1.34375,0.5 C 0.546875,-3.625 0.25,-2.9375 0.25,-2.109375 c 0,1.28125 0.78125,2.203125 1.890625,2.203125 0.4375,0 0.8125,-0.140625 1.15625,-0.40625 0.296875,-0.25 0.484375,-0.53125 0.8125,-1.15625 z m 0,0"
           style="stroke:none;stroke-width:0"
           inkscape:connector-curvature="0" /></g><g
         transform="matrix(1.200001,0.66794929,0,-1.200001,54.049221,735.88765)"
         id="g3264"
         style="fill:#000000;fill-opacity:1"><path
           id="path3252"
           transform="translate(217.88233,134.765)"
           d="M 4.109375,-1.46875 3.96875,-1.5625 C 3.484375,-0.859375 3.125,-0.625 2.5625,-0.625 c -0.921875,0 -1.546875,-0.796875 -1.546875,-1.9375 0,-1.03125 0.546875,-1.734375 1.359375,-1.734375 0.359375,0 0.484375,0.109375 0.578125,0.484375 l 0.0625,0.21875 C 3.09375,-3.3125 3.28125,-3.140625 3.5,-3.140625 c 0.265625,0 0.46875,-0.1875 0.46875,-0.421875 0,-0.546875 -0.703125,-1.015625 -1.53125,-1.015625 -0.46875,0 -0.953125,0.171875 -1.34375,0.5 C 0.546875,-3.625 0.25,-2.9375 0.25,-2.109375 c 0,1.28125 0.78125,2.203125 1.890625,2.203125 0.4375,0 0.8125,-0.140625 1.15625,-0.40625 0.296875,-0.25 0.484375,-0.53125 0.8125,-1.15625 z m 0,0"
           style="stroke:none;stroke-width:0"
           inkscape:connector-curvature="0" /><path
           id="path3254"
           transform="translate(222.30573,134.765)"
           d="M 4.234375,-1.5625 4.0625,-1.640625 C 3.59375,-0.875 3.15625,-0.59375 2.515625,-0.59375 c -0.546875,0 -0.953125,-0.25 -1.25,-0.796875 C 1.0625,-1.78125 0.984375,-2.125 0.96875,-2.765625 h 3.0625 C 3.953125,-3.40625 3.859375,-3.703125 3.609375,-4.015625 3.3125,-4.375 2.84375,-4.578125 2.328125,-4.578125 1.09375,-4.578125 0.25,-3.59375 0.25,-2.140625 0.25,-0.75 0.96875,0.09375 2.109375,0.09375 c 0.96875,0 1.703125,-0.578125 2.125,-1.65625 z m -1.21875,-1.515625 h -2.03125 c 0.109375,-0.796875 0.453125,-1.15625 1.0625,-1.15625 0.609375,0 0.84375,0.28125 0.96875,1.15625 z m 0,0"
           style="stroke:none;stroke-width:0"
           inkscape:connector-curvature="0" /><path
           id="path3256"
           transform="translate(226.72912,134.765)"
           d="M 4.828125,0 V -0.15625 C 4.34375,-0.203125 4.234375,-0.3125 4.234375,-0.8125 v -2.28125 c 0,-0.9375 -0.453125,-1.484375 -1.1875,-1.484375 -0.453125,0 -0.765625,0.15625 -1.4375,0.796875 V -4.5625 L 1.53125,-4.578125 c -0.484375,0.171875 -0.828125,0.28125 -1.375,0.4375 V -3.96875 C 0.21875,-4 0.3125,-4 0.421875,-4 c 0.28125,0 0.375,0.140625 0.375,0.625 v 2.484375 c 0,0.5625 -0.109375,0.703125 -0.625,0.734375 V 0 h 2.125 V -0.15625 C 1.78125,-0.1875 1.640625,-0.3125 1.640625,-0.671875 V -3.46875 c 0.46875,-0.453125 0.6875,-0.5625 1.015625,-0.5625 0.5,0 0.734375,0.296875 0.734375,0.953125 v 2.09375 c 0,0.625 -0.125,0.796875 -0.625,0.828125 V 0 Z m 0,0"
           style="stroke:none;stroke-width:0"
           inkscape:connector-curvature="0" /><path
           id="path3258"
           transform="translate(231.71042,134.765)"
           d="m 2.78125,-0.65625 -0.125,-0.109375 c -0.21875,0.25 -0.390625,0.34375 -0.609375,0.34375 -0.359375,0 -0.515625,-0.25 -0.515625,-0.890625 v -2.859375 h 1.015625 v -0.3125 H 1.53125 v -1.15625 c 0,-0.09375 -0.015625,-0.125 -0.0625,-0.125 -0.0625,0.09375 -0.140625,0.1875 -0.203125,0.265625 -0.375,0.5625 -0.703125,0.921875 -0.96875,1.078125 -0.109375,0.0625 -0.171875,0.125 -0.171875,0.1875 0,0.03125 0.015625,0.046875 0.046875,0.0625 h 0.53125 v 3 c 0,0.84375 0.296875,1.265625 0.875,1.265625 0.5,0 0.875,-0.234375 1.203125,-0.75 z m 0,0"
           style="stroke:none;stroke-width:0"
           inkscape:connector-curvature="0" /><path
           id="path3260"
           transform="translate(234.48002,134.765)"
           d="M 4.234375,-1.5625 4.0625,-1.640625 C 3.59375,-0.875 3.15625,-0.59375 2.515625,-0.59375 c -0.546875,0 -0.953125,-0.25 -1.25,-0.796875 C 1.0625,-1.78125 0.984375,-2.125 0.96875,-2.765625 h 3.0625 C 3.953125,-3.40625 3.859375,-3.703125 3.609375,-4.015625 3.3125,-4.375 2.84375,-4.578125 2.328125,-4.578125 1.09375,-4.578125 0.25,-3.59375 0.25,-2.140625 0.25,-0.75 0.96875,0.09375 2.109375,0.09375 c 0.96875,0 1.703125,-0.578125 2.125,-1.65625 z m -1.21875,-1.515625 h -2.03125 c 0.109375,-0.796875 0.453125,-1.15625 1.0625,-1.15625 0.609375,0 0.84375,0.28125 0.96875,1.15625 z m 0,0"
           style="stroke:none;stroke-width:0"
           inkscape:connector-curvature="0" /><path
           id="path3262"
           transform="translate(238.90342,134.765)"
           d="m 3.34375,-4.0625 c 0,-0.328125 -0.21875,-0.515625 -0.546875,-0.515625 -0.421875,0 -0.71875,0.21875 -1.203125,0.921875 V -4.5625 L 1.546875,-4.578125 c -0.53125,0.21875 -0.890625,0.34375 -1.484375,0.53125 v 0.15625 c 0.140625,-0.03125 0.234375,-0.03125 0.359375,-0.03125 0.25,0 0.328125,0.15625 0.328125,0.59375 v 2.484375 c 0,0.5 -0.0625,0.578125 -0.703125,0.6875 V 0 H 2.4375 V -0.15625 C 1.765625,-0.171875 1.59375,-0.328125 1.59375,-0.890625 v -2.25 c 0,-0.3125 0.4375,-0.8125 0.703125,-0.8125 0.0625,0 0.140625,0.046875 0.25,0.140625 0.171875,0.140625 0.28125,0.203125 0.40625,0.203125 0.234375,0 0.390625,-0.171875 0.390625,-0.453125 z m 0,0"
           style="stroke:none;stroke-width:0"
           inkscape:connector-curvature="0" /></g></g><g
       id="g3585"
       ns1:jacobian_sqrt="1.200001"
       inkscapeversion="0.92.4"
       ns1:alignment="middle center"
       ns1:scale="0.9"
       ns1:preamble="C:\\texlive\\texmf-local\\tex\\latex\\default_packages_guit.tex"
       ns1:text="$l_{\\mathrm{B}}$"
       ns1:pdfconverter="pdf2svg"
       ns1:texconverter="pdflatex"
       ns1:version="0.11.0"
       transform="matrix(1.200001,0,0,-1.200001,72.403722,882.33876)"><g
         id="g3583"><g
           id="g3577"
           style="fill:#000000;fill-opacity:1"><path
             id="path3575"
             transform="translate(148.712,134.765)"
             d="m 2.90625,-7.140625 c 0,0 -1.34375,0.234375 -1.625,0.25 v 0.1875 c 0.390625,0 0.65625,0.03125 0.65625,0.34375 0,0.1875 -0.125,0.671875 -0.1875,0.90625 l -1.140625,4.125 c -0.0625,0.21875 -0.1875,0.71875 -0.1875,0.9375 0,0.203125 0.0625,0.515625 0.421875,0.515625 0.6875,0 1.3125,-0.9375 1.453125,-1.203125 L 2.15625,-1.171875 C 1.859375,-0.703125 1.5,-0.375 1.328125,-0.375 1.21875,-0.375 1.1875,-0.453125 1.1875,-0.5625 c 0,-0.125 0.03125,-0.234375 0.09375,-0.46875 z m 0,0"
             style="stroke:none;stroke-width:0"
             inkscape:connector-curvature="0" /></g><g
           id="g3581"
           style="fill:#000000;fill-opacity:1"><path
             id="path3579"
             transform="translate(151.791,136.259)"
             d="m 4.125,-1.25 c 0,-0.3125 -0.125,-0.59375 -0.328125,-0.796875 -0.21875,-0.1875 -0.40625,-0.265625 -0.859375,-0.375 0.359375,-0.09375 0.515625,-0.15625 0.671875,-0.3125 0.1875,-0.15625 0.28125,-0.40625 0.28125,-0.6875 0,-0.78125 -0.609375,-1.1875 -1.828125,-1.1875 H 0.125 v 0.125 c 0.578125,0.03125 0.65625,0.109375 0.65625,0.625 v 3.09375 C 0.78125,-0.25 0.703125,-0.15625 0.125,-0.125 V 0 H 2.453125 C 2.984375,0 3.484375,-0.140625 3.75,-0.390625 4,-0.609375 4.125,-0.921875 4.125,-1.25 Z m -0.796875,0 c 0,0.375 -0.140625,0.65625 -0.421875,0.8125 -0.21875,0.125 -0.515625,0.171875 -0.96875,0.171875 -0.34375,0 -0.4375,-0.0625 -0.4375,-0.28125 v -1.71875 c 0.671875,0 1,0.03125 1.25,0.140625 0.390625,0.15625 0.578125,0.4375 0.578125,0.875 z M 3.1875,-3.40625 c 0,0.546875 -0.375,0.859375 -1.03125,0.859375 H 1.5 v -1.59375 c 0,-0.15625 0.046875,-0.21875 0.15625,-0.21875 h 0.296875 c 0.8125,0 1.234375,0.34375 1.234375,0.953125 z m 0,0"
             style="stroke:none;stroke-width:0"
             inkscape:connector-curvature="0" /></g></g></g><g
       id="g3815"
       ns1:jacobian_sqrt="1.200001"
       inkscapeversion="0.92.4"
       ns1:alignment="middle center"
       ns1:scale="0.9"
       ns1:preamble="C:\\texlive\\texmf-local\\tex\\latex\\default_packages_guit.tex"
       ns1:text="$b_{\\mathrm{H}}$"
       ns1:pdfconverter="pdf2svg"
       ns1:texconverter="pdflatex"
       ns1:version="0.11.0"
       transform="matrix(1.200001,0,0,-1.200001,272.24815,885.76881)"><g
         id="g3813"><g
           id="g3807"
           style="fill:#000000;fill-opacity:1"><path
             id="path3805"
             transform="translate(148.712,134.765)"
             d="m 4.703125,-3.265625 c 0,-0.90625 -0.59375,-1.296875 -1.203125,-1.296875 -0.828125,0 -1.453125,0.78125 -1.734375,1.1875 l 1.03125,-3.765625 c 0,0 -1.34375,0.234375 -1.609375,0.25 v 0.1875 c 0.390625,0 0.640625,0.03125 0.640625,0.34375 0,0.1875 -0.09375,0.578125 -0.15625,0.8125 l -1.4375,5.09375 C 0.34375,-0.265625 1,0.125 1.640625,0.125 c 1.890625,0 3.0625,-1.875 3.0625,-3.390625 z m -0.828125,0.25 c 0,1.765625 -1.140625,2.921875 -2.171875,2.921875 -0.3125,0 -0.59375,-0.109375 -0.75,-0.3125 0.21875,-0.875 0.90625,-3.6875 2.203125,-3.6875 0.65625,0 0.71875,0.5625 0.71875,1.078125 z m 0,0"
             style="stroke:none;stroke-width:0"
             inkscape:connector-curvature="0" /></g><g
           id="g3811"
           style="fill:#000000;fill-opacity:1"><path
             id="path3809"
             transform="translate(153.724,136.259)"
             d="M 4.890625,0 V -0.125 C 4.375,-0.171875 4.28125,-0.265625 4.28125,-0.765625 v -3.09375 c 0,-0.5 0.078125,-0.578125 0.609375,-0.625 v -0.125 h -1.9375 v 0.125 c 0.53125,0.046875 0.609375,0.125 0.609375,0.625 V -2.5 H 1.453125 v -1.359375 c 0,-0.5 0.078125,-0.578125 0.609375,-0.625 v -0.125 H 0.125 v 0.125 c 0.546875,0.046875 0.625,0.125 0.625,0.625 V -0.84375 C 0.75,-0.25 0.671875,-0.171875 0.125,-0.125 V 0 H 2.0625 V -0.125 C 1.546875,-0.171875 1.453125,-0.265625 1.453125,-0.765625 V -2.1875 H 3.5625 v 1.34375 C 3.5625,-0.25 3.5,-0.171875 2.953125,-0.125 V 0 Z m 0,0"
             style="stroke:none;stroke-width:0"
             inkscape:connector-curvature="0" /></g></g></g><path
       d="M 327.93374,523.05066 199.3392,580.1604"
       style="fill:none;stroke:#000000;stroke-width:1.15340638;stroke-linecap:round;stroke-linejoin:round;stroke-miterlimit:10;stroke-dasharray:4.613628, 2.306808;stroke-dashoffset:0;stroke-opacity:1"
       id="path3825"
       inkscape:connector-curvature="0"
       sodipodi:nodetypes="cc" /><path
       sodipodi:nodetypes="cc"
       inkscape:connector-curvature="0"
       id="path3827"
       style="fill:none;stroke:#000000;stroke-width:1.15340638;stroke-linecap:round;stroke-linejoin:round;stroke-miterlimit:10;stroke-dasharray:4.613628, 2.306808;stroke-dashoffset:0;stroke-opacity:1"
       d="M 490.57696,622.06722 361.98242,679.17696" /></g></svg>