<?xml version="1.0" encoding="UTF-8" standalone="no"?>
<!-- Created with Inkscape (http://www.inkscape.org/) -->

<svg
   xmlns:ns0="http://www.iki.fi/pav/software/textext/"
   xmlns:dc="http://purl.org/dc/elements/1.1/"
   xmlns:cc="http://creativecommons.org/ns#"
   xmlns:rdf="http://www.w3.org/1999/02/22-rdf-syntax-ns#"
   xmlns:svg="http://www.w3.org/2000/svg"
   xmlns="http://www.w3.org/2000/svg"
   xmlns:sodipodi="http://sodipodi.sourceforge.net/DTD/sodipodi-0.dtd"
   xmlns:inkscape="http://www.inkscape.org/namespaces/inkscape"
   width="343.18921mm"
   height="202.87042mm"
   viewBox="0 0 343.18921 202.87042"
   version="1.1"
   id="svg8547"
   inkscape:version="0.92.2 (5c3e80d, 2017-08-06)"
   sodipodi:docname="MB336_Delta_IAS.svg">
  <sodipodi:namedview
     id="base"
     pagecolor="#ffffff"
     bordercolor="#666666"
     borderopacity="1.0"
     inkscape:pageopacity="0.0"
     inkscape:pageshadow="2"
     inkscape:zoom="0.98994949"
     inkscape:cx="485.55772"
     inkscape:cy="321.84133"
     inkscape:document-units="mm"
     inkscape:current-layer="layer2"
     showgrid="false"
     inkscape:window-width="3440"
     inkscape:window-height="1346"
     inkscape:window-x="-11"
     inkscape:window-y="-11"
     inkscape:window-maximized="1"
     fit-margin-top="0"
     fit-margin-left="0"
     fit-margin-right="0"
     fit-margin-bottom="0" />
  <defs
     id="defs8541" />
  <metadata
     id="metadata8544">
    <rdf:RDF>
      <cc:Work
         rdf:about="">
        <dc:format>image/svg+xml</dc:format>
        <dc:type
           rdf:resource="http://purl.org/dc/dcmitype/StillImage" />
        <dc:title></dc:title>
      </cc:Work>
    </rdf:RDF>
  </metadata>
  <g
     inkscape:label="Livello 2"
     id="layer2"
     inkscape:groupmode="layer"
     transform="translate(0.15650451,-10.255329)">
    <g
       transform="matrix(0.26458333,0,0,0.26458333,502.46532,-7.0357728)"
       id="g20818"
       style="display:inline">
      <path
         style="fill:#000000;fill-opacity:1;stroke:#000000;stroke-width:9;stroke-linecap:round;stroke-linejoin:round;stroke-miterlimit:4;stroke-dasharray:none;stroke-opacity:1"
         d="m -695.17903,748.99551 c 11.98854,8.03897 23.7909,9.648 35.71242,11.21369 -11.88049,2.40368 -23.87958,4.1881 -35.71239,11.21371 z"
         id="path20820"
         inkscape:connector-curvature="0"
         sodipodi:nodetypes="cccc" />
      <path
         style="fill:none;stroke:#000000;stroke-width:7;stroke-linecap:round;stroke-linejoin:round;stroke-miterlimit:4;stroke-dasharray:none;stroke-opacity:1"
         d="M -1731.9386,760.20921 H -691.96667"
         id="path20822"
         inkscape:connector-curvature="0"
         sodipodi:nodetypes="cc" />
    </g>
    <g
       style="display:inline"
       id="g9138"
       transform="matrix(0,-0.26458333,0.26458333,0,-181.78628,-163.03852)">
      <path
         sodipodi:nodetypes="cccc"
         inkscape:connector-curvature="0"
         id="path9134"
         d="m -695.17903,748.99551 c 11.98854,8.03897 23.7909,9.648 35.71242,11.21369 -11.88049,2.40368 -23.87958,4.1881 -35.71239,11.21371 z"
         style="fill:#000000;fill-opacity:1;stroke:#000000;stroke-width:9;stroke-linecap:round;stroke-linejoin:round;stroke-miterlimit:4;stroke-dasharray:none;stroke-opacity:1" />
      <path
         sodipodi:nodetypes="cc"
         inkscape:connector-curvature="0"
         id="path9136"
         d="m -1353.8259,760.20921 h 661.85923"
         style="fill:none;stroke:#000000;stroke-width:7;stroke-linecap:round;stroke-linejoin:round;stroke-miterlimit:4;stroke-dasharray:none;stroke-opacity:1" />
    </g>
    <path
       sodipodi:nodetypes="cc"
       inkscape:connector-curvature="0"
       id="path9140"
       d="m 15.501639,158.40476 h 6.740827"
       style="fill:none;stroke:#000000;stroke-width:1.58749998;stroke-linecap:round;stroke-linejoin:miter;stroke-miterlimit:4;stroke-dasharray:none;stroke-opacity:1" />
    <path
       style="fill:none;stroke:#000000;stroke-width:1.58749998;stroke-linecap:round;stroke-linejoin:miter;stroke-miterlimit:4;stroke-dasharray:none;stroke-opacity:1"
       d="m 16.303448,122.70662 h 6.740827"
       id="path9142"
       inkscape:connector-curvature="0"
       sodipodi:nodetypes="cc" />
    <path
       sodipodi:nodetypes="cc"
       inkscape:connector-curvature="0"
       id="path9144"
       d="m 16.837987,87.008472 h 6.740827"
       style="fill:none;stroke:#000000;stroke-width:1.58749998;stroke-linecap:round;stroke-linejoin:miter;stroke-miterlimit:4;stroke-dasharray:none;stroke-opacity:1" />
    <path
       style="fill:none;stroke:#000000;stroke-width:1.58749998;stroke-linecap:round;stroke-linejoin:miter;stroke-miterlimit:4;stroke-dasharray:none;stroke-opacity:1"
       d="M 16.169813,51.31032 H 22.91064"
       id="path9146"
       inkscape:connector-curvature="0"
       sodipodi:nodetypes="cc" />
    <path
       style="fill:none;stroke:#000000;stroke-width:1.58749998;stroke-linecap:round;stroke-linejoin:miter;stroke-miterlimit:4;stroke-dasharray:none;stroke-opacity:1"
       d="m 16.036178,194.10291 h 6.740827"
       id="path9148"
       inkscape:connector-curvature="0"
       sodipodi:nodetypes="cc" />
    <path
       style="fill:none;stroke:#000000;stroke-width:1.58749998;stroke-linecap:round;stroke-linejoin:miter;stroke-miterlimit:4;stroke-dasharray:none;stroke-opacity:1"
       d="m 85.367987,199.21059 v -6.74083"
       id="path9152"
       inkscape:connector-curvature="0"
       sodipodi:nodetypes="cc" />
    <path
       sodipodi:nodetypes="cc"
       inkscape:connector-curvature="0"
       id="path9154"
       d="m 174.09792,199.21059 v -6.74083"
       style="fill:none;stroke:#000000;stroke-width:1.58749998;stroke-linecap:round;stroke-linejoin:miter;stroke-miterlimit:4;stroke-dasharray:none;stroke-opacity:1" />
    <path
       style="fill:none;stroke:#000000;stroke-width:1.58749998;stroke-linecap:round;stroke-linejoin:miter;stroke-miterlimit:4;stroke-dasharray:none;stroke-opacity:1"
       d="m 262.82784,199.21059 v -6.74083"
       id="path9156"
       inkscape:connector-curvature="0"
       sodipodi:nodetypes="cc" />
    <path
       sodipodi:nodetypes="cc"
       inkscape:connector-curvature="0"
       id="path9158"
       d="m 57.074404,147.18392 c 22.720572,-0.59463 42.393197,-0.2477 58.775296,6.99257"
       style="fill:none;stroke:#000759;stroke-width:1.58749998;stroke-linecap:round;stroke-linejoin:miter;stroke-miterlimit:4;stroke-dasharray:none;stroke-opacity:1" />
    <path
       style="fill:none;stroke:#000759;stroke-width:1.58749998;stroke-linecap:round;stroke-linejoin:miter;stroke-miterlimit:4;stroke-dasharray:none;stroke-opacity:1"
       d="m 87.008592,135.15679 c 24.479168,5.44374 66.568288,-0.39988 99.041378,-10.71386 20.39405,-6.47748 45.36859,-10.40598 68.5726,-14.36717 25.46447,-4.34708 45.13918,-13.053643 66.22286,-20.043954"
       id="path9160"
       inkscape:connector-curvature="0"
       sodipodi:nodetypes="cssc" />
    <path
       style="fill:none;stroke:#000759;stroke-width:1.58749998;stroke-linecap:round;stroke-linejoin:miter;stroke-miterlimit:4;stroke-dasharray:none;stroke-opacity:1"
       d="M 110.55804,143.78213 C 164.83368,89.534983 254.58541,60.442657 326.38243,49.288097"
       id="path9162"
       inkscape:connector-curvature="0"
       sodipodi:nodetypes="cc" />
    <path
       sodipodi:nodetypes="cc"
       inkscape:connector-curvature="0"
       id="path9164"
       d="m 27.214286,158.32098 c 7.370535,0.37797 305.971714,0 305.971714,0"
       style="fill:none;stroke:#000000;stroke-width:1.05833328;stroke-linecap:round;stroke-linejoin:miter;stroke-miterlimit:4;stroke-dasharray:3.17499981, 3.17499981;stroke-dashoffset:0;stroke-opacity:1" />
    <text
       id="text9168"
       y="161.91876"
       x="5.1661677"
       style="font-style:normal;font-weight:normal;font-size:10.58333302px;line-height:1.25;font-family:sans-serif;letter-spacing:0px;word-spacing:0px;fill:#000000;fill-opacity:1;stroke:none;stroke-width:0.26458332"
       xml:space="preserve"><tspan
         style="font-style:normal;font-variant:normal;font-weight:normal;font-stretch:normal;font-family:'Times New Roman';-inkscape-font-specification:'Times New Roman, ';stroke-width:0.26458332"
         y="161.91876"
         x="5.1661677"
         id="tspan9166"
         sodipodi:role="line">0</tspan></text>
    <text
       xml:space="preserve"
       style="font-style:normal;font-variant:normal;font-weight:normal;font-stretch:normal;font-size:10.58333302px;line-height:1.25;font-family:sans-serif;-inkscape-font-specification:'sans-serif, Normal';font-variant-ligatures:normal;font-variant-caps:normal;font-variant-numeric:normal;font-feature-settings:normal;text-align:start;letter-spacing:0px;word-spacing:0px;writing-mode:lr-tb;text-anchor:start;fill:#000000;fill-opacity:1;stroke:none;stroke-width:0.26458332"
       x="-0.063486934"
       y="197.67892"
       id="text9172"><tspan
         y="197.67892"
         x="-0.063486934"
         style="font-style:normal;font-variant:normal;font-weight:normal;font-stretch:normal;font-family:'Times New Roman';-inkscape-font-specification:'Times New Roman, '"
         id="tspan9174"
         sodipodi:role="line">–2</tspan></text>
    <text
       id="text9178"
       y="126.28263"
       x="5.2281795"
       style="font-style:normal;font-variant:normal;font-weight:normal;font-stretch:normal;font-size:10.58333302px;line-height:1.25;font-family:sans-serif;-inkscape-font-specification:'sans-serif, Normal';font-variant-ligatures:normal;font-variant-caps:normal;font-variant-numeric:normal;font-feature-settings:normal;text-align:start;letter-spacing:0px;word-spacing:0px;writing-mode:lr-tb;text-anchor:start;fill:#000000;fill-opacity:1;stroke:none;stroke-width:0.26458332"
       xml:space="preserve"><tspan
         sodipodi:role="line"
         id="tspan9176"
         style="font-style:normal;font-variant:normal;font-weight:normal;font-stretch:normal;font-family:'Times New Roman';-inkscape-font-specification:'Times New Roman, '"
         x="5.2281795"
         y="126.28263">2</tspan></text>
    <text
       xml:space="preserve"
       style="font-style:normal;font-variant:normal;font-weight:normal;font-stretch:normal;font-size:10.58333302px;line-height:1.25;font-family:sans-serif;-inkscape-font-specification:'sans-serif, Normal';font-variant-ligatures:normal;font-variant-caps:normal;font-variant-numeric:normal;font-feature-settings:normal;text-align:start;letter-spacing:0px;word-spacing:0px;writing-mode:lr-tb;text-anchor:start;fill:#000000;fill-opacity:1;stroke:none;stroke-width:0.26458332"
       x="5.1558323"
       y="90.58448"
       id="text9182"><tspan
         y="90.58448"
         x="5.1558323"
         style="font-style:normal;font-variant:normal;font-weight:normal;font-stretch:normal;font-family:'Times New Roman';-inkscape-font-specification:'Times New Roman, '"
         id="tspan9180"
         sodipodi:role="line">4</tspan></text>
    <text
       id="text9186"
       y="54.824318"
       x="5.1971736"
       style="font-style:normal;font-variant:normal;font-weight:normal;font-stretch:normal;font-size:10.58333302px;line-height:1.25;font-family:sans-serif;-inkscape-font-specification:'sans-serif, Normal';font-variant-ligatures:normal;font-variant-caps:normal;font-variant-numeric:normal;font-feature-settings:normal;text-align:start;letter-spacing:0px;word-spacing:0px;writing-mode:lr-tb;text-anchor:start;fill:#000000;fill-opacity:1;stroke:none;stroke-width:0.26458332"
       xml:space="preserve"><tspan
         sodipodi:role="line"
         id="tspan9184"
         style="font-style:normal;font-variant:normal;font-weight:normal;font-stretch:normal;font-family:'Times New Roman';-inkscape-font-specification:'Times New Roman, '"
         x="5.1971736"
         y="54.824318">6</tspan></text>
    <g
       id="content"
       transform="matrix(1.2,0,0,-1.2,-151.72839,807.16333)"
       xml:space="preserve"
       stroke-miterlimit="10.433"
       font-style="normal"
       font-variant="normal"
       font-weight="normal"
       font-stretch="normal"
       font-size-adjust="none"
       letter-spacing="normal"
       word-spacing="normal"
       ns0:text="$\\Delta V_\\mathrm{IAS}$ (kt)"
       ns0:preamble="C:\\Program Files\\Inkscape\\share\\extensions\\default_packages_mt2pro.tex"
       ns0:scale="1.2"
       style="font-style:normal;font-variant:normal;font-weight:normal;font-stretch:normal;letter-spacing:normal;word-spacing:normal;text-anchor:start;display:inline;opacity:0.92000002;fill:#000000;fill-opacity:1;fill-rule:evenodd;stroke:#000000;stroke-linecap:butt;stroke-linejoin:miter;stroke-miterlimit:10.43299961;stroke-dasharray:none;stroke-dashoffset:0;stroke-opacity:1"><polygon
         points="150.17,657.78 153.67,662.82 154.8,657.78 150.17,657.78 149.29,657.23 155.82,657.23 154.3,664.09 154.09,664.09 149.29,657.23 "
         font-size-adjust="none"
         font-stretch="normal"
         font-style="normal"
         font-variant="normal"
         font-weight="normal"
         letter-spacing="normal"
         stroke-miterlimit="10.433"
         word-spacing="normal"
         style="font-style:normal;font-variant:normal;font-weight:normal;font-stretch:normal;letter-spacing:normal;word-spacing:normal;text-anchor:start;display:inline;opacity:0.92000002;fill:#000000;fill-opacity:1;fill-rule:evenodd;stroke:#000000;stroke-width:0;stroke-linecap:butt;stroke-linejoin:miter;stroke-miterlimit:10.43299961;stroke-dasharray:none;stroke-dashoffset:0;stroke-opacity:1"
         id="polygon9512" /><path
         inkscape:connector-curvature="0"
         d="m 163.95,663.77 v 0.17 h -1.91 v -0.17 c 0.21,0 0.56,-0.09 0.56,-0.36 0,-0.24 -0.25,-0.64 -0.38,-0.84 l -2.67,-3.91 -0.18,4.36 c -0.03,0.62 0.3,0.75 0.85,0.75 v 0.17 h -2.58 v -0.17 c 0.69,0 0.73,-0.3 0.82,-1.11 l 0.23,-5.57 h 0.17 l 4.04,5.89 c 0.18,0.24 0.61,0.79 1.05,0.79 z"
         font-size-adjust="none"
         font-stretch="normal"
         font-style="normal"
         font-variant="normal"
         font-weight="normal"
         letter-spacing="normal"
         stroke-miterlimit="10.433"
         word-spacing="normal"
         style="font-style:normal;font-variant:normal;font-weight:normal;font-stretch:normal;letter-spacing:normal;word-spacing:normal;text-anchor:start;display:inline;opacity:0.92000002;fill:#000000;fill-opacity:1;fill-rule:evenodd;stroke:#000000;stroke-width:0;stroke-linecap:butt;stroke-linejoin:miter;stroke-miterlimit:10.43299961;stroke-dasharray:none;stroke-dashoffset:0;stroke-opacity:1"
         id="path9514" /><path
         inkscape:connector-curvature="0"
         d="m 164.67,655.74 v 0.13 c -0.57,0.02 -0.68,0.12 -0.68,0.63 v 3.09 c 0,0.5 0.1,0.59 0.68,0.62 v 0.13 h -2.07 v -0.13 c 0.59,-0.03 0.67,-0.11 0.67,-0.62 v -3.09 c 0,-0.52 -0.09,-0.61 -0.67,-0.63 v -0.13 z"
         font-size-adjust="none"
         font-stretch="normal"
         font-style="normal"
         font-variant="normal"
         font-weight="normal"
         letter-spacing="normal"
         stroke-miterlimit="10.433"
         word-spacing="normal"
         style="font-style:normal;font-variant:normal;font-weight:normal;font-stretch:normal;letter-spacing:normal;word-spacing:normal;text-anchor:start;display:inline;opacity:0.92000002;fill:#000000;fill-opacity:1;fill-rule:evenodd;stroke:#000000;stroke-width:0;stroke-linecap:butt;stroke-linejoin:miter;stroke-miterlimit:10.43299961;stroke-dasharray:none;stroke-dashoffset:0;stroke-opacity:1"
         id="path9516" /><path
         inkscape:connector-curvature="0"
         d="m 169.73,655.74 v 0.13 c -0.32,0.02 -0.38,0.09 -0.63,0.61 l -1.74,3.95 h -0.14 l -1.46,-3.42 c -0.44,-1.01 -0.53,-1.12 -0.86,-1.14 v -0.13 h 1.38 v 0.13 c -0.33,0 -0.47,0.09 -0.47,0.29 0,0.08 0.02,0.18 0.05,0.27 l 0.32,0.81 h 1.84 l -0.1,0.29 h -1.62 l 0.81,1.91 0.81,-1.91 0.1,-0.29 0.28,-0.66 c 0.09,-0.2 0.14,-0.37 0.14,-0.48 0,-0.06 -0.05,-0.14 -0.1,-0.16 -0.09,-0.05 -0.14,-0.07 -0.39,-0.07 v -0.13 z"
         font-size-adjust="none"
         font-stretch="normal"
         font-style="normal"
         font-variant="normal"
         font-weight="normal"
         letter-spacing="normal"
         stroke-miterlimit="10.433"
         word-spacing="normal"
         style="font-style:normal;font-variant:normal;font-weight:normal;font-stretch:normal;letter-spacing:normal;word-spacing:normal;text-anchor:start;display:inline;opacity:0.92000002;fill:#000000;fill-opacity:1;fill-rule:evenodd;stroke:#000000;stroke-width:0;stroke-linecap:butt;stroke-linejoin:miter;stroke-miterlimit:10.43299961;stroke-dasharray:none;stroke-dashoffset:0;stroke-opacity:1"
         id="path9518" /><path
         inkscape:connector-curvature="0"
         d="m 173.26,656.91 v 0.05 0.06 l -0.01,0.05 -0.01,0.05 -0.01,0.05 -0.01,0.05 -0.02,0.05 -0.01,0.05 -0.02,0.05 -0.03,0.05 -0.02,0.04 -0.03,0.05 -0.03,0.05 -0.03,0.05 -0.04,0.04 -0.04,0.05 -0.04,0.05 -0.04,0.04 -0.05,0.05 -0.05,0.04 -0.05,0.05 -0.05,0.04 -0.06,0.05 -0.06,0.04 -0.07,0.05 -0.06,0.04 -0.07,0.05 -0.07,0.05 -0.08,0.04 -0.08,0.05 -0.08,0.05 -0.09,0.04 c -0.73,0.4 -1.02,0.7 -1.02,1.09 0,0.38 0.29,0.64 0.72,0.64 0.32,0 0.61,-0.14 0.86,-0.39 0.21,-0.22 0.31,-0.4 0.42,-0.81 h 0.18 l -0.16,1.48 h -0.14 c -0.03,-0.15 -0.11,-0.23 -0.23,-0.23 -0.07,0 -0.18,0.02 -0.3,0.08 -0.26,0.1 -0.52,0.15 -0.76,0.15 -0.27,0 -0.57,-0.11 -0.79,-0.29 -0.27,-0.22 -0.41,-0.52 -0.41,-0.9 0,-0.55 0.31,-0.94 1.1,-1.35 0.5,-0.27 0.86,-0.55 1.04,-0.82 0.06,-0.09 0.09,-0.23 0.09,-0.41 0,-0.46 -0.34,-0.78 -0.85,-0.78 -0.63,0 -1.07,0.39 -1.42,1.24 h -0.16 l 0.21,-1.48 h 0.16 c 0,0.13 0.09,0.23 0.19,0.23 0.08,0 0.2,-0.03 0.33,-0.08 0.27,-0.1 0.54,-0.16 0.83,-0.16 0.81,0 1.42,0.55 1.42,1.27 z"
         font-size-adjust="none"
         font-stretch="normal"
         font-style="normal"
         font-variant="normal"
         font-weight="normal"
         letter-spacing="normal"
         stroke-miterlimit="10.433"
         word-spacing="normal"
         style="font-style:normal;font-variant:normal;font-weight:normal;font-stretch:normal;letter-spacing:normal;word-spacing:normal;text-anchor:start;display:inline;opacity:0.92000002;fill:#000000;fill-opacity:1;fill-rule:evenodd;stroke:#000000;stroke-width:0;stroke-linecap:butt;stroke-linejoin:miter;stroke-miterlimit:10.43299961;stroke-dasharray:none;stroke-dashoffset:0;stroke-opacity:1"
         id="path9520" /><path
         inkscape:connector-curvature="0"
         d="m 179.73,655.64 -0.08,0.05 -0.07,0.06 -0.07,0.06 -0.06,0.05 -0.06,0.05 -0.06,0.05 -0.06,0.05 -0.05,0.05 -0.06,0.05 -0.05,0.05 -0.04,0.05 -0.05,0.05 -0.04,0.05 -0.05,0.04 -0.04,0.05 -0.04,0.05 -0.07,0.1 -0.07,0.1 -0.06,0.1 -0.06,0.11 -0.03,0.06 -0.02,0.05 -0.03,0.06 -0.03,0.06 -0.02,0.06 -0.03,0.07 -0.03,0.07 -0.02,0.06 c -0.24,0.67 -0.35,1.43 -0.35,2.42 0,1.04 0.13,1.86 0.4,2.47 0.28,0.62 0.58,0.98 1.3,1.55 l -0.09,0.16 c -0.74,-0.48 -1.04,-0.73 -1.41,-1.19 -0.71,-0.87 -1.06,-1.86 -1.06,-3.02 0,-1.26 0.37,-2.24 1.25,-3.25 0.41,-0.48 0.67,-0.7 1.19,-1.01 z"
         font-size-adjust="none"
         font-stretch="normal"
         font-style="normal"
         font-variant="normal"
         font-weight="normal"
         letter-spacing="normal"
         stroke-miterlimit="10.433"
         word-spacing="normal"
         style="font-style:normal;font-variant:normal;font-weight:normal;font-stretch:normal;letter-spacing:normal;word-spacing:normal;text-anchor:start;display:inline;opacity:0.92000002;fill:#000000;fill-opacity:1;fill-rule:evenodd;stroke:#000000;stroke-width:0;stroke-linecap:butt;stroke-linejoin:miter;stroke-miterlimit:10.43299961;stroke-dasharray:none;stroke-dashoffset:0;stroke-opacity:1"
         id="path9522" /><path
         inkscape:connector-curvature="0"
         d="m 185.05,657.23 v 0.15 c -0.44,0.03 -0.75,0.22 -1.17,0.73 l -1.53,1.93 0.29,0.26 c 0.71,0.66 1.33,1.12 1.62,1.2 0.15,0.04 0.29,0.06 0.46,0.06 h 0.08 v 0.15 h -2.04 v -0.14 c 0.39,-0.01 0.5,-0.05 0.5,-0.19 0,-0.08 -0.09,-0.22 -0.23,-0.34 l -1.36,-1.21 V 664 l -0.04,0.02 -1.25,-0.36 -0.3,-0.08 v -0.16 c 0.13,0.01 0.22,0.02 0.32,0.02 0.33,0 0.43,-0.12 0.43,-0.6 v -4.79 c 0,-0.52 -0.03,-0.55 -0.75,-0.67 v -0.15 h 2.33 v 0.15 l -0.2,0.01 c -0.39,0.02 -0.54,0.16 -0.54,0.51 v 1.83 l 1.39,-1.86 0.03,-0.04 c 0.02,-0.03 0.04,-0.06 0.07,-0.09 0.08,-0.1 0.11,-0.16 0.11,-0.21 0,-0.09 -0.09,-0.15 -0.21,-0.15 h -0.19 v -0.15 z"
         font-size-adjust="none"
         font-stretch="normal"
         font-style="normal"
         font-variant="normal"
         font-weight="normal"
         letter-spacing="normal"
         stroke-miterlimit="10.433"
         word-spacing="normal"
         style="font-style:normal;font-variant:normal;font-weight:normal;font-stretch:normal;letter-spacing:normal;word-spacing:normal;text-anchor:start;display:inline;opacity:0.92000002;fill:#000000;fill-opacity:1;fill-rule:evenodd;stroke:#000000;stroke-width:0;stroke-linecap:butt;stroke-linejoin:miter;stroke-miterlimit:10.43299961;stroke-dasharray:none;stroke-dashoffset:0;stroke-opacity:1"
         id="path9524" /><path
         inkscape:connector-curvature="0"
         d="m 187.77,657.89 -0.12,0.11 c -0.22,-0.26 -0.38,-0.35 -0.6,-0.35 -0.37,0 -0.52,0.26 -0.52,0.9 v 2.84 h 1.01 v 0.32 h -1.01 v 1.15 c 0,0.1 -0.02,0.13 -0.07,0.13 -0.06,-0.1 -0.13,-0.19 -0.2,-0.28 -0.37,-0.55 -0.71,-0.92 -0.97,-1.06 -0.11,-0.07 -0.17,-0.13 -0.17,-0.19 0,-0.03 0.01,-0.05 0.04,-0.07 h 0.53 v -2.99 c 0,-0.84 0.3,-1.26 0.88,-1.26 0.5,0 0.88,0.23 1.2,0.75 z"
         font-size-adjust="none"
         font-stretch="normal"
         font-style="normal"
         font-variant="normal"
         font-weight="normal"
         letter-spacing="normal"
         stroke-miterlimit="10.433"
         word-spacing="normal"
         style="font-style:normal;font-variant:normal;font-weight:normal;font-stretch:normal;letter-spacing:normal;word-spacing:normal;text-anchor:start;display:inline;opacity:0.92000002;fill:#000000;fill-opacity:1;fill-rule:evenodd;stroke:#000000;stroke-width:0;stroke-linecap:butt;stroke-linejoin:miter;stroke-miterlimit:10.43299961;stroke-dasharray:none;stroke-dashoffset:0;stroke-opacity:1"
         id="path9526" /><path
         inkscape:connector-curvature="0"
         d="m 190.6,659.69 v 0.12 0.11 l -0.01,0.12 v 0.11 l -0.01,0.11 -0.02,0.11 -0.01,0.11 -0.02,0.11 -0.02,0.11 -0.02,0.1 -0.02,0.11 -0.03,0.1 -0.03,0.1 -0.03,0.1 -0.03,0.1 -0.04,0.1 -0.04,0.1 -0.04,0.1 -0.04,0.09 -0.05,0.1 -0.05,0.1 -0.05,0.09 -0.06,0.1 -0.06,0.09 -0.06,0.1 -0.06,0.09 -0.07,0.09 -0.07,0.1 -0.07,0.09 -0.07,0.1 -0.08,0.09 -0.08,0.1 c -0.41,0.47 -0.67,0.69 -1.19,1.01 l -0.12,-0.16 c 0.8,-0.63 1.07,-0.97 1.35,-1.72 0.24,-0.66 0.35,-1.42 0.35,-2.41 0,-1.03 -0.13,-1.86 -0.4,-2.46 -0.28,-0.63 -0.58,-0.99 -1.3,-1.56 l 0.09,-0.16 c 0.74,0.47 1.04,0.73 1.41,1.19 0.71,0.86 1.05,1.86 1.05,3.02 z"
         font-size-adjust="none"
         font-stretch="normal"
         font-style="normal"
         font-variant="normal"
         font-weight="normal"
         letter-spacing="normal"
         stroke-miterlimit="10.433"
         word-spacing="normal"
         style="font-style:normal;font-variant:normal;font-weight:normal;font-stretch:normal;letter-spacing:normal;word-spacing:normal;text-anchor:start;display:inline;opacity:0.92000002;fill:#000000;fill-opacity:1;fill-rule:evenodd;stroke:#000000;stroke-width:0;stroke-linecap:butt;stroke-linejoin:miter;stroke-miterlimit:10.43299961;stroke-dasharray:none;stroke-dashoffset:0;stroke-opacity:1"
         id="path9528" /></g>    <g
       style="font-style:normal;font-variant:normal;font-weight:normal;font-stretch:normal;letter-spacing:normal;word-spacing:normal;text-anchor:start;display:inline;opacity:0.92000002;fill:#000000;fill-opacity:1;fill-rule:evenodd;stroke:#000000;stroke-linecap:butt;stroke-linejoin:miter;stroke-miterlimit:10.43299961;stroke-dasharray:none;stroke-dashoffset:0;stroke-opacity:1"
       ns0:scale="1.2"
       ns0:preamble="C:\\Program Files\\Inkscape\\share\\extensions\\default_packages_mt2pro.tex"
       ns0:text="$V_\\mathrm{IAS}$ (kt)"
       word-spacing="normal"
       letter-spacing="normal"
       font-size-adjust="none"
       font-stretch="normal"
       font-weight="normal"
       font-variant="normal"
       font-style="normal"
       stroke-miterlimit="10.433"
       xml:space="preserve"
       transform="matrix(1.2,0,0,-1.2,123.78069,999.70175)"
       id="g9655"><path
         id="path9639"
         style="font-style:normal;font-variant:normal;font-weight:normal;font-stretch:normal;letter-spacing:normal;word-spacing:normal;text-anchor:start;display:inline;opacity:0.92000002;fill:#000000;fill-opacity:1;fill-rule:evenodd;stroke:#000000;stroke-width:0;stroke-linecap:butt;stroke-linejoin:miter;stroke-miterlimit:10.43299961;stroke-dasharray:none;stroke-dashoffset:0;stroke-opacity:1"
         word-spacing="normal"
         stroke-miterlimit="10.433"
         letter-spacing="normal"
         font-weight="normal"
         font-variant="normal"
         font-style="normal"
         font-stretch="normal"
         font-size-adjust="none"
         d="m 156.06,663.77 v 0.17 h -1.91 v -0.17 c 0.21,0 0.56,-0.09 0.56,-0.36 0,-0.24 -0.25,-0.64 -0.38,-0.84 l -2.67,-3.91 -0.19,4.36 c -0.03,0.62 0.31,0.75 0.86,0.75 v 0.17 h -2.58 v -0.17 c 0.69,0 0.73,-0.3 0.82,-1.11 l 0.23,-5.57 h 0.17 l 4.03,5.89 c 0.19,0.24 0.62,0.79 1.06,0.79 z"
         inkscape:connector-curvature="0" /><path
         id="path9641"
         style="font-style:normal;font-variant:normal;font-weight:normal;font-stretch:normal;letter-spacing:normal;word-spacing:normal;text-anchor:start;display:inline;opacity:0.92000002;fill:#000000;fill-opacity:1;fill-rule:evenodd;stroke:#000000;stroke-width:0;stroke-linecap:butt;stroke-linejoin:miter;stroke-miterlimit:10.43299961;stroke-dasharray:none;stroke-dashoffset:0;stroke-opacity:1"
         word-spacing="normal"
         stroke-miterlimit="10.433"
         letter-spacing="normal"
         font-weight="normal"
         font-variant="normal"
         font-style="normal"
         font-stretch="normal"
         font-size-adjust="none"
         d="m 156.78,655.74 v 0.13 c -0.57,0.02 -0.68,0.12 -0.68,0.63 v 3.09 c 0,0.5 0.1,0.59 0.68,0.62 v 0.13 h -2.07 v -0.13 c 0.59,-0.03 0.67,-0.11 0.67,-0.62 v -3.09 c 0,-0.52 -0.09,-0.61 -0.67,-0.63 v -0.13 z"
         inkscape:connector-curvature="0" /><path
         id="path9643"
         style="font-style:normal;font-variant:normal;font-weight:normal;font-stretch:normal;letter-spacing:normal;word-spacing:normal;text-anchor:start;display:inline;opacity:0.92000002;fill:#000000;fill-opacity:1;fill-rule:evenodd;stroke:#000000;stroke-width:0;stroke-linecap:butt;stroke-linejoin:miter;stroke-miterlimit:10.43299961;stroke-dasharray:none;stroke-dashoffset:0;stroke-opacity:1"
         word-spacing="normal"
         stroke-miterlimit="10.433"
         letter-spacing="normal"
         font-weight="normal"
         font-variant="normal"
         font-style="normal"
         font-stretch="normal"
         font-size-adjust="none"
         d="m 161.84,655.74 v 0.13 c -0.32,0.02 -0.39,0.09 -0.63,0.61 l -1.74,3.95 h -0.14 l -1.46,-3.42 c -0.44,-1.01 -0.53,-1.12 -0.86,-1.14 v -0.13 h 1.38 v 0.13 c -0.33,0 -0.47,0.09 -0.47,0.29 0,0.08 0.02,0.18 0.05,0.27 l 0.32,0.81 h 1.84 l -0.1,0.29 h -1.62 l 0.81,1.91 0.81,-1.91 0.1,-0.29 0.28,-0.66 c 0.09,-0.2 0.13,-0.37 0.13,-0.48 0,-0.06 -0.04,-0.14 -0.09,-0.16 -0.09,-0.05 -0.14,-0.07 -0.39,-0.07 v -0.13 z"
         inkscape:connector-curvature="0" /><path
         id="path9645"
         style="font-style:normal;font-variant:normal;font-weight:normal;font-stretch:normal;letter-spacing:normal;word-spacing:normal;text-anchor:start;display:inline;opacity:0.92000002;fill:#000000;fill-opacity:1;fill-rule:evenodd;stroke:#000000;stroke-width:0;stroke-linecap:butt;stroke-linejoin:miter;stroke-miterlimit:10.43299961;stroke-dasharray:none;stroke-dashoffset:0;stroke-opacity:1"
         word-spacing="normal"
         stroke-miterlimit="10.433"
         letter-spacing="normal"
         font-weight="normal"
         font-variant="normal"
         font-style="normal"
         font-stretch="normal"
         font-size-adjust="none"
         d="m 165.37,656.91 v 0.05 0.06 l -0.01,0.05 -0.01,0.05 -0.01,0.05 -0.01,0.05 -0.02,0.05 -0.01,0.05 -0.02,0.05 -0.03,0.05 -0.02,0.04 -0.03,0.05 -0.03,0.05 -0.03,0.05 -0.04,0.04 -0.04,0.05 -0.04,0.05 -0.04,0.04 -0.05,0.05 -0.05,0.04 -0.05,0.05 -0.05,0.04 -0.06,0.05 -0.06,0.04 -0.07,0.05 -0.06,0.04 -0.07,0.05 -0.08,0.05 -0.07,0.04 -0.08,0.05 -0.08,0.05 -0.09,0.04 c -0.73,0.4 -1.02,0.7 -1.02,1.09 0,0.38 0.29,0.64 0.72,0.64 0.32,0 0.61,-0.14 0.86,-0.39 0.21,-0.22 0.31,-0.4 0.42,-0.81 h 0.18 l -0.16,1.48 h -0.14 c -0.03,-0.15 -0.11,-0.23 -0.23,-0.23 -0.07,0 -0.18,0.02 -0.31,0.08 -0.25,0.1 -0.51,0.15 -0.75,0.15 -0.27,0 -0.57,-0.11 -0.79,-0.29 -0.27,-0.22 -0.41,-0.52 -0.41,-0.9 0,-0.55 0.31,-0.94 1.09,-1.35 0.51,-0.27 0.87,-0.55 1.05,-0.82 0.06,-0.09 0.09,-0.23 0.09,-0.41 0,-0.46 -0.34,-0.78 -0.86,-0.78 -0.62,0 -1.06,0.39 -1.41,1.24 h -0.16 l 0.21,-1.48 h 0.16 c 0,0.13 0.09,0.23 0.19,0.23 0.08,0 0.2,-0.03 0.33,-0.08 0.26,-0.1 0.54,-0.16 0.82,-0.16 0.82,0 1.43,0.55 1.43,1.27 z"
         inkscape:connector-curvature="0" /><path
         id="path9647"
         style="font-style:normal;font-variant:normal;font-weight:normal;font-stretch:normal;letter-spacing:normal;word-spacing:normal;text-anchor:start;display:inline;opacity:0.92000002;fill:#000000;fill-opacity:1;fill-rule:evenodd;stroke:#000000;stroke-width:0;stroke-linecap:butt;stroke-linejoin:miter;stroke-miterlimit:10.43299961;stroke-dasharray:none;stroke-dashoffset:0;stroke-opacity:1"
         word-spacing="normal"
         stroke-miterlimit="10.433"
         letter-spacing="normal"
         font-weight="normal"
         font-variant="normal"
         font-style="normal"
         font-stretch="normal"
         font-size-adjust="none"
         d="m 171.84,655.64 -0.08,0.05 -0.07,0.06 -0.07,0.06 -0.06,0.05 -0.06,0.05 -0.06,0.05 -0.06,0.05 -0.05,0.05 -0.06,0.05 -0.05,0.05 -0.04,0.05 -0.05,0.05 -0.04,0.05 -0.05,0.04 -0.04,0.05 -0.04,0.05 -0.07,0.1 -0.07,0.1 -0.06,0.1 -0.06,0.11 -0.03,0.06 -0.02,0.05 -0.03,0.06 -0.03,0.06 -0.02,0.06 -0.03,0.07 -0.03,0.07 -0.02,0.06 c -0.24,0.67 -0.35,1.43 -0.35,2.42 0,1.04 0.13,1.86 0.4,2.47 0.28,0.62 0.58,0.98 1.3,1.55 l -0.09,0.16 c -0.74,-0.48 -1.04,-0.73 -1.41,-1.19 -0.71,-0.87 -1.06,-1.86 -1.06,-3.02 0,-1.26 0.37,-2.24 1.25,-3.25 0.41,-0.48 0.67,-0.7 1.19,-1.01 z"
         inkscape:connector-curvature="0" /><path
         id="path9649"
         style="font-style:normal;font-variant:normal;font-weight:normal;font-stretch:normal;letter-spacing:normal;word-spacing:normal;text-anchor:start;display:inline;opacity:0.92000002;fill:#000000;fill-opacity:1;fill-rule:evenodd;stroke:#000000;stroke-width:0;stroke-linecap:butt;stroke-linejoin:miter;stroke-miterlimit:10.43299961;stroke-dasharray:none;stroke-dashoffset:0;stroke-opacity:1"
         word-spacing="normal"
         stroke-miterlimit="10.433"
         letter-spacing="normal"
         font-weight="normal"
         font-variant="normal"
         font-style="normal"
         font-stretch="normal"
         font-size-adjust="none"
         d="m 177.16,657.23 v 0.15 c -0.44,0.03 -0.75,0.22 -1.17,0.73 l -1.53,1.93 0.29,0.26 c 0.71,0.66 1.33,1.12 1.62,1.2 0.15,0.04 0.29,0.06 0.46,0.06 h 0.08 v 0.15 h -2.04 v -0.14 c 0.39,-0.01 0.5,-0.05 0.5,-0.19 0,-0.08 -0.09,-0.22 -0.23,-0.34 l -1.36,-1.21 V 664 l -0.04,0.02 -1.25,-0.36 -0.3,-0.08 v -0.16 c 0.13,0.01 0.22,0.02 0.32,0.02 0.33,0 0.43,-0.12 0.43,-0.6 v -4.79 c 0,-0.52 -0.03,-0.55 -0.75,-0.67 v -0.15 h 2.33 v 0.15 l -0.2,0.01 c -0.39,0.02 -0.54,0.16 -0.54,0.51 v 1.83 l 1.39,-1.86 0.03,-0.04 c 0.02,-0.03 0.04,-0.06 0.07,-0.09 0.08,-0.1 0.11,-0.16 0.11,-0.21 0,-0.09 -0.09,-0.15 -0.21,-0.15 h -0.19 v -0.15 z"
         inkscape:connector-curvature="0" /><path
         id="path9651"
         style="font-style:normal;font-variant:normal;font-weight:normal;font-stretch:normal;letter-spacing:normal;word-spacing:normal;text-anchor:start;display:inline;opacity:0.92000002;fill:#000000;fill-opacity:1;fill-rule:evenodd;stroke:#000000;stroke-width:0;stroke-linecap:butt;stroke-linejoin:miter;stroke-miterlimit:10.43299961;stroke-dasharray:none;stroke-dashoffset:0;stroke-opacity:1"
         word-spacing="normal"
         stroke-miterlimit="10.433"
         letter-spacing="normal"
         font-weight="normal"
         font-variant="normal"
         font-style="normal"
         font-stretch="normal"
         font-size-adjust="none"
         d="m 179.88,657.89 -0.12,0.11 c -0.22,-0.26 -0.38,-0.35 -0.6,-0.35 -0.37,0 -0.52,0.26 -0.52,0.9 v 2.84 h 1.01 v 0.32 h -1.01 v 1.15 c 0,0.1 -0.02,0.13 -0.07,0.13 -0.06,-0.1 -0.13,-0.19 -0.2,-0.28 -0.37,-0.55 -0.71,-0.92 -0.97,-1.06 -0.11,-0.07 -0.17,-0.13 -0.17,-0.19 0,-0.03 0.01,-0.05 0.04,-0.07 h 0.53 v -2.99 c 0,-0.84 0.3,-1.26 0.88,-1.26 0.5,0 0.88,0.23 1.2,0.75 z"
         inkscape:connector-curvature="0" /><path
         id="path9653"
         style="font-style:normal;font-variant:normal;font-weight:normal;font-stretch:normal;letter-spacing:normal;word-spacing:normal;text-anchor:start;display:inline;opacity:0.92000002;fill:#000000;fill-opacity:1;fill-rule:evenodd;stroke:#000000;stroke-width:0;stroke-linecap:butt;stroke-linejoin:miter;stroke-miterlimit:10.43299961;stroke-dasharray:none;stroke-dashoffset:0;stroke-opacity:1"
         word-spacing="normal"
         stroke-miterlimit="10.433"
         letter-spacing="normal"
         font-weight="normal"
         font-variant="normal"
         font-style="normal"
         font-stretch="normal"
         font-size-adjust="none"
         d="m 182.71,659.69 v 0.12 0.11 l -0.01,0.12 v 0.11 l -0.01,0.11 -0.02,0.11 -0.01,0.11 -0.02,0.11 -0.02,0.11 -0.02,0.1 -0.02,0.11 -0.03,0.1 -0.03,0.1 -0.03,0.1 -0.03,0.1 -0.04,0.1 -0.04,0.1 -0.04,0.1 -0.04,0.09 -0.05,0.1 -0.05,0.1 -0.05,0.09 -0.06,0.1 -0.06,0.09 -0.06,0.1 -0.06,0.09 -0.07,0.09 -0.07,0.1 -0.07,0.09 -0.07,0.1 -0.08,0.09 -0.08,0.1 c -0.41,0.47 -0.67,0.69 -1.19,1.01 l -0.12,-0.16 c 0.8,-0.63 1.07,-0.97 1.35,-1.72 0.24,-0.66 0.35,-1.42 0.35,-2.41 0,-1.03 -0.13,-1.86 -0.4,-2.46 -0.28,-0.63 -0.58,-0.99 -1.3,-1.56 l 0.09,-0.16 c 0.74,0.47 1.04,0.73 1.41,1.19 0.71,0.86 1.05,1.86 1.05,3.02 z"
         inkscape:connector-curvature="0" /></g>    <text
       xml:space="preserve"
       style="font-style:normal;font-weight:normal;font-size:10.58333302px;line-height:1.25;font-family:sans-serif;letter-spacing:0px;word-spacing:0px;fill:#000000;fill-opacity:1;stroke:none;stroke-width:0.26458332"
       x="76.998985"
       y="211.51575"
       id="text9713"><tspan
         sodipodi:role="line"
         id="tspan9711"
         x="76.998985"
         y="211.51575"
         style="font-style:normal;font-variant:normal;font-weight:normal;font-stretch:normal;font-family:'Times New Roman';-inkscape-font-specification:'Times New Roman, ';stroke-width:0.26458332">100</tspan></text>
    <text
       id="text9717"
       y="211.51575"
       x="166.23535"
       style="font-style:normal;font-weight:normal;font-size:10.58333302px;line-height:1.25;font-family:sans-serif;letter-spacing:0px;word-spacing:0px;fill:#000000;fill-opacity:1;stroke:none;stroke-width:0.26458332"
       xml:space="preserve"><tspan
         style="font-style:normal;font-variant:normal;font-weight:normal;font-stretch:normal;font-family:'Times New Roman';-inkscape-font-specification:'Times New Roman, ';stroke-width:0.26458332"
         y="211.51575"
         x="166.23535"
         id="tspan9715"
         sodipodi:role="line">200</tspan></text>
    <text
       xml:space="preserve"
       style="font-style:normal;font-weight:normal;font-size:10.58333302px;line-height:1.25;font-family:sans-serif;letter-spacing:0px;word-spacing:0px;fill:#000000;fill-opacity:1;stroke:none;stroke-width:0.26458332"
       x="254.8645"
       y="211.51575"
       id="text9721"><tspan
         sodipodi:role="line"
         id="tspan9719"
         x="254.8645"
         y="211.51575"
         style="font-style:normal;font-variant:normal;font-weight:normal;font-stretch:normal;font-family:'Times New Roman';-inkscape-font-specification:'Times New Roman, ';stroke-width:0.26458332">300</tspan></text>
    <text
       id="text9725"
       y="142.31985"
       x="31.563166"
       style="font-style:normal;font-weight:normal;font-size:10.58333302px;line-height:1.25;font-family:sans-serif;letter-spacing:0px;word-spacing:0px;fill:#000000;fill-opacity:1;stroke:none;stroke-width:0.26458332"
       xml:space="preserve"><tspan
         style="font-style:normal;font-variant:normal;font-weight:normal;font-stretch:normal;font-size:12.69999981px;font-family:'Times New Roman';-inkscape-font-specification:'Times New Roman, ';stroke-width:0.26458332"
         y="142.31985"
         x="31.563166"
         id="tspan9723"
         sodipodi:role="line">take-off</tspan></text>
    <text
       xml:space="preserve"
       style="font-style:normal;font-weight:normal;font-size:10.58333302px;line-height:1.25;font-family:sans-serif;letter-spacing:0px;word-spacing:0px;fill:#000000;fill-opacity:1;stroke:none;stroke-width:0.26458332"
       x="250.45691"
       y="100.89308"
       id="text9729"><tspan
         sodipodi:role="line"
         id="tspan9727"
         x="250.45691"
         y="100.89308"
         style="font-style:normal;font-variant:normal;font-weight:normal;font-stretch:normal;font-size:12.69999981px;font-family:'Times New Roman';-inkscape-font-specification:'Times New Roman, ';stroke-width:0.26458332">cruise</tspan></text>
    <text
       id="text9733"
       y="58.397221"
       x="159.85254"
       style="font-style:normal;font-weight:normal;font-size:10.58333302px;line-height:1.25;font-family:sans-serif;letter-spacing:0px;word-spacing:0px;fill:#000000;fill-opacity:1;stroke:none;stroke-width:0.26458332"
       xml:space="preserve"><tspan
         style="font-style:normal;font-variant:normal;font-weight:normal;font-stretch:normal;font-size:12.69999981px;font-family:'Times New Roman';-inkscape-font-specification:'Times New Roman, ';stroke-width:0.26458332"
         y="58.397221"
         x="159.85254"
         id="tspan9731"
         sodipodi:role="line">speedbrake deployed</tspan></text>
  </g>
</svg>
