<?xml version="1.0" encoding="UTF-8" standalone="no"?>
<!-- Created with Inkscape (http://www.inkscape.org/) -->

<svg
   xmlns:ns1="http://www.iki.fi/pav/software/textext/"
   xmlns:dc="http://purl.org/dc/elements/1.1/"
   xmlns:cc="http://creativecommons.org/ns#"
   xmlns:rdf="http://www.w3.org/1999/02/22-rdf-syntax-ns#"
   xmlns:svg="http://www.w3.org/2000/svg"
   xmlns="http://www.w3.org/2000/svg"
   xmlns:sodipodi="http://sodipodi.sourceforge.net/DTD/sodipodi-0.dtd"
   xmlns:inkscape="http://www.inkscape.org/namespaces/inkscape"
   version="1.1"
   id="svg2"
   xml:space="preserve"
   width="760.93103"
   height="678.03809"
   viewBox="0 0 760.93103 678.03809"
   sodipodi:docname="wing_fuselage_htail_definitions_1.svg"
   inkscape:version="0.92.4 (5da689c313, 2019-01-14)"><metadata
     id="metadata8"><rdf:RDF><cc:Work
         rdf:about=""><dc:format>image/svg+xml</dc:format><dc:type
           rdf:resource="http://purl.org/dc/dcmitype/StillImage" /><dc:title></dc:title></cc:Work></rdf:RDF></metadata><defs
     id="defs6"><clipPath
       clipPathUnits="userSpaceOnUse"
       id="clipPath94"><path
         d="m 600,6417 v 0 z"
         id="path92"
         inkscape:connector-curvature="0" /></clipPath><clipPath
       clipPathUnits="userSpaceOnUse"
       id="clipPath182"><path
         d="m 600,6417 v 0 z"
         id="path180"
         inkscape:connector-curvature="0" /></clipPath><clipPath
       clipPathUnits="userSpaceOnUse"
       id="clipPath206"><path
         d="m 600,6417 v 0 z"
         id="path204"
         inkscape:connector-curvature="0" /></clipPath><clipPath
       clipPathUnits="userSpaceOnUse"
       id="clipPath242"><path
         d="m 2314.3,-4544.93 v 0 z"
         id="path240"
         inkscape:connector-curvature="0" /></clipPath></defs><sodipodi:namedview
     pagecolor="#ffffff"
     bordercolor="#666666"
     borderopacity="1"
     objecttolerance="10"
     gridtolerance="10"
     guidetolerance="10"
     inkscape:pageopacity="0"
     inkscape:pageshadow="2"
     inkscape:window-width="2215"
     inkscape:window-height="1334"
     id="namedview4"
     showgrid="false"
     inkscape:zoom="1.1442198"
     inkscape:cx="742.39005"
     inkscape:cy="220.4449"
     inkscape:window-x="1213"
     inkscape:window-y="0"
     inkscape:window-maximized="0"
     inkscape:current-layer="g10"
     fit-margin-top="5"
     fit-margin-left="5"
     fit-margin-right="5"
     fit-margin-bottom="5" /><g
     id="g10"
     inkscape:groupmode="layer"
     inkscape:label="wing_fuselage_htail_definitions_1"
     transform="matrix(1.3333333,0,0,-1.3333333,-76.428961,1181.0425)"><g
       id="g88"
       transform="scale(0.12)"><g
         clip-path="url(#clipPath94)"
         id="g90"><g
           transform="matrix(685,0,0,-4,-176.1,4830.9)"
           id="g96"><rect
             id="rect98"
             style="fill:#000000;fill-opacity:1;fill-rule:nonzero"
             transform="matrix(1,0,0,-1,0,1)"
             height="1"
             width="1"
             y="0"
             x="0" /></g></g></g><g
       id="g176"
       transform="scale(0.12)"><g
         clip-path="url(#clipPath182)"
         id="g178" /></g><g
       id="g200"
       transform="scale(0.12)"><g
         clip-path="url(#clipPath206)"
         id="g202" /></g><g
       id="g236"
       transform="scale(0.12)"><g
         clip-path="url(#clipPath242)"
         id="g238" /></g><path
       inkscape:connector-curvature="0"
       id="path14"
       style="fill:none;stroke:#a0a0a0;stroke-width:2.68222737;stroke-linecap:round;stroke-linejoin:round;stroke-miterlimit:10;stroke-dasharray:none;stroke-opacity:1"
       d="m 184.45679,438.9091 c 0,0 -46.89722,0.51545 -64.77832,6.22297 -15.48357,4.94271 -21.263253,8.59123 -23.333256,10.89123 -2.164176,2.40588 -3.375613,3.88813 -3.069689,7.15634 0.360255,3.83102 2.762233,5.60164 8.289905,9.33514 5.52404,3.7335 6.14007,3.42145 6.14007,3.42145 0,0 4.9122,6.84568 11.3575,9.6458 6.4474,2.80013 11.32769,4.69056 28.85982,6.22436 17.80517,1.5547 35.61174,1.24264 46.66457,1.24264 11.05144,0 236.69833,0 236.69833,0 0,0 48.81273,-2.17601 77.05638,-4.04276 27.81597,-1.83889 51.25343,-1.16881 50.84386,-7.70522 -0.0529,-2.51315 0.15882,-5.62533 -0.2828,-7.61467 -0.17413,-1.83053 -5.43029,-4.59583 -10.03587,-6.46258 -11.47215,-4.65155 -54.9521,-21.78107 -92.71478,-24.5798 -37.76129,-2.80152 -52.49608,-3.7349 -66.31282,-3.7349 -13.81395,0 -205.3829,0 -205.3829,0 z" /><path
       inkscape:connector-curvature="0"
       id="path16"
       style="fill:none;stroke:#7d7d7d;stroke-width:2.68222737;stroke-linecap:round;stroke-linejoin:round;stroke-miterlimit:10;stroke-dasharray:none;stroke-opacity:1"
       d="m 346.85708,468.37171 c 0,0 -65.39894,12.46404 -92.09068,13.87107 -8.61213,0.45415 -17.72159,1.44743 -17.81632,-4.03162 -0.0766,-4.32139 8.92279,-5.57796 17.13927,-6.88051 18.12002,-2.87396 51.73405,-2.69286 66.962,-2.7444 11.17264,-0.0362 25.80573,-0.21454 25.80573,-0.21454 z" /><path
       inkscape:connector-curvature="0"
       id="path18"
       style="fill:none;stroke:#000000;stroke-width:1.34111083;stroke-linecap:round;stroke-linejoin:miter;stroke-miterlimit:10;stroke-dasharray:10.72889506, 5.36444056;stroke-dashoffset:80.86540222;stroke-opacity:1"
       d="M 61.751828,462.04009 H 620.11446" /><path
       inkscape:connector-curvature="0"
       id="path20"
       style="fill:none;stroke:#7d7d7d;stroke-width:2.68222737;stroke-linecap:round;stroke-linejoin:round;stroke-miterlimit:10;stroke-dasharray:none;stroke-opacity:1"
       d="m 559.00904,732.72859 c 0.0334,-3.29746 -8.38505,-7.05743 -20.53146,-9.1011 -68.56545,-11.53345 -71.74589,-13.63703 -107.39246,-15.3575 h -236.8056 c -11.05701,0 -28.87194,-0.24937 -46.68547,0.99746 -17.53909,1.23149 -32.04318,6.19231 -38.08839,9.3435 -5.76839,3.00769 -16.484375,8.65531 -16.582867,14.11764 0.09849,5.46234 10.814477,11.10856 16.582867,14.11626 6.04521,3.15257 20.5493,8.11339 38.08839,9.3435 17.81353,1.24821 35.62846,0.99745 46.68547,0.99745 h 236.8056 c 36.11325,-2.24427 37.73064,-4.12914 107.39246,-14.57597 12.10322,-1.82496 20.49663,-6.61721 20.53146,-9.88124 z" /><path
       inkscape:connector-curvature="0"
       id="path22"
       style="fill:none;stroke:#000000;stroke-width:1.34100003;stroke-linecap:round;stroke-linejoin:miter;stroke-miterlimit:10;stroke-dasharray:4.0230001,4.0230001;stroke-dashoffset:13.41000034;stroke-opacity:1"
       d="M 92.558219,381.68346 V 735.44374 M 559.69723,477.17051 V 735.44374 M 470.36906,381.68346 v 326.93759 m 69.00428,-218.57553 v 231.45053" /><path
       inkscape:connector-curvature="0"
       id="path24"
       style="fill:none;stroke:#7d7d7d;stroke-width:2.68222737;stroke-linecap:round;stroke-linejoin:round;stroke-miterlimit:10;stroke-dasharray:none;stroke-opacity:1"
       d="m 236.79266,757.50064 127.2831,123.19018 h 46.05161 L 348.06489,757.50064 m -111.27223,-49.5441 127.2831,-123.19157 h 46.05161 l -62.06248,123.19157" /><path
       inkscape:connector-curvature="0"
       id="path26"
       style="fill:none;stroke:#000000;stroke-width:1.34111083;stroke-linecap:butt;stroke-linejoin:miter;stroke-miterlimit:10;stroke-dasharray:10.72889506, 5.36444056;stroke-dashoffset:0;stroke-opacity:1"
       d="M 61.751828,732.72859 H 567.54176" /><path
       inkscape:connector-curvature="0"
       id="path28"
       style="fill:#000000;fill-opacity:1;fill-rule:nonzero;stroke:none;stroke-width:0.1393097"
       d="m 106.45548,408.02832 c -2.52666,-0.91666 -3.27545,-1.37917 -6.554664,-2.41424 -2.193571,-0.69237 -5.371504,-1.44324 -7.879079,-1.97819 2.470519,-0.62829 5.861874,-1.47111 7.879079,-1.96148 3.279214,-1.03508 4.028004,-1.49758 6.554664,-2.41424 l -2.71599,4.37572 2.71599,4.39243" /><path
       inkscape:connector-curvature="0"
       id="path30"
       style="fill:none;stroke:#000000;stroke-width:1.07288945;stroke-linecap:butt;stroke-linejoin:miter;stroke-miterlimit:10;stroke-dasharray:none;stroke-opacity:1"
       d="M 96.582458,403.64424 H 466.42242" /><path
       inkscape:connector-curvature="0"
       id="path32"
       style="fill:#000000;fill-opacity:1;fill-rule:nonzero;stroke:none;stroke-width:0.1393097"
       d="m 455.39884,408.02832 c 2.52708,-0.91666 3.27517,-1.37917 6.55452,-2.41424 2.19413,-0.69237 5.37178,-1.44324 7.87936,-1.97819 -2.46996,-0.62829 -5.86215,-1.47111 -7.87936,-1.96148 -3.27935,-1.03508 -4.02744,-1.49758 -6.55452,-2.41424 l 2.71654,4.37572 -2.71654,4.39243" /><path
       inkscape:connector-curvature="0"
       id="path34"
       style="fill:#000000;fill-opacity:1;fill-rule:nonzero;stroke:none;stroke-width:0.1393097"
       d="m 584.09872,675.77182 c 0.91666,-2.52568 1.37916,-3.27517 2.41424,-6.55452 0.69236,-2.19413 1.44324,-5.37178 1.97819,-7.87936 0.62829,2.47136 1.47111,5.86215 1.96148,7.87936 1.03507,3.27935 1.49758,4.02884 2.41424,6.55452 l -4.37572,-2.71515 -4.39243,2.71515" /><path
       inkscape:connector-curvature="0"
       id="path36"
       style="fill:#000000;fill-opacity:1;fill-rule:nonzero;stroke:none;stroke-width:0.1393097"
       d="m 584.09872,789.93612 c 0.91666,2.52569 1.37916,3.27517 2.41424,6.55452 0.69236,2.19274 1.44324,5.37039 1.97819,7.87797 0.62829,-2.46996 1.47111,-5.86215 1.96148,-7.87797 1.03507,-3.27935 1.49758,-4.02883 2.41424,-6.55452 l -4.37572,2.71515 -4.39243,-2.71515" /><path
       inkscape:connector-curvature="0"
       id="path38"
       style="fill:none;stroke:#000000;stroke-width:1.07288945;stroke-linecap:round;stroke-linejoin:round;stroke-miterlimit:10;stroke-dasharray:none;stroke-opacity:1"
       d="M 588.50926,666.98695 V 796.32208" /><path
       inkscape:connector-curvature="0"
       id="path40"
       style="fill:none;stroke:#000000;stroke-width:1.07288945;stroke-linecap:butt;stroke-linejoin:miter;stroke-miterlimit:10;stroke-dasharray:none;stroke-opacity:1"
       d="m 583.76855,804.24602 h 9.48282" /><path
       inkscape:connector-curvature="0"
       id="path42"
       style="fill:none;stroke:#000000;stroke-width:1.07288945;stroke-linecap:butt;stroke-linejoin:miter;stroke-miterlimit:10;stroke-dasharray:none;stroke-opacity:1"
       d="m 583.76855,661.20978 h 9.48282" /><path
       inkscape:connector-curvature="0"
       id="path44"
       style="fill:none;stroke:#243577;stroke-width:2.68222737;stroke-linecap:round;stroke-linejoin:round;stroke-miterlimit:10;stroke-dasharray:none;stroke-opacity:1"
       d="M 92.597365,473.22108 V 585.47127" /><path
       inkscape:connector-curvature="0"
       id="path46"
       style="fill:none;stroke:#243577;stroke-width:2.68222737;stroke-linecap:round;stroke-linejoin:round;stroke-miterlimit:10;stroke-dasharray:none;stroke-opacity:1"
       d="m 97.041205,581.19586 c -1.264096,0.21175 -4.232646,4.67523 -4.44384,5.3077 -0.211054,-0.63247 -3.179605,-5.09595 -4.443701,-5.3077" /><path
       inkscape:connector-curvature="0"
       id="path48"
       style="fill:none;stroke:#243577;stroke-width:2.68222737;stroke-linecap:round;stroke-linejoin:round;stroke-miterlimit:10;stroke-dasharray:none;stroke-opacity:1"
       d="M 97.150563,462.04009 H 168.63121" /><path
       inkscape:connector-curvature="0"
       id="path50"
       style="fill:none;stroke:#243577;stroke-width:2.68222737;stroke-linecap:round;stroke-linejoin:round;stroke-miterlimit:10;stroke-dasharray:none;stroke-opacity:1"
       d="m 164.35579,457.59611 c 0.21175,1.26493 4.67524,4.23223 5.3077,4.44398 -0.63246,0.21035 -5.09595,3.17904 -5.3077,4.44398" /><path
       inkscape:connector-curvature="0"
       id="path52"
       style="fill:none;stroke:#243577;stroke-width:2.68222737;stroke-linecap:round;stroke-linejoin:round;stroke-miterlimit:10;stroke-dasharray:none;stroke-opacity:1"
       d="M 97.150563,732.72859 H 168.63121" /><path
       inkscape:connector-curvature="0"
       id="path54"
       style="fill:none;stroke:#243577;stroke-width:2.68222737;stroke-linecap:round;stroke-linejoin:round;stroke-miterlimit:10;stroke-dasharray:none;stroke-opacity:1"
       d="m 164.35579,728.28461 c 0.21175,1.26354 4.67524,4.23223 5.3077,4.44398 -0.63246,0.21036 -5.09595,3.17905 -5.3077,4.44398" /><path
       inkscape:connector-curvature="0"
       id="path56"
       style="fill:none;stroke:#243577;stroke-width:2.68222737;stroke-linecap:round;stroke-linejoin:round;stroke-miterlimit:10;stroke-dasharray:none;stroke-opacity:1"
       d="M 92.597365,739.29705 V 851.54723" /><path
       inkscape:connector-curvature="0"
       id="path58"
       style="fill:none;stroke:#243577;stroke-width:2.68222737;stroke-linecap:round;stroke-linejoin:round;stroke-miterlimit:10;stroke-dasharray:none;stroke-opacity:1"
       d="m 97.041205,847.27182 c -1.264096,0.21314 -4.232646,4.67662 -4.44384,5.3077 -0.211054,-0.63108 -3.179605,-5.09456 -4.443701,-5.3077" /><path
       inkscape:connector-curvature="0"
       id="path60"
       style="fill:none;stroke:#000000;stroke-width:1.00583422;stroke-linecap:round;stroke-linejoin:round;stroke-miterlimit:10;stroke-dasharray:3.01750391, 3.01750391;stroke-dashoffset:21.66040039;stroke-opacity:1"
       d="M 467.959,751.85164 446.40501,733.01696 467.959,714.18229" /><path
       inkscape:connector-curvature="0"
       id="path62"
       style="fill:none;stroke:#000000;stroke-width:1.00583422;stroke-linecap:round;stroke-linejoin:round;stroke-miterlimit:10;stroke-dasharray:3.01750391, 3.01750391;stroke-dashoffset:39.71070099;stroke-opacity:1"
       d="m 539.86092,743.32867 -2.14537,-10.11946 2.14537,-10.12085" /><path
       inkscape:connector-curvature="0"
       id="path64"
       style="fill:none;stroke:#000000;stroke-width:2.68222737;stroke-linecap:round;stroke-linejoin:round;stroke-miterlimit:10;stroke-dasharray:none;stroke-opacity:1"
       d="m 538.13348,483.4088 c 0,0 -41.11447,0.9083 -57.40117,-1.25379 -5.25476,-0.69794 -10.88148,-1.08383 -10.20444,-4.86748 0.53217,-2.9854 6.12824,-2.79455 11.25902,-2.72768 11.31334,0.14767 31.56339,4.2169 40.75226,5.96942 6.74538,1.28583 15.59433,2.87953 15.59433,2.87953 z" /><path
       inkscape:connector-curvature="0"
       id="path66"
       style="fill:none;stroke:#000000;stroke-width:1.07288945;stroke-linecap:butt;stroke-linejoin:miter;stroke-miterlimit:10;stroke-dasharray:none;stroke-opacity:1"
       d="m 299.35247,460.6038 324.06502,31.30429" /><path
       inkscape:connector-curvature="0"
       id="path68"
       style="fill:#000000;fill-opacity:1;fill-rule:nonzero;stroke:none;stroke-width:0.1393097"
       d="m 476.41092,554.87607 c -2.42259,-1.16463 -3.12193,-1.69958 -6.28147,-3.05506 -2.11472,-0.9083 -5.20183,-1.97123 -7.64253,-2.75276 2.52011,-0.38031 5.97778,-0.88044 8.03538,-1.16741 3.36572,-0.70352 4.157,-1.08941 6.7621,-1.74973 l -3.13865,4.08316 2.26517,4.6418" /><path
       inkscape:connector-curvature="0"
       id="path70"
       style="fill:#000000;fill-opacity:1;fill-rule:nonzero;stroke:none;stroke-width:0.1393097"
       d="m 517.05732,558.78092 c 2.60509,-0.66032 3.39637,-1.04482 6.76348,-1.74833 2.25125,-0.47087 5.48741,-0.90134 8.03678,-1.18414 -2.39613,-0.87068 -5.68662,-2.04785 -7.64532,-2.73604 -3.15954,-1.35687 -3.85888,-1.89182 -6.28147,-3.05506 l 2.26657,4.62369 -3.14004,4.09988" /><path
       inkscape:connector-curvature="0"
       id="path72"
       style="fill:none;stroke:#000000;stroke-width:1.07288945;stroke-linecap:butt;stroke-linejoin:miter;stroke-miterlimit:10;stroke-dasharray:none;stroke-opacity:1"
       d="m 465.16167,549.25493 56.76591,5.60861" /><path
       inkscape:connector-curvature="0"
       id="path74"
       style="fill:none;stroke:#000000;stroke-width:0.57017785;stroke-linecap:butt;stroke-linejoin:miter;stroke-miterlimit:10;stroke-dasharray:none;stroke-opacity:1"
       d="m 462.24173,552.05644 7.38342,-75.44177" /><path
       inkscape:connector-curvature="0"
       id="path76"
       style="fill:none;stroke:#000000;stroke-width:0.57017785;stroke-linecap:butt;stroke-linejoin:miter;stroke-miterlimit:10;stroke-dasharray:none;stroke-opacity:1"
       d="m 531.18193,559.3312 7.38341,-75.44178" /><path
       inkscape:connector-curvature="0"
       id="path78"
       style="fill:none;stroke:#000000;stroke-width:2.68222737;stroke-linecap:round;stroke-linejoin:round;stroke-miterlimit:10;stroke-dasharray:none;stroke-opacity:1"
       d="m 470.68251,753.89392 57.74666,49.54828 h 26.26823 l -15.02037,-60.96053 m -68.99452,-30.9184 57.74666,-49.54828 h 26.26823 l -15.02037,60.96053" /><path
       inkscape:connector-curvature="0"
       id="path80"
       style="fill:none;stroke:#000000;stroke-width:1.07288945;stroke-linecap:butt;stroke-linejoin:miter;stroke-miterlimit:10;stroke-dasharray:none;stroke-opacity:1"
       d="M 395.57229,478.20558 H 466.5882" /><path
       inkscape:connector-curvature="0"
       id="path82"
       style="fill:#000000;fill-opacity:1;fill-rule:nonzero;stroke:none;stroke-width:0.1393097"
       d="m 412.12089,492.86514 c -0.91666,-2.52707 -1.37917,-3.27656 -2.41424,-6.55452 -0.69237,-2.19412 -1.44325,-5.37178 -1.9782,-7.87935 -0.62689,2.46996 -1.46971,5.86076 -1.96008,7.87935 -1.03508,3.27796 -1.49758,4.02745 -2.41424,6.55452 l 4.37432,-2.71653 4.39244,2.71653" /><path
       inkscape:connector-curvature="0"
       id="path84"
       style="fill:#000000;fill-opacity:1;fill-rule:nonzero;stroke:none;stroke-width:0.1393097"
       d="m 412.12089,448.31529 c -0.91666,2.52569 -1.37917,3.27518 -2.41424,6.55453 -0.69237,2.19273 -1.44325,5.37178 -1.9782,7.87935 -0.62689,-2.47135 -1.46971,-5.86215 -1.96008,-7.87935 -1.03508,-3.27935 -1.49758,-4.02884 -2.41424,-6.55453 l 4.37432,2.71515 4.39244,-2.71515" /><path
       inkscape:connector-curvature="0"
       id="path86"
       style="fill:none;stroke:#000000;stroke-width:1.07288945;stroke-linecap:butt;stroke-linejoin:miter;stroke-miterlimit:10;stroke-dasharray:none;stroke-opacity:1"
       d="m 397.17156,517.25131 10.56665,-6.72587 V 443.087" /><path
       inkscape:connector-curvature="0"
       id="path146"
       style="fill:#121466;fill-opacity:1;fill-rule:nonzero;stroke:none;stroke-width:0.1393097"
       d="m 471.07676,712.78641 c 0,0.95845 -0.77735,1.7358 -1.73441,1.7358 -0.95845,0 -1.7358,-0.77735 -1.7358,-1.7358 0,-0.95706 0.77735,-1.73441 1.7358,-1.73441 0.95706,0 1.73441,0.77735 1.73441,1.73441" /><path
       inkscape:connector-curvature="0"
       id="path148"
       style="fill:none;stroke:#121466;stroke-width:0.92526162;stroke-linecap:butt;stroke-linejoin:miter;stroke-miterlimit:10;stroke-dasharray:none;stroke-opacity:1"
       d="m 471.07676,712.78641 c 0,0.95845 -0.77735,1.7358 -1.73441,1.7358 -0.95845,0 -1.7358,-0.77735 -1.7358,-1.7358 0,-0.95706 0.77735,-1.73441 1.7358,-1.73441 0.95706,0 1.73441,0.77735 1.73441,1.73441 z" /><path
       inkscape:connector-curvature="0"
       id="path164"
       style="fill:#ffffff;fill-opacity:1;fill-rule:nonzero;stroke:none;stroke-width:0.1393097"
       d="m 572.82856,732.72859 v 14.44642 h 32.21677 v -28.89423 h -32.21677" /><path
       inkscape:connector-curvature="0"
       id="path184"
       style="fill:#ffffff;fill-opacity:1;fill-rule:nonzero;stroke:none;stroke-width:0.17050557"
       d="m 253.89938,403.64424 v 14.289 h 55.20611 v -28.578 h -55.20611" /><path
       inkscape:connector-curvature="0"
       id="path208"
       style="fill:#121466;fill-opacity:1;fill-rule:nonzero;stroke:none;stroke-width:0.1393097"
       d="m 471.67997,477.3154 c 0,0.95705 -0.77735,1.7344 -1.73441,1.7344 -0.95845,0 -1.73441,-0.77735 -1.73441,-1.7344 0,-0.95846 0.77596,-1.7358 1.73441,-1.7358 0.95706,0 1.73441,0.77734 1.73441,1.7358" /><path
       inkscape:connector-curvature="0"
       id="path210"
       style="fill:none;stroke:#121466;stroke-width:0.92526162;stroke-linecap:butt;stroke-linejoin:miter;stroke-miterlimit:10;stroke-dasharray:none;stroke-opacity:1"
       d="m 471.67997,477.3154 c 0,0.95705 -0.77735,1.7344 -1.73441,1.7344 -0.95845,0 -1.73441,-0.77735 -1.73441,-1.7344 0,-0.95846 0.77596,-1.7358 1.73441,-1.7358 0.95706,0 1.73441,0.77734 1.73441,1.7358 z" /><path
       inkscape:connector-curvature="0"
       id="path212"
       style="fill:none;stroke:#808080;stroke-width:1.15657711;stroke-linecap:butt;stroke-linejoin:miter;stroke-miterlimit:10;stroke-dasharray:none;stroke-opacity:1"
       d="m 466.063,481.94187 -19.08264,22.74231 c -1.30534,1.5547 -1.81939,3.62762 -1.3931,5.61279 l 15.82558,73.6196 c 0.51266,2.38499 -0.33574,4.85773 -2.20388,6.42497 l -22.17114,18.60481" /><path
       inkscape:connector-curvature="0"
       id="path214"
       style="fill:none;stroke:#808080;stroke-width:1.15657711;stroke-linecap:butt;stroke-linejoin:miter;stroke-miterlimit:10;stroke-dasharray:none;stroke-opacity:1"
       d="M 437.03782,608.94635 419.06269,630.368 c -1.88347,2.24289 -2.05621,5.46094 -0.42629,7.89329 l 46.82339,69.90004" /><path
       inkscape:connector-curvature="0"
       id="path216"
       style="fill:#ffffff;fill-opacity:1;fill-rule:nonzero;stroke:none;stroke-width:0.1393097"
       d="m 423.34368,608.9157 v 10.94835 h 27.36042 v -21.89531 h -27.36042" /><path
       inkscape:connector-curvature="0"
       id="path232"
       style="fill:#121466;fill-opacity:1;fill-rule:nonzero;stroke:none;stroke-width:0.1393097"
       d="m 314.31155,462.11531 c 0,0.95845 -0.77596,1.7358 -1.73441,1.7358 -0.95706,0 -1.73441,-0.77735 -1.73441,-1.7358 0,-0.95705 0.77735,-1.7344 1.73441,-1.7344 0.95845,0 1.73441,0.77735 1.73441,1.7344" /><path
       inkscape:connector-curvature="0"
       id="path234"
       style="fill:none;stroke:#121466;stroke-width:0.92526162;stroke-linecap:butt;stroke-linejoin:miter;stroke-miterlimit:10;stroke-dasharray:none;stroke-opacity:1"
       d="m 314.31155,462.11531 c 0,0.95845 -0.77596,1.7358 -1.73441,1.7358 -0.95706,0 -1.73441,-0.77735 -1.73441,-1.7358 0,-0.95705 0.77735,-1.7344 1.73441,-1.7344 0.95845,0 1.73441,0.77735 1.73441,1.7344 z" /><path
       inkscape:connector-curvature="0"
       id="path244"
       style="fill:#121466;fill-opacity:1;fill-rule:nonzero;stroke:none;stroke-width:0.1393097"
       d="m 594.3742,481.66464 c -1.72744,2.39474 -2.85306,4.84102 -3.37687,7.34163 -0.0766,-2.55355 -0.75645,-5.16004 -2.0367,-7.81946 l 2.43931,3.27099" /><path
       inkscape:connector-curvature="0"
       id="path246"
       style="fill:none;stroke:#121466;stroke-width:1.85052049;stroke-linecap:butt;stroke-linejoin:miter;stroke-miterlimit:10;stroke-dasharray:none;stroke-opacity:1"
       d="m 592.29291,461.90356 c 0,0.071 0,0.1421 0,0.21175 0,7.53387 -0.30508,15.06495 -0.91108,22.57235" /><path
       inkscape:connector-curvature="0"
       id="path248"
       style="fill:none;stroke:#808080;stroke-width:1.15657711;stroke-linecap:butt;stroke-linejoin:miter;stroke-miterlimit:10;stroke-dasharray:none;stroke-opacity:1"
       d="m 587.09806,469.6659 -16.53467,2.91575 c -2.60649,0.45972 -3.63181,3.6541 -1.77899,5.54453 l 53.9644,55.05241 c 2.04089,2.08128 0.5656,5.59467 -2.35015,5.59467 h -15.20148" /><path
       inkscape:connector-curvature="0"
       id="path264"
       style="fill:#121466;fill-opacity:1;fill-rule:nonzero;stroke:none;stroke-width:0.1393097"
       d="m 450.5634,733.09498 c 0,0.95706 -0.77735,1.7344 -1.7344,1.7344 -0.95846,0 -1.7358,-0.77734 -1.7358,-1.7344 0,-0.95845 0.77734,-1.7358 1.7358,-1.7358 0.95705,0 1.7344,0.77735 1.7344,1.7358" /><path
       inkscape:connector-curvature="0"
       id="path266"
       style="fill:none;stroke:#121466;stroke-width:0.92526162;stroke-linecap:butt;stroke-linejoin:miter;stroke-miterlimit:10;stroke-dasharray:none;stroke-opacity:1"
       d="m 450.5634,733.09498 c 0,0.95706 -0.77735,1.7344 -1.7344,1.7344 -0.95846,0 -1.7358,-0.77734 -1.7358,-1.7344 0,-0.95845 0.77734,-1.7358 1.7358,-1.7358 0.95705,0 1.7344,0.77735 1.7344,1.7358 z" /><path
       inkscape:connector-curvature="0"
       id="path268"
       style="fill:none;stroke:#808080;stroke-width:1.15657711;stroke-linecap:butt;stroke-linejoin:miter;stroke-miterlimit:10;stroke-dasharray:none;stroke-opacity:1"
       d="m 445.91742,736.56518 -30.83481,36.74572 c -1.23846,1.47669 -3.06202,2.33623 -4.99007,2.35155 l -27.07902,0.21314" /><path
       inkscape:connector-curvature="0"
       id="path270"
       style="fill:#ffffff;fill-opacity:1;fill-rule:nonzero;stroke:none;stroke-width:0.1393097"
       d="m 369.31937,775.82684 v 9.40061 h 27.36043 v -18.80123 h -27.36043" /><g
       id="g1679"
       ns1:jacobian_sqrt="1.8"
       inkscapeversion="0.92.4"
       ns1:alignment="middle center"
       ns1:scale="1.35"
       ns1:preamble="C:\\texlive\\texmf-local\\tex\\latex\\default_packages_guit.tex"
       ns1:text="$x_\\mathrm{C}$"
       ns1:pdfconverter="pdf2svg"
       ns1:texconverter="pdflatex"
       ns1:version="0.11.0"
       transform="matrix(1.8,0,0,-1.8,-97.668691,959.39668)"><g
         id="surface1"><g
           id="g1672"
           style="fill:#000000;fill-opacity:1"><path
             id="path1670"
             transform="translate(148.712,134.765)"
             d="m 5.15625,-4.171875 c 0,-0.265625 -0.234375,-0.390625 -0.421875,-0.390625 -0.5,0 -1.140625,0.75 -1.640625,1.546875 0,-0.015625 -0.078125,-0.34375 -0.078125,-0.34375 -0.15625,-0.65625 -0.34375,-1.03125 -0.6875,-1.203125 0,0 -1.125,0.25 -1.265625,0.28125 v 0.171875 c 0.203125,-0.046875 0.359375,-0.0625 0.46875,-0.0625 0.546875,0 0.640625,0.515625 1.015625,1.953125 C 2.09375,-1.546875 1.390625,-0.4375 1.109375,-0.4375 0.875,-0.4375 0.875,-0.671875 0.5625,-0.671875 c -0.21875,0 -0.359375,0.15625 -0.359375,0.359375 0,0.25 0.1875,0.4375 0.46875,0.4375 0.6875,0 1.34375,-1.25 1.953125,-2.03125 0.03125,0.078125 0.25,0.953125 0.25,0.953125 C 3.125,-0.03125 3.3125,0.125 3.5625,0.125 c 0.3125,0 0.78125,-0.3125 1.25,-1.1875 L 4.671875,-1.140625 c -0.171875,0.21875 -0.453125,0.6875 -0.703125,0.6875 -0.34375,0 -0.546875,-1.40625 -0.796875,-2.296875 0.0625,-0.078125 0.75,-1.203125 1.125,-1.203125 0.1875,0 0.359375,0.171875 0.53125,0.171875 0.25,0 0.328125,-0.203125 0.328125,-0.390625 z m 0,0"
             style="stroke:none;stroke-width:0"
             inkscape:connector-curvature="0" /></g><g
           id="g1676"
           style="fill:#000000;fill-opacity:1"><path
             id="path1674"
             transform="translate(154.162,136.259)"
             d="m 4.40625,-0.78125 -0.125,-0.125 c -0.515625,0.484375 -0.96875,0.703125 -1.546875,0.703125 -0.421875,0 -0.796875,-0.125 -1.09375,-0.375 C 1.234375,-0.921875 1,-1.546875 1,-2.359375 c 0,-1.25 0.65625,-2.078125 1.65625,-2.078125 0.40625,0 0.765625,0.15625 1.046875,0.4375 0.21875,0.21875 0.328125,0.40625 0.453125,0.859375 h 0.171875 l -0.0625,-1.5625 h -0.15625 c -0.046875,0.140625 -0.15625,0.21875 -0.28125,0.21875 -0.078125,0 -0.171875,-0.015625 -0.28125,-0.0625 -0.34375,-0.109375 -0.6875,-0.15625 -1.03125,-0.15625 -0.53125,0 -1.078125,0.1875 -1.5,0.546875 -0.53125,0.4375 -0.828125,1.09375 -0.828125,1.890625 0,1.421875 0.9375,2.359375 2.328125,2.359375 0.78125,0 1.46875,-0.3125 1.890625,-0.875 z m 0,0"
             style="stroke:none;stroke-width:0"
             inkscape:connector-curvature="0" /></g></g></g><g
       id="g2610"
       ns1:jacobian_sqrt="1.8"
       inkscapeversion="0.92.4"
       ns1:alignment="middle center"
       ns1:scale="1.35"
       ns1:preamble="C:\\texlive\\texmf-local\\tex\\latex\\default_packages_guit.tex"
       ns1:text="$y_\\mathrm{C}$"
       ns1:pdfconverter="pdf2svg"
       ns1:texconverter="pdflatex"
       ns1:version="0.11.0"
       transform="matrix(1.8,0,0,-1.8,-163.7814,1064.2848)"><g
         id="g2608"><g
           id="g2602"
           style="fill:#000000;fill-opacity:1"><path
             id="path2600"
             transform="translate(148.712,134.765)"
             d="m 5.1875,-17.223959 c 0,-0.4375 -0.25,-0.671875 -0.546875,-0.671875 -0.234375,0 -0.390625,0.203125 -0.390625,0.40625 0,0.515625 0.5625,0.375 0.5625,0.703125 0,0.640625 -1.25,2.390625 -1.53125,2.828125 -0.09375,-2 -0.390625,-3.5 -0.734375,-3.9375 l -1.453125,0.28125 v 0.171875 c 0.09375,-0.03125 0.21875,-0.04687 0.359375,-0.04687 0.75,0 0.796875,0.75 1.1875,4.3125 -0.140625,0.421875 -1.03125,1.4375 -1.296875,1.4375 -0.1875,0 -0.171875,-0.328125 -0.5,-0.328125 -0.234375,0 -0.4375,0.21875 -0.4375,0.453125 0,0.3125 0.296875,0.421875 0.453125,0.421875 0.671875,0 1.875,-1.515625 2.90625,-3.046875 0.90625,-1.359375 1.421875,-2.40625 1.421875,-2.984375 z"
             style="stroke:none;stroke-width:0"
             inkscape:connector-curvature="0"
             sodipodi:nodetypes="ssssccccscsssscs" /></g><g
           id="g2606"
           style="fill:#000000;fill-opacity:1"><path
             id="path2604"
             transform="translate(154.261,136.259)"
             d="m 4.40625,-14.114584 -0.125,-0.125 c -0.515625,0.484375 -0.96875,0.703125 -1.546875,0.703125 -0.421875,0 -0.796875,-0.125 -1.09375,-0.375 C 1.234375,-14.255209 1,-14.880209 1,-15.692709 c 0,-1.25 0.65625,-2.078125 1.65625,-2.078125 0.40625,0 0.765625,0.15625 1.046875,0.4375 0.21875,0.21875 0.328125,0.40625 0.453125,0.859375 h 0.171875 l -0.0625,-1.5625 h -0.15625 c -0.046875,0.140625 -0.15625,0.21875 -0.28125,0.21875 -0.078125,0 -0.171875,-0.01563 -0.28125,-0.0625 -0.34375,-0.109375 -0.6875,-0.15625 -1.03125,-0.15625 -0.53125,0 -1.078125,0.1875 -1.5,0.546875 -0.53125,0.4375 -0.828125,1.09375 -0.828125,1.890625 0,1.421875 0.9375,2.359375 2.328125,2.359375 0.78125,0 1.46875,-0.3125 1.890625,-0.875 z"
             style="stroke:none;stroke-width:0"
             inkscape:connector-curvature="0"
             sodipodi:nodetypes="ccscsssccccscscssc" /></g></g></g><g
       id="g2768"
       ns1:jacobian_sqrt="1.8"
       inkscapeversion="0.92.4"
       ns1:alignment="middle center"
       ns1:scale="1.35"
       ns1:preamble="C:\\texlive\\texmf-local\\tex\\latex\\default_packages_guit.tex"
       ns1:text="$z_\\mathrm{C}$"
       ns1:pdfconverter="pdf2svg"
       ns1:texconverter="pdflatex"
       ns1:version="0.11.0"
       transform="matrix(1.8,0,0,-1.8,-163.3314,822.20888)"><g
         id="g2766"><g
           id="g2760"
           style="fill:#000000;fill-opacity:1"><path
             id="path2758"
             transform="translate(148.712,134.765)"
             d="m 4.453125,-4.5625 h -3.09375 l -0.4375,1.296875 H 1.125 c 0.25,-0.609375 0.484375,-0.625 0.84375,-0.625 h 1.625 L 0.15625,0 H 3.3125 L 3.765625,-1.328125 H 3.5625 c -0.234375,0.6875 -0.609375,0.6875 -0.984375,0.6875 H 1 Z m 0,0"
             style="stroke:none;stroke-width:0"
             inkscape:connector-curvature="0" /></g><g
           id="g2764"
           style="fill:#000000;fill-opacity:1"><path
             id="path2762"
             transform="translate(153.325,136.259)"
             d="m 4.40625,-0.78125 -0.125,-0.125 c -0.515625,0.484375 -0.96875,0.703125 -1.546875,0.703125 -0.421875,0 -0.796875,-0.125 -1.09375,-0.375 C 1.234375,-0.921875 1,-1.546875 1,-2.359375 c 0,-1.25 0.65625,-2.078125 1.65625,-2.078125 0.40625,0 0.765625,0.15625 1.046875,0.4375 0.21875,0.21875 0.328125,0.40625 0.453125,0.859375 h 0.171875 l -0.0625,-1.5625 h -0.15625 c -0.046875,0.140625 -0.15625,0.21875 -0.28125,0.21875 -0.078125,0 -0.171875,-0.015625 -0.28125,-0.0625 -0.34375,-0.109375 -0.6875,-0.15625 -1.03125,-0.15625 -0.53125,0 -1.078125,0.1875 -1.5,0.546875 -0.53125,0.4375 -0.828125,1.09375 -0.828125,1.890625 0,1.421875 0.9375,2.359375 2.328125,2.359375 0.78125,0 1.46875,-0.3125 1.890625,-0.875 z m 0,0"
             style="stroke:none;stroke-width:0"
             inkscape:connector-curvature="0" /></g></g></g><g
       transform="matrix(1.8,0,0,-1.8,-97.668691,690.6808)"
       ns1:version="0.11.0"
       ns1:texconverter="pdflatex"
       ns1:pdfconverter="pdf2svg"
       ns1:text="$x_\\mathrm{C}$"
       ns1:preamble="C:\\texlive\\texmf-local\\tex\\latex\\default_packages_guit.tex"
       ns1:scale="1.35"
       ns1:alignment="middle center"
       inkscapeversion="0.92.4"
       ns1:jacobian_sqrt="1.8"
       id="g1263"><g
         id="g1261"><g
           style="fill:#000000;fill-opacity:1"
           id="g1255"><path
             inkscape:connector-curvature="0"
             style="stroke:none;stroke-width:0"
             d="m 5.15625,-4.171875 c 0,-0.265625 -0.234375,-0.390625 -0.421875,-0.390625 -0.5,0 -1.140625,0.75 -1.640625,1.546875 0,-0.015625 -0.078125,-0.34375 -0.078125,-0.34375 -0.15625,-0.65625 -0.34375,-1.03125 -0.6875,-1.203125 0,0 -1.125,0.25 -1.265625,0.28125 v 0.171875 c 0.203125,-0.046875 0.359375,-0.0625 0.46875,-0.0625 0.546875,0 0.640625,0.515625 1.015625,1.953125 C 2.09375,-1.546875 1.390625,-0.4375 1.109375,-0.4375 0.875,-0.4375 0.875,-0.671875 0.5625,-0.671875 c -0.21875,0 -0.359375,0.15625 -0.359375,0.359375 0,0.25 0.1875,0.4375 0.46875,0.4375 0.6875,0 1.34375,-1.25 1.953125,-2.03125 0.03125,0.078125 0.25,0.953125 0.25,0.953125 C 3.125,-0.03125 3.3125,0.125 3.5625,0.125 c 0.3125,0 0.78125,-0.3125 1.25,-1.1875 L 4.671875,-1.140625 c -0.171875,0.21875 -0.453125,0.6875 -0.703125,0.6875 -0.34375,0 -0.546875,-1.40625 -0.796875,-2.296875 0.0625,-0.078125 0.75,-1.203125 1.125,-1.203125 0.1875,0 0.359375,0.171875 0.53125,0.171875 0.25,0 0.328125,-0.203125 0.328125,-0.390625 z m 0,0"
             transform="translate(148.712,134.765)"
             id="path1253" /></g><g
           style="fill:#000000;fill-opacity:1"
           id="g1259"><path
             inkscape:connector-curvature="0"
             style="stroke:none;stroke-width:0"
             d="m 4.40625,-0.78125 -0.125,-0.125 c -0.515625,0.484375 -0.96875,0.703125 -1.546875,0.703125 -0.421875,0 -0.796875,-0.125 -1.09375,-0.375 C 1.234375,-0.921875 1,-1.546875 1,-2.359375 c 0,-1.25 0.65625,-2.078125 1.65625,-2.078125 0.40625,0 0.765625,0.15625 1.046875,0.4375 0.21875,0.21875 0.328125,0.40625 0.453125,0.859375 h 0.171875 l -0.0625,-1.5625 h -0.15625 c -0.046875,0.140625 -0.15625,0.21875 -0.28125,0.21875 -0.078125,0 -0.171875,-0.015625 -0.28125,-0.0625 -0.34375,-0.109375 -0.6875,-0.15625 -1.03125,-0.15625 -0.53125,0 -1.078125,0.1875 -1.5,0.546875 -0.53125,0.4375 -0.828125,1.09375 -0.828125,1.890625 0,1.421875 0.9375,2.359375 2.328125,2.359375 0.78125,0 1.46875,-0.3125 1.890625,-0.875 z m 0,0"
             transform="translate(154.162,136.259)"
             id="path1257" /></g></g></g><g
       id="g1387"
       ns1:jacobian_sqrt="1.8"
       inkscapeversion="0.92.4"
       ns1:alignment="middle center"
       ns1:scale="1.35"
       ns1:preamble="C:\\texlive\\texmf-local\\tex\\latex\\default_packages_guit.tex"
       ns1:text="$A_\\mathrm{H}$"
       ns1:pdfconverter="pdf2svg"
       ns1:texconverter="pdflatex"
       ns1:version="0.11.0"
       transform="matrix(1.8,0,0,-1.8,103.70084,1013.532)"><g
         id="g1385"><g
           id="g1379"
           style="fill:#000000;fill-opacity:1"><path
             id="path1377"
             transform="translate(148.712,134.765)"
             d="M 6.546875,-0.171875 C 5.90625,-0.171875 5.84375,-0.46875 5.8125,-1.15625 L 5.578125,-6.875 H 5.375 l -3.890625,5.90625 c -0.453125,0.703125 -0.71875,0.796875 -1,0.796875 L 0.453125,0 h 1.84375 l 0.03125,-0.171875 c -0.328125,0 -0.5625,-0.09375 -0.5625,-0.375 0,-0.15625 0.078125,-0.375 0.265625,-0.671875 l 0.6875,-1.046875 H 4.8125 l 0.046875,1.28125 C 4.890625,-0.25 4.5625,-0.171875 4.03125,-0.171875 L 3.984375,0 h 2.53125 z m -1.75,-2.4375 H 2.953125 L 4.671875,-5.25 Z m 0,0"
             style="stroke:none;stroke-width:0"
             inkscape:connector-curvature="0" /></g><g
           id="g1383"
           style="fill:#000000;fill-opacity:1"><path
             id="path1381"
             transform="translate(155.915,136.259)"
             d="M 4.890625,0 V -0.125 C 4.375,-0.171875 4.28125,-0.265625 4.28125,-0.765625 v -3.09375 c 0,-0.5 0.078125,-0.578125 0.609375,-0.625 v -0.125 h -1.9375 v 0.125 c 0.53125,0.046875 0.609375,0.125 0.609375,0.625 V -2.5 H 1.453125 v -1.359375 c 0,-0.5 0.078125,-0.578125 0.609375,-0.625 v -0.125 H 0.125 v 0.125 c 0.546875,0.046875 0.625,0.125 0.625,0.625 V -0.84375 C 0.75,-0.25 0.671875,-0.171875 0.125,-0.125 V 0 H 2.0625 V -0.125 C 1.546875,-0.171875 1.453125,-0.265625 1.453125,-0.765625 V -2.1875 H 3.5625 v 1.34375 C 3.5625,-0.25 3.5,-0.171875 2.953125,-0.125 V 0 Z m 0,0"
             style="stroke:none;stroke-width:0"
             inkscape:connector-curvature="0" /></g></g></g><g
       id="g1806"
       ns1:jacobian_sqrt="1.8"
       inkscapeversion="0.92.4"
       ns1:alignment="middle center"
       ns1:scale="1.35"
       ns1:preamble="C:\\texlive\\texmf-local\\tex\\latex\\default_packages_guit.tex"
       ns1:text="$A_\\mathrm{H}^\\star$"
       ns1:pdfconverter="pdf2svg"
       ns1:texconverter="pdflatex"
       ns1:version="0.11.0"
       transform="matrix(1.8,0,0,-1.8,158.05021,847.48232)"><g
         id="g1804"><g
           id="g1794"
           style="fill:#000000;fill-opacity:1"><path
             id="path1792"
             transform="translate(148.712,134.765)"
             d="M 6.546875,-0.171875 C 5.90625,-0.171875 5.84375,-0.46875 5.8125,-1.15625 L 5.578125,-6.875 H 5.375 l -3.890625,5.90625 c -0.453125,0.703125 -0.71875,0.796875 -1,0.796875 L 0.453125,0 h 1.84375 l 0.03125,-0.171875 c -0.328125,0 -0.5625,-0.09375 -0.5625,-0.375 0,-0.15625 0.078125,-0.375 0.265625,-0.671875 l 0.6875,-1.046875 H 4.8125 l 0.046875,1.28125 C 4.890625,-0.25 4.5625,-0.171875 4.03125,-0.171875 L 3.984375,0 h 2.53125 z m -1.75,-2.4375 H 2.953125 L 4.671875,-5.25 Z m 0,0"
             style="stroke:none;stroke-width:0"
             inkscape:connector-curvature="0" /></g><g
           id="g1798"
           style="fill:#000000;fill-opacity:1"><path
             id="path1796"
             transform="translate(155.915,131.122)"
             d="m 2.234375,-1.125 1.125,0.8125 L 2.9375,-1.625 4.046875,-2.421875 h -1.375 L 2.25,-3.71875 1.8125,-2.421875 H 0.421875 l 1.125,0.796875 -0.4375,1.3125 z m 0,0"
             style="stroke:none;stroke-width:0"
             inkscape:connector-curvature="0" /></g><g
           id="g1802"
           style="fill:#000000;fill-opacity:1"><path
             id="path1800"
             transform="translate(155.915,137.67)"
             d="M 4.890625,0 V -0.125 C 4.375,-0.171875 4.28125,-0.265625 4.28125,-0.765625 v -3.09375 c 0,-0.5 0.078125,-0.578125 0.609375,-0.625 v -0.125 h -1.9375 v 0.125 c 0.53125,0.046875 0.609375,0.125 0.609375,0.625 V -2.5 H 1.453125 v -1.359375 c 0,-0.5 0.078125,-0.578125 0.609375,-0.625 v -0.125 H 0.125 v 0.125 c 0.546875,0.046875 0.625,0.125 0.625,0.625 V -0.84375 C 0.75,-0.25 0.671875,-0.171875 0.125,-0.125 V 0 H 2.0625 V -0.125 C 1.546875,-0.171875 1.453125,-0.265625 1.453125,-0.765625 V -2.1875 H 3.5625 v 1.34375 C 3.5625,-0.25 3.5,-0.171875 2.953125,-0.125 V 0 Z m 0,0"
             style="stroke:none;stroke-width:0"
             inkscape:connector-curvature="0" /></g></g></g><g
       id="g1977"
       ns1:jacobian_sqrt="1.8"
       inkscapeversion="0.92.4"
       ns1:alignment="middle center"
       ns1:scale="1.35"
       ns1:preamble="C:\\texlive\\texmf-local\\tex\\latex\\default_packages_guit.tex"
       ns1:text="$c_\\mathrm{r,H}^\\star$"
       ns1:pdfconverter="pdf2svg"
       ns1:texconverter="pdflatex"
       ns1:version="0.11.0"
       transform="matrix(1.8,0,0,-1.8,214.71525,807.44029)"><g
         id="g1975"><g
           id="g1957"
           style="fill:#000000;fill-opacity:1"><path
             id="path1955"
             transform="translate(148.712,134.765)"
             d="m 4.171875,-3.765625 c 0,-0.375 -0.296875,-0.796875 -0.984375,-0.796875 -1.46875,0 -2.875,1.671875 -2.875,3.140625 0,1.046875 0.65625,1.546875 1.40625,1.546875 0.9375,0 1.5625,-0.65625 1.9375,-1.125 L 3.5,-1.109375 c -0.265625,0.328125 -0.765625,0.84375 -1.421875,0.84375 -0.578125,0 -0.90625,-0.46875 -0.90625,-1.21875 0,-0.953125 0.734375,-2.875 2.015625,-2.875 0.1875,0 0.375,0.09375 0.375,0.265625 0,0.171875 -0.25,0.28125 -0.25,0.5625 0,0.21875 0.140625,0.359375 0.359375,0.359375 0.3125,0 0.5,-0.28125 0.5,-0.59375 z m 0,0"
             style="stroke:none;stroke-width:0"
             inkscape:connector-curvature="0" /></g><g
           id="g1961"
           style="fill:#000000;fill-opacity:1"><path
             id="path1959"
             transform="translate(153.704,131.122)"
             d="m 2.234375,-1.125 1.125,0.8125 L 2.9375,-1.625 4.046875,-2.421875 h -1.375 L 2.25,-3.71875 1.8125,-2.421875 H 0.421875 l 1.125,0.796875 -0.4375,1.3125 z m 0,0"
             style="stroke:none;stroke-width:0"
             inkscape:connector-curvature="0" /></g><g
           id="g1965"
           style="fill:#000000;fill-opacity:1"><path
             id="path1963"
             transform="translate(153.176,137.67)"
             d="m 2.328125,-2.84375 c 0,-0.21875 -0.140625,-0.359375 -0.375,-0.359375 -0.296875,0 -0.5,0.15625 -0.84375,0.65625 V -3.1875 l -0.03125,-0.015625 c -0.375,0.15625 -0.625,0.234375 -1.03125,0.375 v 0.109375 c 0.09375,-0.015625 0.15625,-0.03125 0.25,-0.03125 0.171875,0 0.234375,0.109375 0.234375,0.421875 v 1.75 c 0,0.34375 -0.046875,0.390625 -0.5,0.46875 V 0 H 1.703125 V -0.109375 C 1.234375,-0.125 1.109375,-0.234375 1.109375,-0.625 v -1.5625 c 0,-0.234375 0.3125,-0.578125 0.5,-0.578125 0.03125,0 0.09375,0.03125 0.171875,0.109375 0.109375,0.09375 0.1875,0.140625 0.28125,0.140625 0.171875,0 0.265625,-0.125 0.265625,-0.328125 z m 0,0"
             style="stroke:none;stroke-width:0"
             inkscape:connector-curvature="0" /></g><g
           id="g1969"
           style="fill:#000000;fill-opacity:1"><path
             id="path1967"
             transform="translate(155.512,137.67)"
             d="M 0.609375,1.140625 C 0.8125,1.09375 0.90625,1.046875 1.09375,0.9375 c 0.328125,-0.21875 0.5625,-0.53125 0.5625,-1.078125 0,-0.53125 -0.25,-0.765625 -0.578125,-0.765625 -0.296875,0 -0.484375,0.1875 -0.484375,0.46875 0,0.265625 0.1875,0.4375 0.4375,0.4375 0.078125,0 0.15625,-0.015625 0.234375,-0.0625 0.03125,-0.015625 0.03125,-0.015625 0.046875,-0.015625 0.03125,0 0.046875,0.0625 0.046875,0.140625 0,0.078125 0,0.578125 -0.75,0.859375 z m 0,0"
             style="stroke:none;stroke-width:0"
             inkscape:connector-curvature="0" /></g><g
           id="g1973"
           style="fill:#000000;fill-opacity:1"><path
             id="path1971"
             transform="translate(157.757,137.67)"
             d="M 4.890625,0 V -0.125 C 4.375,-0.171875 4.28125,-0.265625 4.28125,-0.765625 v -3.09375 c 0,-0.5 0.078125,-0.578125 0.609375,-0.625 v -0.125 h -1.9375 v 0.125 c 0.53125,0.046875 0.609375,0.125 0.609375,0.625 V -2.5 H 1.453125 v -1.359375 c 0,-0.5 0.078125,-0.578125 0.609375,-0.625 v -0.125 H 0.125 v 0.125 c 0.546875,0.046875 0.625,0.125 0.625,0.625 V -0.84375 C 0.75,-0.25 0.671875,-0.171875 0.125,-0.125 V 0 H 2.0625 V -0.125 C 1.546875,-0.171875 1.453125,-0.265625 1.453125,-0.765625 V -2.1875 H 3.5625 v 1.34375 C 3.5625,-0.25 3.5,-0.171875 2.953125,-0.125 V 0 Z m 0,0"
             style="stroke:none;stroke-width:0"
             inkscape:connector-curvature="0" /></g></g></g><g
       id="g2176"
       ns1:jacobian_sqrt="1.8"
       inkscapeversion="0.92.4"
       ns1:alignment="middle center"
       ns1:scale="1.35"
       ns1:preamble="C:\\texlive\\texmf-local\\tex\\latex\\default_packages_guit.tex"
       ns1:text="$x_{\\mathrm{C},A_\\mathrm{H}^\\star}$"
       ns1:pdfconverter="pdf2svg"
       ns1:texconverter="pdflatex"
       ns1:version="0.11.0"
       transform="matrix(1.8,0,0,-1.8,-6.0114525,646.11639)"><g
         id="g2174"><g
           id="g2154"
           style="fill:#000000;fill-opacity:1"><path
             id="path2152"
             transform="translate(148.712,134.765)"
             d="m 5.15625,-4.171875 c 0,-0.265625 -0.234375,-0.390625 -0.421875,-0.390625 -0.5,0 -1.140625,0.75 -1.640625,1.546875 0,-0.015625 -0.078125,-0.34375 -0.078125,-0.34375 -0.15625,-0.65625 -0.34375,-1.03125 -0.6875,-1.203125 0,0 -1.125,0.25 -1.265625,0.28125 v 0.171875 c 0.203125,-0.046875 0.359375,-0.0625 0.46875,-0.0625 0.546875,0 0.640625,0.515625 1.015625,1.953125 C 2.09375,-1.546875 1.390625,-0.4375 1.109375,-0.4375 0.875,-0.4375 0.875,-0.671875 0.5625,-0.671875 c -0.21875,0 -0.359375,0.15625 -0.359375,0.359375 0,0.25 0.1875,0.4375 0.46875,0.4375 0.6875,0 1.34375,-1.25 1.953125,-2.03125 0.03125,0.078125 0.25,0.953125 0.25,0.953125 C 3.125,-0.03125 3.3125,0.125 3.5625,0.125 c 0.3125,0 0.78125,-0.3125 1.25,-1.1875 L 4.671875,-1.140625 c -0.171875,0.21875 -0.453125,0.6875 -0.703125,0.6875 -0.34375,0 -0.546875,-1.40625 -0.796875,-2.296875 0.0625,-0.078125 0.75,-1.203125 1.125,-1.203125 0.1875,0 0.359375,0.171875 0.53125,0.171875 0.25,0 0.328125,-0.203125 0.328125,-0.390625 z m 0,0"
             style="stroke:none;stroke-width:0"
             inkscape:connector-curvature="0" /></g><g
           id="g2158"
           style="fill:#000000;fill-opacity:1"><path
             id="path2156"
             transform="translate(154.162,136.963)"
             d="m 4.40625,-0.78125 -0.125,-0.125 c -0.515625,0.484375 -0.96875,0.703125 -1.546875,0.703125 -0.421875,0 -0.796875,-0.125 -1.09375,-0.375 C 1.234375,-0.921875 1,-1.546875 1,-2.359375 c 0,-1.25 0.65625,-2.078125 1.65625,-2.078125 0.40625,0 0.765625,0.15625 1.046875,0.4375 0.21875,0.21875 0.328125,0.40625 0.453125,0.859375 h 0.171875 l -0.0625,-1.5625 h -0.15625 c -0.046875,0.140625 -0.15625,0.21875 -0.28125,0.21875 -0.078125,0 -0.171875,-0.015625 -0.28125,-0.0625 -0.34375,-0.109375 -0.6875,-0.15625 -1.03125,-0.15625 -0.53125,0 -1.078125,0.1875 -1.5,0.546875 -0.53125,0.4375 -0.828125,1.09375 -0.828125,1.890625 0,1.421875 0.9375,2.359375 2.328125,2.359375 0.78125,0 1.46875,-0.3125 1.890625,-0.875 z m 0,0"
             style="stroke:none;stroke-width:0"
             inkscape:connector-curvature="0" /></g><g
           id="g2164"
           style="fill:#000000;fill-opacity:1"><path
             id="path2160"
             transform="translate(158.813,136.963)"
             d="M 0.609375,1.140625 C 0.8125,1.09375 0.90625,1.046875 1.09375,0.9375 c 0.328125,-0.21875 0.5625,-0.53125 0.5625,-1.078125 0,-0.53125 -0.25,-0.765625 -0.578125,-0.765625 -0.296875,0 -0.484375,0.1875 -0.484375,0.46875 0,0.265625 0.1875,0.4375 0.4375,0.4375 0.078125,0 0.15625,-0.015625 0.234375,-0.0625 0.03125,-0.015625 0.03125,-0.015625 0.046875,-0.015625 0.03125,0 0.046875,0.0625 0.046875,0.140625 0,0.078125 0,0.578125 -0.75,0.859375 z m 0,0"
             style="stroke:none;stroke-width:0"
             inkscape:connector-curvature="0" /><path
             id="path2162"
             transform="translate(161.05856,136.963)"
             d="m 5.140625,-0.21875 c -0.515625,0 -0.5625,-0.21875 -0.578125,-0.6875 L 4.375,-5.140625 H 4.15625 l -3,4.359375 c -0.34375,0.484375 -0.515625,0.5625 -0.765625,0.5625 L 0.359375,0 h 1.5 l 0.03125,-0.21875 c -0.28125,0 -0.4375,-0.046875 -0.4375,-0.234375 0,-0.109375 0.0625,-0.265625 0.1875,-0.453125 l 0.515625,-0.75 H 3.703125 L 3.75,-0.78125 c 0,0.515625 -0.21875,0.5625 -0.640625,0.5625 L 3.0625,0 H 5.09375 Z M 3.6875,-2 H 2.40625 l 1.203125,-1.75 z m 0,0"
             style="stroke:none;stroke-width:0"
             inkscape:connector-curvature="0" /></g><g
           id="g2168"
           style="fill:#000000;fill-opacity:1"><path
             id="path2166"
             transform="translate(166.701,134.224)"
             d="M 3.78125,-2.015625 H 2.5 l -0.40625,-1.09375 -0.390625,1.09375 h -1.28125 l 1.03125,0.65625 L 1.046875,-0.25 2.09375,-0.9375 3.140625,-0.25 2.75,-1.359375 Z m 0,0"
             style="stroke:none;stroke-width:0"
             inkscape:connector-curvature="0" /></g><g
           id="g2172"
           style="fill:#000000;fill-opacity:1"><path
             id="path2170"
             transform="translate(166.701,139.211)"
             d="M 3.84375,0 V -0.109375 C 3.4375,-0.140625 3.375,-0.203125 3.375,-0.59375 v -2.4375 c 0,-0.390625 0.046875,-0.453125 0.46875,-0.5 V -3.625 H 2.328125 v 0.09375 C 2.75,-3.484375 2.8125,-3.421875 2.8125,-3.03125 v 1.0625 H 1.140625 v -1.0625 c 0,-0.390625 0.0625,-0.453125 0.484375,-0.5 V -3.625 H 0.109375 v 0.09375 c 0.421875,0.046875 0.484375,0.109375 0.484375,0.5 v 2.375 c 0,0.453125 -0.0625,0.53125 -0.484375,0.546875 V 0 H 1.625 V -0.109375 C 1.21875,-0.140625 1.140625,-0.203125 1.140625,-0.59375 V -1.734375 H 2.8125 v 1.078125 c 0,0.453125 -0.0625,0.53125 -0.484375,0.546875 V 0 Z m 0,0"
             style="stroke:none;stroke-width:0"
             inkscape:connector-curvature="0" /></g></g></g><g
       id="g2356"
       ns1:jacobian_sqrt="1.8"
       inkscapeversion="0.92.4"
       ns1:alignment="middle center"
       ns1:scale="1.35"
       ns1:preamble="C:\\texlive\\texmf-local\\tex\\latex\\default_packages_guit.tex"
       ns1:text="$z_{\\mathrm{C},A_\\mathrm{H}^\\star}$"
       ns1:pdfconverter="pdf2svg"
       ns1:texconverter="pdflatex"
       ns1:version="0.11.0"
       transform="matrix(1.8,0,0,-1.8,85.039184,761.29171)"><g
         id="g2354"><g
           id="g2334"
           style="fill:#000000;fill-opacity:1"><path
             id="path2332"
             transform="translate(148.712,134.765)"
             d="m 4.453125,-4.5625 h -3.09375 l -0.4375,1.296875 H 1.125 c 0.25,-0.609375 0.484375,-0.625 0.84375,-0.625 h 1.625 L 0.15625,0 H 3.3125 L 3.765625,-1.328125 H 3.5625 c -0.234375,0.6875 -0.609375,0.6875 -0.984375,0.6875 H 1 Z m 0,0"
             style="stroke:none;stroke-width:0"
             inkscape:connector-curvature="0" /></g><g
           id="g2338"
           style="fill:#000000;fill-opacity:1"><path
             id="path2336"
             transform="translate(153.325,136.963)"
             d="m 4.40625,-0.78125 -0.125,-0.125 c -0.515625,0.484375 -0.96875,0.703125 -1.546875,0.703125 -0.421875,0 -0.796875,-0.125 -1.09375,-0.375 C 1.234375,-0.921875 1,-1.546875 1,-2.359375 c 0,-1.25 0.65625,-2.078125 1.65625,-2.078125 0.40625,0 0.765625,0.15625 1.046875,0.4375 0.21875,0.21875 0.328125,0.40625 0.453125,0.859375 h 0.171875 l -0.0625,-1.5625 h -0.15625 c -0.046875,0.140625 -0.15625,0.21875 -0.28125,0.21875 -0.078125,0 -0.171875,-0.015625 -0.28125,-0.0625 -0.34375,-0.109375 -0.6875,-0.15625 -1.03125,-0.15625 -0.53125,0 -1.078125,0.1875 -1.5,0.546875 -0.53125,0.4375 -0.828125,1.09375 -0.828125,1.890625 0,1.421875 0.9375,2.359375 2.328125,2.359375 0.78125,0 1.46875,-0.3125 1.890625,-0.875 z m 0,0"
             style="stroke:none;stroke-width:0"
             inkscape:connector-curvature="0" /></g><g
           id="g2344"
           style="fill:#000000;fill-opacity:1"><path
             id="path2340"
             transform="translate(157.977,136.963)"
             d="M 0.609375,1.140625 C 0.8125,1.09375 0.90625,1.046875 1.09375,0.9375 c 0.328125,-0.21875 0.5625,-0.53125 0.5625,-1.078125 0,-0.53125 -0.25,-0.765625 -0.578125,-0.765625 -0.296875,0 -0.484375,0.1875 -0.484375,0.46875 0,0.265625 0.1875,0.4375 0.4375,0.4375 0.078125,0 0.15625,-0.015625 0.234375,-0.0625 0.03125,-0.015625 0.03125,-0.015625 0.046875,-0.015625 0.03125,0 0.046875,0.0625 0.046875,0.140625 0,0.078125 0,0.578125 -0.75,0.859375 z m 0,0"
             style="stroke:none;stroke-width:0"
             inkscape:connector-curvature="0" /><path
             id="path2342"
             transform="translate(160.22256,136.963)"
             d="m 5.140625,-0.21875 c -0.515625,0 -0.5625,-0.21875 -0.578125,-0.6875 L 4.375,-5.140625 H 4.15625 l -3,4.359375 c -0.34375,0.484375 -0.515625,0.5625 -0.765625,0.5625 L 0.359375,0 h 1.5 l 0.03125,-0.21875 c -0.28125,0 -0.4375,-0.046875 -0.4375,-0.234375 0,-0.109375 0.0625,-0.265625 0.1875,-0.453125 l 0.515625,-0.75 H 3.703125 L 3.75,-0.78125 c 0,0.515625 -0.21875,0.5625 -0.640625,0.5625 L 3.0625,0 H 5.09375 Z M 3.6875,-2 H 2.40625 l 1.203125,-1.75 z m 0,0"
             style="stroke:none;stroke-width:0"
             inkscape:connector-curvature="0" /></g><g
           id="g2348"
           style="fill:#000000;fill-opacity:1"><path
             id="path2346"
             transform="translate(165.864,134.224)"
             d="M 3.78125,-2.015625 H 2.5 l -0.40625,-1.09375 -0.390625,1.09375 h -1.28125 l 1.03125,0.65625 L 1.046875,-0.25 2.09375,-0.9375 3.140625,-0.25 2.75,-1.359375 Z m 0,0"
             style="stroke:none;stroke-width:0"
             inkscape:connector-curvature="0" /></g><g
           id="g2352"
           style="fill:#000000;fill-opacity:1"><path
             id="path2350"
             transform="translate(165.864,139.211)"
             d="M 3.84375,0 V -0.109375 C 3.4375,-0.140625 3.375,-0.203125 3.375,-0.59375 v -2.4375 c 0,-0.390625 0.046875,-0.453125 0.46875,-0.5 V -3.625 H 2.328125 v 0.09375 C 2.75,-3.484375 2.8125,-3.421875 2.8125,-3.03125 v 1.0625 H 1.140625 v -1.0625 c 0,-0.390625 0.0625,-0.453125 0.484375,-0.5 V -3.625 H 0.109375 v 0.09375 c 0.421875,0.046875 0.484375,0.109375 0.484375,0.5 v 2.375 c 0,0.453125 -0.0625,0.53125 -0.484375,0.546875 V 0 H 1.625 V -0.109375 C 1.21875,-0.140625 1.140625,-0.203125 1.140625,-0.59375 V -1.734375 H 2.8125 v 1.078125 c 0,0.453125 -0.0625,0.53125 -0.484375,0.546875 V 0 Z m 0,0"
             style="stroke:none;stroke-width:0"
             inkscape:connector-curvature="0" /></g></g></g><path
       d="m 106.45548,813.02832 c -2.52666,-0.91666 -3.27545,-1.37917 -6.554664,-2.41424 -2.193571,-0.69237 -5.371504,-1.44324 -7.879079,-1.97819 2.470519,-0.62829 5.861874,-1.47111 7.879079,-1.96148 3.279214,-1.03508 4.028004,-1.49758 6.554664,-2.41424 l -2.71599,4.37572 2.71599,4.39243"
       style="fill:#000000;fill-opacity:1;fill-rule:nonzero;stroke:none;stroke-width:0.1393097"
       id="path2373"
       inkscape:connector-curvature="0" /><path
       d="M 96.582458,808.64424 H 445.42242"
       style="fill:none;stroke:#000000;stroke-width:1.07288945;stroke-linecap:butt;stroke-linejoin:miter;stroke-miterlimit:10;stroke-dasharray:none;stroke-opacity:1"
       id="path2375"
       inkscape:connector-curvature="0"
       sodipodi:nodetypes="cc" /><path
       d="m 434.39884,813.02832 c 2.52708,-0.91666 3.27517,-1.37917 6.55452,-2.41424 2.19413,-0.69237 5.37178,-1.44324 7.87936,-1.97819 -2.46996,-0.62829 -5.86215,-1.47111 -7.87936,-1.96148 -3.27935,-1.03508 -4.02744,-1.49758 -6.55452,-2.41424 l 2.71654,4.37572 -2.71654,4.39243"
       style="fill:#000000;fill-opacity:1;fill-rule:nonzero;stroke:none;stroke-width:0.1393097"
       id="path2377"
       inkscape:connector-curvature="0"
       sodipodi:nodetypes="ccccccc" /><path
       d="m 306.39938,808.64424 v 9.88588 h 55.20611 v -19.77176 h -55.20611"
       style="fill:#ffffff;fill-opacity:1;fill-rule:nonzero;stroke:none;stroke-width:0.14182256"
       id="path2379"
       inkscape:connector-curvature="0" /><path
       style="fill:none;stroke:#000000;stroke-width:1.34100008;stroke-linecap:round;stroke-linejoin:miter;stroke-miterlimit:4;stroke-dasharray:4.02300034, 4.02300034;stroke-dashoffset:0;stroke-opacity:1"
       d="M 448.8283,853.38558 V 733.09498"
       id="path2407"
       inkscape:connector-curvature="0"
       sodipodi:nodetypes="cc" /><g
       id="g2586"
       ns1:jacobian_sqrt="1.8"
       inkscapeversion="0.92.4"
       ns1:alignment="middle center"
       ns1:scale="1.35"
       ns1:preamble="C:\\texlive\\texmf-local\\tex\\latex\\default_packages_guit.tex"
       ns1:text="$x_{\\mathrm{C},A_\\mathrm{H}}$"
       ns1:pdfconverter="pdf2svg"
       ns1:texconverter="pdflatex"
       ns1:version="0.11.0"
       transform="matrix(1.8,0,0,-1.8,46.488547,1049.4862)"><g
         id="g2584"><g
           id="g2568"
           style="fill:#000000;fill-opacity:1"><path
             id="path2566"
             transform="translate(148.712,134.765)"
             d="m 5.15625,-4.171875 c 0,-0.265625 -0.234375,-0.390625 -0.421875,-0.390625 -0.5,0 -1.140625,0.75 -1.640625,1.546875 0,-0.015625 -0.078125,-0.34375 -0.078125,-0.34375 -0.15625,-0.65625 -0.34375,-1.03125 -0.6875,-1.203125 0,0 -1.125,0.25 -1.265625,0.28125 v 0.171875 c 0.203125,-0.046875 0.359375,-0.0625 0.46875,-0.0625 0.546875,0 0.640625,0.515625 1.015625,1.953125 C 2.09375,-1.546875 1.390625,-0.4375 1.109375,-0.4375 0.875,-0.4375 0.875,-0.671875 0.5625,-0.671875 c -0.21875,0 -0.359375,0.15625 -0.359375,0.359375 0,0.25 0.1875,0.4375 0.46875,0.4375 0.6875,0 1.34375,-1.25 1.953125,-2.03125 0.03125,0.078125 0.25,0.953125 0.25,0.953125 C 3.125,-0.03125 3.3125,0.125 3.5625,0.125 c 0.3125,0 0.78125,-0.3125 1.25,-1.1875 L 4.671875,-1.140625 c -0.171875,0.21875 -0.453125,0.6875 -0.703125,0.6875 -0.34375,0 -0.546875,-1.40625 -0.796875,-2.296875 0.0625,-0.078125 0.75,-1.203125 1.125,-1.203125 0.1875,0 0.359375,0.171875 0.53125,0.171875 0.25,0 0.328125,-0.203125 0.328125,-0.390625 z m 0,0"
             style="stroke:none;stroke-width:0"
             inkscape:connector-curvature="0" /></g><g
           id="g2572"
           style="fill:#000000;fill-opacity:1"><path
             id="path2570"
             transform="translate(154.162,136.259)"
             d="m 4.40625,-0.78125 -0.125,-0.125 c -0.515625,0.484375 -0.96875,0.703125 -1.546875,0.703125 -0.421875,0 -0.796875,-0.125 -1.09375,-0.375 C 1.234375,-0.921875 1,-1.546875 1,-2.359375 c 0,-1.25 0.65625,-2.078125 1.65625,-2.078125 0.40625,0 0.765625,0.15625 1.046875,0.4375 0.21875,0.21875 0.328125,0.40625 0.453125,0.859375 h 0.171875 l -0.0625,-1.5625 h -0.15625 c -0.046875,0.140625 -0.15625,0.21875 -0.28125,0.21875 -0.078125,0 -0.171875,-0.015625 -0.28125,-0.0625 -0.34375,-0.109375 -0.6875,-0.15625 -1.03125,-0.15625 -0.53125,0 -1.078125,0.1875 -1.5,0.546875 -0.53125,0.4375 -0.828125,1.09375 -0.828125,1.890625 0,1.421875 0.9375,2.359375 2.328125,2.359375 0.78125,0 1.46875,-0.3125 1.890625,-0.875 z m 0,0"
             style="stroke:none;stroke-width:0"
             inkscape:connector-curvature="0" /></g><g
           id="g2578"
           style="fill:#000000;fill-opacity:1"><path
             id="path2574"
             transform="translate(158.813,136.259)"
             d="M 0.609375,1.140625 C 0.8125,1.09375 0.90625,1.046875 1.09375,0.9375 c 0.328125,-0.21875 0.5625,-0.53125 0.5625,-1.078125 0,-0.53125 -0.25,-0.765625 -0.578125,-0.765625 -0.296875,0 -0.484375,0.1875 -0.484375,0.46875 0,0.265625 0.1875,0.4375 0.4375,0.4375 0.078125,0 0.15625,-0.015625 0.234375,-0.0625 0.03125,-0.015625 0.03125,-0.015625 0.046875,-0.015625 0.03125,0 0.046875,0.0625 0.046875,0.140625 0,0.078125 0,0.578125 -0.75,0.859375 z m 0,0"
             style="stroke:none;stroke-width:0"
             inkscape:connector-curvature="0" /><path
             id="path2576"
             transform="translate(161.05856,136.259)"
             d="m 5.140625,-0.21875 c -0.515625,0 -0.5625,-0.21875 -0.578125,-0.6875 L 4.375,-5.140625 H 4.15625 l -3,4.359375 c -0.34375,0.484375 -0.515625,0.5625 -0.765625,0.5625 L 0.359375,0 h 1.5 l 0.03125,-0.21875 c -0.28125,0 -0.4375,-0.046875 -0.4375,-0.234375 0,-0.109375 0.0625,-0.265625 0.1875,-0.453125 l 0.515625,-0.75 H 3.703125 L 3.75,-0.78125 c 0,0.515625 -0.21875,0.5625 -0.640625,0.5625 L 3.0625,0 H 5.09375 Z M 3.6875,-2 H 2.40625 l 1.203125,-1.75 z m 0,0"
             style="stroke:none;stroke-width:0"
             inkscape:connector-curvature="0" /></g><g
           id="g2582"
           style="fill:#000000;fill-opacity:1"><path
             id="path2580"
             transform="translate(166.701,137.305)"
             d="M 3.84375,0 V -0.109375 C 3.4375,-0.140625 3.375,-0.203125 3.375,-0.59375 v -2.4375 c 0,-0.390625 0.046875,-0.453125 0.46875,-0.5 V -3.625 H 2.328125 v 0.09375 C 2.75,-3.484375 2.8125,-3.421875 2.8125,-3.03125 v 1.0625 H 1.140625 v -1.0625 c 0,-0.390625 0.0625,-0.453125 0.484375,-0.5 V -3.625 H 0.109375 v 0.09375 c 0.421875,0.046875 0.484375,0.109375 0.484375,0.5 v 2.375 c 0,0.453125 -0.0625,0.53125 -0.484375,0.546875 V 0 H 1.625 V -0.109375 C 1.21875,-0.140625 1.140625,-0.203125 1.140625,-0.59375 V -1.734375 H 2.8125 v 1.078125 c 0,0.453125 -0.0625,0.53125 -0.484375,0.546875 V 0 Z m 0,0"
             style="stroke:none;stroke-width:0"
             inkscape:connector-curvature="0" /></g></g></g><g
       id="g2791"
       ns1:jacobian_sqrt="1.8"
       inkscapeversion="0.92.4"
       ns1:alignment="middle center"
       ns1:scale="1.35"
       ns1:preamble="C:\\texlive\\texmf-local\\tex\\latex\\default_packages_guit.tex"
       ns1:text="$i_\\mathrm{H}$"
       ns1:pdfconverter="pdf2svg"
       ns1:texconverter="pdflatex"
       ns1:version="0.11.0"
       transform="matrix(1.8,0,0,-1.8,318.79927,777.28356)"><g
         id="g2789"><g
           id="g2783"
           style="fill:#000000;fill-opacity:1"><path
             id="path2781"
             transform="translate(148.712,134.765)"
             d="m 2.65625,-6.09375 c 0,-0.234375 -0.203125,-0.515625 -0.515625,-0.515625 -0.25,0 -0.46875,0.203125 -0.46875,0.515625 0,0.3125 0.21875,0.515625 0.484375,0.515625 0.296875,0 0.5,-0.28125 0.5,-0.515625 z m -0.390625,5.0625 -0.125,-0.109375 C 1.75,-0.5625 1.453125,-0.375 1.34375,-0.375 c -0.125,0 -0.15625,-0.078125 -0.15625,-0.1875 0,-0.125 0.046875,-0.3125 0.09375,-0.46875 L 2.25,-4.5625 c 0,0 -1.359375,0.265625 -1.65625,0.296875 v 0.15625 c 0.375,0 0.65625,-0.03125 0.65625,0.375 0,0.1875 -0.109375,0.5625 -0.171875,0.8125 0,0 -0.65625,2.09375 -0.65625,2.5 0,0.203125 0.0625,0.546875 0.421875,0.546875 0.484375,0 1.015625,-0.5 1.421875,-1.15625 z m 0,0"
             style="stroke:none;stroke-width:0"
             inkscape:connector-curvature="0" /></g><g
           id="g2787"
           style="fill:#000000;fill-opacity:1"><path
             id="path2785"
             transform="translate(151.781,136.259)"
             d="M 4.890625,0 V -0.125 C 4.375,-0.171875 4.28125,-0.265625 4.28125,-0.765625 v -3.09375 c 0,-0.5 0.078125,-0.578125 0.609375,-0.625 v -0.125 h -1.9375 v 0.125 c 0.53125,0.046875 0.609375,0.125 0.609375,0.625 V -2.5 H 1.453125 v -1.359375 c 0,-0.5 0.078125,-0.578125 0.609375,-0.625 v -0.125 H 0.125 v 0.125 c 0.546875,0.046875 0.625,0.125 0.625,0.625 V -0.84375 C 0.75,-0.25 0.671875,-0.171875 0.125,-0.125 V 0 H 2.0625 V -0.125 C 1.546875,-0.171875 1.453125,-0.265625 1.453125,-0.765625 V -2.1875 H 3.5625 v 1.34375 C 3.5625,-0.25 3.5,-0.171875 2.953125,-0.125 V 0 Z m 0,0"
             style="stroke:none;stroke-width:0"
             inkscape:connector-curvature="0" /></g></g></g><g
       id="g3001"
       ns1:jacobian_sqrt="1.8"
       inkscapeversion="0.92.4"
       ns1:alignment="middle center"
       ns1:scale="1.35"
       ns1:preamble="C:\\texlive\\texmf-local\\tex\\latex\\default_packages_guit.tex"
       ns1:text="$(&lt;0)$"
       ns1:pdfconverter="pdf2svg"
       ns1:texconverter="pdflatex"
       ns1:version="0.11.0"
       transform="matrix(1.1748692,0,0,-1.1748692,423.73979,630.96459)"
       style="stroke:none;stroke-opacity:1;fill:#1f22af;fill-opacity:1"><g
         id="g2999"
         style="stroke:none;stroke-opacity:1;fill:#1f22af;fill-opacity:1"><g
           id="g2991"
           style="fill:#1f22af;fill-opacity:1;stroke:none;stroke-opacity:1"><path
             id="path2987"
             transform="translate(148.712,134.765)"
             d="m 3.5625,2.140625 v -0.1875 C 2.359375,1.25 1.796875,-0.15625 1.796875,-2.515625 c 0,-2.34375 0.546875,-3.71875 1.765625,-4.46875 v -0.15625 c -1.71875,0.875 -2.71875,2.578125 -2.71875,4.625 0,2.09375 0.96875,3.6875 2.71875,4.65625 z m 0,0"
             style="stroke:none;stroke-width:0;stroke-opacity:1;fill:#1f22af;fill-opacity:1"
             inkscape:connector-curvature="0" /><path
             id="path2989"
             transform="translate(152.42805,134.765)"
             d="M 6.671875,-0.046875 V -0.5 L 2,-2.515625 6.671875,-4.53125 V -5 L 0.84375,-2.546875 v 0.0625 z m 0,0"
             style="stroke:none;stroke-width:0;stroke-opacity:1;fill:#1f22af;fill-opacity:1"
             inkscape:connector-curvature="0" /></g><g
           id="g2997"
           style="fill:#1f22af;fill-opacity:1;stroke:none;stroke-opacity:1"><path
             id="path2993"
             transform="translate(162.70945,134.765)"
             d="M 4.703125,-3.296875 C 4.703125,-5.0625 3.890625,-6.6875 2.5,-6.6875 c -1.40625,0 -2.21875,1.625 -2.21875,3.390625 0,1.828125 0.765625,3.421875 2.21875,3.421875 1.34375,0 2.203125,-1.59375 2.203125,-3.421875 z m -0.953125,0 c 0,1.46875 -0.125,3.140625 -1.25,3.140625 -1.046875,0 -1.265625,-1.671875 -1.265625,-3.140625 0,-1.1875 0.140625,-3.125 1.265625,-3.125 1.109375,0 1.25,1.9375 1.25,3.125 z m 0,0"
             style="stroke:none;stroke-width:0;stroke-opacity:1;fill:#1f22af;fill-opacity:1"
             inkscape:connector-curvature="0" /><path
             id="path2995"
             transform="translate(167.69075,134.765)"
             d="m 2.875,-2.5 c 0,-2.078125 -0.96875,-3.6875 -2.71875,-4.640625 v 0.171875 c 1.203125,0.703125 1.765625,2.109375 1.765625,4.46875 0,2.34375 -0.546875,3.734375 -1.765625,4.46875 V 2.140625 C 1.875,1.265625 2.875,-0.4375 2.875,-2.5 Z m 0,0"
             style="stroke:none;stroke-width:0;stroke-opacity:1;fill:#1f22af;fill-opacity:1"
             inkscape:connector-curvature="0" /></g></g></g><g
       id="g3221"
       ns1:jacobian_sqrt="1.8"
       inkscapeversion="0.92.4"
       ns1:alignment="middle center"
       ns1:scale="1.35"
       ns1:preamble="C:\\texlive\\texmf-local\\tex\\latex\\default_packages_guit.tex"
       ns1:text="$b_\\mathrm{H}$"
       ns1:pdfconverter="pdf2svg"
       ns1:texconverter="pdflatex"
       ns1:version="0.11.0"
       transform="matrix(1.8,0,0,-1.8,312.13204,970.22293)"><g
         id="g3219"><g
           id="g3213"
           style="fill:#000000;fill-opacity:1"><path
             id="path3211"
             transform="translate(148.712,134.765)"
             d="m 4.703125,-3.265625 c 0,-0.90625 -0.59375,-1.296875 -1.203125,-1.296875 -0.828125,0 -1.453125,0.78125 -1.734375,1.1875 l 1.03125,-3.765625 c 0,0 -1.34375,0.234375 -1.609375,0.25 v 0.1875 c 0.390625,0 0.640625,0.03125 0.640625,0.34375 0,0.1875 -0.09375,0.578125 -0.15625,0.8125 l -1.4375,5.09375 C 0.34375,-0.265625 1,0.125 1.640625,0.125 c 1.890625,0 3.0625,-1.875 3.0625,-3.390625 z m -0.828125,0.25 c 0,1.765625 -1.140625,2.921875 -2.171875,2.921875 -0.3125,0 -0.59375,-0.109375 -0.75,-0.3125 0.21875,-0.875 0.90625,-3.6875 2.203125,-3.6875 0.65625,0 0.71875,0.5625 0.71875,1.078125 z m 0,0"
             style="stroke:none;stroke-width:0"
             inkscape:connector-curvature="0" /></g><g
           id="g3217"
           style="fill:#000000;fill-opacity:1"><path
             id="path3215"
             transform="translate(153.724,136.259)"
             d="M 4.890625,0 V -0.125 C 4.375,-0.171875 4.28125,-0.265625 4.28125,-0.765625 v -3.09375 c 0,-0.5 0.078125,-0.578125 0.609375,-0.625 v -0.125 h -1.9375 v 0.125 c 0.53125,0.046875 0.609375,0.125 0.609375,0.625 V -2.5 H 1.453125 v -1.359375 c 0,-0.5 0.078125,-0.578125 0.609375,-0.625 v -0.125 H 0.125 v 0.125 c 0.546875,0.046875 0.625,0.125 0.625,0.625 V -0.84375 C 0.75,-0.25 0.671875,-0.171875 0.125,-0.125 V 0 H 2.0625 V -0.125 C 1.546875,-0.171875 1.453125,-0.265625 1.453125,-0.765625 V -2.1875 H 3.5625 v 1.34375 C 3.5625,-0.25 3.5,-0.171875 2.953125,-0.125 V 0 Z m 0,0"
             style="stroke:none;stroke-width:0"
             inkscape:connector-curvature="0" /></g></g></g><path
       sodipodi:nodetypes="cc"
       inkscape:connector-curvature="0"
       id="path3231"
       d="M 537.71555,853.49981 V 733.20921"
       style="fill:none;stroke:#000000;stroke-width:1.34100008;stroke-linecap:round;stroke-linejoin:miter;stroke-miterlimit:4;stroke-dasharray:4.02300034, 4.02300034;stroke-dashoffset:0;stroke-opacity:1" /><path
       sodipodi:nodetypes="cc"
       inkscape:connector-curvature="0"
       id="path3233"
       style="fill:none;stroke:#000000;stroke-width:1.07288945;stroke-linecap:butt;stroke-linejoin:miter;stroke-miterlimit:10;stroke-dasharray:none;stroke-opacity:1"
       d="m 452.53712,844.03954 h 83.33995" /><path
       sodipodi:nodetypes="ccccccc"
       inkscape:connector-curvature="0"
       id="path3235"
       style="fill:#000000;fill-opacity:1;fill-rule:nonzero;stroke:none;stroke-width:0.1393097"
       d="m 523.95224,848.42362 c 2.52708,-0.91666 3.27517,-1.37917 6.55452,-2.41424 2.19413,-0.69237 5.37178,-1.44324 7.87936,-1.97819 -2.46996,-0.62829 -5.86215,-1.47111 -7.87936,-1.96148 -3.27935,-1.03508 -4.02744,-1.49758 -6.55452,-2.41424 l 2.71654,4.37572 -2.71654,4.39243" /><path
       d="m 462.59161,848.42362 c -2.52708,-0.91666 -3.27517,-1.37917 -6.55452,-2.41424 -2.19413,-0.69237 -5.37178,-1.44324 -7.87936,-1.97819 2.46996,-0.62829 5.86215,-1.47111 7.87936,-1.96148 3.27935,-1.03508 4.02744,-1.49758 6.55452,-2.41424 l -2.71654,4.37572 2.71654,4.39243"
       style="fill:#000000;fill-opacity:1;fill-rule:nonzero;stroke:none;stroke-width:0.1393097"
       id="path3237"
       inkscape:connector-curvature="0"
       sodipodi:nodetypes="ccccccc" /><g
       id="g3473"
       ns1:jacobian_sqrt="1.8"
       inkscapeversion="0.92.4"
       ns1:alignment="middle center"
       ns1:scale="1.35"
       ns1:preamble="C:\\texlive\\texmf-local\\tex\\latex\\default_packages_guit.tex"
       ns1:text="$c_\\mathrm{r,H}$"
       ns1:pdfconverter="pdf2svg"
       ns1:texconverter="pdflatex"
       ns1:version="0.11.0"
       transform="matrix(1.8,0,0,-1.8,213.70218,1096.9781)"><g
         id="g3471"><g
           id="g3457"
           style="fill:#000000;fill-opacity:1"><path
             id="path3455"
             transform="translate(148.712,134.765)"
             d="m 4.171875,-3.765625 c 0,-0.375 -0.296875,-0.796875 -0.984375,-0.796875 -1.46875,0 -2.875,1.671875 -2.875,3.140625 0,1.046875 0.65625,1.546875 1.40625,1.546875 0.9375,0 1.5625,-0.65625 1.9375,-1.125 L 3.5,-1.109375 c -0.265625,0.328125 -0.765625,0.84375 -1.421875,0.84375 -0.578125,0 -0.90625,-0.46875 -0.90625,-1.21875 0,-0.953125 0.734375,-2.875 2.015625,-2.875 0.1875,0 0.375,0.09375 0.375,0.265625 0,0.171875 -0.25,0.28125 -0.25,0.5625 0,0.21875 0.140625,0.359375 0.359375,0.359375 0.3125,0 0.5,-0.28125 0.5,-0.59375 z m 0,0"
             style="stroke:none;stroke-width:0"
             inkscape:connector-curvature="0" /></g><g
           id="g3461"
           style="fill:#000000;fill-opacity:1"><path
             id="path3459"
             transform="translate(153.176,136.259)"
             d="m 2.328125,-2.84375 c 0,-0.21875 -0.140625,-0.359375 -0.375,-0.359375 -0.296875,0 -0.5,0.15625 -0.84375,0.65625 V -3.1875 l -0.03125,-0.015625 c -0.375,0.15625 -0.625,0.234375 -1.03125,0.375 v 0.109375 c 0.09375,-0.015625 0.15625,-0.03125 0.25,-0.03125 0.171875,0 0.234375,0.109375 0.234375,0.421875 v 1.75 c 0,0.34375 -0.046875,0.390625 -0.5,0.46875 V 0 H 1.703125 V -0.109375 C 1.234375,-0.125 1.109375,-0.234375 1.109375,-0.625 v -1.5625 c 0,-0.234375 0.3125,-0.578125 0.5,-0.578125 0.03125,0 0.09375,0.03125 0.171875,0.109375 0.109375,0.09375 0.1875,0.140625 0.28125,0.140625 0.171875,0 0.265625,-0.125 0.265625,-0.328125 z m 0,0"
             style="stroke:none;stroke-width:0"
             inkscape:connector-curvature="0" /></g><g
           id="g3465"
           style="fill:#000000;fill-opacity:1"><path
             id="path3463"
             transform="translate(155.512,136.259)"
             d="M 0.609375,1.140625 C 0.8125,1.09375 0.90625,1.046875 1.09375,0.9375 c 0.328125,-0.21875 0.5625,-0.53125 0.5625,-1.078125 0,-0.53125 -0.25,-0.765625 -0.578125,-0.765625 -0.296875,0 -0.484375,0.1875 -0.484375,0.46875 0,0.265625 0.1875,0.4375 0.4375,0.4375 0.078125,0 0.15625,-0.015625 0.234375,-0.0625 0.03125,-0.015625 0.03125,-0.015625 0.046875,-0.015625 0.03125,0 0.046875,0.0625 0.046875,0.140625 0,0.078125 0,0.578125 -0.75,0.859375 z m 0,0"
             style="stroke:none;stroke-width:0"
             inkscape:connector-curvature="0" /></g><g
           id="g3469"
           style="fill:#000000;fill-opacity:1"><path
             id="path3467"
             transform="translate(157.757,136.259)"
             d="M 4.890625,0 V -0.125 C 4.375,-0.171875 4.28125,-0.265625 4.28125,-0.765625 v -3.09375 c 0,-0.5 0.078125,-0.578125 0.609375,-0.625 v -0.125 h -1.9375 v 0.125 c 0.53125,0.046875 0.609375,0.125 0.609375,0.625 V -2.5 H 1.453125 v -1.359375 c 0,-0.5 0.078125,-0.578125 0.609375,-0.625 v -0.125 H 0.125 v 0.125 c 0.546875,0.046875 0.625,0.125 0.625,0.625 V -0.84375 C 0.75,-0.25 0.671875,-0.171875 0.125,-0.125 V 0 H 2.0625 V -0.125 C 1.546875,-0.171875 1.453125,-0.265625 1.453125,-0.765625 V -2.1875 H 3.5625 v 1.34375 C 3.5625,-0.25 3.5,-0.171875 2.953125,-0.125 V 0 Z m 0,0"
             style="stroke:none;stroke-width:0"
             inkscape:connector-curvature="0" /></g></g></g></g></svg>